<?xml version="1.0" encoding="UTF-8"?>
<svg width="800px" height="727px" viewBox="0 0 800 727" version="1.1" xmlns="http://www.w3.org/2000/svg" xmlns:xlink="http://www.w3.org/1999/xlink">
    <title>be_patient</title>
    <g id="Change-everything!" stroke="none" stroke-width="1" fill="none" fill-rule="evenodd">
        <g id="be_patient" transform="translate(-100.000000, -144.000000)">
            <g transform="translate(100.000000, 144.000000)">
                <g id="Element">
                    <path d="M158.725924,319.111113 C158.725924,327.217073 152.156902,333.787843 144.053098,333.787843 C135.949837,333.787843 129.380272,327.217073 129.380272,319.111113 C129.380272,311.005697 135.949837,304.434384 144.053098,304.434384 C152.156902,304.434384 158.725924,311.005697 158.725924,319.111113" id="Shape" fill="#1D65CE"></path>
                    <path d="M182.735815,294.77388 C178.881467,294.77388 175.745598,297.910584 175.745598,301.765957 C175.745598,305.621874 178.881467,308.758578 182.735815,308.758578 C186.590163,308.758578 189.726033,305.621874 189.726033,301.765957 C189.726033,297.910584 186.590163,294.77388 182.735815,294.77388 M182.735815,312.563937 C176.783641,312.563937 171.94125,307.719714 171.94125,301.765957 C171.94125,295.8122 176.783641,290.968521 182.735815,290.968521 C188.687989,290.968521 193.53038,295.8122 193.53038,301.765957 C193.53038,307.719714 188.687989,312.563937 182.735815,312.563937" id="Shape" fill="#FFD772"></path>
                    <path d="M42.233913,426.417965 C37.8888043,426.417965 34.3540217,429.953688 34.3540217,434.299953 C34.3540217,438.645674 37.8888043,442.181397 42.233913,442.181397 C46.5784783,442.181397 50.1132609,438.645674 50.1132609,434.299953 C50.1132609,429.953688 46.5784783,426.417965 42.233913,426.417965 M42.233913,445.986756 C35.7915217,445.986756 30.5496739,440.744602 30.5496739,434.299953 C30.5496739,427.856391 35.7915217,422.612606 42.233913,422.612606 C48.6763043,422.612606 53.9176087,427.856391 53.9176087,434.299953 C53.9176087,440.744602 48.6763043,445.986756 42.233913,445.986756" id="Shape" fill="#FFD772"></path>
                    <path d="M345.024565,3.91071392 C338.472935,3.91071392 333.143043,9.24202301 333.143043,15.7953962 C333.143043,22.3482258 338.472935,27.6795349 345.024565,27.6795349 C351.575652,27.6795349 356.905543,22.3482258 356.905543,15.7953962 C356.905543,9.24202301 351.575652,3.91071392 345.024565,3.91071392 M345.024565,31.4848947 C336.375109,31.4848947 329.338696,24.44661 329.338696,15.7953962 C329.338696,7.14363889 336.375109,0.105354104 345.024565,0.105354104 C353.673478,0.105354104 360.709891,7.14363889 360.709891,15.7953962 C360.709891,24.44661 353.673478,31.4848947 345.024565,31.4848947" id="Shape" fill="#FFD772"></path>
                    <path d="M387.708587,29.9778092 C384.249348,29.9778092 381.434674,32.7932318 381.434674,36.2533911 C381.434674,39.7140941 384.249348,42.5289731 387.708587,42.5289731 C391.16837,42.5289731 393.9825,39.7140941 393.9825,36.2533911 C393.9825,32.7932318 391.16837,29.9778092 387.708587,29.9778092 M387.708587,46.8779557 C381.852065,46.8779557 377.086848,42.1120144 377.086848,36.2533911 C377.086848,30.3953115 381.852065,25.6288265 387.708587,25.6288265 C393.565652,25.6288265 398.330326,30.3953115 398.330326,36.2533911 C398.330326,42.1120144 393.565652,46.8779557 387.708587,46.8779557" id="Shape" fill="#EB7D7D"></path>
                    <path d="M574.451739,79.7893711 C565.598478,79.7893711 558.395761,86.9940045 558.395761,95.8490768 C558.395761,104.704693 565.598478,111.909326 574.451739,111.909326 C583.304457,111.909326 590.507174,104.704693 590.507174,95.8490768 C590.507174,86.9940045 583.304457,79.7893711 574.451739,79.7893711 M574.451739,116.258309 C563.201739,116.258309 554.047935,107.103157 554.047935,95.8490768 C554.047935,84.5955406 563.201739,75.4403885 574.451739,75.4403885 C585.702283,75.4403885 594.855,84.5955406 594.855,95.8490768 C594.855,107.103157 585.702283,116.258309 574.451739,116.258309" id="Shape" fill="#EB7D7D"></path>
                    <path d="M619.35875,59.3801936 C619.35875,65.029522 614.779946,69.6090007 609.133207,69.6090007 C603.484293,69.6090007 598.906033,65.029522 598.906033,59.3801936 C598.906033,53.7308651 603.484293,49.1513864 609.133207,49.1513864 C614.779946,49.1513864 619.35875,53.7308651 619.35875,59.3801936" id="Shape" fill="#1D65CE"></path>
                    <path d="M687.386957,334.801047 C683.286957,334.801047 679.95163,338.13726 679.95163,342.237807 C679.95163,346.338898 683.286957,349.675111 687.386957,349.675111 C691.486413,349.675111 694.822283,346.338898 694.822283,342.237807 C694.822283,338.13726 691.486413,334.801047 687.386957,334.801047 M687.386957,353.480471 C681.190217,353.480471 676.147283,348.436738 676.147283,342.237807 C676.147283,336.038876 681.190217,330.995687 687.386957,330.995687 C693.583696,330.995687 698.62663,336.038876 698.62663,342.237807 C698.62663,348.436738 693.583696,353.480471 687.386957,353.480471" id="Shape" fill="#FFD772"></path>
                    <path d="M762.083913,462.269456 C753.72087,462.269456 746.918152,469.075614 746.918152,477.439795 C746.918152,485.805063 753.72087,492.610677 762.083913,492.610677 C770.4475,492.610677 777.250217,485.805063 777.250217,477.439795 C777.250217,469.075614 770.4475,462.269456 762.083913,462.269456 M762.083913,496.95966 C751.323587,496.95966 742.570326,488.202983 742.570326,477.439795 C742.570326,466.676607 751.323587,457.920474 762.083913,457.920474 C772.844239,457.920474 781.598043,466.676607 781.598043,477.439795 C781.598043,488.202983 772.844239,496.95966 762.083913,496.95966" id="Shape" fill="#EB7D7D"></path>
                    <path d="M297.330924,75.0255499 C296.247772,75.0255499 295.310815,74.2171827 295.176033,73.1147156 C295.169511,73.0641587 294.47712,67.7072993 291.759728,62.4863457 C288.319511,55.8764357 283.324946,52.5250009 276.915163,52.5250009 L276.88038,52.5250009 C269.904293,52.5380479 266.216793,57.0104329 261.946685,62.1895276 C257.012989,68.1731841 251.421141,74.9554225 239.873859,74.9554225 C231.447772,74.9554225 227.373859,68.8026993 223.779837,63.3740818 C220.085815,57.7948807 216.596685,52.5250009 208.747772,52.5250009 C201.732554,52.5250009 196.172772,55.913402 192.223315,62.5950703 C189.14125,67.8095004 188.22875,73.1505947 188.220054,73.2038698 C188.023859,74.3878803 186.904293,75.189724 185.722228,74.995107 C184.538533,74.7999464 183.736359,73.6844324 183.929293,72.5004218 C183.969511,72.2547043 184.95212,66.4080408 188.409728,60.5021224 C193.13038,52.4385649 200.162989,48.1760183 208.747772,48.1760183 C218.932011,48.1760183 223.433098,54.9745654 227.404837,60.9723561 C230.82712,66.1416656 233.783098,70.6064399 239.873859,70.6064399 C249.371141,70.6064399 253.850489,65.1734733 258.59288,59.4219438 C263.144511,53.9014539 267.851033,48.1928706 276.871685,48.1760183 L276.91462,48.1760183 C292.409728,48.1760183 298.458098,64.1384155 299.49125,72.5868579 C299.637446,73.7790227 298.78962,74.8635503 297.597772,75.0092412 C297.508098,75.0201137 297.418967,75.0255499 297.330924,75.0255499" id="Shape" fill="#EB7D7D"></path>
                    <path d="M777.392554,564.507188 L777.34962,564.507188 C768.457772,564.490336 763.792011,558.832853 759.279511,553.359659 C754.495272,547.557029 749.977337,542.076767 740.352337,542.076767 C734.114837,542.076767 731.121359,546.598078 727.655054,551.833166 C723.721902,557.773332 719.263207,564.507188 709.225163,564.507188 C688.842011,564.507188 684.71538,540.651388 684.675163,540.410563 C684.506685,539.374418 685.209402,538.395897 686.246359,538.226286 C687.284946,538.055045 688.260489,538.761211 688.430598,539.7979 C688.576793,540.683462 692.103424,560.701829 709.225163,560.701829 C717.219728,560.701829 720.747989,555.372694 724.483315,549.730976 C728.214837,544.097413 732.070815,538.271407 740.352337,538.271407 C751.769728,538.271407 757.318641,545.000914 762.214293,550.938363 C766.528424,556.170189 770.25288,560.689325 777.357772,560.701829 L777.391467,560.701829 C793.148533,560.701829 795.816467,540.722059 795.923533,539.871833 C796.052337,538.830251 796.997989,538.091468 798.043641,538.217588 C799.085489,538.34534 799.82625,539.292874 799.698533,540.334999 C799.669185,540.576912 796.518098,564.505014 777.392554,564.507188" id="Shape" fill="#1D65CE"></path>
                    <path d="M698.853043,102.495192 L698.817717,102.495192 C691.142174,102.481058 687.142174,97.6303113 683.274239,92.9393899 C679.262826,88.0745092 675.474239,83.4792654 667.451413,83.4792654 C662.318804,83.4792654 659.821522,87.2514643 656.928043,91.6200173 C653.553043,96.7175686 649.7275,102.495192 641.061739,102.495192 C623.537826,102.495192 619.995978,82.029967 619.96337,81.8233903 C619.793261,80.7861579 620.496522,79.8081805 621.533478,79.6391138 C622.570435,79.4673289 623.547065,80.1724078 623.71663,81.2074656 C623.835652,81.921786 626.785109,98.6898322 641.061739,98.6898322 C647.685109,98.6898322 650.633478,94.2348431 653.756304,89.5183715 C656.812826,84.9041009 660.276413,79.6739056 667.451413,79.6739056 C677.267717,79.6739056 682.018261,85.4352204 686.209022,90.5180938 C689.819891,94.8969757 692.937826,98.6789598 698.824239,98.6898322 L698.853587,98.6898322 C704.26337,98.6898322 708.47913,95.8602754 711.385109,90.2794434 C713.684022,85.8619643 714.270435,81.3286935 714.276413,81.2835728 C714.406304,80.2419915 715.347065,79.5004899 716.397609,79.6298722 C717.438913,79.7587108 718.180761,80.7057018 718.051957,81.7478267 C717.174239,88.9279971 712.030761,102.495192 698.853043,102.495192" id="Shape" fill="#FFD772"></path>
                    <path d="M96.916413,521.1761 C95.8707609,521.1761 94.9484783,520.418833 94.7740217,519.353333 C94.7566304,519.25385 93.9821739,514.799404 91.4126087,510.458576 C88.1283696,504.911992 83.5136957,502.099831 77.6973913,502.099831 C71.2207609,502.099831 68.4441304,506.293338 65.2294565,511.14952 C62.1359783,515.820871 58.63,521.116301 51.3088043,521.116301 C41.3631522,521.116301 36.5696739,515.302255 32.3403261,510.173174 C28.7734783,505.847023 25.6930435,502.110704 19.9348913,502.099831 L19.9071739,502.099831 C7.00065217,502.099831 4.77402174,519.093481 4.75228261,519.264722 C4.60663043,520.457431 3.52076087,521.30059 2.33054348,521.159791 C1.13923913,521.013557 0.290869565,519.929029 0.437065217,518.737408 C1.32565217,511.474063 6.53815217,497.750849 19.906087,497.750849 L19.9425,497.750849 C27.7463043,497.765526 31.7870652,502.666286 35.6946739,507.40559 C39.6636957,512.219914 43.4131522,516.767319 51.3088043,516.767319 C56.053913,516.767319 58.3120652,513.719769 61.6044565,508.747795 C65.0175,503.593163 68.8854348,497.750849 77.6973913,497.750849 C91.9011957,497.750849 97.8854348,511.422419 99.0647826,518.650428 C99.2582609,519.83607 98.4544565,520.953758 97.2691304,521.147288 C97.1506522,521.166315 97.0327174,521.1761 96.916413,521.1761" id="Shape" fill="#EB7D7D"></path>
                    <path d="M197.128967,255.605964 L91.3289674,255.605964 C73.8333152,255.605964 59.6507065,241.419039 59.6507065,223.919277 L59.6507065,168.237621 C59.6507065,150.737315 73.8333152,136.550933 91.3289674,136.550933 L197.128967,136.550933 C214.62462,136.550933 228.807772,150.737315 228.807772,168.237621 L228.807772,223.919277 C228.807772,241.419039 214.62462,255.605964 197.128967,255.605964" id="Shape" fill="#EB7D7D"></path>
                    <path d="M136.365272,229.716742 C133.79625,229.716742 131.367989,228.483262 129.852772,226.404448 L101.447337,187.428322 C99.1489674,184.274223 99.8419022,179.853482 102.995163,177.554501 C106.148424,175.254976 110.567446,175.948639 112.865815,179.102195 L136.238641,211.173224 L171.876685,159.71443 C174.098967,156.505969 178.500054,155.706843 181.708207,157.929173 C184.915815,160.152047 185.714728,164.554848 183.492446,167.76331 L142.989728,226.245711 C141.507663,228.386497 139.067446,229.684125 136.463098,229.715655 C136.430489,229.716742 136.39788,229.716742 136.365272,229.716742" id="Shape" fill="#1D65CE"></path>
                    <path d="M107.149891,177.831042 C106.039565,177.831042 104.919457,178.169719 103.955326,178.872623 C102.7825,179.727742 102.012391,180.988947 101.787391,182.423568 C101.562935,183.857645 101.909674,185.29444 102.765109,186.467578 L131.17,225.443704 C132.375978,227.097948 134.317826,228.085711 136.365109,228.085711 L136.436304,228.085711 C138.520543,228.059617 140.466739,227.025646 141.649348,225.317583 L182.152609,166.834639 C183.85913,164.370397 183.242826,160.977103 180.779783,159.269584 C178.316196,157.563695 174.923261,158.17962 173.217283,160.643319 L136.272717,213.98794 L111.548261,180.062614 C110.486304,178.605161 108.828696,177.831042 107.149891,177.831042 L107.149891,177.831042 Z M136.365109,231.347448 C133.279783,231.347448 130.352609,229.859008 128.535217,227.36541 L100.129783,188.388741 C98.7618478,186.511611 98.206413,184.213717 98.5661957,181.918542 C98.9259783,179.622823 100.1575,177.604895 102.034674,176.236596 C105.908587,173.411388 111.35913,174.265963 114.183587,178.14145 L136.204783,208.358182 L170.536304,158.78576 C173.266739,154.84395 178.695,153.858362 182.636304,156.588436 C186.577609,159.320141 187.562935,164.749846 184.833043,168.691655 L144.330326,227.174599 C142.547174,229.749197 139.613478,231.308851 136.4825,231.34636 L136.365109,231.347448 Z" id="Border" fill="#000000"></path>
                    <path d="M690.534239,256.120938 L584.734239,256.120938 C567.23913,256.120938 553.055435,241.934013 553.055435,224.433707 L553.055435,168.752595 C553.055435,151.252289 567.23913,137.065364 584.734239,137.065364 L690.534239,137.065364 C708.029891,137.065364 722.213043,151.252289 722.213043,168.752595 L722.213043,224.433707 C722.213043,241.934013 708.029891,256.120938 690.534239,256.120938" id="Shape" fill="#EB7D7D"></path>
                    <path d="M679.731576,220.980289 L649.344076,195.529499 C649.027772,195.264211 649.027228,194.777668 649.343533,194.511837 L677.868533,170.554378 C680.713641,168.166243 681.08212,163.923267 678.694076,161.079033 C676.306576,158.233167 672.065815,157.864047 669.220707,160.252726 L638.670707,185.910636 C638.437011,186.107428 638.095707,186.107971 637.86038,185.91118 L607.379402,160.382108 C604.540272,158.004302 600.24462,158.185872 597.815815,160.982268 C595.342989,163.829764 595.69462,168.140149 598.573967,170.55166 L627.150054,194.485743 C627.492446,194.772776 627.492446,195.299002 627.150598,195.586035 L596.779402,221.093906 C593.935924,223.482584 593.565815,227.725017 595.954402,230.569795 C596.877228,231.669544 598.076685,232.399086 599.365815,232.742656 C601.412554,233.288453 603.68212,232.861166 605.427228,231.395558 L637.776685,204.22692 C638.066359,203.983377 638.489185,203.982834 638.779402,204.226377 L670.941902,231.163431 C673.75712,233.521124 678.001685,233.351513 680.440272,230.606218 C681.443533,229.474939 681.995707,228.10664 682.115272,226.716053 C682.29462,224.605166 681.478315,222.443721 679.731576,220.980289" id="Shape" fill="#1D65CE"></path>
                    <path d="M602.845326,160.358895 C601.417609,160.358895 600.021413,160.930787 599.0475,162.051737 C598.142609,163.093318 597.703478,164.423563 597.812174,165.796755 C597.921413,167.171577 598.563804,168.415929 599.620326,169.301491 L628.196413,193.235573 C628.730652,193.682431 629.03663,194.337497 629.037174,195.033878 C629.037717,195.730258 628.732283,196.386955 628.19913,196.8349 L597.828478,222.34277 C596.78663,223.218003 596.146957,224.446591 596.029022,225.802386 C595.910543,227.158181 596.327391,228.479185 597.202391,229.52131 C597.879565,230.328046 598.773043,230.897219 599.785543,231.166856 C601.392065,231.596318 603.10837,231.213608 604.379022,230.146476 L636.728478,202.977838 C637.624674,202.224377 638.929022,202.223833 639.826304,202.975663 L671.989348,229.913262 C674.165978,231.736573 677.41,231.560983 679.220326,229.522941 C679.957826,228.693372 680.39587,227.674623 680.489891,226.577049 C680.631196,224.921174 679.957283,223.296285 678.685,222.230784 L648.2975,196.779994 C647.776304,196.342378 647.476304,195.70199 647.476304,195.021374 C647.475761,194.341302 647.77413,193.700371 648.294783,193.262754 L676.820326,169.30584 C677.862174,168.430607 678.501304,167.20202 678.619783,165.846224 C678.738261,164.490429 678.320326,163.169425 677.446413,162.1273 C676.570326,161.084632 675.343152,160.445875 673.987174,160.327909 C672.63337,160.209943 671.312174,160.626358 670.269783,161.502134 L639.719783,187.159501 C638.877935,187.866211 637.656196,187.866754 636.813804,187.161675 L606.332826,161.632604 C605.313261,160.778572 604.068152,160.358895 602.845326,160.358895 M601.098587,234.600922 C600.379565,234.600922 599.656196,234.507962 598.945326,234.318781 C597.282826,233.875185 595.815435,232.941785 594.704565,231.618607 C593.270326,229.908913 592.58663,227.74312 592.780109,225.519159 C592.97413,223.295198 594.0225,221.279988 595.731196,219.844824 L625.268696,195.037139 L597.527935,171.802156 C595.793696,170.350139 594.740435,168.308836 594.562174,166.054432 C594.383913,163.801659 595.101848,161.6201 596.585,159.912581 C599.551304,156.498086 604.863261,156.146906 608.426848,159.131939 L638.264348,184.12228 L668.1725,159.003644 C669.882283,157.569023 672.048043,156.885689 674.27087,157.078132 C676.494239,157.272205 678.508913,158.32031 679.942609,160.030547 C681.377935,161.739154 682.062174,163.905491 681.867609,166.128908 C681.67413,168.353413 680.626304,170.368079 678.917609,171.803787 L651.274674,195.0192 L680.778478,219.730119 C682.863261,221.477323 683.97087,224.140531 683.739891,226.854296 C683.585543,228.658037 682.865435,230.329677 681.659457,231.688734 C678.689348,235.034189 673.412174,235.358732 669.895326,232.413927 L638.279022,205.934059 L606.476304,232.644423 C604.955109,233.921937 603.043152,234.600922 601.098587,234.600922" id="Border" fill="#000000"></path>
                </g>
                <polygon id="Shape" fill="#FFFFFF" points="454.271357 627.618405 430.933767 638.190955 419.248788 622.787741 413.256325 614.879676 411.055276 611.978467 411.782486 611.582848 438.772845 596.984925 444.864032 609.02105"></polygon>
                <polygon id="Shadow" fill="#D0ABB1" style="mix-blend-mode: multiply;" points="444.221106 609.17423 418.540967 623.115578 412.53132 615.107417 411.055276 611.768631 438.114642 596.984925"></polygon>
                <path d="M413.787152,613.206513 L431.644762,636.50731 L452.067742,627.353039 L438.163618,600.158847 L413.787152,613.206513 Z M430.443475,641.20603 L408.040201,611.974968 L439.800297,594.974874 L457.286432,629.174362 L430.443475,641.20603 Z" id="Border" fill="#000000"></path>
                <g id="Character" transform="translate(97.487437, 113.567839)">
                    <path d="M289.990726,501.047476 C289.990726,501.047476 306.225589,494.933128 315.401815,497.050594 C324.578041,499.165887 320.107391,505.51557 320.107391,505.51557 C320.107391,505.51557 303.248236,581.378056 279.358724,587.015757 C263.02217,590.871329 254.402259,583.897711 254.402259,583.897711 L289.990726,501.047476 Z" id="Shape" fill="#1D65CE"></path>
                    <path d="M261.655851,576.604299 C261.655851,576.604299 276.89935,581.620239 283.591458,576.047214 C290.284111,570.473102 292.085749,560.368394 292.085749,560.368394 L300.799738,561.044505 C300.799738,561.044505 298.091571,567.128418 295.860868,572.702529 C293.630165,578.276098 283.034055,587.937855 277.085332,588.866693 C271.13661,589.79553 257.565866,585.151343 257.565866,585.151343 L261.655851,576.604299 Z" id="Shadow" fill="#D0ABB1" style="mix-blend-mode: multiply;"></path>
                    <path d="M256.777235,583.191001 C259.509873,584.775297 266.944281,587.989542 278.921665,585.163898 C285.278244,583.663844 295.29248,575.217347 306.904425,543.497739 C313.979919,524.168789 318.207487,505.290942 318.249904,505.102349 L318.332019,504.73114 L318.551174,504.419716 C318.555524,504.414281 319.680664,502.705524 319.150995,501.351671 C318.6235,500.002167 316.588025,499.276054 314.974001,498.902671 C307.539593,497.187936 294.64861,501.423413 291.412949,502.558236 L256.777235,583.191001 Z M269.810152,590.085812 C259.179781,590.085812 253.503507,585.617718 253.204956,585.376405 L252.085254,584.470395 L288.561217,499.552151 L289.31983,499.266815 C290.004485,499.009197 306.203456,492.976373 315.829412,495.196017 C319.497945,496.0417 321.814025,497.660236 322.711853,500.005428 C323.750528,502.720199 322.462789,505.310508 321.890159,506.259455 C321.287075,508.891071 317.122045,526.659639 310.478879,544.80485 C300.689236,571.547651 290.366117,586.372636 279.796653,588.866203 C276.092773,589.740691 272.760314,590.085812 269.810152,590.085812 L269.810152,590.085812 Z" id="Border" fill="#000000"></path>
                    <path d="M295.957721,568.220413 C297.614705,568.819891 298.87906,570.310162 299.097672,572.177619 C299.406555,574.811409 297.520627,577.19682 294.885874,577.50444 C294.281159,577.575638 288.777272,578.126745 281.984015,575.670135 C279.489021,574.768473 278.198019,572.016201 279.100198,569.523177 C280.00292,567.030697 282.756223,565.740977 285.251217,566.641553 C289.899149,568.322047 293.731368,567.973122 293.768347,567.968774 C294.53403,567.879097 295.278504,567.974752 295.957721,568.220413" id="Shape" fill="#FFFFFF"></path>
                    <path d="M283.620335,568.257045 C282.433201,568.257045 281.316761,568.992397 280.890416,570.1707 C280.346607,571.672928 281.127516,573.338748 282.631147,573.882245 C289.009478,576.186675 294.104421,575.680136 294.665631,575.614916 C296.252465,575.42904 297.393375,573.986597 297.207393,572.39904 C297.079054,571.302262 296.351982,570.385382 295.310588,570.009281 C294.886418,569.855472 294.441038,569.806557 293.98859,569.857645 C293.972275,569.859276 289.75504,570.292987 284.604085,568.429877 C284.279431,568.313569 283.947164,568.257045 283.620335,568.257045 M292.789492,579.504185 C290.301567,579.504185 286.099558,579.181347 281.336339,577.459003 C277.859226,576.201893 276.053238,572.351756 277.310523,568.876089 C278.568353,565.399878 282.421237,563.593835 285.898349,564.852576 C290.072624,566.360782 293.541035,566.078706 293.586171,566.074902 C294.61832,565.963485 295.653732,566.087946 296.604309,566.430893 L296.605397,566.43198 C299.011206,567.301033 300.691031,569.418499 300.98795,571.957177 C301.418647,575.628503 298.780087,578.963948 295.107748,579.393855 C294.886961,579.419399 294.062548,579.504185 292.789492,579.504185" id="Border" fill="#000000"></path>
                    <path d="M301.719754,550.86349 C303.376738,551.463512 304.641093,552.953239 304.859161,554.82124 C305.168588,557.45503 303.283203,559.839897 300.648451,560.14806 C300.043192,560.218715 294.539848,560.770365 287.746048,558.313756 C285.251054,557.412093 283.960596,554.659821 284.862774,552.166254 C285.764953,549.674318 288.5188,548.384054 291.01325,549.285173 C295.661726,550.965124 299.493945,550.616742 299.53038,550.611851 C300.296063,550.522717 301.040537,550.618373 301.719754,550.86349" id="Shape" fill="#FFFFFF"></path>
                    <path d="M289.382368,550.901209 C288.195233,550.901209 287.079338,551.636018 286.652448,552.814321 C286.389245,553.541521 286.425136,554.328505 286.754141,555.029617 C287.082601,555.730729 287.66502,556.261726 288.393724,556.525866 C294.773142,558.830296 299.867541,558.323756 300.427664,558.258536 C302.014498,558.07266 303.155408,556.629674 302.969426,555.042118 C302.840543,553.945339 302.114015,553.028459 301.073165,552.652358 C300.648451,552.499092 300.203615,552.446916 299.75171,552.501266 C299.708749,552.506158 295.492057,552.927368 290.366117,551.073498 C290.041464,550.957189 289.709197,550.901209 289.382368,550.901209 M298.552612,562.147806 C296.064688,562.147806 291.862135,561.824968 287.098915,560.102624 C285.414196,559.49445 284.067726,558.265602 283.307482,556.643805 C282.546693,555.023095 282.463491,553.202922 283.072556,551.519709 C284.330929,548.043499 288.182182,546.236912 291.660382,547.496196 C295.836288,549.005489 299.317207,548.720153 299.352011,548.717979 C300.353162,548.601127 301.381505,548.718523 302.366342,549.074514 L302.366342,549.075057 C304.773239,549.94411 306.453064,552.061033 306.749983,554.59971 C307.18068,558.271037 304.54212,561.606482 300.870324,562.037475 C300.649538,562.06302 299.825124,562.147806 298.552612,562.147806" id="Border" fill="#000000"></path>
                    <path d="M252.569624,585.586847 C251.430345,585.586847 250.274752,585.310751 249.203449,584.729208 C245.772017,582.867729 244.500049,578.577902 246.362593,575.148975 L272.582325,527.604346 C274.445413,524.175963 278.736607,522.903635 282.168039,524.766202 C285.599472,526.628224 286.87144,530.916964 285.008352,534.346434 L258.789164,581.89052 C257.50795,584.248756 255.078214,585.586847 252.569624,585.586847" id="Shape" fill="#FFFFFF"></path>
                    <path d="M247.244379,571.54988 C247.244379,571.54988 251.761797,580.929562 260.41216,577.075077 C260.41216,577.075077 257.301031,585.315588 255.305254,585.929197 C253.31002,586.542805 247.664199,586.028657 246.896341,582.039927 C246.129027,578.051198 247.244379,571.54988 247.244379,571.54988" id="Shadow" fill="#D0ABB1" style="mix-blend-mode: multiply;"></path>
                    <path d="M278.80442,525.81325 C276.96961,525.81325 275.190268,526.791002 274.254917,528.512802 L248.029747,576.067215 C247.377177,577.268344 247.230348,578.664046 247.622434,579.98692 C248.01452,581.308706 248.898209,582.399506 250.110903,583.057138 C250.86734,583.467478 251.717313,583.684334 252.569461,583.684334 C254.468985,583.684334 256.211348,582.649514 257.116789,580.983151 L283.341415,533.428195 C283.993986,532.227065 284.140814,530.83082 283.748728,529.50849 C283.356642,528.18616 282.472953,527.095361 281.26026,526.437729 C280.479351,526.0138 279.635903,525.81325 278.80442,525.81325 M252.569461,587.488817 C251.084864,587.488817 249.606792,587.112717 248.294582,586.401279 C246.188955,585.258303 244.653783,583.364214 243.972935,581.067393 C243.292086,578.770572 243.546589,576.347116 244.690218,574.241063 L270.915389,526.686107 C273.271711,522.35117 278.728831,520.736438 283.076581,523.094131 C285.182751,524.23765 286.717379,526.131196 287.398771,528.42856 C288.07962,530.724294 287.824573,533.148837 286.681488,535.253804 L260.456318,582.808759 C258.889605,585.692014 255.865485,587.488817 252.569461,587.488817" id="Border" fill="#000000"></path>
                    <path d="M220.648222,135.008996 C219.0516,115.29362 227.75852,91.5172289 230.318771,79.2939672 C232.878478,67.071249 240.678869,10.5279295 276.679542,3.39669714 C308.250351,-2.85733009 333.84851,11.9247185 348.353517,51.4364527 C362.859068,90.9487304 361.437552,98.3397546 367.125246,113.404965 C373.458985,130.179476 377.365162,146.948009 356.885874,163.15076 C338.212574,177.925743 224.629989,184.185749 220.648222,135.008996" id="Shape" fill="#FFD772"></path>
                    <path d="M285.226528,0.296151859 C284.176977,0.921174133 283.013227,1.67120086 281.746153,2.56253698 C280.740107,3.27451887 277.6007,3.78866763 276.485892,4.69087369 C273.614039,7.01758705 271.79228,15.0542865 263.725967,21.137112 C253.98853,28.479765 248.958844,37.7420516 248.674976,48.7957064 C248.266032,64.7441008 241.83332,69.9763525 240.664131,95.3783447 C238.673792,138.61032 250.493472,157.85068 264.724943,168.405404 C266.095341,169.416309 267.465739,170.33482 268.82526,171.166372 C270.549133,172.209887 272.245816,173.112093 273.893556,173.889295 C262.865118,172.307717 252.967801,169.726103 244.946624,166.242283 C228.659556,159.160509 219.849857,148.703615 218.751363,135.165089 C217.522356,119.990635 222.253491,102.506316 225.706676,89.7449918 C226.848674,85.5165802 227.832967,81.8697111 228.452909,78.9022141 C228.654118,77.9673982 228.87708,76.7662684 229.148984,75.3423046 C230.818477,66.537643 233.923624,50.1457545 240.873498,34.8191213 C249.563559,15.6662648 261.489282,4.46477868 276.308067,1.52989148 C279.347957,0.932044086 282.32259,0.518985887 285.226528,0.296151859" id="Shadow" fill="#D0ABB1" style="mix-blend-mode: multiply;"></path>
                    <path d="M309.540211,171.693782 C293.361905,172.400329 277.863359,171.226374 264.724943,168.405621 C257.927336,166.949048 251.765984,165.057676 246.469832,162.753246 C231.568932,156.274754 223.520565,146.88855 222.547148,134.855512 C221.372521,120.344126 226.000332,103.229385 229.377384,90.7343749 C230.535696,86.4570485 231.536848,82.7612647 232.183436,79.6850681 C232.379207,78.7285122 232.613589,77.5002076 232.890387,76.0545039 C234.527795,67.4020216 237.578018,51.2981869 244.342997,36.3900469 C252.495231,18.4220152 263.501374,7.94881589 277.047646,5.2639376 C277.553388,5.16610802 278.05913,5.06827845 278.559434,4.98131883 C293.497857,2.33448537 306.718388,4.6443503 317.882779,11.8511289 C329.98252,19.6666248 339.635123,33.2051508 346.568683,52.0916934 C355.362068,76.0436339 358.319843,88.3375503 360.484745,97.3106962 C361.931276,103.32178 363.078168,108.071949 365.34585,114.077598 C371.463697,130.290132 375.335614,146.127653 355.704667,161.660816 C349.385611,166.660994 330.400165,170.786141 309.540211,171.693782 M368.907797,112.735159 C366.721142,106.952344 365.601984,102.305439 364.187538,96.4193601 C362.001971,87.3538196 359.011024,74.9403338 350.140962,50.7818641 C342.913745,31.1018149 332.754856,16.9273967 319.949251,8.65536281 C309.823535,2.11708632 298.175155,-0.6764915 285.227072,0.296369258 C282.32259,0.519203286 279.347957,0.932261485 276.308067,1.53010888 C261.489282,4.46499608 249.563559,15.6664822 240.873498,34.8193387 C233.923624,50.1459719 230.818477,66.5378604 229.148984,75.342522 C228.87708,76.7664858 228.654118,77.9676156 228.452909,78.9024315 C227.832967,81.8699285 226.848674,85.5167976 225.706676,89.7452092 C222.253491,102.506534 217.5229,119.990852 218.751363,135.165306 C219.849857,148.703832 228.6601,159.160727 244.946624,166.242501 C252.967801,169.72632 262.865118,172.307934 273.893556,173.889512 C282.20839,175.079772 291.170356,175.699359 300.447731,175.699359 C303.503391,175.699359 306.592768,175.63414 309.703897,175.498265 C331.978298,174.525405 350.962113,170.264383 358.069691,164.644618 C379.697503,147.529877 375.281777,129.616195 368.907797,112.735159" id="Border" fill="#000000"></path>
                    <path d="M338.518744,62.4988034 C338.526352,60.523733 331.428018,59.5785906 328.019969,58.2644134 C327.94438,57.770374 327.868247,57.2747042 327.781781,56.7877303 C327.782869,56.7822953 327.782869,56.7822953 327.782869,56.7768604 C327.053621,56.5061985 326.359722,56.2094488 325.697907,55.8871547 C320.296799,53.2767356 316.999144,49.0477806 314.931584,43.4763864 C310.608849,31.8199927 284.879089,22.9968522 284.879089,22.9968522 C284.68658,23.0430495 274.780019,21.3853817 274.99156,21.2745082 C270.841757,25.4023727 263.703725,30.2449366 259.07102,39.671903 C257.570652,42.7252726 257.718568,54.2447049 257.011073,57.7665695 C256.997477,57.8258108 256.98932,57.8855955 256.976269,57.9448368 C256.323698,61.207453 255.90986,64.5950738 255.759225,68.0810676 C254.576441,95.4260638 269.954261,118.302423 290.106177,119.173106 C314.125116,120.210643 326.348302,100.592009 328.480031,75.099796 C334.211774,73.7638788 338.495355,68.6408701 338.518744,62.4988034" id="Shape" fill="#FFFFFF"></path>
                    <path d="M277.704023,46.7572642 C276.73115,46.7572642 275.901298,46.0159334 275.811026,45.0283982 C275.714771,43.9827088 276.485348,43.0565888 277.532724,42.9609332 L282.609721,42.4956992 C283.65329,42.4022176 284.582658,43.1701798 284.678369,44.2164127 C284.774623,45.2626457 284.003502,46.1882221 282.956671,46.2838777 L277.879674,46.7491117 C277.820942,46.7545467 277.762211,46.7572642 277.704023,46.7572642" id="Border" fill="#000000"></path>
                    <path d="M303.781386,46.4215457 C303.707428,46.4215457 303.632927,46.4171977 303.556793,46.4085017 L298.659797,45.8329377 C297.615141,45.7101073 296.868491,44.7649649 296.991392,43.7214494 C297.113749,42.677934 298.062695,41.9322552 299.103545,42.0539987 L304.001085,42.6295627 C305.045198,42.7523932 305.791847,43.6975356 305.670034,44.741051 C305.556378,45.7090203 304.733051,46.4215457 303.781386,46.4215457" id="Border" fill="#000000"></path>
                    <path d="M291.423009,58.0510362 C285.64178,58.0510362 281.040072,57.1765485 280.725206,57.1151333 C279.693602,56.9140392 279.020366,55.9161775 279.221032,54.8851625 C279.421697,53.8541475 280.425024,53.1807539 281.452279,53.3807611 C281.571373,53.403588 293.482956,55.6574726 302.490602,52.7557388 C303.490666,52.4329012 304.564144,52.9823773 304.886079,53.982413 C305.208558,54.9824486 304.658767,56.0542259 303.658703,56.37652 C299.672586,57.6608049 295.284594,58.0510362 291.423009,58.0510362" id="Border" fill="#000000"></path>
                    <path d="M283.051293,117.338421 L276.487523,117.104717 C265.50259,110.854494 257.334584,97.8322909 254.707989,82.0273798 C254.495903,80.7610303 254.370827,79.924044 254.300132,79.3370665 C247.350258,77.8261431 242.271086,71.4835258 242.591933,64.1463078 C242.901904,56.9069193 248.361742,51.0860597 255.278988,50.0588492 C255.18654,37.7540629 259.585952,30.9277326 268.515289,24.4872857 C271.011371,22.6828736 272.97452,20.4980131 274.497184,18.3185876 L279.221249,21.7089258 C279.221249,21.7089258 277.748072,23.6079066 277.541425,23.9068303 C275.170419,27.3689102 263.469833,43.0961011 265.780476,73.8080651 C267.443443,95.9153747 279.157624,110.767534 281.936486,115.523139 C282.637999,116.724269 283.051293,117.338421 283.051293,117.338421" id="Shadow" fill="#D0ABB1" style="mix-blend-mode: multiply;"></path>
                    <path d="M253.896735,71.3797177 C253.381748,71.3797177 252.868937,71.1721016 252.493165,70.7633914 C250.503913,68.5953794 249.681131,66.3289943 250.047114,64.0267383 C250.661074,60.1657311 254.406827,57.9536958 254.832086,57.7140133 C255.74786,57.1982341 256.908891,57.5221587 257.424965,58.4368652 C257.939952,59.3499412 257.618561,60.5070476 256.707682,61.0244574 C255.990942,61.4375156 254.07456,62.8891978 253.804831,64.6365426 C253.635707,65.7311469 254.138186,66.9273852 255.299217,68.1915606 C256.009431,68.9660448 255.957226,70.1693485 255.182842,70.8796999 C254.817403,71.2144945 254.356253,71.3797177 253.896735,71.3797177" id="Border" fill="#000000"></path>
                    <path d="M330.552812,72.3260558 C330.552812,72.3260558 328.665796,73.2989166 326.708629,73.4782708 C326.300773,73.5163156 325.892916,73.5489255 325.47364,73.5489255 C324.424089,73.5380555 323.57031,74.3913468 323.559977,75.4402972 C323.559977,76.4892477 324.407775,77.3479739 325.463307,77.3479739 C325.767297,77.3479739 326.066391,77.337104 326.372012,77.320799 C323.548557,103.321726 310.307362,118.142906 290.186443,117.27331 C287.320028,117.148305 284.55748,116.550458 281.936866,115.523247 C270.212353,110.957867 261.260719,97.9954489 258.481857,81.7666096 C258.373639,81.1089775 258.231705,80.1687266 258.041372,79.2936954 C258.492733,78.9675968 258.792372,78.4512741 258.819019,77.8534267 C258.867961,76.8044763 258.052249,75.9185751 257.002698,75.8696604 C256.76886,75.8587904 256.540461,75.8316155 256.312061,75.8044406 C255.556167,75.6957411 254.740454,75.5381268 254.740454,75.5381268 C249.759167,74.2663424 246.164592,69.6411775 246.392992,64.3094658 C246.659458,58.2005524 251.847936,53.4449481 257.959801,53.705827 C259.009352,53.7547418 259.89576,52.9394953 259.944702,51.8905449 C259.971893,51.2003029 259.623855,50.5861506 259.090923,50.2274422 C258.949533,38.9553013 262.712688,33.3627107 270.745285,27.574461 C272.92052,26.0037528 274.72542,24.2047757 276.23177,22.3623187 C276.748932,22.514498 277.580416,22.7645069 277.580416,22.7645069 C277.634797,22.7862468 279.086765,23.1340853 280.642058,23.5036637 C282.268046,23.894982 284.013671,24.3134752 284.394338,24.4167397 C289.419129,25.8026587 306.391396,31.2539399 311.57933,44.2000535 C314.412573,51.2763926 318.262738,56.9831177 325.556299,59.9995296 C325.822221,60.1082291 326.094125,60.2114936 326.36603,60.3147582 C327.012618,60.5647671 327.682047,60.7876011 328.361807,60.9941302 C328.405312,61.0104352 328.448273,61.0213051 328.491778,61.0321751 C328.894196,62.2333048 328.840903,64.0105421 326.969114,66.2714922 C326.294791,67.0813037 326.414973,68.2824334 327.224704,68.9509355 C327.556427,69.2226843 327.947969,69.3694287 328.350387,69.3857336 C328.921386,69.4074735 329.503262,69.1737696 329.900786,68.6954916 C331.999343,66.1627927 332.597533,63.8801026 332.499647,61.9887309 C333.05977,62.0974304 333.614455,62.1789551 334.152825,62.2604797 C335.012043,62.3800492 335.833194,62.4724438 336.611384,62.5322285 C336.578212,66.8095549 334.121284,70.4999038 330.552812,72.3260558 M345.045312,60.4778075 C344.93655,59.434292 344.001199,58.6733953 342.958174,58.7820949 C342.929896,58.7875298 341.787898,58.8962294 339.982454,58.8744895 C338.87961,58.8690545 337.520088,58.8147047 336.012651,58.6570904 C335.98546,58.6570904 335.963708,58.6462205 335.936517,58.6462205 C334.756453,58.521216 333.484484,58.3309918 332.168468,58.053808 C331.792696,57.9722834 331.406592,57.8798888 331.020488,57.7820592 C330.846469,57.7440144 330.677888,57.6950996 330.503869,57.6516198 C330.265138,57.5864001 330.025318,57.5211804 329.786042,57.4505257 C329.085073,57.2439966 328.411294,57.0211626 327.753286,56.7765886 C327.610808,56.7276738 327.474856,56.6733241 327.345429,56.6244093 C327.045791,56.5048398 324.570918,55.3417549 324.076052,55.0428312 C319.589631,52.3851278 317.393188,48.0969315 315.27179,43.2761075 C310.07298,31.460469 298.212514,25.0091521 289.98469,22.1612246 L289.979252,22.1612246 C288.434835,21.6285969 287.097066,21.2209737 286.080144,20.9329199 C285.829992,20.8622652 278.918185,19.2045975 278.788215,19.1719876 C278.706099,19.1556827 278.624528,19.1502477 278.538063,19.1448127 C281.75741,14.0522399 282.845027,9.41077016 282.915178,9.11184647 C283.143578,8.08463595 282.501884,7.06829538 281.479523,6.84002637 C280.451725,6.60632239 279.434803,7.2476496 279.200965,8.26942514 C279.185195,8.34007983 278.010024,13.3076482 274.497021,18.3186963 C272.974357,20.4981218 271.011208,22.6829823 268.515126,24.4873944 C259.585789,30.9278413 255.186377,37.7541716 255.278825,50.0589579 C248.361579,51.0861684 242.901741,56.907028 242.59177,64.1464165 C242.270923,71.4836345 247.350095,77.8262518 254.299969,79.3371752 C254.370664,79.9241527 254.49574,80.761139 254.707826,82.0274885 C257.334421,97.8323996 265.502426,110.854603 276.48736,117.104826 C280.647496,119.474475 285.204612,120.865829 290.022757,121.072358 C302.475974,121.610421 312.824652,116.746117 319.948544,106.990335 C325.511706,99.3704979 329.035586,88.9299084 330.237403,76.5762073 C336.077908,74.6250508 340.319615,69.1520297 340.422939,62.6844079 C342.146812,62.6844079 343.239867,62.5757083 343.348629,62.5648384 C344.392741,62.4561389 345.155161,61.5267579 345.045312,60.4778075" id="Border" fill="#000000"></path>
                    <path d="M527.788551,427.665785 C525.591021,399.114224 502.042476,381.238587 484.521507,370.277326 C470.906171,361.759088 452.722298,352.591913 430.474544,343.028529 C396.37285,328.370942 357.584614,314.667192 352.070938,312.756798 C351.659275,312.614402 351.231842,312.54266 350.796251,312.54103 L304.030342,312.358414 L304.034149,312.307326 L248.791895,312.307326 C248.349235,312.307326 247.910925,312.381241 247.492192,312.526899 C242.182989,314.381856 206.78268,327.033394 172.783766,341.646958 C150.535468,351.210342 132.351052,360.377517 118.736259,368.895212 C101.21529,379.857016 77.6667455,397.732653 75.469215,426.284757 C74.3620206,440.670596 79.2040925,454.664029 89.8611098,467.877 C94.9848745,474.229401 101.666651,480.708436 110.28928,487.684228 C122.119293,497.256852 138.243218,508.220286 158.213501,520.269628 C184.880788,536.360419 211.339252,550.171781 220.743334,554.996409 C222.696151,555.998075 225.091084,555.217069 226.077009,553.256673 L261.881368,482.144357 C262.855873,480.208961 262.092366,477.851269 260.16402,476.858842 C252.656199,472.994574 234.012808,463.24477 214.055576,451.6324 C204.357293,445.98872 196.282279,441.038 189.573313,436.729151 C186.963575,435.054091 187.217534,431.166996 190.019779,429.839775 C197.746756,426.179319 207.177485,422.000365 218.65239,417.305089 C243.435924,407.161793 285.250455,398.033207 295.706807,395.808128 C296.235933,395.69508 296.780286,395.692363 297.311043,395.799975 C313.902643,399.164225 361.346138,409.167299 384.60592,418.68666 C396.081913,423.381936 405.51101,427.56089 413.237987,431.221346 C416.04132,432.548567 416.295279,436.435662 413.686085,438.110722 C406.976031,442.419571 398.901017,447.370835 389.202734,453.013971 C369.247677,464.625254 350.607005,474.373971 343.100815,478.238239 C341.17247,479.230122 340.408419,481.587271 341.382924,483.522667 L377.181301,554.638244 C378.167226,556.599184 380.562703,557.38019 382.514432,556.37798 C391.918514,551.553895 418.37861,537.74199 445.045896,521.651199 C465.014004,509.601857 481.139017,498.638423 492.970117,489.065799 C501.591115,482.090007 508.272892,475.610972 513.396656,469.258571 C524.054218,456.046144 528.895746,442.05271 527.788551,427.665785" id="Shape" fill="#EB7D7D"></path>
                    <path d="M350.02687,496.460682 C349.417805,496.857435 348.884329,497.210709 348.423179,497.509632 C347.682512,497.993345 347.138703,498.346619 346.818943,498.558583 L339.683087,484.37873 C338.247976,481.525367 339.38508,478.008937 342.228111,476.546929 C349.384632,472.862015 368.194972,463.035578 388.245196,451.372119 C397.213687,446.149106 405.430092,441.148928 412.657308,436.512893 C413.57145,435.925916 413.614955,435.02371 413.593203,434.659566 C413.57145,434.300858 413.408308,433.409522 412.422926,432.942114 C404.037398,428.969146 394.433738,424.762475 383.884394,420.447103 C364.410064,412.479428 327.583345,404.087825 305.907134,399.522445 L297.310608,395.799486 L300.415755,394.495092 L319.20543,389.394366 C319.20543,389.394366 435.622346,407.895569 435.622346,432.443727 C435.622346,464.835098 367.199803,485.161366 350.02687,496.460682" id="Shadow" fill="#D0ABB1" style="mix-blend-mode: multiply;"></path>
                    <path d="M271.479209,310.405084 C270.402468,310.905102 269.037509,311.546972 267.416959,312.307326 C266.209704,312.872563 264.85562,313.508455 263.376461,314.209567 C226.005933,331.884654 104.889424,383.814222 104.889424,428.377223 C104.889424,475.470749 207.016137,521.651743 231.123172,539.011057 C231.683295,539.41868 232.205352,539.794781 232.683903,540.130662 C233.276655,540.560025 233.798711,540.935039 234.250072,541.250267 L227.77875,554.109421 C227.071798,555.51708 225.859105,556.560596 224.358193,557.044308 C222.868158,557.533456 221.274799,557.408452 219.871772,556.686143 C209.865694,551.554982 183.730252,537.892539 157.230459,521.896317 C137.185673,509.803494 120.991053,498.792232 109.092521,489.161454 C100.364392,482.10142 93.5885371,475.530534 88.3788507,469.068347 C77.410231,455.470036 72.4235061,441.023869 73.5709422,426.137469 C75.8331861,396.728813 99.8532123,378.461857 117.728201,367.282111 C131.421302,358.717132 149.693271,349.504303 172.032929,339.901244 C208.631248,324.166444 246.491204,310.861622 246.866432,310.731726 C247.480935,310.513783 248.133506,310.405084 248.791514,310.405084 L271.479209,310.405084 Z" id="Shadow" fill="#D0ABB1" style="mix-blend-mode: multiply;"></path>
                    <path d="M511.912983,468.062931 C506.877316,474.313154 500.286355,480.699251 491.770313,487.585366 C480.007732,497.107444 463.95559,508.015442 444.061983,520.021304 C417.660619,535.956655 391.617081,549.57127 381.643631,554.685583 C381.154747,554.935592 380.599519,554.979072 380.077462,554.810588 C379.555406,554.642103 379.125797,554.27796 378.881083,553.783377 L350.027686,496.460682 L343.082163,482.666712 C342.581859,481.666676 342.979927,480.438372 343.974553,479.927484 C351.158264,476.2317 370.038755,466.367218 390.159674,454.660279 C399.181459,449.410092 407.442455,444.382739 414.712633,439.708659 C416.530041,438.545575 417.529561,436.567243 417.388715,434.414993 C417.252763,432.262742 416.007441,430.42572 414.055168,429.501774 C405.603838,425.501631 395.940359,421.267785 385.325759,416.925239 C365.01777,408.61516 326.344821,399.910502 304.851874,395.41469 L318.766848,391.827605 C319.784858,391.565639 320.397186,390.528646 320.135615,389.511218 C319.872411,388.493791 318.834281,387.880182 317.816271,388.144322 L295.303138,393.947246 C279.887796,397.231059 241.501433,405.898759 217.930049,415.544755 C207.325781,419.881866 197.656864,424.115712 189.206622,428.12129 C187.253806,429.045236 186.008484,430.882258 185.867094,433.034509 C185.731142,435.186759 186.731749,437.165091 188.542632,438.328175 C195.818791,443.002255 204.079244,448.029608 213.095591,453.27436 C233.222491,464.986734 252.10842,474.851216 259.292132,478.552435 C260.287846,479.063323 260.684826,480.291627 260.17854,481.291663 L231.122846,539.011111 L224.379619,552.402893 C224.129467,552.892041 223.705841,553.256184 223.183784,553.430104 C222.661728,553.598588 222.101061,553.555108 221.611634,553.305099 C211.643622,548.190786 185.600628,534.570736 159.19872,518.64082 C139.301306,506.634958 123.25297,495.721525 111.484952,486.204882 C102.968909,479.313332 96.3839309,472.93267 91.3422813,466.682447 C80.9995854,453.861338 76.3005352,440.317377 77.3664001,426.431012 C79.4981298,398.734373 102.572473,381.250054 119.745949,370.510541 C133.275363,362.042848 151.373314,352.922958 173.533514,343.395444 C210.012196,327.715538 247.747075,314.454196 248.122303,314.323756 C248.334932,314.247667 248.562788,314.209622 248.791188,314.209622 L301.997422,314.209622 L301.991984,314.253102 L350.787931,314.443326 C351.016874,314.443326 351.239292,314.481371 351.445939,314.552025 C351.859777,314.69877 392.95485,328.971017 429.72175,344.775928 C451.881951,354.303442 469.980445,363.423332 483.510404,371.891025 C500.684423,382.630538 523.757135,400.120292 525.888865,427.811496 C526.960168,441.697861 522.256767,455.241822 511.912983,468.062931 M529.685193,427.518008 C527.422949,398.109351 503.403466,379.84783 485.532828,368.662649 C471.834833,360.097127 453.567758,350.884842 431.228644,341.281239 C394.336124,325.421978 353.105099,311.100815 352.697243,310.959506 C352.088721,310.747542 351.451921,310.638842 350.804245,310.638842 L306.070549,310.464923 L306.070549,310.405138 L248.791188,310.405138 C248.133179,310.405138 247.480609,310.513838 246.866105,310.731237 C246.490877,310.861676 208.630922,324.166498 172.032603,339.900755 C149.692945,349.504358 131.420976,358.716643 117.728419,367.282165 C99.8534298,378.461912 75.8334036,396.728867 73.570616,426.137524 C72.4237236,441.023924 77.4099047,455.470091 88.3785244,469.068401 C93.5882109,475.530588 100.364066,482.101475 109.092194,489.161509 C120.99127,498.792287 137.185347,509.803549 157.230132,521.896371 C183.729926,537.891506 209.865368,551.555037 219.871446,556.685654 C221.274472,557.408506 222.867831,557.533511 224.357867,557.044363 C225.858779,556.56065 227.071472,555.517134 227.778423,554.109476 L234.249746,541.250322 L263.583326,482.998246 C265.018437,480.144883 263.876983,476.628453 261.037758,475.166445 C253.875798,471.481531 235.060021,461.655094 215.015779,449.9862 C206.042937,444.768622 197.830883,439.768444 190.603667,435.126974 C189.690068,434.539997 189.641125,433.637791 189.668316,433.279082 C189.690068,432.914939 189.847773,432.023603 190.832066,431.56163 C199.228471,427.583227 208.832131,423.376556 219.371142,419.066619 C242.662465,409.533671 280.788886,400.924669 296.102537,397.669118 C296.374441,397.609333 296.657222,397.609333 296.934564,397.663683 C299.468712,398.180006 302.497726,398.799593 305.90795,399.522445 C327.583617,404.087825 364.41088,412.479428 383.884123,420.447103 C394.434553,424.762475 404.038213,428.969146 412.423742,432.942114 C413.407492,433.409522 413.570635,434.300858 413.592387,434.659566 C413.614139,435.02371 413.570635,435.925916 412.657036,436.512893 C405.42982,441.148928 397.212872,446.149106 388.245468,451.372119 C368.195788,463.035578 349.385448,472.862015 342.228927,476.546929 C339.384264,478.008937 338.247704,481.525367 339.683359,484.37873 L346.818128,498.558583 L375.48228,555.495395 C376.189231,556.897618 377.401924,557.941134 378.897398,558.430282 C379.495587,558.620506 380.110635,558.718335 380.719156,558.718335 C381.633299,558.718335 382.546353,558.500936 383.383819,558.071573 C393.390441,552.935521 419.525339,539.27199 446.031658,523.28229 C466.069918,511.184033 482.269976,500.172771 494.168508,490.541993 C502.896637,483.481959 509.667054,476.911072 514.87674,470.45432 C525.850798,456.850575 530.832085,442.404408 529.685193,427.518008" id="Border" fill="#000000"></path>
                    <path d="M376.145617,191.645525 L365.254218,277.610546 C360.076073,306.345265 344.898375,321.008831 319.079429,321.008831 L275.655224,321.008831 C265.899842,321.008831 257.165732,318.851146 249.824315,314.633604 C237.730012,307.698574 229.420616,295.192694 226.614564,277.610546 L216.299059,191.645525 C216.299059,167.67728 237.224814,148.24724 263.044847,148.24724 L329.399829,148.24724 C355.220406,148.24724 376.145617,167.67728 376.145617,191.645525" id="Shape" fill="#1D65CE"></path>
                    <path d="M253.783623,205.923263 C250.406571,244.522464 265.404813,315.35651 265.404813,315.35651 L249.824696,314.633659 C237.730393,307.698629 229.420997,295.192748 226.614945,277.6106 L216.298895,191.64558 C216.298895,167.677334 237.224651,148.247294 263.044683,148.247294 L276.531137,148.247294 L278.907581,151.203921 C278.907581,151.203921 257.155236,167.318626 253.783623,205.923263" id="Shadow" fill="#D0ABB1" style="mix-blend-mode: multiply;"></path>
                    <path d="M228.500275,277.347275 C231.137747,293.818515 238.83862,306.141236 250.771956,312.982784 C257.844187,317.046516 266.216121,319.106372 275.655551,319.106372 L319.078668,319.106372 C343.80347,319.106372 358.291619,305.440124 363.371879,277.322274 L374.242613,191.527369 C374.17355,168.699925 354.084716,150.149264 329.399612,150.149264 L263.044629,150.149264 C238.359525,150.149264 218.26906,168.704273 218.202715,191.533348 L228.500275,277.347275 Z M319.078668,322.910856 L275.655551,322.910856 C265.541798,322.910856 256.531433,320.680341 248.87624,316.282359 C235.902598,308.842963 227.554592,295.574012 224.735488,277.910339 L224.725155,277.836967 L214.395511,191.758899 L214.395511,191.645852 C214.395511,166.666701 236.219638,146.344781 263.044629,146.344781 L329.399612,146.344781 C356.22569,146.344781 378.049274,166.666701 378.049274,191.645852 L378.035135,191.884447 L367.126334,277.947297 C361.75133,307.783143 345.585531,322.910856 319.078668,322.910856 L319.078668,322.910856 Z" id="Border" fill="#000000"></path>
                    <path d="M294.008982,156.678301 C281.455161,156.678301 272.028782,151.470507 271.633433,151.24876 C269.323878,149.953061 268.465205,146.523048 269.758381,144.212639 C271.394158,141.289709 276.072543,140.072274 278.483247,140.39783 L278.43376,143.370218 C278.454969,143.382175 285.081277,147.091546 294.008982,147.091546 C302.149797,147.091546 306.655796,144.137093 308.668431,142.994661 C308.668431,142.994661 308.77393,140.26739 308.7897,140.26576 C311.520164,140.02336 315.7461,141.266339 317.284535,143.419133 C318.824601,145.573558 318.160067,148.676929 316.25293,150.515038 C314.554072,152.152053 307.438336,156.678301 294.008982,156.678301" id="Shape" fill="#1D65CE"></path>
                    <path d="M284.166808,146.77197 C284.166808,146.77197 281.304743,148.39268 281.304743,153.541776 C281.304743,158.690329 270.524281,151.157996 269.856484,148.39268 C269.188687,145.627907 269.761318,143.148471 271.382955,142.004409 C273.005136,140.860346 278.48292,140.39783 278.48292,140.39783 L278.156635,144.102309 L284.166808,146.77197 Z" id="Shadow" fill="#D0ABB1" style="mix-blend-mode: multiply;"></path>
                    <path d="M277.495092,141.938048 C275.667895,142.259255 272.375134,143.832137 271.589874,145.236535 C270.848119,146.561038 271.398998,148.712202 272.660634,149.420379 C273.036405,149.630713 281.995652,154.581433 294.008928,154.581433 C306.315317,154.581433 313.186883,150.555746 314.796012,149.005147 C315.907013,147.934457 316.522605,145.961017 315.576921,144.638687 C314.853656,143.626151 311.772436,142.355454 309.796236,142.064682 C309.788079,142.279908 309.782097,142.925583 309.77394,143.138634 L309.784816,144.349003 L309.279618,145.063159 C306.970606,146.401794 302.16497,149.188306 294.008928,149.188306 C284.670103,149.188306 277.703915,145.365344 277.412433,145.201751 L277.443974,144.254978 L277.495092,141.938048 Z M294.008928,158.775061 C280.910754,158.775061 271.020507,153.310192 270.606125,153.077575 C267.335116,151.24327 266.058253,146.529515 267.92678,143.189179 C270.048721,139.398827 275.676596,137.905839 278.763798,138.318897 L280.611659,138.568906 L280.554016,142.073922 C282.698797,143.044065 287.784495,144.994135 294.008928,144.994135 C300.469374,144.994135 304.364675,143.037543 306.618218,141.755432 L306.626375,141.543468 C306.696527,139.851017 306.757977,138.389008 308.548739,138.182479 C312.004099,137.872142 316.939706,139.328172 318.992583,142.200557 C321.064494,145.100117 320.512528,149.323637 317.709739,152.02482 C315.107071,154.531975 307.187586,158.775061 294.008928,158.775061 L294.008928,158.775061 Z" id="Border" fill="#000000"></path>
                    <path d="M221.838619,166.3562 C207.771378,159.927167 191.162376,166.095321 184.730207,180.153431 C184.550751,180.542575 166.506093,219.324392 139.804547,245.176401 C123.481044,260.980225 99.755218,273.53665 78.3215455,274.21874 C78.3215455,274.21874 65.3484473,254.45934 48.0792611,252.6071 C44.3579788,252.208173 43.3818424,253.239731 39.530046,252.150019 C35.5673126,251.029327 32.2631315,247.792255 26.3769472,254.401729 L26.8723568,260.603037 C26.8723568,260.603037 20.9992238,257.597495 17.4508726,260.61282 C10.2742304,266.711407 17.8478529,275.018225 17.7809645,274.843219 C16.1908681,270.639265 11.4950808,268.510384 7.28219546,270.090875 C3.06169685,271.672454 0.923441399,276.373708 2.50592445,280.591793 C2.86701337,281.554871 11.9692819,303.493153 30.9879004,313.52938 C42.4725944,319.588835 55.1237578,327.549988 81.3772061,326.155917 C87.9279246,325.807535 145.390549,317.708333 178.777135,285.383268 C213.202395,252.05382 234.752442,205.436941 235.652989,203.468936 C242.085158,189.410283 235.904773,172.785234 221.838619,166.3562" id="Shape" fill="#FFFFFF"></path>
                    <path d="M210.072341,161.921694 C209.838504,162.535847 209.599228,163.171739 209.349076,163.829371 C209.104362,164.459828 208.85421,165.112026 208.593182,165.780528 C197.787705,193.634781 170.532017,255.196758 134.461192,274.224066 C87.323862,299.089083 68.9920738,278.148663 68.9920738,278.148663 C68.9920738,278.148663 59.9702889,264.892212 48.5176796,254.57717 C47.7345952,253.876058 46.9406347,253.185816 46.1357979,252.511879 C45.4070944,251.903162 44.6675147,251.305315 43.927935,250.729207 C45.2439518,250.549853 46.7013589,250.544418 48.2838419,250.718337 C64.2826912,252.430355 76.4422517,268.251571 79.2918088,272.273453 C98.4284338,271.300593 121.534862,260.213241 138.479938,243.810482 C164.914474,218.217179 182.822092,179.742982 183.001549,179.357098 C187.993712,168.449101 198.777436,161.981479 210.072341,161.921694" id="Shadow" fill="#D0ABB1" style="mix-blend-mode: multiply;"></path>
                    <path d="M119.441144,315.948868 C99.7661486,322.155611 84.0990225,324.106768 81.2766559,324.253512 C57.4252103,325.525297 44.8523552,319.44845 34.0414401,313.660743 C33.2039748,313.20964 32.3773857,312.768864 31.5562347,312.335153 C12.9307899,302.502737 4.37124236,280.13781 4.28967107,279.925846 C3.70235777,278.360572 3.75673863,276.659425 4.45281365,275.137631 C4.67577518,274.637614 4.96399375,274.180532 5.295717,273.768017 C5.99179202,272.920161 6.89451431,272.267964 7.94950301,271.870667 C11.1742881,270.665189 14.7851772,272.30003 16.0033085,275.51808 C16.0740036,275.702869 23.0891347,293.80134 37.19553,300.524406 C38.141757,300.975509 39.278317,300.573321 39.7351162,299.6222 C40.1864774,298.676514 39.784059,297.540604 38.8323939,297.089501 C26.1942818,291.062112 19.6250738,274.333798 19.5598168,274.170206 C18.7114754,271.92556 17.1398685,270.164628 15.2093479,269.045023 C14.7199202,267.550405 14.7960534,265.947086 15.4540618,264.507361 C16.1446987,262.985024 17.3845824,261.827374 18.9507512,261.240397 C22.1755362,260.028397 25.7864254,261.664325 27.0045567,264.887266 C27.0752518,265.06662 34.0958209,283.165635 48.1967782,289.888157 C48.4632444,290.013162 48.7405868,290.072946 49.0124911,290.072946 C49.7248804,290.072946 50.4100792,289.676193 50.7363644,288.990843 C51.1877255,288.039722 50.7853071,286.90979 49.8336421,286.452709 C37.19553,280.430755 30.626322,263.697006 30.561065,263.539392 C30.0661991,262.223584 29.3211813,261.077348 28.3967067,260.120792 C27.3199657,256.952201 28.7012395,254.017314 31.8933961,252.761834 C33.4976315,252.131377 35.2323809,252.131377 36.6625976,252.761834 C37.1248349,252.973798 37.5490056,253.245547 37.9133574,253.57708 C37.3477964,254.202103 36.880121,254.914085 36.5266454,255.723353 C34.4710489,260.44689 36.6408452,265.974261 41.366542,268.044987 C41.5024942,268.104772 55.0270143,274.170206 63.5049905,285.518436 C64.1358085,286.361401 65.3267494,286.534777 66.1696527,285.904319 C67.012556,285.279297 67.1865748,284.083602 66.5557568,283.241181 C57.4252103,271.017919 43.0414726,264.626387 42.9000823,264.561168 C40.0885918,263.332319 38.7997654,260.049594 40.0178967,257.239711 C40.8172953,255.419537 42.6390542,254.674946 44.6130794,254.462982 C45.7061347,254.343412 46.8426947,254.386892 47.8759311,254.501026 C48.0880164,254.522766 48.3055399,254.549941 48.5176252,254.577116 C64.3642081,256.723932 76.6053399,275.072412 76.7304159,275.262636 L77.3177292,276.153972 L78.3835941,276.121362 C98.9178071,275.46373 122.959586,264.131804 141.128231,246.544221 C168.073948,220.456335 186.28066,181.34081 186.460117,180.944057 C190.598501,171.905692 199.294,166.362016 208.593127,165.780473 C210.926066,165.628294 213.297072,165.796778 215.640887,166.296796 C217.468084,166.682679 219.278967,167.275092 221.046345,168.084903 C226.446364,170.552382 230.601062,174.64492 233.200467,179.520093 C236.898366,186.460558 237.442174,194.988036 233.923732,202.678527 C233.026448,204.635119 211.616703,250.941117 177.454646,284.018383 C160.199599,300.719521 136.380782,310.600852 119.441144,315.948868 M235.228873,175.487341 C232.248802,170.894786 227.969028,167.068563 222.628828,164.628258 C220.91583,163.845622 219.170205,163.242339 217.408265,162.802106 C214.972002,162.193389 212.508549,161.91077 210.072287,161.921338 C198.777382,161.981425 187.993657,168.449047 183.001494,179.357044 C182.822037,179.742927 164.91442,218.217125 138.479883,243.810428 C121.534807,260.213186 98.4283794,271.301082 79.2917544,272.273399 C76.4421973,268.251516 64.2826368,252.4303 48.2837875,250.718283 C46.7013045,250.544364 45.2438974,250.549799 43.9278806,250.729153 C42.9109585,250.859592 41.9756077,251.093296 41.1272662,251.419395 C40.3278676,250.517189 39.3490121,249.794337 38.2015759,249.288884 C35.8523227,248.245369 33.0462703,248.218194 30.501246,249.218229 C26.7163381,250.707413 24.4486562,253.903179 24.2528851,257.539178 C22.159222,256.854915 19.8317211,256.843501 17.6184201,257.675053 C15.1005862,258.621282 13.0993705,260.484935 11.990001,262.930675 C11.293926,264.457903 10.9948312,266.099266 11.0981549,267.729759 C9.62443352,267.583014 8.09633133,267.756934 6.61173383,268.311845 C5.35009786,268.784144 4.21353786,269.491235 3.25643471,270.393441 C2.31020773,271.279342 1.53799951,272.349489 0.983314727,273.567467 C-0.126054836,276.013206 -0.218502299,278.746456 0.722286595,281.263393 C0.809295972,281.491662 9.68425247,305.051741 29.8595519,315.69886 C30.6752648,316.128223 31.4964158,316.568456 32.328443,317.014124 C42.6173018,322.525733 54.4016344,328.221045 75.3708944,328.221045 C77.3231673,328.221045 79.3570115,328.166152 81.477865,328.053104 C91.2174772,327.536238 147.534297,318.280473 180.102994,286.752176 C214.770793,253.180327 236.479633,206.243872 237.382355,204.260105 C241.803519,194.602153 240.628893,183.791985 235.228873,175.487341" id="Border" fill="#000000"></path>
                    <path d="M367.082503,164.011823 C381.149744,157.58279 397.758747,163.750944 404.190915,177.809054 C404.369828,178.198198 422.415029,216.980015 449.117119,242.832024 C465.440079,258.636391 489.165904,271.192273 510.599033,271.874363 C510.599033,271.874363 523.573219,252.114963 540.841861,250.262723 C544.5626,249.863796 545.538736,250.895354 549.390533,249.805642 C553.353266,248.68495 556.657447,245.448421 562.544719,252.057352 L562.049309,258.25866 C562.049309,258.25866 567.921355,255.253118 571.470793,258.268443 C578.646348,264.36703 571.072726,272.673848 571.139614,272.498842 C572.72971,268.295431 577.425498,266.166551 581.638927,267.746498 C585.859969,269.328077 587.997137,274.029331 586.414654,278.247416 C586.053565,279.210494 576.951297,301.149319 557.932678,311.185547 C546.447984,317.245002 533.796821,325.205611 507.543372,323.81154 C500.992654,323.463158 443.530573,315.3645 410.144532,283.039435 C375.718728,249.709443 354.16868,203.092564 353.268677,201.124559 C346.836508,187.065906 353.016893,170.440857 367.082503,164.011823" id="Shape" fill="#FFFFFF"></path>
                    <path d="M588.198564,278.915103 C588.112098,279.143372 579.237142,302.708886 559.061299,313.356004 C558.245586,313.785367 557.424435,314.226144 556.592407,314.671269 C546.303549,320.182878 534.519216,325.87819 513.549412,325.87819 C511.598227,325.87819 509.563295,325.824927 507.442985,325.710249 C497.703917,325.193383 441.386554,315.932183 408.8184,284.404429 C374.150601,250.837472 352.441761,203.896125 351.539039,201.917794 C346.802466,191.569599 348.487729,179.89527 354.916091,171.400402 C355.209747,172.008576 355.519174,172.650446 355.850898,173.329818 C356.161412,173.960276 356.517607,174.601059 356.824315,175.30815 C369.445025,204.345054 402.952336,252.659819 437.137233,280.379286 C469.862004,306.915014 523.914404,315.758264 540.233557,310.426552 C548.376003,307.765588 570.672156,296.313006 583.11341,270.876773 C583.405979,270.278382 583.924772,269.849019 584.299456,269.376176 C584.718733,268.844092 585.115169,268.338096 585.474083,267.876123 C586.507863,268.789199 587.345328,269.925652 587.93808,271.219177 C589.047449,273.664916 589.138809,276.398165 588.198564,278.915103" id="Shadow" fill="#D0ABB1" style="mix-blend-mode: multiply;"></path>
                    <path d="M584.630907,277.57761 C584.550424,277.795009 575.989789,300.16048 557.364344,309.992352 C556.54428,310.421715 555.716604,310.86684 554.879138,311.312508 C544.068223,317.106192 531.495368,323.182496 507.64501,321.910711 C504.821556,321.76451 489.155518,319.813354 469.479434,313.600633 C452.540884,308.258051 428.722067,298.377807 411.465932,281.675582 C377.303875,248.59886 355.895218,202.286883 354.996846,200.330835 C351.157557,191.939232 352.152727,182.542158 356.824587,175.308204 C359.423448,171.258603 363.181166,167.889461 367.874234,165.742646 C380.963707,159.758193 396.479654,165.530138 402.461549,178.6018 C402.646444,178.998553 420.846631,218.108643 447.792347,244.196529 C465.960993,261.789004 490.002771,273.121473 510.536984,273.779105 L511.602849,273.811171 L512.190163,272.920378 C512.315782,272.729611 524.889181,253.887091 541.045735,252.152791 C543.948585,251.842997 547.668236,252.066374 548.903769,254.897997 C550.120813,257.702445 548.831987,260.985171 546.020496,262.218367 C545.879106,262.279238 531.495368,268.675119 522.364822,280.89838 C521.734548,281.740802 521.908022,282.932148 522.750926,283.562062 C523.594917,284.192519 524.78477,284.019144 525.415588,283.176179 C533.893564,271.82197 547.418084,265.762515 547.554036,265.702186 C552.280821,263.632004 554.44953,258.104633 552.395021,253.381095 C552.040458,252.571284 551.572782,251.853867 551.007221,251.23428 C551.372117,250.902746 551.795744,250.626106 552.259069,250.419033 C553.689285,249.789119 555.422947,249.789119 557.027182,250.419033 C560.219339,251.669621 561.600613,254.6094 560.523872,257.777991 C559.600485,258.729112 558.855467,259.876435 558.359514,261.192243 C558.294257,261.354205 551.725049,278.083606 539.086936,284.110995 C538.135271,284.562641 537.733941,285.697464 538.184758,286.648585 C538.510499,287.327957 539.195698,287.730689 539.909175,287.730689 C540.181079,287.730689 540.457878,287.670361 540.724888,287.5459 C554.824758,280.822834 561.846414,262.724363 561.916022,262.545009 C563.135241,259.321524 566.745042,257.685596 569.969827,258.892161 C571.535996,259.479139 572.77588,260.642767 573.467604,262.16456 C574.125613,263.604286 574.200658,265.202169 573.711231,266.702222 C571.78071,267.822371 570.209103,269.58276 569.360762,271.827948 C569.296592,271.985563 562.727384,288.719311 550.088185,294.741265 C549.13652,295.198346 548.734101,296.334256 549.185462,297.279399 C549.642262,298.225085 550.778822,298.627273 551.725049,298.17617 C565.832531,291.453104 572.846575,273.354633 572.91727,273.175279 C574.135401,269.952881 577.746834,268.316954 580.971619,269.52841 C581.782438,269.832768 582.511141,270.28985 583.113681,270.876827 C583.679242,271.414347 584.136585,272.062196 584.467765,272.794831 C585.16384,274.316624 585.218221,276.018315 584.630907,277.57761 M587.937264,271.219231 C587.344512,269.925707 586.507047,268.789253 585.474898,267.876177 C584.554774,267.056039 583.488909,266.408733 582.308845,265.963609 C580.824247,265.408698 579.296145,265.240757 577.822424,265.38261 C577.925747,263.756465 577.626653,262.115646 576.937103,260.587874 C575.822296,258.142134 573.819992,256.279025 571.302158,255.332252 C569.088857,254.501244 566.762444,254.512114 564.667693,255.196377 C564.47301,251.560378 562.205328,248.364612 558.42042,246.875429 C555.874308,245.875393 553.068256,245.902568 550.72009,246.940648 C549.571566,247.451536 548.592711,248.174388 547.7944,249.077137 C545.851916,248.321132 543.443931,248.071123 540.637879,248.370047 C524.639029,250.0875 512.478381,265.908716 509.628824,269.931142 C490.493287,268.958281 467.385771,257.870386 450.440695,241.468171 C424.007246,215.869432 406.098541,177.40067 405.919084,177.014243 C399.06764,162.035992 381.289992,155.427061 366.291751,162.280022 C361.642187,164.405642 357.798548,167.585103 354.915275,171.400456 C348.488545,179.895324 346.80165,191.569653 351.538223,201.917848 C352.440946,203.896179 374.149785,250.837526 408.817584,284.405027 C441.386826,315.932237 497.703101,325.193437 507.443801,325.710847 C509.563567,325.824438 511.597411,325.878244 513.549684,325.878244 C534.520032,325.878244 546.30382,320.182932 556.592136,314.671323 C557.42525,314.226198 558.245314,313.785422 559.061027,313.356059 C579.236326,302.70894 588.111283,279.143426 588.19938,278.915157 C589.139081,276.39822 589.046633,273.66497 587.937264,271.219231" id="Border" fill="#000000"></path>
                    <polygon id="Shape" fill="#FFFFFF" points="262.580978 480.690772 302.795081 503.88562 292.382233 535.135647 244.956685 516.463786"></polygon>
                    <polygon id="Shadow" fill="#D0ABB1" style="mix-blend-mode: multiply;" points="253.163899 501.42113 297.140613 520.859867 292.594917 534.579377 281.7666 530.615649 244.956739 516.464058"></polygon>
                    <path d="M247.577081,515.45125 L291.211196,532.629036 L300.498359,504.756304 L263.390491,483.353911 L247.577081,515.45125 Z M293.55338,537.640628 L242.335853,517.476866 L261.771573,478.027634 L305.091367,503.013307 L293.55338,537.640628 Z" id="Border" fill="#000000"></path>
                    <path d="M327.474747,576.881863 C326.507855,586.007188 322.815395,604.442628 317.571992,605.02417 C317.370783,605.04591 317.153803,605.06765 316.925947,605.08939 C311.259462,605.622018 298.168901,605.415489 298.544129,586.1985 C298.930233,566.20757 294.465564,552.044022 291.942292,549.130874 C289.413582,546.223162 279.902913,539.695755 279.902913,533.798806 C279.902913,529.771489 285.275199,527.923597 289.652858,527.08661 C292.66012,526.510503 295.194268,526.407238 295.194268,526.407238 C295.194268,526.407238 286.504206,512.646965 293.301814,507.020678 C300.093983,501.391129 321.455873,505.661934 325.148334,507.60222 C328.834268,509.543594 328.448164,567.762516 327.474747,576.881863" id="Shape" fill="#1D65CE"></path>
                    <path d="M316.925186,605.089608 C311.2587,605.621692 298.169227,605.41625 298.544455,586.19763 C298.930559,566.207787 294.46589,552.043695 291.943162,549.131092 C289.413909,546.222836 279.902696,539.695973 279.902696,533.799023 C279.902696,529.771706 285.275525,527.924358 289.653728,527.086284 L297.059858,529.347778 C297.059858,529.347778 302.42181,537.119251 304.494265,550.767019 C306.565088,564.414245 306.397595,574.604826 307.261163,582.202922 C308.121468,589.806454 312.618222,594.812067 318.839936,596.714309 C322.483454,597.828479 319.786163,601.904712 316.925186,605.089608" id="Shadow" fill="#D0ABB1" style="mix-blend-mode: multiply;"></path>
                    <path d="M325.582565,576.680171 L325.582565,576.681258 C325.144255,580.808579 324.021834,587.722413 322.299592,593.624253 C319.626773,602.780558 317.453714,603.123505 317.368336,603.133288 C317.173652,603.153941 316.964286,603.175137 316.746762,603.19579 C311.505535,603.688199 307.477001,602.663706 304.770465,600.152747 C301.775711,597.3733 300.321023,592.691068 300.447187,586.233773 C300.819696,566.965151 296.582883,551.581994 293.378763,547.882949 C292.669636,547.066616 291.557548,546.074189 290.270353,544.925779 C286.899827,541.918606 281.805972,537.373336 281.805972,533.799295 C281.805972,530.842668 287.543696,529.426857 290.010956,528.954557 C291.698938,528.63172 293.239004,528.464866 294.211334,528.382254 L298.213221,534.140612 C298.584099,534.673239 299.175762,534.958032 299.778302,534.958032 C300.152987,534.958032 300.532021,534.848246 300.862657,534.618346 C301.725681,534.019412 301.939398,532.834043 301.340121,531.970969 L297.144094,525.932711 L296.805301,525.393017 C296.726992,525.2691 289.172403,512.907246 294.517498,508.484806 C296.641071,506.723874 300.629907,506.09233 305.033125,506.09233 C312.561611,506.09233 321.297353,507.939135 323.977242,509.147873 C326.554895,514.412191 326.772962,565.522165 325.582565,576.680171 M329.962943,539.520695 C329.477866,507.730975 327.406499,506.640719 326.033382,505.918954 C323.896758,504.796088 317.37323,503.199835 310.559852,502.57753 C304.44418,502.019358 296.275087,502.083491 292.088305,505.555354 C286.048766,510.552815 289.765154,520.125438 292.112776,524.776148 C291.274223,524.880499 290.312226,525.023439 289.295304,525.218011 C279.959198,527.003401 277.999311,530.869843 277.999311,533.799295 C277.999311,539.076657 283.626643,544.098032 287.735117,547.763923 C288.926058,548.826461 289.953856,549.743885 290.503103,550.376516 C292.468971,552.645076 297.027718,566.16621 296.641071,586.159857 C296.493155,593.74654 298.357331,599.392394 302.180305,602.939803 C305.175603,605.71925 309.235134,607.120387 314.278415,607.120387 C315.189295,607.120387 316.131715,607.074733 317.105676,606.983425 C317.34332,606.960598 317.569001,606.938315 317.782174,606.914944 C326.206313,605.980128 329.242397,578.261749 329.368016,577.082359 C329.851462,572.556655 330.214183,556.018565 329.962943,539.520695" id="Border" fill="#000000"></path>
                    <path d="M325.669683,610.667904 C324.982853,610.667904 324.285146,610.566814 323.595053,610.355393 C319.861263,609.211331 317.763793,605.259559 318.907967,601.529535 C327.846005,572.400236 324.973608,510.784997 324.942611,510.165409 C324.753365,506.267988 327.762258,502.954826 331.662454,502.766233 C335.542528,502.569487 338.876075,505.582637 339.065864,509.480602 C339.193115,512.108414 342.081283,574.206822 332.426505,605.672618 C331.493329,608.711856 328.694346,610.667904 325.669683,610.667904" id="Shape" fill="#FFFFFF"></path>
                    <path d="M320.488057,598.025171 C320.488057,598.025171 327.537448,604.793891 333.494327,600.077418 C337.242256,597.110465 331.346283,609.74298 329.349962,610.355502 C327.354728,610.969111 320.907333,612.503948 320.140019,608.515219 C319.372705,604.52649 320.488057,598.025171 320.488057,598.025171" id="Shadow" fill="#D0ABB1" style="mix-blend-mode: multiply;"></path>
                    <path d="M332.021204,504.659289 C331.933651,504.659289 331.846642,504.661463 331.758545,504.665811 C330.376183,504.733205 329.10639,505.332139 328.179196,506.353371 C327.251459,507.374604 326.776714,508.695846 326.843603,510.073069 C326.874056,510.694287 329.777994,572.591602 320.727931,602.086675 C320.323337,603.405743 320.45657,604.801989 321.104246,606.02051 C321.750291,607.238489 322.833014,608.132542 324.152294,608.536361 C324.647703,608.68854 325.15834,608.765717 325.66952,608.765717 C327.952972,608.765717 329.936242,607.298273 330.606758,605.113956 C340.171264,573.940019 337.291253,512.187275 337.164002,509.573051 C337.097114,508.195828 336.495662,506.925131 335.467863,505.99575 C334.509672,505.128328 333.29426,504.659289 332.021204,504.659289 M325.66952,612.5702 C324.780393,612.5702 323.894528,612.437043 323.036942,612.173447 C320.745877,611.471792 318.865386,609.919562 317.74079,607.803726 C316.617825,605.68789 316.386163,603.261173 317.088764,600.970874 C325.945231,572.105715 323.071746,510.874185 323.041837,510.258402 C322.925461,507.864838 323.748244,505.570735 325.359005,503.796759 C326.969766,502.022782 329.175998,500.981984 331.569299,500.866219 C333.955531,500.74828 336.244422,501.565157 338.022676,503.176084 C339.804737,504.788098 340.849937,506.995242 340.966312,509.388262 C341.095739,512.029661 344.004027,574.42645 334.247013,606.229757 C333.082175,610.02174 329.635516,612.5702 325.66952,612.5702" id="Border" fill="#000000"></path>
                    <path d="M291.447155,563.094307 C289.685215,563.094307 287.989076,562.122533 287.14726,560.439864 C285.961213,558.068584 286.922667,555.184786 289.295304,553.999417 C289.8402,553.727125 294.828013,551.338453 302.051966,551.338453 C304.705752,551.338453 306.855428,553.487986 306.855428,556.139167 C306.855428,558.790349 304.705752,560.939339 302.051966,560.939339 C297.109834,560.939339 293.624564,562.570375 293.591392,562.58668 C292.901843,562.931257 292.169332,563.094307 291.447155,563.094307" id="Shape" fill="#FFFFFF"></path>
                    <path d="M302.052238,553.240803 C295.265507,553.240803 290.650203,555.448491 290.146636,555.700674 C289.453824,556.046882 288.937206,556.642011 288.692492,557.376277 C288.447234,558.111086 288.503247,558.89644 288.849653,559.589399 C289.344519,560.578021 290.339688,561.192174 291.446883,561.192174 C291.897156,561.192174 292.332747,561.088366 292.741147,560.884554 C292.76018,560.875315 296.59675,559.037206 302.052238,559.037206 C303.651035,559.037206 304.952369,557.737159 304.952369,556.139276 C304.952369,554.541393 303.651035,553.240803 302.052238,553.240803 M291.446883,564.996657 C288.888263,564.996657 286.588496,563.577041 285.444867,561.291634 C284.643837,559.689403 284.51441,557.871947 285.081059,556.173517 C285.647164,554.475086 286.841911,553.098407 288.443971,552.297835 C289.030197,552.005977 294.391606,549.43632 302.052238,549.43632 C305.751224,549.43632 308.75903,552.442949 308.75903,556.139276 C308.75903,559.83506 305.751224,562.841689 302.052238,562.841689 C297.678385,562.841689 294.538435,564.245543 294.410096,564.303698 C293.478008,564.760236 292.460542,564.996657 291.446883,564.996657" id="Border" fill="#000000"></path>
                    <path d="M294.995995,579.394507 C293.315627,579.394507 291.700515,578.461865 290.896222,576.853112 C289.762925,574.588901 290.697188,571.82739 292.962695,570.695284 C293.48312,570.435492 298.246339,568.154433 305.145639,568.154433 C307.678699,568.154433 309.732121,570.207223 309.732121,572.738835 C309.732121,575.270447 307.678699,577.322694 305.145639,577.322694 C300.394383,577.322694 297.067906,578.895033 297.034734,578.910794 C296.378357,579.239067 295.681194,579.394507 294.995995,579.394507" id="Shape" fill="#FFFFFF"></path>
                    <path d="M305.14515,570.056837 C298.683072,570.056837 294.292905,572.156912 293.81381,572.397682 C293.16994,572.718345 292.68867,573.272169 292.458639,573.955889 C292.229695,574.637979 292.279182,575.365179 292.598397,576.002158 C293.057916,576.921212 293.976408,577.492428 294.995506,577.492428 C295.408256,577.492428 295.807956,577.397316 296.183728,577.209266 C296.361553,577.123394 299.970811,575.420615 305.14515,575.420615 C306.625397,575.420615 307.829389,574.217312 307.829389,572.739542 C307.829389,571.260141 306.625397,570.056837 305.14515,570.056837 M294.995506,581.296912 C292.525527,581.296912 290.302437,579.919689 289.193612,577.703849 C288.417597,576.153794 288.296327,574.392861 288.850468,572.743346 C289.403522,571.099809 290.561834,569.76824 292.111689,568.993756 C292.672899,568.713311 297.809171,566.252354 305.14515,566.252354 C308.72341,566.252354 311.636049,569.16224 311.636049,572.739542 C311.636049,576.3163 308.72341,579.225099 305.14515,579.225099 C300.902899,579.225099 297.878235,580.616453 297.848326,580.630584 C296.9766,581.066469 296.004271,581.296912 294.995506,581.296912" id="Border" fill="#000000"></path>
                    <path d="M290.105687,119.172997 C286.118483,119.000708 282.318892,117.963715 278.796644,116.204413 L279.04462,145.759271 C279.04462,145.759271 281.071395,150.049097 293.550715,150.258888 C306.030579,150.468678 308.010042,146.838113 308.010042,146.838113 L307.859407,115.335904 C302.879208,118.073501 296.976165,119.469747 290.105687,119.172997" id="Shape" fill="#FFFFFF"></path>
                    <path d="M291.167311,119.180986 C291.167311,119.180986 293.517108,147.428189 287.753824,148.662472 C281.99054,149.896755 279.044729,145.759108 279.044729,145.759108 L279.109442,115.20041 L291.167311,119.180986 Z" id="Shadow" fill="#D0ABB1" style="mix-blend-mode: multiply;"></path>
                    <path d="M280.94273,145.125281 C281.702974,145.914439 284.672713,148.206912 293.583017,148.356918 C302.126794,148.504205 305.211821,146.784579 306.103123,146.091619 L305.970434,118.369979 C301.188724,120.416248 295.840911,121.325519 290.023246,121.073337 C286.847404,120.936375 283.73138,120.284178 280.724663,119.130876 L280.94273,145.125281 Z M294.563504,152.169553 C294.221992,152.169553 293.875586,152.166836 293.519392,152.160857 C288.039976,152.068463 283.735187,151.21028 280.724119,149.60968 C278.289488,148.315612 277.505859,146.956868 277.323684,146.571528 L277.144771,146.193254 L276.867428,113.113814 L279.647378,114.50245 C283.013553,116.184032 286.559729,117.115587 290.18802,117.272658 C296.460852,117.540602 302.098516,116.33132 306.942763,113.669268 L309.748272,112.127366 L309.915221,147.318294 L309.681383,147.7482 C309.26972,148.502031 306.64095,152.16901 294.563504,152.169553 L294.563504,152.169553 Z" id="Border" fill="#000000"></path>
                </g>
            </g>
        </g>
    </g>
</svg>