<?xml version="1.0" encoding="UTF-8"?>
<svg width="801px" height="824px" viewBox="0 0 801 824" version="1.1" xmlns="http://www.w3.org/2000/svg" xmlns:xlink="http://www.w3.org/1999/xlink">
    <title>e-commerce</title>
    <g id="Change-everything!" stroke="none" stroke-width="1" fill="none" fill-rule="evenodd">
        <g id="e-commerce" transform="translate(-100.000000, -95.000000)">
            <g transform="translate(100.000000, 95.000000)">
                <g id="Element" transform="translate(0.471766, 0.367421)">
                    <path d="M577.460635,58.3503939 C576.448691,58.3503939 575.570928,57.5946125 575.444879,56.5638628 C575.43878,56.5165947 574.791258,51.5082084 572.249962,46.6268869 C569.032681,40.4469632 564.362287,37.3135451 558.367878,37.3135451 L558.334841,37.3135451 C551.811334,37.3257433 548.362795,41.5071919 544.370419,46.3488691 C539.755426,51.9437865 534.525947,58.2848285 523.726963,58.2848285 C515.846404,58.2848285 512.037001,52.5318424 508.675375,47.4563659 C505.220737,42.2406099 501.957713,37.3135451 494.61845,37.3135451 C488.05784,37.3135451 482.85784,40.4810165 479.164828,46.7285388 C476.28249,51.6037611 475.428615,56.5974079 475.420483,56.6472173 C475.237001,57.7536976 474.19507,58.5033799 473.085032,58.3219314 C471.978043,58.1394663 471.226836,57.0965184 471.408285,55.9895299 C471.445388,55.7597967 472.364828,50.2934689 475.598374,44.7717408 C480.012605,37.2322236 486.589479,33.2474714 494.61845,33.2474714 C504.141703,33.2474714 508.351614,39.6037611 512.065972,45.211385 C515.266989,50.0444219 518.030902,54.2187548 523.726963,54.2187548 C532.608793,54.2187548 536.797865,49.1392122 541.233443,43.7618297 C545.490114,38.6004574 549.891639,33.2632274 558.326709,33.2474714 L558.36737,33.2474714 C572.859365,33.2474714 578.514257,48.1709784 579.481982,56.0703431 C579.617179,57.1849555 578.825311,58.1989327 577.710191,58.3351461 C577.626328,58.3453113 577.542973,58.3503939 577.460635,58.3503939" id="Shape" fill="#EB7D7D"></path>
                    <path d="M117.110597,112.584752 C117.110597,118.85108 112.030546,123.931131 105.764219,123.931131 C99.4973825,123.931131 94.4173316,118.85108 94.4173316,112.584752 C94.4173316,106.317916 99.4973825,101.237865 105.764219,101.237865 C112.030546,101.237865 117.110597,106.317916 117.110597,112.584752" id="Shape" fill="#1D65CE"></path>
                    <path d="M581.725286,610.080661 C581.725286,616.047624 576.887675,620.885235 570.920712,620.885235 C564.953748,620.885235 560.115629,616.047624 560.115629,610.080661 C560.115629,604.113189 564.953748,599.275578 570.920712,599.275578 C576.887675,599.275578 581.725286,604.113189 581.725286,610.080661" id="Shape" fill="#FFD772"></path>
                    <path d="M21.4322745,534.66028 C21.4322745,540.578958 16.6348158,545.376417 10.7161372,545.376417 C4.7974587,545.376417 -2.96651592e-13,540.578958 -2.96651592e-13,534.66028 C-2.96651592e-13,528.741601 4.7974587,523.944142 10.7161372,523.944142 C16.6348158,523.944142 21.4322745,528.741601 21.4322745,534.66028" id="Shape" fill="#FFD772"></path>
                    <path d="M551.629784,556.010165 C544.67629,556.010165 539.018856,561.667598 539.018856,568.621093 C539.018856,575.574079 544.67629,581.231004 551.629784,581.231004 C558.583787,581.231004 564.240712,575.574079 564.240712,568.621093 C564.240712,561.667598 558.583787,556.010165 551.629784,556.010165 M551.629784,584.788818 C542.714409,584.788818 535.461042,577.535959 535.461042,568.621093 C535.461042,559.705718 542.714409,552.452351 551.629784,552.452351 C560.545159,552.452351 567.798526,559.705718 567.798526,568.621093 C567.798526,577.535959 560.545159,584.788818 551.629784,584.788818" id="Shape" fill="#1D65CE"></path>
                    <path d="M749.812147,660.878831 C749.812147,666.187598 745.5077,670.491537 740.198933,670.491537 C734.890673,670.491537 730.586734,666.187598 730.586734,660.878831 C730.586734,655.570064 734.890673,651.266125 740.198933,651.266125 C745.5077,651.266125 749.812147,655.570064 749.812147,660.878831" id="Shape" fill="#EB7D7D"></path>
                    <path d="M37.6057433,129.954663 C30.7925286,129.954663 25.2494536,135.497738 25.2494536,142.311461 C25.2494536,149.124676 30.7925286,154.667751 37.6057433,154.667751 C44.4189581,154.667751 49.9625413,149.124676 49.9625413,142.311461 C49.9625413,135.497738 44.4189581,129.954663 37.6057433,129.954663 M37.6057433,158.733825 C28.5505972,158.733825 21.1833799,151.366607 21.1833799,142.311461 C21.1833799,133.255807 28.5505972,125.88859 37.6057433,125.88859 C46.6608895,125.88859 54.028615,133.255807 54.028615,142.311461 C54.028615,151.366607 46.6608895,158.733825 37.6057433,158.733825" id="Shape" fill="#EB7D7D"></path>
                    <path d="M25.9465311,183.557154 C25.9465311,189.475324 21.1485642,194.273291 15.2303939,194.273291 C9.31171537,194.273291 4.51425667,189.475324 4.51425667,183.557154 C4.51425667,177.638475 9.31171537,172.841017 15.2303939,172.841017 C21.1485642,172.841017 25.9465311,177.638475 25.9465311,183.557154" id="Shape" fill="#FFD772"></path>
                    <path d="M578.714409,11.3463787 C578.714409,17.6132147 573.634867,22.6932656 567.368539,22.6932656 C561.101703,22.6932656 556.021652,17.6132147 556.021652,11.3463787 C556.021652,5.08005083 561.101703,-7.10542736e-15 567.368539,-7.10542736e-15 C573.634867,-7.10542736e-15 578.714409,5.08005083 578.714409,11.3463787" id="Shape" fill="#1D65CE"></path>
                    <path d="M710.931283,615.065515 C710.045388,615.065515 709.277916,614.404269 709.167624,613.502618 C709.16305,613.465515 708.649199,609.494485 706.634968,605.629174 C704.10028,600.765642 700.425565,598.299568 695.715019,598.299568 L695.689606,598.299568 C690.564828,598.308717 687.837001,601.614943 684.680712,605.442643 C680.980076,609.929047 676.786938,615.012656 668.10587,615.012656 C661.741449,615.012656 658.679187,610.390546 655.978806,606.312274 C653.130521,602.012402 650.671055,598.299568 644.906887,598.299568 C639.74094,598.299568 635.643863,600.795121 632.731537,605.717103 C630.446404,609.577332 629.768895,613.536163 629.762795,613.575807 C629.601169,614.544041 628.687827,615.197154 627.718069,615.04061 C626.749835,614.881017 626.093164,613.968691 626.252249,613.000457 C627.281982,606.684828 632.507395,594.741753 644.906887,594.741753 C652.582109,594.741753 655.96305,599.845184 658.945006,604.347853 C661.471055,608.161321 663.652503,611.454841 668.10587,611.454841 C675.109682,611.454841 678.425565,607.435019 681.935095,603.178856 C685.352122,599.03756 688.884015,594.75446 695.681982,594.741753 L695.715019,594.741753 C707.376518,594.741753 711.922897,606.727014 712.699517,613.070597 C712.81845,614.045438 712.125184,614.932859 711.149835,615.0523 C711.076137,615.061449 711.003964,615.065515 710.931283,615.065515" id="Shape" fill="#1D65CE"></path>
                    <path d="M797.60737,159.916391 C796.721982,159.916391 795.954511,159.255146 795.844219,158.353494 C795.839136,158.315883 795.325794,154.345362 793.311563,150.480051 C790.776874,145.616518 787.101652,143.149936 782.391105,143.149936 L782.366201,143.149936 C777.241423,143.159593 774.513596,146.46582 771.357814,150.29352 C767.657179,154.779924 763.464041,159.864041 754.782973,159.864041 C748.418043,159.864041 745.355781,155.241423 742.6554,151.163151 C739.806607,146.863278 737.347649,143.149936 731.583482,143.149936 C726.417535,143.149936 722.320457,145.645997 719.408132,150.56798 C717.12249,154.428208 716.445489,158.387039 716.43939,158.426175 C716.277764,159.393901 715.36493,160.049555 714.394663,159.890978 C713.426429,159.731385 712.769759,158.81906 712.928844,157.850826 C713.959085,151.535705 719.18399,139.592122 731.583482,139.592122 C739.258704,139.592122 742.639644,144.695553 745.621601,149.198729 C748.147141,153.012706 750.32859,156.306226 754.782973,156.306226 C761.786785,156.306226 765.102668,152.286404 768.612198,148.030241 C772.028717,143.887929 775.56061,139.605337 782.358577,139.592122 L782.391105,139.592122 C794.052605,139.592122 798.599492,151.577382 799.375604,157.920966 C799.495553,158.896315 798.801779,159.783736 797.826429,159.903177 C797.752732,159.911817 797.680559,159.916391 797.60737,159.916391" id="Shape" fill="#1D65CE"></path>
                    <g transform="translate(25.755375, 613.471258)">
                        <path d="M155.434816,124.479288 L29.8709022,124.479288 C13.3738247,124.479288 -4.26325641e-14,111.105464 -4.26325641e-14,94.607878 L-4.26325641e-14,29.8714104 C-4.26325641e-14,13.3738247 13.3738247,1.13686838e-13 29.8709022,1.13686838e-13 L155.434816,1.13686838e-13 C171.932402,1.13686838e-13 185.306226,13.3738247 185.306226,29.8714104 L185.306226,94.607878 C185.306226,111.105464 171.932402,124.479288 155.434816,124.479288" id="Shape" fill="#FFD772"></path>
                        <path d="M51.7395172,72.3405337 C54.282338,76.0284625 58.1369759,78.0991105 59.6317662,78.1733164 C62.2243964,78.301906 86.0134689,78.5148666 89.5336722,78.743075 C93.0543837,78.9758577 140.987802,83.2304956 139.731893,71.5527319 C138.475985,59.8754765 123.578399,57.0688691 116.581703,55.1349428 C108.209149,52.8269377 99.9590851,50.1961881 96.1354511,45.4632783 C94.3321474,43.2320203 90.6925032,35.1532402 88.1308767,33.3585769 C85.5692503,31.5684879 82.8968234,30.523507 77.8315121,33.5695044 C72.7651842,36.6109276 71.4726811,41.6340534 71.4726811,41.6340534 C71.4726811,41.6340534 66.4754765,34.4792884 59.5692503,35.4302414 C58.956798,35.5141042 58.4002541,35.6518424 57.8975858,35.8317662 C52.8180432,37.6757306 53.0782719,44.1590851 53.1275731,48.347141 C53.1824651,52.9484117 52.1100381,51.5679797 49.7237611,61.7387548 C48.7138501,66.0467598 49.8742058,69.627446 51.7395172,72.3405337" id="Shape" fill="#EB7D7D"></path>
                        <path d="M137.403304,73.6727319 C133.398221,77.8064041 115.878526,79.1294028 90.53723,77.212249 C90.1265565,77.180737 89.8231258,77.1573571 89.639136,77.1461753 C87.5506989,77.0104701 78.7654384,76.8849301 71.0149936,76.7746379 C65.7458704,76.6989072 60.7689962,76.6272427 59.711817,76.574892 C58.935197,76.5367726 55.4597205,74.9159339 53.0571792,71.431817 C51.0968234,68.5794663 50.4996188,65.4419822 51.282338,62.1037357 C52.3852605,57.4018297 53.2025413,55.2178399 53.7433291,53.7738755 C54.3994917,52.0213977 54.7603558,51.0562135 54.7278272,48.3283863 L54.7227446,47.9034816 C54.6587039,43.0694282 54.8955527,38.6241931 58.4437103,37.3362643 C58.8518424,37.1903939 59.3067344,37.0816264 59.7865311,37.0155527 C64.3613723,36.4031004 68.0691233,40.0554511 69.5115629,41.7367726 L67.3133418,50.9504956 C67.0851334,51.9065311 67.6752224,52.8656163 68.6302414,53.0938247 C68.7695044,53.1268615 68.9082592,53.1421093 69.0449809,53.1421093 C69.8495553,53.1421093 70.5789072,52.5921728 70.7735705,51.7764168 L73.0622618,42.1840407 C73.0958069,42.0442694 73.1069886,41.9060229 73.1064803,41.7687929 C73.4398983,40.7868361 74.8681067,37.2152986 78.6551461,34.9418551 C80.4554003,33.8597713 81.8510801,33.3647268 83.0160102,33.2574841 C84.733418,33.100432 85.9476493,33.7850572 87.213723,34.6704447 C88.5240152,35.5878526 90.6002541,39.2681576 92.1158831,41.955324 C93.2,43.8760356 94.1357052,45.5355019 94.8899619,46.4691741 C99.0597205,51.6295299 107.68183,54.3421093 116.156036,56.6775604 C116.774587,56.8488437 117.454638,57.0272427 118.181449,57.2173316 C125.262008,59.0689199 137.113088,62.1667598 138.140788,71.7240661 C138.21906,72.453418 137.984752,73.0724778 137.403304,73.6727319 M141.323507,71.3814994 C140.059466,59.6285133 126.871156,56.1804828 118.991105,54.12 C118.279543,53.9339771 117.613723,53.7601525 117.007878,53.5924269 C109.38399,51.4902668 100.952478,48.878831 97.3799238,44.4574841 C96.7928844,43.7306734 95.8754765,42.1047522 94.9041931,40.3822618 C92.5916137,36.2836595 90.8182973,33.2869632 89.049047,32.0478272 C84.5219822,28.8844219 80.9606099,29.8201271 77.0063532,32.1972554 C73.8368488,34.1006861 71.9984752,36.6938247 70.9926302,38.6150445 C68.7573062,36.3360102 64.5895807,33.1283863 59.350953,33.8445235 C58.6536213,33.9400762 57.9832274,34.1017027 57.3595934,34.3238119 C51.3702668,36.4976366 51.4653113,43.6640915 51.5217281,47.9461753 L51.5273189,48.3659975 C51.5527319,50.4956036 51.3494282,51.0389327 50.7456163,52.6511309 C50.1758577,54.172859 49.3153748,56.4712071 48.1656925,61.372859 C47.1827192,65.5659975 47.9623888,69.6722236 50.4208386,73.2473189 L50.4218551,73.2488437 C53.2498094,77.3499873 57.5415502,79.6727319 59.5527319,79.7718424 C60.6663278,79.8267344 65.4409149,79.8958577 70.9692503,79.9746379 C78.3003812,80.0793393 87.4241423,80.2104701 89.4302414,80.3400762 C89.6060991,80.3522745 89.8993647,80.3746379 90.2952986,80.4041169 C101.193901,81.2285133 113.704193,81.7118679 123.591868,80.8036086 C131.073443,80.1169504 137.053621,78.6343583 139.70216,75.900432 C140.943329,74.6191105 141.503939,73.05723 141.323507,71.3814994" id="Border" fill="#000000"></path>
                        <path d="M52.3778399,88.0926048 C54.9115121,88.4804066 57.6459466,88.8021347 60.5267598,89.0664295 C89.5259975,91.7124269 133.12803,88.5032783 135.148869,88.349784 L135.280508,88.3365693 C139.434003,87.9553748 142.529809,84.3147141 142.214689,80.1373316 C141.896518,75.9187802 138.221804,72.7568996 134.003253,73.0755781 C133.506175,73.1116645 86.646709,76.5607116 59.2484879,73.5426684 L59.2337484,73.5396188 C57.6520457,73.3678272 56.132859,73.1726557 54.6888945,72.9510546 C50.5064295,72.3111563 46.5999492,75.1818043 45.9600508,79.3642694 C45.3247268,83.5467344 48.1953748,87.4572808 52.3778399,88.0926048" id="Shape" fill="#FFFFFF"></path>
                        <path d="M54.4466074,74.533418 C52.8455909,74.2894536 51.2471156,74.6813215 49.943939,75.6393901 C48.6402541,76.5974587 47.7868869,78.005845 47.5424142,79.6048285 C47.2989581,81.2063532 47.6933672,82.8063532 48.6524524,84.1110546 C49.610521,85.4152478 51.0194155,86.2675985 52.618399,86.5095299 L52.6199238,86.5105464 C55.0555019,86.8831004 57.7645235,87.2073698 60.6717662,87.4726811 C89.7863787,90.1288437 133.194257,86.892249 135.002135,86.7560356 L135.134282,86.7428208 C138.405438,86.4434562 140.865413,83.5336722 140.618907,80.2584498 C140.367319,76.9263024 137.453469,74.4200762 134.120813,74.6711563 C132.183329,74.8144854 86.3520712,78.1385006 59.073291,75.1341804 L58.97723,75.121474 C57.3894282,74.9481576 55.8656671,74.7504447 54.4466074,74.533418 L54.4466074,74.533418 Z M135.269479,89.9458704 C133.425006,90.0856417 89.7589327,93.3410419 60.3805337,90.6599746 C57.4092503,90.3885642 54.6351715,90.0571792 52.136061,89.67446 C49.6913342,89.3034307 47.5378399,88.0002541 46.0725286,86.0063532 C44.6082338,84.0134689 44.0059466,81.5697586 44.3779924,79.1219822 C44.7520712,76.6767471 46.055756,74.5237611 48.0486404,73.0599746 C50.0415248,71.5956798 52.4862516,70.9944091 54.9309784,71.3689962 C56.3286912,71.5824651 57.8346633,71.7781449 59.406709,71.9484117 L59.5103939,71.9606099 L59.5114104,71.9616264 C86.5121728,74.9171537 131.961728,71.6210928 133.88244,71.4792884 C136.34953,71.2932656 138.740381,72.0790343 140.615349,73.6917408 C142.489809,75.303939 143.624752,77.550953 143.810775,80.0175349 C144.187903,85.0249047 140.427294,89.4721728 135.427039,89.9316391 L135.269479,89.9458704 Z" id="Border" fill="#000000"></path>
                        <path d="M94.8613977,56.7388564 C96.02277,56.632122 97.1531385,56.1258958 98.0283609,55.2227192 C100.439543,52.7342821 102.084778,51.7741804 103.958221,51.0311055 C106.554409,50.0003558 107.824549,47.0605845 106.794307,44.4649047 C105.764574,41.8682084 102.824295,40.5975604 100.228615,41.6288183 C96.6845235,43.0346633 93.8545362,44.9955273 90.7643202,48.1838374 C88.820737,50.1894282 88.8710546,53.3914612 90.8771537,55.3350445 C91.979568,56.4034053 93.4438628,56.869479 94.8613977,56.7388564" id="Shape" fill="#FFFFFF"></path>
                        <path d="M102.094435,43.0491487 C101.685794,43.0491487 101.276645,43.1269123 100.884778,43.2824396 C97.5892249,44.5896823 94.9452605,46.4260229 92.0420839,49.4217027 C91.4326811,50.0504193 91.1043456,50.8788818 91.1185769,51.7551207 C91.1322999,52.6308513 91.4860483,53.4481321 92.1147649,54.0575349 C92.8024396,54.7238628 93.7437357,55.0567726 94.6987548,54.9678272 C95.4768996,54.8966709 96.2062516,54.5469886 96.7511055,53.9848539 C99.3742313,51.2768488 101.267497,50.185108 103.302058,49.3774841 C104.11629,49.0542313 104.75568,48.434155 105.102821,47.6300889 C105.45047,46.8260229 105.463685,45.9350445 105.14094,45.1208132 C104.817687,44.3070902 104.197103,43.6671919 103.393037,43.3195426 C102.975756,43.1396188 102.535604,43.0491487 102.094435,43.0491487 M94.3963405,58.5398729 C92.6270902,58.5398729 90.9218806,57.8552478 89.6395426,56.6130623 C86.9320457,53.9894282 86.863939,49.6529606 89.4870648,46.945972 C92.7627954,43.56554 95.7793139,41.4806607 99.5719441,39.9757052 C101.268513,39.3012452 103.127217,39.3286912 104.803964,40.0534689 C106.480203,40.7777382 107.774231,42.1114104 108.447675,43.8084879 C109.837764,47.3129352 108.118323,51.2946379 104.614384,52.6842186 C102.917306,53.357662 101.504854,54.1917154 99.3061245,56.4605845 C98.1696569,57.6331385 96.6489454,58.361474 95.0240407,58.5109022 C94.8141296,58.530216 94.6047268,58.5398729 94.3963405,58.5398729" id="Border" fill="#000000"></path>
                        <path d="M111.991309,63.7830241 C113.052554,63.6142821 114.06094,63.0790851 114.810623,62.1952224 C116.87568,59.7606607 118.329809,58.7771792 120.007065,57.9792122 C122.331334,56.8737484 123.319898,54.0935705 122.213926,51.7687929 C121.108463,49.4450318 118.327776,48.4559593 116.004015,49.5624396 C112.830953,51.070953 110.348615,53.0465565 107.702618,56.1667598 C106.03756,58.1296569 106.278983,61.0704447 108.242389,62.7344854 C109.320915,63.6503685 110.695756,63.9893774 111.991309,63.7830241" id="Shape" fill="#FFFFFF"></path>
                        <path d="M118.003812,50.8879288 C117.581449,50.8879288 117.161118,50.9819568 116.768742,51.1689962 C113.837103,52.5631512 111.532147,54.4015248 109.058958,57.3174079 C108.561372,57.9049555 108.321982,58.6495553 108.385006,59.4175349 C108.44803,60.1844981 108.805845,60.8813215 109.392884,61.3794155 C110.033799,61.9232529 110.879543,62.1601017 111.711563,62.0264295 C112.390597,61.9181703 113.009149,61.5700127 113.453875,61.0449809 C115.717662,58.3756036 117.405591,57.2472681 119.242948,56.3730623 C119.938247,56.0426938 120.46277,55.4612452 120.720457,54.7359593 C120.978653,54.0106734 120.937992,53.2279543 120.607624,52.5336722 C120.276747,51.8378653 119.695299,51.3133418 118.970013,51.0556544 C118.654892,50.9433291 118.32859,50.8879288 118.003812,50.8879288 M111.255146,65.6203304 C109.740025,65.6203304 108.264041,65.0866582 107.091487,64.0919949 C105.77967,62.9799238 104.97967,61.4231258 104.838882,59.7082592 C104.698094,57.9944091 105.233291,56.3278272 106.34587,55.0165184 C109.165184,51.6914867 111.824905,49.5801779 115.239898,47.9552732 C116.792122,47.2167726 118.540025,47.1273189 120.161881,47.7031766 C121.782719,48.2790343 123.08183,49.4520966 123.82033,51.0048285 C124.559339,52.5580686 124.649301,54.3064803 124.072935,55.9273189 C123.497078,57.5481576 122.324015,58.8472681 120.770775,59.586277 C119.269377,60.3003812 118.034816,61.1445997 116.166963,63.3463787 C115.172808,64.5189327 113.789327,65.2986023 112.271156,65.5400254 L112.270648,65.5405337 C111.932147,65.5944091 111.59263,65.6203304 111.255146,65.6203304" id="Border" fill="#000000"></path>
                    </g>
                    <g transform="translate(548.429987, 705.118603)">
                        <path d="M229.62033,73.4366198 C229.62033,93.5794407 178.217535,109.907776 114.809657,109.907776 C51.4012706,109.907776 -4.54747351e-13,93.5794407 -4.54747351e-13,73.4366198 C-4.54747351e-13,53.2943072 51.4012706,36.9654635 114.809657,36.9654635 C178.217535,36.9654635 229.62033,53.2943072 229.62033,73.4366198" id="Shape" fill="#FFD772"></path>
                        <path d="M32.4435578,69.913062 C29.1785006,69.3605842 26.634155,66.7354254 26.5264041,63.5704953 C26.4054384,59.9938752 29.4422872,57.0840912 33.308615,57.0693517 L54.1543583,56.994077 C58.0217027,56.9798981 61.253723,59.8673187 61.375197,63.4434305 C61.4961626,67.0195423 58.4603304,69.9293263 54.592986,69.9435576 L33.7472427,70.0198422 C33.3030241,70.0213212 32.8669377,69.9847266 32.4435578,69.913062" id="Shape" fill="#1D65CE"></path>
                        <path d="M32.7393647,68.1589578 C33.0687166,68.2148663 33.4300889,68.2448536 33.7426684,68.2407876 L54.5863787,68.1650569 C56.0532147,68.1594661 57.4372046,67.5937736 58.3815502,66.612325 C59.2044219,65.7579413 59.6364422,64.6540023 59.5973062,63.50432 C59.5083609,60.8913593 57.0814231,58.7729349 54.1818043,58.7729349 L54.1604574,58.7729349 L33.3157306,58.8491738 C31.8483863,58.8542564 30.4649047,59.4204572 29.5200508,60.4013975 C28.6976874,61.2557812 28.2656671,62.3597202 28.304803,63.5099108 C28.3825667,65.7818295 30.2473698,67.7371027 32.7393647,68.1589578 L32.7393647,68.1589578 Z M33.7233545,71.798602 C33.1947649,71.798602 32.6651588,71.7543835 32.147751,71.6669629 C27.9942567,70.9650569 24.883202,67.5851332 24.7490216,63.6303682 C24.6778653,61.5104191 25.4621093,59.4870391 26.9574079,57.933799 C28.56554,56.2636592 30.879136,55.2999997 33.3020076,55.2913593 L54.1472427,55.2151205 L54.1818043,55.2151205 C58.979263,55.2151205 62.9995934,58.8725538 63.1525794,63.3833543 C63.224244,65.5033034 62.4410165,67.5266834 60.9441931,69.0799235 C59.336061,70.7505715 57.0229733,71.7137227 54.6001017,71.7228714 L33.7543583,71.798602 L33.7233545,71.798602 Z" id="Border" fill="#000000"></path>
                        <path d="M29.1825667,81.2069375 C25.5729098,80.6539515 22.7078526,77.9027443 22.5126811,74.5573822 C22.2926048,70.7774585 25.5678272,67.6725029 29.8265311,67.6211687 L52.7845997,67.343151 C57.0438119,67.2913085 60.673291,70.3134178 60.8938755,74.0928333 C61.1129352,77.8722488 57.8392376,80.9777126 53.5800254,81.0290468 L30.6219568,81.3070646 C30.1325032,81.3131637 29.65169,81.2791103 29.1825667,81.2069375" id="Shape" fill="#1D65CE"></path>
                        <path d="M52.8910292,69.1213466 C52.8625667,69.1213466 52.8351207,69.1213466 52.8056417,69.1218549 L29.8470648,69.4003809 C28.1296569,69.4212196 26.5433799,70.0783987 25.4958577,71.2031764 C24.6485896,72.1119438 24.2201271,73.2662005 24.2897586,74.453494 C24.4325794,76.9119438 26.6033545,79.0125792 29.4526557,79.4481573 L29.4541804,79.4486656 C29.829784,79.5071154 30.2155527,79.5335449 30.6008132,79.5289705 L53.5583736,79.2509527 C55.2757814,79.2301141 56.8620584,78.5734432 57.9111055,77.4481573 C58.7578653,76.5393898 59.1868361,75.3841166 59.1172046,74.1963149 C58.9540534,71.3831001 56.1687929,69.1213466 52.8910292,69.1213466 M30.5159339,83.0872933 C29.9787039,83.0872933 29.4399492,83.0461243 28.9123761,82.9648028 C24.4158069,82.2766198 20.976925,78.7843708 20.7370267,74.6603555 C20.6104701,72.4936465 21.3759085,70.4036846 22.8930623,68.7772551 C24.600305,66.9449807 27.1197459,65.875095 29.804371,65.8425665 L52.7629479,65.5640404 C52.8046252,65.5635322 52.8468107,65.5635322 52.8889962,65.5635322 C58.023939,65.5635322 62.3975095,69.320076 62.6689199,73.9899616 C62.7949682,76.1576872 62.0290216,78.2471408 60.5128844,79.8740785 C58.8056417,81.706353 56.286709,82.7757304 53.6010673,82.8087672 L30.6440152,83.086785 C30.6013215,83.0872933 30.5586277,83.0872933 30.5159339,83.0872933" id="Border" fill="#000000"></path>
                        <path d="M116.09291,89.3127571 C102.639288,98.3450315 84.1864295,98.3668867 64.4222618,87.4474457 C48.2296315,78.5005588 29.4453875,55.1780684 56.0181957,25.036264 C82.5899873,-5.10655679 143.666989,-3.51875502 172.223024,15.914536 C200.778043,35.3478269 220.350597,83.226353 185.864193,87.6482081 C165.498755,90.2586274 116.09291,89.3127571 116.09291,89.3127571" id="Shape" fill="#1D65CE"></path>
                        <path d="M201.862618,73.1809654 C200.121321,80.4531382 194.662618,84.7265817 185.637967,85.8833797 C168.905565,88.0282335 131.879898,87.7461497 119.928691,87.5921471 C121.112935,85.7796948 122.347497,83.1367469 122.912681,79.4813466 C128.330724,79.3314102 165.827548,78.258475 173.492605,77.2699108 C174.466938,77.1438625 175.154104,76.2518676 175.028564,75.2775347 C174.902516,74.3032018 174.012554,73.6160353 173.036188,73.7410671 C169.064142,74.2528841 156.379517,74.8028206 144.675832,75.2246757 C144.575197,75.156569 144.466429,75.0965944 144.350038,75.048818 C144.265159,75.0137482 135.752834,71.4300125 125.815349,58.5700379 C123.135299,55.101677 122.135044,51.554536 122.840508,48.0267088 C124.476595,39.8554254 134.53352,34.0297583 134.672783,33.9504699 C135.525642,33.4655906 135.825515,32.3804572 135.341144,31.5260734 C134.856264,30.6716897 133.770114,30.3718168 132.916747,30.8561878 C132.443558,31.1240404 121.323355,37.5296313 119.354867,47.3136211 C118.432376,51.9021853 119.658806,56.4206097 123.000102,60.744879 C128.871512,68.342846 134.300229,72.8917659 138.020178,75.4559337 C131.173926,75.6846503 125.454994,75.8503428 123.221194,75.9138752 C123.226785,75.6816008 123.233901,75.4498346 123.233901,75.211461 C123.233901,67.1458956 114.034917,58.0495804 108.551817,53.3461497 C108.442033,53.2521217 97.5413977,43.9489451 94.0582973,44.4749934 C93.1973062,44.6076491 92.4547395,45.0894788 91.9673189,45.831029 C91.6044219,46.3829985 90.5182719,48.0373822 91.9581703,53.8132399 L80.1960356,58.0262005 C77.3035324,54.2147647 74.7434307,52.2828714 72.5848539,52.2828714 C71.751817,52.2828714 70.992986,52.6228968 70.3896823,53.2658447 C68.2494028,55.5499616 68.5050572,62.1969756 68.6351715,64.1791865 C68.6987039,65.1596186 69.5515629,65.8971027 70.5253875,65.8386529 C71.504803,65.7751205 72.247878,64.9288689 72.1843456,63.9484369 C71.9678272,60.5766452 72.2809149,56.9466579 72.8501652,55.8945614 C73.637967,56.1659718 75.3604574,57.4874457 77.5632529,60.4444978 C78.3749428,61.5331891 79.7762135,61.956569 81.0499111,61.499644 L93.5434307,57.0244216 C95.0692249,56.4775347 95.9109022,54.8836338 95.5022618,53.3161624 C94.7998475,50.6259464 94.71446,48.8927825 94.8369504,48.1375093 C96.8161118,48.8963403 102.569098,52.6071408 108.31141,57.8889705 C115.532757,64.5324267 119.676086,70.8465309 119.676086,75.211461 C119.676086,84.0724521 115.454485,87.5570773 115.077357,87.8508511 C101.797052,96.7530112 83.6506734,96.0394153 65.2821855,85.8904953 C61.1769759,83.6216262 47.5749428,75.0325538 44.9253875,59.750724 C43.0555019,48.9710544 47.2359339,37.6871916 57.3523253,26.2127316 C69.0905718,12.8983733 89.5383482,4.67880534 113.452961,3.66228692 C115.110902,3.59163888 116.770368,3.55707726 118.429327,3.55707726 C138.598577,3.55707726 158.468971,8.70625134 171.222719,17.3852856 C191.02399,30.8607621 205.627802,57.4554254 201.862618,73.1809654 M198.431868,42.6528841 C192.225006,31.4045995 183.037205,21.1225156 173.223227,14.4439896 C158.820686,4.64170242 135.857535,-0.85003837 113.302008,0.107521985 C88.0588056,1.18045718 67.2415248,9.61603533 54.6839644,23.8599997 C43.8194155,36.1837609 39.3568996,48.4638117 41.4189072,60.3580938 C44.3398729,77.199771 59.1063278,86.5420836 63.5627446,89.0045995 C73.9378399,94.7372551 84.289047,97.6155271 93.8763405,97.6155271 C102.19197,97.6155271 109.934282,95.4493263 116.612808,91.1021853 C122.37291,91.2023123 166.751055,91.8915118 186.091334,89.4127316 C199.34521,87.7131128 203.864142,80.0978651 205.322846,74.009428 C207.354867,65.5250569 204.906582,54.3885893 198.431868,42.6528841" id="Border" fill="#000000"></path>
                        <path d="M88.8176366,74.8541548 C88.2097586,74.8541548 87.6171283,74.5415754 87.2842186,73.9794407 C86.7845997,73.1336973 87.0661753,72.0429731 87.9119187,71.542846 L90.7103939,69.8894788 C91.555629,69.38986 92.645845,69.6704191 93.1469886,70.5166707 C93.6460991,71.362414 93.3650318,72.4531382 92.5192884,72.9532653 L89.7208132,74.6066325 C89.4377128,74.7743581 89.1251334,74.8541548 88.8176366,74.8541548" id="Border" fill="#000000"></path>
                        <path d="M99.7948158,69.7695804 C99.0324269,69.7695804 98.3274714,69.2760607 98.0931639,68.5096058 C97.807014,67.5698346 98.3366201,66.5756795 99.2758831,66.2885131 L102.385413,65.3395931 C103.322643,65.0534432 104.318323,65.582541 104.605997,66.5218041 C104.892147,67.4615754 104.362541,68.4557304 103.423787,68.7423886 L100.313748,69.6918168 C100.141957,69.7441675 99.9666074,69.7695804 99.7948158,69.7695804" id="Border" fill="#000000"></path>
                        <path d="M97.0609403,82.357433 C96.9293011,82.357433 96.7961372,82.3401522 96.6639898,82.3045741 C95.8502668,82.0855144 95.3694536,81.2489197 95.5885133,80.435705 L96.9618297,75.3353238 C97.1514104,74.6283352 97.640864,74.0433288 98.3026175,73.7297329 C98.9653875,73.416137 99.7282846,73.4100379 100.396137,73.7129604 L105.677459,76.1048282 C106.44493,76.4524775 106.785464,77.3556541 106.437306,78.1226173 C106.091182,78.8900887 105.185972,79.2306224 104.420025,78.8824648 L99.7359085,76.7609909 L98.532859,81.2285893 C98.3488691,81.9086402 97.7333672,82.357433 97.0609403,82.357433" id="Border" fill="#000000"></path>
                    </g>
                    <g transform="translate(562.846455, 214.841169)">
                        <path d="M146.876747,293.646252 L42.4691233,293.646252 C19.0144854,293.646252 3.41060513e-13,274.631766 3.41060513e-13,251.175604 L3.41060513e-13,42.4696315 C3.41060513e-13,19.0144854 19.0144854,5.68434189e-14 42.4691233,5.68434189e-14 L146.876747,5.68434189e-14 C170.331385,5.68434189e-14 189.346379,19.0144854 189.346379,42.4696315 L189.346379,251.175604 C189.346379,274.631766 170.331385,293.646252 146.876747,293.646252" id="Shape" fill="#FFD772"></path>
                        <path d="M172.138806,109.494587 C172.138806,75.7980178 144.822922,48.4811182 111.125337,48.4811182 L69.1787039,48.4811182 C33.5619314,48.4811182 4.68772554,77.3543075 4.68772554,112.971588 L4.68772554,135.929657 C4.68772554,139.234867 7.36777637,141.913901 10.6719695,141.913901 L30.2526557,141.913901 C33.5578653,141.913901 36.2363914,144.593443 36.2363914,147.898653 L36.2363914,236.642745 C36.2363914,239.947954 38.9164422,242.626989 42.2216518,242.626989 L139.459263,242.626989 C142.764473,242.626989 145.444524,239.947954 145.444524,236.642745 L145.444524,147.898653 C145.444524,144.593443 148.12305,141.913901 151.428259,141.913901 L166.15507,141.913901 C169.459771,141.913901 172.138806,139.234867 172.138806,135.929657 L172.138806,109.494587 Z" id="Shape" fill="#EB7D7D"></path>
                        <path d="M69.1786023,50.2600762 C34.6002033,50.2600762 6.46703939,78.3922236 6.46703939,112.971131 L6.46703939,135.929708 C6.46703939,138.248386 8.35369759,140.135044 10.6733926,140.135044 L30.252554,140.135044 C34.5336213,140.135044 38.0157052,143.617637 38.0157052,147.898704 L38.0157052,236.643304 C38.0157052,238.961982 39.9023634,240.84864 42.2220584,240.84864 L139.45967,240.84864 C141.779365,240.84864 143.666023,238.961982 143.666023,236.643304 L143.666023,147.898704 C143.666023,143.617637 147.147598,140.135044 151.428666,140.135044 L166.155476,140.135044 C168.473647,140.135044 170.360305,138.248386 170.360305,135.929708 L170.360305,109.494638 C170.360305,76.8323761 143.788513,50.2600762 111.125743,50.2600762 L69.1786023,50.2600762 Z M139.45967,244.406455 L42.2220584,244.406455 C37.9409911,244.406455 34.4578907,240.923863 34.4578907,236.643304 L34.4578907,147.898704 C34.4578907,145.579517 32.572249,143.692859 30.252554,143.692859 L10.6733926,143.692859 C6.39232529,143.692859 2.9092249,140.210267 2.9092249,135.929708 L2.9092249,112.971131 C2.9092249,76.4303431 32.6373062,46.7022618 69.1786023,46.7022618 L111.125743,46.7022618 C145.749377,46.7022618 173.918119,74.8704956 173.918119,109.494638 L173.918119,135.929708 C173.918119,140.210267 170.436036,143.692859 166.155476,143.692859 L151.428666,143.692859 C149.110496,143.692859 147.223837,145.579517 147.223837,147.898704 L147.223837,236.643304 C147.223837,240.923863 143.740229,244.406455 139.45967,244.406455 L139.45967,244.406455 Z" id="Border" fill="#000000"></path>
                        <path d="M145.445286,176.310597 C144.462313,176.310597 143.666379,175.514155 143.666379,174.53169 L143.666379,94.104244 C143.666379,93.1217789 144.462313,92.3253367 145.445286,92.3253367 C146.427751,92.3253367 147.224193,93.1217789 147.224193,94.104244 L147.224193,174.53169 C147.224193,175.514155 146.427751,176.310597 145.445286,176.310597" id="Border" fill="#000000"></path>
                        <path d="M111.125896,54.8810673 L83.826277,54.8810673 C80.0366963,54.8810673 76.9647776,51.8091487 76.9647776,48.019568 C76.9647776,44.2299873 80.0366963,41.1580686 83.826277,41.1580686 L111.125896,41.1580686 C114.915476,41.1580686 117.987395,44.2299873 117.987395,48.019568 C117.987395,51.8091487 114.915476,54.8810673 111.125896,54.8810673" id="Shape" fill="#EB7D7D"></path>
                        <path d="M83.8267853,42.9369759 C81.0237357,42.9369759 78.7441931,45.2170267 78.7441931,48.019568 C78.7441931,50.8221093 81.0237357,53.1021601 83.8267853,53.1021601 L111.125896,53.1021601 C113.928945,53.1021601 116.208488,50.8221093 116.208488,48.019568 C116.208488,45.2170267 113.928945,42.9369759 111.125896,42.9369759 L83.8267853,42.9369759 Z M111.125896,56.6599746 L83.8267853,56.6599746 C79.0618551,56.6599746 75.1863787,52.7839898 75.1863787,48.019568 C75.1863787,43.2551461 79.0618551,39.3791614 83.8267853,39.3791614 L111.125896,39.3791614 C115.890826,39.3791614 119.766302,43.2551461 119.766302,48.019568 C119.766302,52.7839898 115.890826,56.6599746 111.125896,56.6599746 L111.125896,56.6599746 Z" id="Border" fill="#000000"></path>
                    </g>
                    <g transform="translate(466.469174, 102.873189)">
                        <path d="M145.864803,322.703431 L42.468615,322.703431 C19.0134689,322.703431 -5.68434189e-14,303.688945 -5.68434189e-14,280.233291 L-5.68434189e-14,42.4696315 C-5.68434189e-14,19.0139771 19.0134689,0 42.468615,0 L145.864803,0 C169.319949,0 188.334943,19.0139771 188.334943,42.4696315 L188.334943,280.233291 C188.334943,303.688945 169.319949,322.703431 145.864803,322.703431" id="Shape" fill="#1D65CE"></path>
                        <path d="M151.945057,282.166302 L34.929047,282.166302 C32.2901652,282.166302 30.211385,279.914714 30.4248539,277.281931 L33.20554,242.796544 L37.1445489,193.902008 L45.6472173,88.4229733 C45.8566201,85.7952732 43.781906,83.5436849 41.1445489,83.5436849 L40.6764422,83.5436849 C38.0080813,83.5436849 35.9201525,81.2463532 36.1783482,78.5881576 L40.387751,35.081169 C40.6103685,32.763507 42.5570013,30.9947649 44.8848285,30.9947649 L142.257128,30.9947649 C144.569708,30.9947649 146.507192,32.738094 146.75014,35.0354257 L151.381398,78.5474968 C151.396137,78.7101398 151.405794,78.8727827 151.405794,79.0354257 C151.405794,81.4903177 149.409352,83.5436849 146.888386,83.5436849 C144.25967,83.5436849 142.186989,85.7749428 142.384193,88.3975604 L150.241881,193.932503 L153.845438,242.354358 L156.447726,277.312427 C156.640864,279.929962 154.572757,282.166302 151.945057,282.166302" id="Shape" fill="#FFD772"></path>
                        <path d="M44.8850318,32.7735705 C43.4674968,32.7735705 42.2939263,33.8393901 42.1582211,35.2518424 L37.9493266,78.7593393 C37.8730877,79.5390089 38.1206099,80.2866582 38.6466582,80.8655654 C39.1727065,81.4454892 39.8939263,81.764676 40.677662,81.764676 L41.1452605,81.764676 C42.8946887,81.764676 44.5790597,82.5021601 45.7673698,83.7880559 C46.9566963,85.0754765 47.56,86.8162643 47.420737,88.5636595 L38.9180686,194.045235 L32.1983736,277.425159 C32.1358577,278.197713 32.3899873,278.935705 32.9145108,279.504956 C33.4395426,280.073698 34.1551715,280.387294 34.9282338,280.387294 L151.945769,280.387294 C152.712732,280.387294 153.424803,280.077255 153.947294,279.514104 C154.472325,278.94892 154.730521,278.213469 154.674612,277.443456 L140.61108,88.5296061 C140.478933,86.7908513 141.083761,85.0587039 142.270546,83.7794155 C143.457332,82.4991105 145.141194,81.764676 146.887573,81.764676 C148.398119,81.764676 149.62709,80.5402795 149.62709,79.0358323 C149.62709,78.9285896 149.619466,78.8218551 149.610318,78.7151207 L144.981093,35.2238882 C144.833189,33.8266836 143.662668,32.7735705 142.257332,32.7735705 L44.8850318,32.7735705 Z M151.945769,283.945108 L34.9282338,283.945108 C33.1752478,283.945108 31.4883355,283.206099 30.3000254,281.916645 C29.1112071,280.6277 28.5104447,278.885896 28.6527573,277.137992 L43.8751207,88.2800508 C43.9361118,87.5100381 43.6799492,86.7710292 43.1544091,86.2022872 C42.6298856,85.6350699 41.9162897,85.3224905 41.1452605,85.3224905 L40.677662,85.3224905 C38.9028208,85.3224905 37.2026938,84.5692503 36.0108259,83.2564168 C34.8199746,81.9440915 34.236493,80.1794155 34.4087929,78.415756 L38.6171792,34.909784 C38.9297586,31.6635324 41.6250572,29.215756 44.8850318,29.215756 L142.257332,29.215756 C145.487319,29.215756 148.178551,31.6371029 148.519085,34.8477764 L153.150343,78.3593393 C153.173215,78.5987294 153.184905,78.8167726 153.184905,79.0358323 C153.184905,82.5021601 150.36,85.3224905 146.887573,85.3224905 C146.117052,85.3224905 145.403964,85.6335451 144.878933,86.1982211 C144.35695,86.7623888 144.10028,87.4958069 144.158221,88.2637865 L158.221753,277.180686 C158.350343,278.923507 157.742973,280.656163 156.554155,281.935451 C155.36737,283.212706 153.687573,283.945108 151.945769,283.945108 L151.945769,283.945108 Z" id="Border" fill="#000000"></path>
                        <path d="M93.6878272,41.4929098 C83.0962135,41.4929098 74.4939263,35.267751 74.1330623,35.0029479 C71.8702922,33.3419568 71.3823634,30.1607624 73.0438628,27.8979924 C74.7018043,25.640305 77.8723253,25.1493266 80.1335705,26.7976112 C80.2692757,26.8941804 86.5366201,31.3277255 93.6878272,31.3277255 C100.966607,31.3277255 107.632427,26.8382719 107.697992,26.7930368 C110.01108,25.214892 113.172452,25.7998983 114.758221,28.1084117 C116.344498,30.4159085 115.772198,33.5666074 113.470801,35.1610165 C113.09723,35.4192122 104.202186,41.4929098 93.6878272,41.4929098" id="Shape" fill="#FFD772"></path>
                        <path d="M77.1426175,27.6060991 C76.1240661,27.6060991 75.1217789,28.0726811 74.4778145,28.950953 C73.400305,30.4193139 73.717967,32.4909784 75.1858196,33.5689962 C75.5273698,33.819568 83.6757814,39.7138501 93.6884879,39.7138501 C103.640712,39.7138501 112.103227,33.943075 112.458501,33.6975858 C113.946175,32.6673443 114.320254,30.6119441 113.292554,29.115629 C112.264854,27.6188056 110.204879,27.2365947 108.701449,28.26277 C108.630292,28.3105464 101.516188,33.1064803 93.6884879,33.1064803 C85.9863278,33.1064803 79.376925,28.443202 79.0994155,28.2449809 C78.5078018,27.8134689 77.8216518,27.6060991 77.1426175,27.6060991 M93.6884879,43.2716645 C82.5230496,43.2716645 73.4618043,36.7161372 73.0816264,36.4371029 C70.0315629,34.1982211 69.3708259,29.8952986 71.6091995,26.8452351 C73.8409657,23.8053367 78.1342313,23.1400254 81.1812452,25.3601017 C81.2264803,25.3926302 87.1355019,29.5486658 93.6884879,29.5486658 C100.354816,29.5486658 106.6369,25.3631512 106.699924,25.3204574 C109.81352,23.1959339 114.089504,23.9923761 116.22521,27.1008895 C118.360915,30.207878 117.57972,34.4792884 114.483405,36.6231258 C114.088996,36.8955527 104.737535,43.2716645 93.6884879,43.2716645" id="Border" fill="#000000"></path>
                    </g>
                    <g transform="translate(182.402287, 59.079187)">
                        <path d="M165.924778,463.887166 L42.4696315,463.887166 C19.0144854,463.887166 3.41060513e-13,444.872681 3.41060513e-13,421.417027 L3.41060513e-13,42.4696315 C3.41060513e-13,19.0144854 19.0144854,-5.68434189e-14 42.4696315,-5.68434189e-14 L165.924778,-5.68434189e-14 C189.379924,-5.68434189e-14 208.394409,19.0144854 208.394409,42.4696315 L208.394409,421.417027 C208.394409,444.872681 189.379924,463.887166 165.924778,463.887166" id="Shape" fill="#FFD772"></path>
                        <path d="M67.7185769,49.6226175 L142.750343,49.6226175 C146.150089,49.6226175 149.018704,52.1522236 149.444625,55.5250318 L193.793799,407.059466 C194.3046,411.10521 191.137128,414.675222 187.059365,414.65095 L124.582618,414.279288 C120.97601,414.257942 118.024041,411.404066 117.880712,407.8 L110.159746,109.464041 C109.904091,103.066582 102.994816,103.066582 102.739161,109.207878 L95.2270902,407.075731 C95.0883355,410.699111 92.1104447,413.565184 88.4845235,413.565184 L28.3752478,413.565184 C24.3508513,413.565184 21.2209911,410.064295 21.6702922,406.065311 L61.0136213,55.6170267 C61.3968488,52.2035578 64.2837611,49.6226175 67.7185769,49.6226175" id="Shape" fill="#EB7D7D"></path>
                        <path d="M106.394663,102.854587 L106.398729,102.854587 C108.940025,102.85662 111.757814,104.903888 111.93723,109.392834 L119.659212,407.754206 C119.763914,410.389022 121.931639,412.485083 124.593393,412.500839 L187.07014,412.872376 L187.099619,412.872376 C188.520203,412.872376 189.873189,412.264498 190.816518,411.20122 C191.766455,410.130826 192.208132,408.701601 192.028717,407.282033 L147.679543,55.7475985 C147.366963,53.2698348 145.24803,51.401474 142.750445,51.401474 L67.7186785,51.401474 C65.1865311,51.401474 63.0640407,53.2993139 62.7809403,55.8157052 L23.4376112,406.26399 C23.2780178,407.687624 23.7161372,409.060432 24.6711563,410.129301 C25.6261753,411.197662 26.9420584,411.786226 28.3753494,411.786226 L88.4846252,411.786226 C91.1662008,411.786226 93.3466328,409.687116 93.4493011,407.007065 L100.960864,109.1631 C101.133164,105.011131 103.824396,102.854587 106.394663,102.854587 M187.099619,416.430191 L187.048793,416.430191 L124.572046,416.058653 C120.00432,416.030699 116.284371,412.434257 116.103431,407.871105 L108.381449,109.509733 C108.296569,107.390801 107.292249,106.41291 106.39568,106.412402 L106.394663,106.412402 C105.547395,106.412402 104.598475,107.310496 104.516645,109.282033 L97.0050826,407.120407 C96.8282084,411.742008 93.0858958,415.344041 88.4846252,415.344041 L28.3753494,415.344041 C25.9514612,415.344041 23.6343075,414.3077 22.0185515,412.50033 C20.4033037,410.692961 19.6317662,408.27568 19.9021601,405.866531 L59.2454892,55.4182465 C59.7303685,51.1000762 63.3730623,47.8436595 67.7186785,47.8436595 L142.750445,47.8436595 C147.036086,47.8436595 150.673189,51.0502668 151.209403,55.3023634 L195.559085,406.836798 C195.866074,409.273393 195.107751,411.725235 193.478272,413.562592 C191.859466,415.387243 189.53723,416.430191 187.099619,416.430191" id="Border" fill="#000000"></path>
                        <path d="M104.886048,64.1298602 C104.886048,67.1794155 102.413875,69.6515883 99.3643202,69.6515883 C96.3152732,69.6515883 93.8431004,67.1794155 93.8431004,64.1298602 C93.8431004,61.080305 96.3152732,58.6086404 99.3643202,58.6086404 C102.413875,58.6086404 104.886048,61.080305 104.886048,64.1298602" id="Shape" fill="#EB7D7D"></path>
                        <path d="M99.3644219,60.387141 C97.3008895,60.387141 95.6221093,62.0659212 95.6221093,64.1299619 C95.6221093,66.1934943 97.3008895,67.8722745 99.3644219,67.8722745 C101.428463,67.8722745 103.107243,66.1934943 103.107243,64.1299619 C103.107243,62.0659212 101.428463,60.387141 99.3644219,60.387141 M99.3644219,71.4300889 C95.3390089,71.4300889 92.0642948,68.1553748 92.0642948,64.1299619 C92.0642948,60.1040407 95.3390089,56.8293266 99.3644219,56.8293266 C103.389835,56.8293266 106.665057,60.1040407 106.665057,64.1299619 C106.665057,68.1553748 103.389835,71.4300889 99.3644219,71.4300889" id="Border" fill="#000000"></path>
                        <path d="M112.425311,90.8777637 C111.442846,90.8777637 110.646404,90.0813215 110.646404,89.0988564 L110.646404,49.8348158 C110.646404,48.8523507 111.442846,48.0559085 112.425311,48.0559085 C113.407776,48.0559085 114.204219,48.8523507 114.204219,49.8348158 L114.204219,89.0988564 C114.204219,90.0813215 113.407776,90.8777637 112.425311,90.8777637" id="Border" fill="#000000"></path>
                    </g>
                    <g transform="translate(52.877255, 189.188818)">
                        <path d="M148.700381,370.484371 L42.4696315,370.484371 C19.0144854,370.484371 -3.41060513e-13,351.470394 -3.41060513e-13,328.01474 L-3.41060513e-13,42.4696315 C-3.41060513e-13,19.0144854 19.0144854,-2.84217094e-14 42.4696315,-2.84217094e-14 L148.700381,-2.84217094e-14 C172.155527,-2.84217094e-14 191.170013,19.0144854 191.170013,42.4696315 L191.170013,328.01474 C191.170013,351.470394 172.155527,370.484371 148.700381,370.484371" id="Shape" fill="#1D65CE"></path>
                        <path d="M115.531741,57.0109784 L115.531741,57.0109784 L79.7538501,57.0109784 L79.7538501,57.016061 L38.3663024,57.016061 C33.9286912,57.016061 30.3312325,60.6135197 30.3312325,65.0511309 L30.3312325,318.266887 C30.3312325,322.704498 33.9286912,326.301957 38.3663024,326.301957 L81.4331385,326.301957 C85.8707497,326.301957 89.4682084,322.704498 89.4682084,318.266887 L89.4682084,115.764219 C89.4682084,111.326099 93.0656671,107.72864 97.5037865,107.72864 C101.941398,107.72864 105.538856,111.326099 105.538856,115.764219 L105.538856,318.264346 C105.538856,322.701957 109.136315,326.301957 113.574435,326.301957 L156.640762,326.301957 C161.078882,326.301957 164.676341,322.701957 164.676341,318.264346 L164.676341,65.0490978 C164.676341,60.6109784 161.078882,57.0109784 156.640762,57.0109784 L115.531741,57.0109784 Z" id="Shape" fill="#FFD772"></path>
                        <path d="M38.3662008,58.7923761 C34.9166455,58.7923761 32.1100381,61.6015248 32.1100381,65.0515883 L32.1100381,318.267344 C32.1100381,321.7169 34.9166455,324.523507 38.3662008,324.523507 L81.4330368,324.523507 C84.8825921,324.523507 87.6891995,321.7169 87.6891995,318.267344 L87.6891995,115.764168 C87.6891995,110.352224 92.092249,105.949682 97.5036849,105.949682 C102.915121,105.949682 107.31817,110.352224 107.31817,115.764168 L107.31817,318.264803 C107.31817,321.714358 110.124778,324.520457 113.574333,324.520457 L156.641169,324.520457 C160.090724,324.520457 162.897332,321.714358 162.897332,318.264803 L162.897332,65.049047 C162.897332,61.5989835 160.090724,58.7923761 156.641169,58.7923761 L38.3662008,58.7923761 Z M81.4330368,328.081321 L38.3662008,328.081321 C32.9547649,328.081321 28.5522236,323.67878 28.5522236,318.267344 L28.5522236,65.0515883 C28.5522236,59.6396442 32.9547649,55.2345616 38.3662008,55.2345616 L156.641169,55.2345616 C162.052605,55.2345616 166.455146,59.6371029 166.455146,65.049047 L166.455146,318.264803 C166.455146,323.676239 162.052605,328.078272 156.641169,328.078272 L113.574333,328.078272 C108.162897,328.078272 103.760356,323.676239 103.760356,318.264803 L103.760356,115.764168 C103.760356,112.314104 100.953748,109.507497 97.5036849,109.507497 C94.0536213,109.507497 91.247014,112.314104 91.247014,115.764168 L91.247014,318.267344 C91.247014,323.67878 86.8444727,328.081321 81.4330368,328.081321 L81.4330368,328.081321 Z" id="Border" fill="#000000"></path>
                        <path d="M94.7857179,71.9267598 C94.7857179,74.9763151 92.3135451,77.4479797 89.2644981,77.4479797 C86.2149428,77.4479797 83.74277,74.9763151 83.74277,71.9267598 C83.74277,68.8772046 86.2149428,66.4050318 89.2644981,66.4050318 C92.3135451,66.4050318 94.7857179,68.8772046 94.7857179,71.9267598" id="Shape" fill="#FFD772"></path>
                        <path d="M89.2643456,68.1840407 C87.200305,68.1840407 85.5215248,69.8628208 85.5215248,71.9263532 C85.5215248,73.9903939 87.200305,75.6691741 89.2643456,75.6691741 C91.327878,75.6691741 93.0066582,73.9903939 93.0066582,71.9263532 C93.0066582,69.8628208 91.327878,68.1840407 89.2643456,68.1840407 M89.2643456,79.2269886 C85.2389327,79.2269886 81.9637103,75.9522745 81.9637103,71.9263532 C81.9637103,67.9009403 85.2389327,64.6262262 89.2643456,64.6262262 C93.2897586,64.6262262 96.5644727,67.9009403 96.5644727,71.9263532 C96.5644727,75.9522745 93.2897586,79.2269886 89.2643456,79.2269886" id="Border" fill="#000000"></path>
                    </g>
                </g>
                <g id="Character" transform="translate(232.891440, 86.287692)">
                    <path d="M98.5230959,725.086082 C97.1965393,724.588496 81.0847223,724.080237 63.9462216,723.668039 C54.4417744,723.43983 44.6171238,723.241101 36.8255101,723.084049 C27.6971746,722.90565 35.5650272,689.51861 40.764519,670.590529 L54.9906943,671.571469 L61.1965393,671.998407 L78.9347858,673.218229 L74.8687121,692.375027 C73.5218252,699.3026 76.378242,702.448216 81.0237312,704.109716 L98.446857,708.882778 L98.5230959,725.086082 Z" id="Shape" fill="#FFFFFF"></path>
                    <path d="M63.9460692,723.668039 C54.4416219,723.43983 44.6169713,723.241101 36.8253576,723.084049 C27.6970222,722.90565 35.5648748,689.51861 40.7643665,670.590529 L54.9905419,671.571469 L61.1963868,671.998407 C57.7605546,685.350377 51.137937,717.112003 63.9460692,723.668039" id="Shadow" fill="#D0ABB1" style="mix-blend-mode: multiply;"></path>
                    <path d="M45.7088138,659.867581 C44.5260946,663.763388 41.2340997,674.883083 38.5235533,686.636069 C32.5433754,712.567454 34.5515075,719.055891 35.6920412,720.64166 C36.1042394,721.21396 36.4971238,721.299347 36.8605291,721.306971 C47.5395635,721.516374 63.2274923,721.837594 76.1250781,722.207098 C83.019106,722.404811 88.4086867,722.596933 92.1438837,722.777873 C94.1022064,722.872918 95.5944554,722.944582 96.7324478,723.04166 L96.6745063,710.240135 L80.4254593,705.785751 C74.148458,703.541787 71.7596397,699.043693 73.1222826,692.036323 L78.8396905,665.08537 L45.7088138,659.867581 Z M96.7537947,727.721202 L96.7482039,726.61828 C92.6557007,726.248267 78.2119904,725.676476 36.7908976,724.863769 C35.1690425,724.831749 33.7906435,724.090199 32.8041124,722.719424 C31.6325749,721.090961 28.0676448,716.134925 35.0612915,685.817263 C38.4442648,671.153477 42.7207579,657.474188 42.7639599,657.336958 L43.2224097,655.874697 L83.0978862,662.153731 L76.6084326,692.745345 C75.595472,697.957543 77.0282547,700.771774 81.5609103,702.412943 L100.219614,707.522473 L100.29687,724.525269 C100.327873,724.631495 100.35227,724.744836 100.372092,724.868343 C100.487467,725.592105 100.141342,726.537467 99.1080514,726.898331 L96.7537947,727.721202 Z" id="Border" fill="#000000"></path>
                    <path d="M132.122791,726.003337 C131.676031,716.614773 91.7797159,701.392918 87.1667553,703.631291 C84.4831467,704.934468 84.2671365,712.964455 84.5685342,719.564201 L37.3609103,718.800288 C37.3187248,718.799779 37.2765393,718.799271 37.2343538,718.799271 C33.1825114,718.799271 29.864087,721.954544 29.7964885,725.902702 C29.7278735,729.891012 33.0036041,733.178941 37.1128798,733.245523 L124.708814,734.662549 C124.751508,734.663058 124.793185,734.663566 124.83537,734.663566 C128.887213,734.663566 132.205637,731.508293 132.274221,727.560135 C132.282384,727.026463 132.227492,726.506005 132.122791,726.003337" id="Shape" fill="#EB7D7D"></path>
                    <path d="M54.2435025,720.852282 C53.252397,723.708699 52.4493474,727.638051 53.3286359,731.72903 C53.4557007,732.319119 53.6183436,732.912765 53.8267299,733.513019 C54.024951,734.107683 54.2689154,734.707937 54.5586232,735.307174 L37.0846715,735.022549 C34.6297795,734.982397 32.3375304,734.016196 30.6297795,732.298788 C28.9016981,730.570199 27.9766664,728.288115 28.0173271,725.873883 C28.1037312,720.990021 32.2358786,717.020008 37.2320666,717.020008 L37.3794618,717.020008 L55.7784453,717.320389 C55.5344809,717.767657 55.2396905,718.366895 54.934735,719.084049 C54.7060183,719.612638 54.4722191,720.202219 54.2435025,720.852282" id="Shadow" fill="#D0ABB1" style="mix-blend-mode: multiply;"></path>
                    <path d="M124.835675,732.882727 L53.3286867,731.728471 L37.1406308,731.464684 C35.6209358,731.444862 34.2028925,730.844608 33.1457134,729.787429 C32.1088646,728.745497 31.5497795,727.378788 31.5743626,725.934824 C31.6260183,722.982346 34.1622318,720.577772 37.2321175,720.577772 L54.2435533,720.852232 L86.4316092,721.371164 L86.3452051,719.48044 C86.2740488,717.909411 86.2435533,716.506615 86.2435533,715.26138 C86.2435533,706.199119 87.9106435,705.243591 87.9106435,705.243591 C90.7975558,704.258077 112.225764,711.322371 124.012295,719.327454 C129.618394,723.134316 130.309627,725.325421 130.345205,726.08781 L130.380783,726.367352 C130.462105,726.758204 130.502765,727.150072 130.4926,727.531266 C130.441774,730.483744 127.905561,732.882727 124.835675,732.882727 M133.892854,725.772689 C133.633642,722.367352 130.025002,718.640796 122.86363,714.392257 C112.368077,708.160999 90.9754466,699.805726 86.3909485,702.031901 C83.5904402,703.388953 82.4417744,708.267734 82.7213169,717.756933 L55.7784961,717.320338 L37.3795126,717.019957 L37.2321175,717.019957 C32.2359294,717.019957 28.103782,720.98997 28.0173779,725.873833 C27.9767172,728.288064 28.901749,730.570148 30.6298303,732.298737 C32.3375812,734.015637 34.6298303,734.982346 37.0847223,735.022498 L54.558674,735.307632 L124.70861,736.440542 L124.835675,736.440542 C129.831863,736.440542 133.969093,732.470529 134.050415,727.592257 C134.06058,726.992003 134.009754,726.382092 133.892854,725.772689" id="Border" fill="#000000"></path>
                    <path d="M170.296819,663.140008 C170.296819,663.140008 158.203807,723.239119 170.946374,723.468343 C194.015243,723.8841 234.961114,724.683083 232.641419,725.427174 L233.266069,707.762117 L212.74612,702.568725 C208.312067,701.302143 205.236082,698.181939 205.399233,694.208877 L207.210161,667.950173 L170.296819,663.140008 Z" id="Shape" fill="#FFFFFF"></path>
                    <path d="M197.583274,724.639373 C188.079335,724.410656 179.424189,723.634544 171.633083,723.478 C162.504748,723.299601 165.294583,688.096044 170.494583,669.167962 L183.840453,670.813706 L187.671203,671.239627 C184.23537,684.591088 184.77565,718.082829 197.583274,724.639373" id="Shadow" fill="#D0ABB1" style="mix-blend-mode: multiply;"></path>
                    <path d="M171.720351,665.119932 C168.906628,679.709512 163.775243,713.846742 169.363045,720.797187 C169.987187,721.573807 170.554405,721.682066 170.978293,721.690199 C181.673591,721.882829 197.380326,722.178636 210.250974,722.517136 C217.14551,722.698077 222.534074,722.874443 226.26673,723.040643 C228.266222,723.129589 229.836234,723.218026 230.937124,723.302905 L231.437251,709.134671 L212.257581,704.279271 C206.822257,702.726031 203.432677,698.744836 203.622257,694.135942 L205.32086,669.498077 L171.720351,665.119932 Z M230.774481,727.894519 L230.811584,726.852587 C226.603706,726.51307 212.06241,725.989055 170.914252,725.246997 C169.228865,725.216501 167.733566,724.448521 166.589983,723.026412 C158.693668,713.203286 167.520605,667.920948 168.55288,662.789563 L168.880707,661.162117 L209.101292,666.402778 L207.174481,694.331622 C207.032168,697.80354 210.193541,699.982448 213.210059,700.851063 L235.094176,706.389563 L234.442588,724.843947 C234.464443,724.925777 234.482232,725.012181 234.496463,725.104176 C234.604214,725.838102 234.2403,726.782448 233.185663,727.120948 L230.774481,727.894519 Z" id="Border" fill="#000000"></path>
                    <path d="M264.220834,725.142702 C263.773058,715.754138 223.876743,700.532282 219.264799,702.771164 C216.58119,704.073833 216.364671,712.10382 216.666577,718.703566 L169.458954,717.939652 C169.41626,717.939144 169.374583,717.938636 169.332397,717.938636 C165.279538,717.938636 161.96213,721.093909 161.893515,725.042066 C161.825917,729.030885 165.100631,732.318305 169.210415,732.384887 L256.806349,733.801914 C256.848534,733.802422 256.890211,733.802931 256.932905,733.802931 C260.984748,733.802931 264.302664,730.647657 264.371756,726.6995 C264.379919,726.165828 264.325027,725.64537 264.220834,725.142702" id="Shape" fill="#EB7D7D"></path>
                    <path d="M187.618598,720.924252 C186.67781,723.391342 185.915421,726.786005 186.750999,730.32044 C186.870948,730.829716 187.025459,731.343566 187.22368,731.86199 C187.411736,732.375332 187.643502,732.893756 187.918471,733.411673 L171.330415,733.165675 C168.999538,733.131113 166.823172,732.296552 165.202333,730.812435 C163.561673,729.319678 162.683401,727.34814 162.722537,725.262244 C162.803858,721.042168 166.727111,717.612943 171.470186,717.612943 L171.609449,717.612943 L189.075777,717.872155 C188.844519,718.258941 188.564468,718.776857 188.27476,719.395917 C188.057734,719.852842 187.836641,720.362117 187.618598,720.924252" id="Shadow" fill="#D0ABB1" style="mix-blend-mode: multiply;"></path>
                    <path d="M169.33194,719.718102 C166.262054,719.718102 163.723299,722.120643 163.671676,725.073121 C163.647569,726.516577 164.206654,727.885828 165.245535,728.928775 C166.299157,729.985955 167.7172,730.581634 169.239436,730.606539 L256.932956,732.024074 C260.00335,732.024074 262.542105,729.621533 262.593473,726.669055 C262.598522,726.29091 262.56091,725.898534 262.479081,725.505141 L262.443502,725.227124 C262.406908,724.462702 261.717708,722.274138 256.109068,718.465751 C244.320504,710.460669 222.895345,703.393324 220.009957,704.385446 C220.014532,704.385446 217.848331,705.60476 218.443502,718.622295 L218.529907,720.512003 L169.33194,719.718102 Z M256.932956,735.581889 L256.8064,735.58138 L169.181495,734.164354 C166.728636,734.124201 164.435879,733.155967 162.725078,731.439576 C161.000555,729.708953 160.073998,727.426361 160.115167,725.011622 C160.19903,720.130809 164.333718,716.160288 169.33194,716.160288 L169.478318,716.161304 L214.81809,716.894214 C214.539563,707.406539 215.688738,702.529792 218.487721,701.171215 C223.071711,698.945548 244.462308,707.299296 254.960402,713.530554 C262.12025,717.78011 265.729907,721.505141 265.98861,724.910986 C266.10551,725.518864 266.160402,726.129792 266.149729,726.729538 C266.065866,731.610351 261.931177,735.581889 256.932956,735.581889 L256.932956,735.581889 Z" id="Border" fill="#000000"></path>
                    <path d="M123.585408,160.059703 C123.402435,160.105446 104.972956,164.888166 85.049195,172.01396 C66.8636804,178.519678 56.3376321,183.7395 50.3554211,187.32781 C49.0339472,188.120694 48.9017998,189.980923 50.1012915,190.951698 C53.1660946,193.42692 57.7048493,196.588293 64.363045,200.344328 C74.5231467,206.07241 87.0212407,210.982194 87.1127274,211.017772 C87.1127274,211.017772 81.1101861,219.033019 77.3897286,229.742041 C75.2855355,235.800491 73.9030704,242.717899 74.7518633,249.538737 C74.8331848,250.194392 52.9272128,243.409131 38.3300082,234.575586 C13.298242,219.429462 1.3490679,203.673426 1.79125341,186.402778 C2.28934744,166.905955 20.886552,155.378636 26.9958277,151.592105 C36.0733373,145.965675 48.3020539,140.222346 63.341444,134.514595 C78.1317871,128.903413 92.749322,124.410402 102.243604,121.670885 C108.495192,119.866565 112.520605,118.824633 112.92213,118.717899 C124.337632,115.775078 135.976768,122.64166 138.919589,134.057162 C141.86241,145.472664 135.00091,157.1118 123.585408,160.059703" id="Shape" fill="#EB7D7D"></path>
                    <path d="M23.3972509,183.297162 C22.2724732,210.789919 61.3133881,227.994493 76.2282547,231.8349 C74.1240615,237.892842 73.9029688,242.717746 74.7517617,249.538585 C74.8330831,250.194239 52.9271111,243.408979 38.3299065,234.575434 C13.2981403,219.429309 1.34896625,203.673274 1.79115176,186.402626 C2.28924579,166.905802 20.8864504,155.378483 26.9957261,151.591952 C36.0732356,145.965523 48.3019523,140.222194 63.3413424,134.514443 C78.1316854,128.903261 92.7492204,124.410249 102.243502,121.670732 L102.23842,135.139601 C102.23842,135.139601 24.1809866,164.146463 23.3972509,183.297162" id="Shadow" fill="#D0ABB1" style="mix-blend-mode: multiply;"></path>
                    <path d="M118.284417,119.811927 C116.644265,119.811927 114.993947,120.019805 113.364468,120.440135 C112.356082,120.699856 88.3962344,126.913833 63.9738709,136.177365 C49.0381657,141.842422 36.9126257,147.537467 27.9337185,153.103922 C22.0252051,156.766946 4.04451898,167.913579 3.56929662,186.446234 C3.14439191,203.021584 14.8160565,218.267327 39.2501098,233.05462 C51.0773017,240.211927 67.1509993,245.74687 72.7753957,247.342803 C72.2828925,237.977619 75.5098303,228.749665 78.4424859,222.447759 C80.6590044,217.68537 82.9797159,213.937467 84.3820031,211.831241 C80.3001734,210.148903 71.2419777,206.266819 63.4889917,201.893756 C57.619106,198.582956 52.7382928,195.366692 48.9812407,192.333909 C47.9687884,191.516628 47.4178354,190.254112 47.5077973,188.957035 C47.5977591,187.655383 48.321012,186.476221 49.4417236,185.803286 C57.4839091,180.975332 69.2623081,175.773299 84.4501098,170.341025 C104.311863,163.236577 122.953795,158.383718 123.139309,158.335434 C133.586069,155.639627 139.892041,144.947886 137.198267,134.502143 C135.893566,129.440897 132.695599,125.190834 128.193947,122.534671 C125.141851,120.733909 121.737022,119.811927 118.284417,119.811927 M74.7083055,251.370758 C74.0130069,251.370758 72.8267299,251.09274 70.2874669,250.318661 C67.6257134,249.506971 64.3489662,248.380669 61.0605291,247.147632 C55.7609103,245.15983 45.6414694,241.08105 37.4081784,236.098077 C11.7842903,220.591088 -0.447475938,204.320186 0.0124986489,186.354748 C0.537530415,165.901889 19.7466791,153.993375 26.0592585,150.080288 C35.2318125,144.393375 47.5637058,138.596679 62.7118633,132.850809 C87.3156753,123.518153 111.460021,117.256908 112.476031,116.995154 C118.457225,115.452587 124.681876,116.331368 130.001825,119.470377 C135.321774,122.609385 139.10119,127.632003 140.643757,133.613706 C143.826984,145.958814 136.374379,158.594138 124.030288,161.779906 C123.847314,161.827174 105.36091,166.639881 85.6480768,173.690453 C67.0046206,180.359322 56.6645952,185.617263 51.2729815,188.853858 C51.1077973,188.952969 51.064087,189.098331 51.0569713,189.203032 C51.0498557,189.304176 51.0717108,189.44903 51.2160565,189.565421 C54.8201225,192.475205 59.5377845,195.580669 65.2368951,198.7949 C74.8079243,204.193629 86.4521429,208.843693 87.7482039,209.356526 L89.9118633,210.211927 L88.5390552,212.084354 C88.3962344,212.275459 74.2940743,231.386005 76.5187248,249.321965 L76.6554466,250.427429 L75.7065266,251.059703 C75.4208849,251.244709 75.1753957,251.370758 74.7083055,251.370758" id="Border" fill="#000000"></path>
                    <path d="M211.959436,46.873731 C208.53936,38.0727145 203.150288,30.8208721 196.842791,25.7433625 C195.618903,24.7578479 193.806959,25.2686484 193.201114,26.7182037 C191.769347,30.1352304 189.527416,33.2549254 187.249907,35.5329432 C182.589678,40.1931719 171.718522,43.0068949 166.244062,45.4719521 C161.164519,47.7596268 150.234913,54.7258276 154.347238,63.8653447 C157.597048,71.0871999 166.839233,69.7489534 170.573922,68.8696649 C171.559436,68.6378987 172.578496,69.067886 173.107594,69.9309102 C175.472016,73.7875811 180.153591,85.2757641 185.035421,98.4788136 C185.391203,99.4373905 187.997048,99.4999064 189.018649,99.4536548 C191.753591,99.3291313 194.458547,98.7797031 197.073032,97.7631846 C213.705815,91.2996522 220.37011,68.5154083 211.959436,46.873731" id="Shape" fill="#FFFFFF"></path>
                    <path d="M199.422715,98.6874032 C198.863121,98.951698 198.293871,99.1956624 197.715472,99.4192965 C194.975447,100.486641 192.078877,101.096552 189.099462,101.228699 C188.855497,101.243947 188.601368,101.24903 188.347238,101.24903 C186.288788,101.24903 184.007213,100.827174 183.366298,99.0940106 C178.101749,84.8525874 173.700224,74.2960436 171.589932,70.8602113 C171.462867,70.651825 171.214328,70.5450906 170.981037,70.6009991 C158.288788,73.5895633 153.984849,67.3989661 152.724367,64.5933752 C148.296921,54.7585595 158.680148,46.926285 165.511152,43.8513168 C167.122333,43.1245061 169.160453,42.3773651 171.315472,41.5895633 C174.925129,40.2680893 179.152829,38.7229813 182.415853,36.8678352 C182.283706,37.5743155 182.156641,38.316374 182.034659,39.0940106 C181.927924,39.7801605 181.82119,40.496806 181.729703,41.2388644 C179.976209,54.7788899 180.561724,76.8170093 196.912422,95.9072253 C197.308865,96.3799064 197.724621,96.8475048 198.146476,97.3151033 C198.559182,97.7725366 198.98612,98.2299699 199.422715,98.6874032" id="Shadow" fill="#D0ABB1" style="mix-blend-mode: multiply;"></path>
                    <path d="M198.28213,50.8333244 C197.611736,50.8333244 196.997251,50.3875811 196.811228,49.7095633 C196.590644,48.8973651 197.068407,48.0592456 197.880097,47.8371364 C197.953795,47.8173142 205.229017,45.7822444 208.635879,41.5235404 C209.162435,40.865853 210.123045,40.7596268 210.779716,41.2851669 C211.437403,41.8112151 211.544138,42.7708085 211.01809,43.428496 C206.984036,48.4699191 199.020631,50.6869458 198.683655,50.7789407 C198.549475,50.8155353 198.415294,50.8333244 198.28213,50.8333244" id="Border" fill="#000000"></path>
                    <path d="M198.705002,39.619144 C198.705002,40.7098683 197.820631,41.5947475 196.72889,41.5947475 C195.638674,41.5947475 194.754303,40.7098683 194.754303,39.619144 C194.754303,38.5279115 195.638674,37.6435404 196.72889,37.6435404 C197.820631,37.6435404 198.705002,38.5279115 198.705002,39.619144" id="Border" fill="#000000"></path>
                    <path d="M212.200707,77.5132228 C209.603502,86.3874286 204.184951,92.8982291 196.91227,95.9071237 C196.753693,95.9782799 196.591558,96.0443536 196.429424,96.1053447 C194.050262,97.0303765 191.529297,97.5589661 188.937175,97.6758657 C187.996895,97.721609 187.021037,97.6199572 186.564112,97.4827272 C183.916082,90.3366027 177.771228,74.133299 174.624087,68.999881 C173.689398,67.4801859 171.900326,66.7330449 170.167162,67.1396522 C166.797403,67.9325366 158.665256,69.1320284 155.97199,63.1345696 C151.86983,54.021482 166.355218,47.3734515 166.975802,47.0939089 C168.464494,46.4230068 170.447213,45.6961961 172.541241,44.9287247 C175.570466,43.8207196 178.813159,42.631393 181.730567,41.2387628 C184.387746,39.9630322 186.782156,38.5144934 188.505154,36.7914947 C191.173515,34.1231338 193.425612,30.794036 194.843655,27.403947 C194.954455,27.1345696 195.179106,27.0532482 195.269576,27.0329178 C195.381901,27.0024223 195.5603,26.9922571 195.728026,27.1294871 C198.893464,29.6809483 201.735142,32.7152558 204.190034,36.1460055 C206.640351,39.5716726 208.697785,43.3937818 210.299818,47.5157641 C214.228153,57.6199572 214.90363,68.2730703 212.200707,77.5132228 M213.618242,46.2298683 C210.187492,37.4064883 204.77504,29.8435912 197.958776,24.3594743 C196.952931,23.5462596 195.650771,23.2616345 194.390796,23.5818378 C193.125739,23.9020411 192.06856,24.8169076 191.5603,26.0316472 C190.334887,28.9592202 188.306933,31.9630322 185.989779,34.2756116 C185.063731,35.2057259 183.829678,36.064684 182.415701,36.8677336 C179.153185,38.7228797 174.924468,40.2679877 171.316336,41.5894616 C169.160809,42.3772634 167.123198,43.1244045 165.512016,43.8512151 C158.680504,46.9261834 148.297276,54.7584578 152.723706,64.5932736 C153.984189,67.3988644 158.289652,73.5894616 170.980377,70.6008975 C171.214176,70.544989 171.463731,70.6517234 171.590796,70.8601097 C173.700072,74.2959419 178.101088,84.8524858 183.367162,99.0939089 C184.006552,100.827073 186.289652,101.248928 188.347086,101.248928 C188.601215,101.248928 188.855345,101.243845 189.100326,101.228598 C192.078217,101.09645 194.974786,100.486539 197.715319,99.4191948 C198.294735,99.1955608 198.863985,98.9515963 199.422054,98.6873015 C207.132346,95.0735785 212.846196,87.9782799 215.616209,78.5094108 C218.533109,68.5221173 217.82612,57.0608721 213.618242,46.2298683" id="Border" fill="#000000"></path>
                    <path d="M165.09565,64.4240741 C162.815599,64.4240741 160.35105,63.5737564 159.019919,60.7315709 C158.337327,59.2738835 158.144697,56.9308085 161.103274,54.0479623 C162.62551,52.5648619 164.346476,51.5707069 164.418649,51.5295379 C165.149017,51.1097158 166.081164,51.3628289 166.49997,52.0931973 C166.918776,52.8230576 166.667187,53.7541885 165.937835,54.1740106 C164.304799,55.1158149 160.990948,57.7496141 161.7818,59.4380512 C163.28828,62.6558403 167.552575,60.9343663 167.733007,60.8596522 C168.512168,60.5379242 169.403655,60.9074286 169.725383,61.6855735 C170.047619,62.4637183 169.677607,63.355205 168.899462,63.6774413 C167.938344,64.0754083 166.554862,64.4240741 165.09565,64.4240741" id="Border" fill="#000000"></path>
                    <path d="M223.61565,149.691012 L214.747035,240.039169 C214.747035,263.322524 194.442079,279.266615 171.158725,279.266615 L139.921114,278.626209 C116.637759,278.626209 97.7605037,259.749462 97.7605037,236.466107 L97.7605037,149.691012 C97.7605037,144.33396 98.7566918,139.210707 100.581851,134.499144 C106.680961,118.722778 121.994811,107.53091 139.921114,107.53091 L181.450466,107.53091 C204.738394,107.53091 223.61565,126.407657 223.61565,149.691012" id="Shape" fill="#EB7D7D"></path>
                    <path d="M139.920656,278.62631 C116.637302,278.62631 97.7605546,259.749563 97.7605546,236.466209 L97.7605546,149.691113 C97.7605546,144.334061 98.7567426,139.210809 100.581393,134.499246 L137.170974,162.153629 C137.170974,162.153629 125.023579,256.039271 139.920656,278.62631" id="Shadow" fill="#D0ABB1" style="mix-blend-mode: multiply;"></path>
                    <path d="M139.920656,109.30997 C131.608077,109.30997 123.624849,111.816196 116.834506,116.557238 C110.194608,121.19307 105.148102,127.618992 102.24086,135.14072 C100.448229,139.768928 99.5394618,144.664481 99.5394618,149.691164 L99.5394618,236.46626 C99.5394618,258.732587 117.654328,276.847454 139.920656,276.847454 L171.194862,277.487861 C182.289144,277.487861 192.717098,273.776552 200.521419,267.037543 C208.54734,260.10692 212.96767,250.519119 212.96767,240.039322 L212.976311,239.865497 L221.836793,149.60476 C221.790542,127.378077 203.690923,109.30997 181.450516,109.30997 L139.920656,109.30997 Z M171.158267,281.045675 L139.884062,280.40476 C115.692956,280.405269 95.9816473,260.694468 95.9816473,236.46626 L95.9816473,149.691164 C95.9816473,144.222803 96.971228,138.895739 98.9224351,133.856349 C102.086349,125.673883 107.575548,118.682778 114.797403,113.640338 C122.188509,108.479983 130.876184,105.752155 139.920656,105.752155 L181.450516,105.752155 C205.681266,105.752155 225.394608,125.462956 225.394608,149.691164 L225.386476,149.864989 L216.525485,240.127251 C216.50058,251.622549 211.64518,262.132842 202.846704,269.7303 C194.396387,277.02687 183.14302,281.045675 171.158267,281.045675 L171.158267,281.045675 Z" id="Border" fill="#000000"></path>
                    <path d="M241.373973,515.76969 C237.470542,627.601965 223.813617,669.549106 221.659106,678.026361 C221.49138,678.687098 220.865713,679.119627 220.194811,679.047962 L179.90307,678.236781 L169.848178,678.656094 L158.400656,678.866005 C157.623528,678.774011 157.079182,678.057365 157.201673,677.279728 C158.644621,668.329284 167.285027,613.116577 170.767619,513.304633 C173.206755,443.403744 168.123655,397.131825 162.593795,365.350885 C162.588712,365.330554 162.588712,365.304633 162.58363,365.27922 C162.197861,363.104379 161.62302,361.523693 161.028356,360.69523 C159.986933,359.261431 158.873846,360.074646 158.542969,363.896755 C157.796844,372.481253 157.907645,383.108953 157.124926,392.389767 C149.785663,479.464735 141.516285,505.228903 138.269017,517.777314 C129.018191,553.487606 91.9782928,663.54504 88.3594872,675.356984 C88.1617744,676.002981 87.5208595,676.403998 86.8550399,676.312511 L54.9912534,671.571469 L30.6349637,669.894214 C29.796336,669.777823 29.2677464,668.943769 29.5162852,668.135637 C34.0962089,653.309716 58.4113297,529.249233 72.1795635,492.811622 C73.8619014,488.349614 76.3020539,467.581634 83.1274669,386.697772 C86.9246715,341.676171 94.8580895,309.47795 94.9749891,309.08659 C101.761266,286.092435 108.550593,270.47922 110.17753,266.859906 C110.401673,266.366895 110.889093,266.051774 111.422257,266.051774 L132.779309,265.96537 L204.408788,265.665497 C204.972956,265.665497 205.475624,266.006031 205.689093,266.524455 C209.868001,276.92903 246.405739,371.464735 241.373973,515.76969" id="Shape" fill="#1D65CE"></path>
                    <path d="M132.779716,265.965472 C126.279081,286.062041 112.617073,330.987073 107.585307,368.364455 C100.881368,418.168775 98.9652305,467.973096 86.5128798,521.60969 C77.5522699,560.19673 62.6450272,633.487708 54.9906435,671.571571 L30.6348621,669.894316 C29.7962344,669.777416 29.2676448,668.943871 29.5166918,668.135739 C34.0961073,653.309817 58.411228,529.248826 72.1799701,492.811723 C73.8623081,488.349716 76.3019523,467.581736 83.1278735,386.697873 C86.9245698,341.675764 94.8584961,309.477543 94.9753957,309.086183 C101.760656,286.092537 108.550999,270.478814 110.177429,266.860008 C110.401063,266.366997 110.888992,266.051876 111.422664,266.051876 L132.779716,265.965472 Z" id="Shadow" fill="#D0ABB1" style="mix-blend-mode: multiply;"></path>
                    <path d="M196.231203,530.102651 C192.510745,581.361101 184.273896,646.048775 179.902359,678.236831 L169.848483,678.655637 L158.400961,678.865548 C157.623833,678.774061 157.079995,678.057416 157.200961,677.279779 C158.644926,668.329335 167.285332,613.116628 170.766908,513.304684 C173.206044,443.403795 168.12396,397.131876 162.5941,365.350936 C162.589525,365.330605 162.589525,365.304684 162.583934,365.279271 C162.198166,363.10443 161.623833,361.523235 161.028661,360.694265 C160.800453,359.760084 160.464494,358.926031 159.982156,358.255637 C156.922435,354.006082 158.222054,354.437594 164.421292,359.802778 C177.017988,370.705446 201.451025,458.148394 196.231203,530.102651" id="Shadow" fill="#D0ABB1" style="mix-blend-mode: multiply;"></path>
                    <path d="M239.596031,515.707632 C237.203655,584.290605 230.813312,637.922626 220.601876,675.112969 C220.367569,675.965319 220.171889,676.677899 220.019919,677.259347 L169.933007,677.148039 L159.026272,677.142956 C160.203909,669.712715 169.037962,613.950072 172.546476,513.368623 C174.525129,456.66011 171.842537,408.143718 164.347746,365.047911 L164.334532,364.972689 C163.990948,363.019449 163.390694,360.832918 162.356895,359.499246 C161.54673,357.640033 160.293871,356.176247 158.593744,355.14753 C153.572143,352.104582 146.567823,354.098992 146.272524,354.186412 C145.329195,354.461889 144.787899,355.449436 145.063884,356.392765 C145.338852,357.336094 146.325383,357.876882 147.270745,357.601406 C148.866679,357.134316 153.68091,356.331266 156.750796,358.190478 C157.253973,358.494925 157.687518,358.863922 158.066171,359.288826 C157.046095,360.606742 156.852448,362.822244 156.772143,363.741177 C156.397556,368.053756 156.240504,372.752105 156.072778,377.725929 C155.910644,382.587429 155.74241,387.614112 155.352067,392.239779 C148.601876,472.332791 141.036946,500.543718 137.402384,514.100516 C137.086755,515.274595 136.800605,516.343972 136.545459,517.33152 C129.569093,544.272308 107.214837,612.400389 95.2051797,649.00166 C91.4405037,660.471546 87.7383436,671.351342 86.7548621,674.520847 L31.3642648,668.162524 C32.9540997,662.72415 36.4854847,646.558966 40.9200463,626.264176 C50.3462216,583.121609 64.5922191,517.92415 73.8415202,493.439271 C75.5670603,488.872054 77.841012,470.533045 84.9007324,386.848166 C88.6862471,341.967861 96.6140743,309.847403 96.682181,309.588191 C103.226018,287.410809 109.698699,272.293655 111.694633,267.829614 L204.139868,267.447911 C207.042537,274.711952 216.634405,300.319576 225.245332,341.300516 C236.874303,396.651978 241.702765,455.331012 239.596031,515.707632 M228.7264,340.569131 C219.952321,298.803439 210.136819,272.82936 207.337327,265.863159 C206.854989,264.662651 205.708865,263.88908 204.415345,263.88908 L204.40213,263.88908 L111.417632,264.273324 C110.185103,264.278407 109.062359,265.007251 108.557657,266.130504 C106.673032,270.323134 100.000097,285.773706 93.2702369,308.580313 C93.1960311,308.832918 85.1909485,341.088572 81.3551162,386.549309 C75.2631213,458.757187 72.325383,487.386412 70.5139472,492.181329 C61.1721429,516.910681 46.8926003,582.260618 37.4445698,625.504328 C32.8829434,646.380567 29.2809103,662.869004 27.8150908,667.610554 C27.5431721,668.492384 27.6702369,669.444862 28.1632483,670.223515 C28.6577845,671.003693 29.4659167,671.525675 30.3817998,671.656298 L30.4463487,671.665955 L86.680148,678.081711 C88.1922191,678.263667 89.6092458,677.344735 90.0600717,675.87739 C90.9378354,673.011825 94.6964122,661.963795 98.5856117,650.110173 C110.606959,613.472308 132.985612,545.274087 139.988915,518.223007 C140.242029,517.244608 140.527162,516.184887 140.838217,515.02199 C144.500224,501.365573 152.120555,472.947784 158.897683,392.538636 C159.294633,387.823515 159.464392,382.75058 159.629576,377.84537 C159.793744,372.919322 159.949779,368.267734 160.317251,364.048674 C160.325891,363.947022 160.336056,363.856552 160.345205,363.762524 C160.375192,363.784379 160.405688,363.805218 160.436692,363.82504 C160.573414,364.318051 160.709627,364.898992 160.830593,365.590224 L160.842791,365.657314 C168.294887,408.508648 170.960199,456.784633 168.990186,513.244608 C165.413058,615.804709 156.347238,671.417416 155.446095,676.99861 C155.309881,677.84537 155.528433,678.721609 156.046857,679.404709 C156.564773,680.08781 157.35105,680.53457 158.201876,680.630122 L169.583833,680.68908 L220.064138,680.824277 C220.157149,680.836476 220.249652,680.836476 220.340123,680.836476 C221.772397,680.836476 223.022715,679.881457 223.38307,678.466971 C223.539614,677.84842 223.760199,677.04842 224.032626,676.054773 C225.714455,669.929233 229.653464,655.583108 233.549271,630.050707 C238.3818,598.365319 241.613312,559.936857 243.151304,515.831647 C245.267696,455.168369 240.414328,396.201152 228.7264,340.569131" id="Border" fill="#000000"></path>
                    <path d="M172.85626,69.5183054 C178.833388,79.1701478 219.854989,164.715256 149.013312,169.828343 C146.858801,169.985904 144.591965,170.067259 142.222969,170.067259 C81.1200463,170.118051 81.2069586,112.415383 89.9134389,81.6860309 C97.4859929,54.9719267 111.12767,38.2349508 111.819411,37.3963231 C111.839233,37.3709102 111.854481,37.3505798 111.875319,37.3251669 C112.846095,36.0087755 142.492346,-2.90863239 175.524621,2.25019862 C178.654989,2.73812746 181.369602,3.41411221 183.707594,4.23749214 C203.198826,11.0888263 196.500478,28.2984832 187.249652,35.5310118 C182.060326,39.5920029 171.717251,43.0075048 166.243299,45.472562 C161.166298,47.7597285 150.233134,54.7279623 154.345459,63.8664629 C157.724875,71.3734515 167.580529,69.6301224 170.990948,68.7660817 C171.712677,68.588191 172.464392,68.8880639 172.85626,69.5183054" id="Shape" fill="#1D65CE"></path>
                    <path d="M136.281673,147.637594 C144.098699,155.769741 147.544697,163.744328 149.013566,169.828191 C146.858547,169.985751 144.591711,170.067106 142.223223,170.067106 C81.1203004,170.117899 81.2067045,112.41523 89.9131848,81.6858784 C97.4862471,54.9717742 111.127924,38.2347984 111.819157,37.3961707 C111.839487,37.3707577 111.854735,37.3504273 111.875065,37.3250144 C112.84584,36.008623 142.4926,-2.90878486 175.523858,2.25004614 C178.655243,2.73797498 181.368839,3.41395974 183.70734,4.23733966 C167.402384,13.0912151 135.803909,33.4368314 119.417632,65.2741885 C96.7187757,109.37584 120.068204,130.778636 136.281673,147.637594" id="Shadow" fill="#D0ABB1" style="mix-blend-mode: multiply;"></path>
                    <path d="M169.500682,3.56598007 C155.160148,3.56598007 141.853414,11.5588644 132.782003,18.7532736 C121.061546,28.0488263 113.380732,38.2800843 113.306527,38.3807196 L113.205383,38.5108339 C112.61936,39.2218886 99.0905164,55.8348492 91.6246969,82.1713168 C86.0470603,101.856704 84.5187248,131.433324 98.568026,150.000542 C107.750237,162.13523 122.411482,168.288216 142.143121,168.288216 C144.461292,168.285167 146.733718,168.210961 148.883655,168.053909 C166.355574,166.792918 178.159894,160.384786 183.969805,149.007403 C191.073744,135.09584 188.087721,116.036628 184.331685,102.497619 C180.185815,87.5563231 173.725332,74.3237946 171.373617,70.5037183 C167.955574,71.3642012 156.694074,73.4165519 152.723045,64.5967297 C148.297632,54.7614057 158.680351,46.9281148 165.51288,43.8506052 C167.023426,43.1700461 168.895853,42.4193473 170.878064,41.6249381 C176.084163,39.5370093 182.563452,36.9392965 186.153795,34.1301478 C191.017327,30.3268441 195.39598,23.1558149 194.353541,16.8076573 C193.550491,11.918712 189.770567,8.25416304 183.117454,5.91566241 C180.812499,5.10397244 178.165993,4.46204106 175.250618,4.00765732 C173.321774,3.70676787 171.401063,3.56598007 169.500682,3.56598007 L169.500682,3.56598007 Z M142.141088,171.846031 C121.235879,171.846031 105.622156,165.218839 95.730923,152.14692 C88.7875939,142.971317 84.8846715,130.957086 84.1304148,116.438661 C83.3329561,101.09584 86.3388011,87.7753829 88.2015711,81.20105 C95.8686613,54.1555608 109.85443,36.9824985 110.446552,36.2648365 L110.455192,36.2536548 C111.201825,35.2523841 141.501698,-4.86654852 175.79903,0.492536611 C178.92889,0.980465455 181.788865,1.67576406 184.29814,2.55962683 C194.228001,6.04984284 197.15659,11.9202367 197.864595,16.2307831 C199.190135,24.3039724 193.860021,32.6216345 188.345917,36.9321808 C184.357098,40.0534007 177.61809,42.7553066 172.202079,44.9270982 C170.255447,45.7077844 168.416565,46.4447602 166.973617,47.0948238 C166.355574,47.3733498 151.867645,54.0254464 155.967264,63.136501 C158.739818,69.2945696 167.092041,67.918712 170.553286,67.0414566 C172.041978,66.6750017 173.569805,67.2945696 174.367264,68.5799572 L174.36828,68.581482 C179.296361,76.5398047 201.341088,122.813756 187.138293,150.625192 C180.723045,163.187835 167.939309,170.245523 149.141342,171.602575 C146.93194,171.764201 144.603604,171.846031 142.223426,171.846031 L142.141088,171.846031 Z" id="Border" fill="#000000"></path>
                    <path d="M121.714913,237.904481 C121.714913,237.904481 125.293058,239.80537 125.054176,243.286946 C125.008433,243.927352 124.896616,244.532181 124.713642,245.091266 C124.047823,247.210707 122.431558,248.64908 120.02241,248.791393 L115.61072,248.516933 C118.456971,249.228496 121.684417,250.438153 121.684417,253.635103 C121.679335,256.725319 119.224443,258.229767 116.17997,258.397492 C116.068153,258.407657 115.956336,258.407657 115.844519,258.407657 C99.9969967,258.397492 87.4023335,253.563947 87.4023335,253.563947 C80.7390552,251.983261 74.7517617,249.538534 74.7517617,249.538534 C74.2282547,247.688471 74.0300336,245.701177 74.0859421,243.632562 C74.4518887,229.187835 87.1126257,211.017568 87.1126257,211.017568 L97.7301607,208.140821 L97.8419777,218.13828 C98.0147858,218.280593 109.979208,224.49152 120.947441,226.788852 C124.078318,227.449589 126.741596,229.370809 126.751771,232.567759 C126.756844,235.652892 124.759386,237.72659 121.714913,237.904481" id="Shape" fill="#FFFFFF"></path>
                    <path d="M120.022359,248.791393 L115.610669,248.516933 C118.456921,249.228496 121.684367,250.438153 121.684367,253.635103 C121.679284,256.725319 119.224392,258.229767 116.179919,258.397492 C116.068102,258.407657 115.956285,258.407657 115.844468,258.407657 C99.9969459,258.397492 87.4022826,253.563947 87.4022826,253.563947 C80.7390044,251.983261 74.7517108,249.538534 74.7517108,249.538534 C74.2282039,247.688471 74.0299828,245.701177 74.0858913,243.632562 L77.1252814,233.035357 C77.1252814,233.035357 113.582715,244.593172 124.713591,245.091266 C124.047772,247.210707 122.431508,248.64908 120.022359,248.791393" id="Shadow" fill="#D0ABB1" style="mix-blend-mode: multiply;"></path>
                    <path d="M121.720351,236.115408 C110.718064,234.894061 96.5213678,230.115408 96.3785469,230.067124 C95.4484326,229.752003 94.4380133,230.250605 94.1228925,231.181228 C93.8077718,232.111342 94.3063741,233.121253 95.2369967,233.436374 C95.83166,233.637645 109.770161,238.330402 121.122638,239.627479 C121.763553,240.053401 123.405739,241.32964 123.279182,243.163439 C123.185663,244.516425 122.635726,246.798509 120.015142,247.007403 L115.72086,246.741584 L115.719335,246.750224 C106.447162,245.101431 93.2247985,241.473985 93.084519,241.435866 C92.1371238,241.175637 91.1582166,241.731673 90.8969713,242.679068 C90.6367426,243.625955 91.1927782,244.60537 92.1401734,244.866107 C92.7267045,245.027225 106.018191,248.673477 115.45199,250.315662 C119.359995,251.342346 119.904849,252.567251 119.903833,253.635103 C119.9018,256.049843 117.506882,256.543871 116.078166,256.623667 C116.002435,256.627734 115.926196,256.626717 115.847416,256.629767 C100.539157,256.617568 88.1615202,251.951241 88.0380133,251.903972 L87.8133627,251.834341 C82.7866791,250.639932 78.1010374,248.926082 76.2540234,248.218077 C73.4555482,235.545141 85.9261962,216.010707 88.2184453,212.562676 L95.9780387,210.461025 L96.0720666,218.98199 L96.7094237,219.508039 C97.3035787,219.998509 109.649703,226.23739 120.580326,228.531164 C121.608534,228.747174 124.964062,229.676272 124.970682,232.572333 C124.975243,234.668903 123.788966,235.950732 121.720351,236.115408 M128.528502,232.564709 C128.519843,228.861533 125.754405,225.982244 121.311203,225.049589 C112.189475,223.134976 102.469525,218.483388 99.6085342,217.04908 L99.4850272,205.825192 L86.0253068,209.470936 L85.6552941,210.002066 C84.9599955,210.999271 68.6814694,234.609436 73.0413169,250.024938 L73.2771492,250.860008 L74.0812153,251.187835 C74.3292458,251.288979 80.204214,253.672206 86.8791823,255.269665 C88.2672382,255.788089 100.467492,260.175383 115.841825,260.187581 L115.858598,260.187581 C115.999386,260.187581 116.139157,260.183515 116.277403,260.175891 C120.638776,259.932943 123.458598,257.366742 123.461647,253.638153 C123.463172,252.174366 122.99964,251.023667 122.293159,250.115408 C124.890872,249.139551 126.602181,246.690249 126.828356,243.40842 C126.966603,241.405878 126.202181,239.821634 125.28274,238.664328 C127.311711,237.456704 128.534074,235.274239 128.528502,232.564709" id="Border" fill="#000000"></path>
                    <path d="M289.813464,137.535739 C289.70368,137.456958 285.650313,161.652638 279.35349,176.505497 C274.767975,187.32227 270.164671,194.857213 267.42922,199.142854 C266.718674,200.257467 265.095294,200.277797 264.357302,199.180465 C261.09072,194.324557 256.329347,185.590122 250.66429,170.272206 C244.381698,153.287708 240.484367,137.545904 240.445739,137.388343 C237.63659,125.942854 226.079792,118.939551 214.633795,121.74565 C203.183731,124.551749 196.175853,136.109055 198.981444,147.560135 C199.201012,148.452638 204.436082,169.660262 213.013464,191.337009 C222.18856,214.523286 237.444468,245.480847 263.877505,246.630021 C264.393896,246.652384 264.924519,246.664582 265.469373,246.664582 C274.779157,246.664582 287.791101,243.113375 299.743325,227.39241 C305.541037,219.766997 310.864544,209.528623 315.563909,196.962422 C322.969246,177.160643 328.749678,147.231291 328.90368,146.403845 C328.90368,146.403845 304.461495,148.118712 289.813464,137.535739" id="Shape" fill="#EB7D7D"></path>
                    <path d="M331.071812,144.47119 L330.655548,146.727861 C330.599131,147.027734 324.779563,177.396221 317.232422,197.584277 C312.469017,210.316171 307.062156,220.704989 301.16025,228.47119 C288.606755,244.979449 274.822765,248.445777 265.471304,248.445777 C264.911711,248.445777 264.348051,248.430529 263.799131,248.405116 C236.332804,247.210707 220.719081,215.637645 211.362029,191.993426 C202.747035,170.229767 197.47537,148.88288 197.252753,147.983261 C195.783375,141.985802 196.738903,135.769792 199.940936,130.488979 C201.104849,128.562676 202.51781,126.849843 204.134074,125.375891 C204.3018,125.98072 204.484265,126.631291 204.677912,127.322524 C204.855802,127.952765 208.820224,124.568775 209.017937,125.260008 C216.51476,151.333197 235.331533,224.816806 263.559741,225.487708 C290.065459,226.11795 306.060377,172.76598 312.159487,147.388598 C312.3018,146.793934 312.439538,146.214519 312.571685,145.650351 C312.713998,145.045523 312.850211,144.461025 312.977276,143.896857 C321.617683,145.091266 328.652499,144.638915 328.779563,144.62875 L331.071812,144.47119 Z" id="Shadow" fill="#D0ABB1" style="mix-blend-mode: multiply;"></path>
                    <path d="M265.470593,244.888115 C264.962333,244.888115 264.454074,244.872867 263.956488,244.852537 C238.553185,243.749614 223.66119,213.406539 214.670593,190.68227 C206.142003,169.142244 200.927264,148.024074 200.708204,147.13462 C199.463477,142.062194 200.271609,136.801711 202.980631,132.334112 C203.641876,131.241355 204.398674,130.229919 205.241876,129.304887 C207.835015,126.438305 211.219513,124.410351 215.057378,123.475154 C216.617225,123.088877 218.177073,122.910986 219.712524,122.910986 C228.509983,122.910986 236.53133,128.89828 238.715828,137.813147 C238.756488,137.970707 242.695497,153.863972 248.992829,170.890656 C254.863731,186.753426 259.784189,195.571723 262.883553,200.171469 C263.554455,201.177823 264.673642,201.772486 265.883299,201.772486 L265.92396,201.772486 C267.148356,201.757238 268.271609,201.132079 268.927264,200.100313 C271.940732,195.383667 276.464748,187.876679 280.992829,177.198153 C284.479487,168.969436 287.859919,156.613655 291.030948,140.481507 C296.581647,143.871596 303.662206,146.189258 312.159284,147.38875 C312.97809,147.50565 313.811126,147.607302 314.655345,147.703871 C319.823833,148.288369 324.200453,148.323947 326.721419,148.268039 C325.246959,155.571723 320.17504,179.556476 313.89753,196.339195 C309.257124,208.74072 304.02307,218.829665 298.325485,226.316323 C286.655853,241.665751 274.015447,244.888115 265.470593,244.888115 L265.470593,244.888115 Z M328.780377,144.628903 C328.653312,144.639068 321.618496,145.091418 312.97809,143.897009 C305.678979,142.890656 297.236793,140.710224 290.853058,136.09523 L290.066272,135.520897 L289.156488,135.881762 C288.23044,136.247708 288.164367,136.60349 287.717607,138.900821 C284.535904,155.236272 281.171736,167.653045 277.715065,175.810605 C273.293718,186.245167 268.870847,193.579347 265.928026,198.184176 C265.918369,198.199424 265.912778,198.214671 265.883299,198.214671 C265.841622,198.209589 265.841622,198.204506 265.831965,198.189258 C262.848483,193.747073 258.075421,185.19307 252.332092,169.655586 C246.101851,152.816958 242.212651,137.121914 242.17199,136.964354 C239.133617,124.583159 226.588763,116.984684 214.208585,120.018992 C210.39105,120.954188 206.95471,122.799169 204.133871,125.376044 C202.518623,126.849995 201.104646,128.562829 199.940732,130.489131 C196.739208,135.769944 195.784189,141.985955 197.252041,147.983413 C197.476184,148.883032 202.746832,170.229919 211.361317,191.993579 C220.718369,215.637797 236.332092,247.210859 263.798928,248.405269 C264.34734,248.430681 264.911508,248.445929 265.470593,248.445929 C274.822562,248.445929 288.60706,244.979601 301.161063,228.471342 C307.061444,220.705141 312.46983,210.316323 317.232219,197.58443 C324.77936,177.396374 330.599945,147.027886 330.654837,146.728013 L331.071609,144.471342 L328.780377,144.628903 Z" id="Border" fill="#000000"></path>
                    <path d="M328.695294,100.438763 C330.573312,97.4405417 332.072677,91.6484197 327.244722,89.6697666 C322.797454,87.8471491 317.329093,95.6484197 317.329093,95.6484197 C317.329093,95.6484197 325.859208,82.6700207 321.120707,79.1701478 C318.171787,76.9932736 314.559589,78.2064883 312.527569,81.2550271 C312.313083,81.5782799 309.031762,85.4395252 305.690466,91.7637946 L303.740783,95.8873015 C304.159589,92.2466408 301.54612,88.9566789 297.905968,88.5388899 C294.257175,88.1211008 290.974837,90.7340614 290.557048,94.3742139 C288.669373,110.824532 289.44091,137.152359 289.812956,137.535586 C299.944595,147.944735 328.90368,146.403693 328.90368,146.403693 C333.139513,132.989716 331.976107,119.367861 332.062511,119.237238 L336.485891,109.716526 C338.585002,105.742956 338.135192,102.36964 335.061241,100.49518 C331.649297,98.4148746 328.517403,101.389716 326.484875,104.438763 L328.695294,100.438763 Z" id="Shape" fill="#FFFFFF"></path>
                    <path d="M338.081215,110.50443 L333.847416,119.6226 C333.847416,119.673426 333.852499,119.734417 333.852499,119.800491 C334.315015,132.257924 332.337378,141.432003 330.599131,146.941533 L330.22861,148.115612 L328.998115,148.181685 C328.733312,148.19185 327.168382,148.273172 324.774481,148.273172 C322.838522,148.273172 320.363299,148.222346 317.588204,148.044455 L312.993541,145.853858 L312.571685,145.650554 C312.571685,145.650554 312.581342,145.066056 312.627594,144.024125 C312.846145,138.321457 313.933312,118.946615 318.787187,107.500618 C320.927467,102.458687 324.545764,97.243947 328.245383,92.6899445 C328.642842,92.2070982 329.033693,91.7293346 329.425561,91.2617361 C329.822003,90.7941376 330.20828,90.3367043 330.594557,89.8894362 C331.179055,90.5501732 331.61565,91.3227272 331.900783,92.1918505 C332.510186,94.1029051 332.281978,96.2274286 331.696463,98.1130703 C333.14551,97.8487755 334.594557,98.1283181 335.986679,98.9771109 C339.854532,101.335434 340.632677,105.640389 338.081215,110.50443" id="Shadow" fill="#D0ABB1" style="mix-blend-mode: multiply;"></path>
                    <path d="M334.914506,108.882829 L330.48706,118.407606 C330.258852,118.824379 330.268509,119.185243 330.299513,119.932384 C330.706628,131.012435 329.12086,139.342803 327.570669,144.66936 C325.16152,144.730351 319.550339,144.776094 313.29875,144.10011 C313.0741,144.074697 312.845383,144.049284 312.626832,144.023871 C302.629373,142.870122 295.346018,140.333909 291.473083,136.674443 C291.108153,132.842168 290.640555,109.274188 292.321876,94.575332 C292.627848,91.9171364 295.03598,90.0009991 297.704341,90.3059547 C298.990237,90.4533498 300.144494,91.0937564 300.953134,92.1102749 C301.699767,93.0510627 302.059106,94.2098937 301.993541,95.3966789 C301.309424,96.7471237 298.801673,101.901889 296.8403,108.640389 C296.56584,109.583718 297.107137,110.571266 298.050974,110.845726 C298.217175,110.894011 298.384392,110.916882 298.54856,110.916882 C299.319589,110.916882 300.029119,110.412181 300.256311,109.635052 C301.419208,105.640643 302.803198,102.189563 303.830389,99.8607196 L307.279945,92.557543 C309.151355,89.030224 311.300275,85.7011262 313.684011,82.6719013 C313.861901,82.4431846 313.968636,82.3008721 314.009297,82.239881 C314.85809,80.9641503 316.053515,80.1102749 317.27842,79.896806 C318.263426,79.7239979 319.198623,79.9628797 320.062664,80.6032863 C322.268509,82.2297158 319.025815,89.8180258 315.840046,94.6719013 L315.907645,94.7186611 C311.214887,102.65767 309.602689,110.13213 309.533058,110.466565 C309.329754,111.427683 309.944239,112.369995 310.905866,112.573299 C311.029881,112.59922 311.153388,112.611927 311.274354,112.611927 C312.096717,112.611927 312.836743,112.038102 313.013109,111.201507 C313.029881,111.123235 314.665968,103.595408 319.310948,95.9664375 C321.068509,93.7234896 324.442333,90.4436929 326.568382,91.3173905 C327.346018,91.6325112 327.905103,92.0848619 328.245637,92.6896904 C328.358471,92.8726637 328.444875,93.0708848 328.509932,93.2843536 C329.109678,95.1445824 328.245637,97.8078606 327.189475,99.4952812 L324.927721,103.576603 L324.993795,103.617772 C321.665205,109.128318 319.591508,115.702651 319.489347,116.027429 C319.19659,116.965167 319.719589,117.962371 320.657327,118.255129 C320.834201,118.310021 321.012092,118.33645 321.18795,118.33645 C321.945256,118.33645 322.64767,117.848521 322.886044,117.087657 C322.910948,117.006844 325.236743,109.646234 328.731025,104.364404 C330.230389,102.432511 332.198877,100.832511 334.137378,102.016247 C336.892143,103.693502 336.077912,106.676984 334.914506,108.882829 M335.986425,98.9768568 C334.593795,98.1280639 333.146272,97.8485214 331.697225,98.1128162 C332.281215,96.2271745 332.510948,94.102651 331.900021,92.1915963 C331.615904,91.3224731 331.178293,90.5499191 330.594303,89.8891821 C329.903579,89.0962977 329.002943,88.4660563 327.920351,88.0238708 C326.305103,87.3631338 324.677657,87.5511897 323.157962,88.1814311 C324.607518,84.2119267 325.150339,79.9374667 322.177022,77.7417869 C320.521114,76.5168822 318.615142,76.0492838 316.668509,76.3898174 C314.482994,76.7760944 312.43471,78.189055 311.072067,80.2322571 C311.036997,80.2780004 310.974989,80.3593219 310.884519,80.4711389 C308.429627,83.6020156 306.202943,87.0226001 304.27105,90.6464883 C304.109424,90.3872761 303.930516,90.1382291 303.737378,89.8993473 C302.339665,88.1356878 300.342206,87.0276827 298.105866,86.7735531 C293.49138,86.239881 289.318064,89.5638962 288.789983,94.1738073 C287.711965,103.556272 287.554405,115.622346 287.559371,121.980669 C287.559371,125.929843 287.620478,129.843439 287.727213,133.004811 C287.905612,138.122981 288.012854,138.239881 288.540936,138.778636 C294.949576,145.365675 308.022511,147.444455 317.587441,148.044201 C320.362537,148.222092 322.837759,148.272918 324.775243,148.272918 C327.168636,148.272918 328.734074,148.191596 328.997861,148.181431 L330.227848,148.115357 L330.599386,146.941279 C332.33814,141.431749 334.314252,132.25767 333.851736,119.800237 C333.851736,119.734163 333.846654,119.673172 333.846654,119.622346 L338.080453,110.504176 C340.632422,105.640135 339.855294,101.33518 335.986425,98.9768568" id="Border" fill="#000000"></path>
                </g>
            </g>
        </g>
    </g>
</svg>