<?xml version="1.0" encoding="UTF-8"?>
<svg width="801px" height="794px" viewBox="0 0 801 794" version="1.1" xmlns="http://www.w3.org/2000/svg" xmlns:xlink="http://www.w3.org/1999/xlink">
    <title>finance</title>
    <g id="Change-everything!" stroke="none" stroke-width="1" fill="none" fill-rule="evenodd">
        <g id="finance" transform="translate(-100.000000, -104.000000)">
            <g transform="translate(100.000000, 104.000000)">
                <g id="Element" transform="translate(57.643364, 77.878198)">
                    <path d="M611.088528,590.620952 C610.221089,590.620952 609.457125,589.993925 609.312466,589.111042 C609.17347,588.276036 605.733573,568.661622 588.957254,568.661622 C581.122505,568.661622 577.670768,573.874492 574.015169,579.392124 C570.382222,584.879382 566.624693,590.551969 558.570639,590.551969 C547.450433,590.551969 542.041939,583.994955 537.270253,578.210142 C533.050948,573.093539 529.40719,568.674492 522.446572,568.661622 L522.411566,568.661622 C516.019802,568.661622 511.046315,571.994955 507.628039,578.570502 C504.952621,583.716963 504.274114,588.986976 504.267421,589.039485 C504.144899,590.026358 503.248631,590.729575 502.25867,590.606023 C501.271797,590.484015 500.569094,589.586718 500.690587,588.599846 C500.718901,588.362008 501.436019,582.71619 504.383251,577.00139 C508.412595,569.187233 514.645285,565.058018 522.411566,565.058018 L522.45275,565.058018 C531.108605,565.074492 535.654809,570.586461 540.051205,575.91722 C544.730227,581.590322 549.149789,586.948366 558.570639,586.948366 C564.689043,586.948366 567.619288,582.52417 571.010793,577.402934 C574.843998,571.616577 579.186855,565.058018 588.957254,565.058018 C608.808477,565.058018 612.830613,588.293539 612.868194,588.528803 C613.029326,589.511042 612.363174,590.437169 611.379905,590.596757 C611.282608,590.612716 611.184796,590.620952 611.088528,590.620952" id="Shape" fill="#FFD772"></path>
                    <path d="M564.760497,510.18435 C564.760497,515.851789 560.165388,520.446384 554.497434,520.446384 C548.831025,520.446384 544.23643,515.851789 544.23643,510.18435 C544.23643,504.516396 548.831025,499.921802 554.497434,499.921802 C560.165388,499.921802 564.760497,504.516396 564.760497,510.18435" id="Shape" fill="#FFD772"></path>
                    <path d="M531.025002,460.209987 C524.444822,460.209987 519.089867,465.563398 519.089867,472.144607 C519.089867,478.725817 524.444822,484.079228 531.025002,484.079228 C537.605697,484.079228 542.960137,478.725817 542.960137,472.144607 C542.960137,465.563398 537.605697,460.209987 531.025002,460.209987 M531.025002,488.197632 C522.174037,488.197632 514.971463,480.996602 514.971463,472.144607 C514.971463,463.292613 522.174037,456.091583 531.025002,456.091583 C539.876482,456.091583 547.078541,463.292613 547.078541,472.144607 C547.078541,480.996602 539.876482,488.197632 531.025002,488.197632" id="Shape" fill="#EB7D7D"></path>
                    <path d="M726.915658,138.609009 L726.886315,138.609009 C720.616559,138.597169 717.616302,134.532304 714.968683,130.946203 C712.235092,127.243758 709.654912,123.747233 703.549378,123.594852 C699.123638,123.489318 696.914114,126.558044 694.350407,130.116345 C691.483483,134.096782 688.233033,138.609009 681.435092,138.609009 C670.195452,138.609009 665.462376,127.803346 664.529558,122.089575 C664.369455,121.106821 665.036121,120.18121 666.017846,120.021107 C666.998541,119.861004 667.924667,120.525611 668.086829,121.506821 C668.09764,121.576319 668.70562,125.073359 670.723123,128.47825 C673.289403,132.809266 676.894551,135.005405 681.435092,135.005405 C686.387473,135.005405 688.723123,131.763707 691.42634,128.010296 C694.187215,124.177606 697.314629,119.848134 703.639468,119.992278 C711.506649,120.188932 714.886315,124.766538 717.868039,128.805663 C720.42145,132.264607 722.437923,134.997169 726.893007,135.005405 L726.914629,135.005405 C736.991849,135.005405 738.733934,121.714801 738.750407,121.579923 C738.8719,120.592021 739.770742,119.888803 740.758644,120.010811 C741.746031,120.131274 742.448734,121.030116 742.327241,122.018018 C741.624538,127.759588 737.499957,138.609009 726.915658,138.609009" id="Shape" fill="#1D65CE"></path>
                    <path d="M146.414963,39.8314028 C146.414963,50.6066924 137.679828,59.3418275 126.904538,59.3418275 C116.129249,59.3418275 107.394629,50.6066924 107.394629,39.8314028 C107.394629,29.0561133 116.129249,20.3209781 126.904538,20.3209781 C137.679828,20.3209781 146.414963,29.0561133 146.414963,39.8314028" id="Shape" fill="#1D65CE"></path>
                    <path d="M21.4013725,303.883089 C6.72183578,303.884633 0.994165254,288.767516 0.0155294753,280.766486 C-0.122951863,279.637529 0.68013694,278.610502 1.80909447,278.472535 C2.9411408,278.338172 3.96456422,279.137658 4.10304556,280.266615 C4.10922317,280.314492 4.76507902,285.386821 7.3390816,290.331995 C10.5977689,296.59094 15.3293004,299.764685 21.4013725,299.764685 L21.4332901,299.764685 C28.0407547,299.752329 31.5336762,295.517066 35.5784638,290.613076 C40.2518229,284.946152 45.5486054,278.523501 56.4865719,278.523501 C64.4680391,278.523501 68.3269838,284.350528 71.7313596,289.490811 C75.2304587,294.774723 78.5359928,299.764685 85.970227,299.764685 C92.6152721,299.764685 97.8816813,296.556448 101.623251,290.229035 C104.54217,285.291068 105.40652,280.232638 105.414757,280.182188 C105.6006,279.061467 106.654912,278.300592 107.78078,278.48592 C108.902016,278.670219 109.662376,279.726589 109.479107,280.84834 C109.441012,281.08103 108.510253,286.617709 105.235092,292.210502 C100.764049,299.846538 94.102016,303.883089 85.970227,303.883089 C76.3233802,303.883089 72.0598023,297.444994 68.2976402,291.765199 C65.0554265,286.869447 62.2559413,282.641905 56.4865719,282.641905 C47.490433,282.641905 43.2474471,287.786306 38.7552978,293.232896 C34.4438435,298.46121 29.985671,303.86713 21.4415269,303.883089 L21.4013725,303.883089 Z" id="Shape" fill="#EB7D7D"></path>
                    <path d="M93.9000082,236.404479 C91.1761987,236.404479 88.9604973,238.620695 88.9604973,241.344505 C88.9604973,244.068314 91.1761987,246.284015 93.9000082,246.284015 C96.6238178,246.284015 98.840034,244.068314 98.840034,241.344505 C98.840034,238.620695 96.6238178,236.404479 93.9000082,236.404479 M93.9000082,249.887619 C89.1895835,249.887619 85.3568937,246.055444 85.3568937,241.344505 C85.3568937,236.63305 89.1895835,232.800875 93.9000082,232.800875 C98.6109478,232.800875 102.443638,236.63305 102.443638,241.344505 C102.443638,246.055444 98.6109478,249.887619 93.9000082,249.887619" id="Shape" fill="#1D65CE"></path>
                    <path d="M126.995092,254.790528 C121.568065,254.790528 117.152621,259.205972 117.152621,264.633514 C117.152621,270.060541 121.568065,274.475985 126.995092,274.475985 C132.422634,274.475985 136.838078,270.060541 136.838078,264.633514 C136.838078,259.205972 132.422634,254.790528 126.995092,254.790528 M126.995092,278.079588 C119.580935,278.079588 113.549017,272.047671 113.549017,264.633514 C113.549017,257.219356 119.580935,251.186924 126.995092,251.186924 C134.409249,251.186924 140.441681,257.219356 140.441681,264.633514 C140.441681,272.047671 134.409249,278.079588 126.995092,278.079588" id="Shape" fill="#FFD772"></path>
                    <path d="M436.788348,679.228983 L436.75849,679.228983 C430.489249,679.217658 427.488477,675.152278 424.840343,671.566178 C422.107782,667.864247 419.527602,664.367722 413.421553,664.214826 C408.996327,664.109807 406.786804,667.178018 404.222582,670.736319 C401.356173,674.716757 398.105208,679.228983 391.307782,679.228983 C380.068142,679.228983 375.335066,668.42332 374.402248,662.70955 C374.242145,661.72731 374.908811,660.801184 375.890021,660.641081 C376.870716,660.480978 377.797357,661.145586 377.959004,662.126795 C377.97033,662.196293 378.577795,665.693333 380.595813,669.098224 C383.162093,673.429241 386.766212,675.62538 391.307782,675.62538 C396.259648,675.62538 398.595813,672.383681 401.29903,668.63027 C404.059905,664.798095 407.187318,660.468623 413.511643,660.612252 C421.378824,660.808906 424.759004,665.386512 427.740214,669.425637 C430.293625,672.885097 432.310613,675.617143 436.765697,675.62538 L436.786804,675.62538 C446.864538,675.62538 448.606623,662.334775 448.622582,662.200412 C448.74459,661.21251 449.642917,660.509292 450.630819,660.630785 C451.618721,660.751248 452.321424,661.650605 452.199931,662.637477 C451.497228,668.380077 447.372647,679.228983 436.788348,679.228983" id="Shape" fill="#1D65CE"></path>
                    <path d="M199.188297,10.2620335 C199.188297,15.9294723 194.593702,20.5240669 188.926263,20.5240669 C183.258824,20.5240669 178.66423,15.9294723 178.66423,10.2620335 C178.66423,4.59459459 183.258824,6.39488462e-14 188.926263,6.39488462e-14 C194.593702,6.39488462e-14 199.188297,4.59459459 199.188297,10.2620335" id="Shape" fill="#FFD772"></path>
                    <path d="M247.963638,39.2741313 C247.963638,46.9930502 241.706237,53.2499356 233.987833,53.2499356 C226.268914,53.2499356 220.011514,46.9930502 220.011514,39.2741313 C220.011514,31.5552124 226.268914,25.2983269 233.987833,25.2983269 C241.706237,25.2983269 247.963638,31.5552124 247.963638,39.2741313" id="Shape" fill="#EB7D7D"></path>
                    <path d="M403.848168,629.226976 C403.848168,636.945894 397.591282,643.202265 389.872363,643.202265 C382.15293,643.202265 375.895529,636.945894 375.895529,629.226976 C375.895529,621.508571 382.15293,615.251686 389.872363,615.251686 C397.591282,615.251686 403.848168,621.508571 403.848168,629.226976" id="Shape" fill="#EB7D7D"></path>
                </g>
                <g id="Element" transform="translate(0.483902, 352.465960)">
                    <path d="M478.007115,257.553551 L176.034914,431.895894 C145.101581,449.759472 105.548943,439.159729 87.6910276,408.225366 L43.8186981,332.235662 L8.67378175,271.365649 C7.86039694,269.960244 7.10878819,268.539394 6.41844069,267.097953 C-8.1802723,236.884311 2.8210147,200.065778 32.3443094,183.020733 L334.315481,8.67839049 C362.723203,-7.72830192 398.397849,-0.124698314 417.868634,25.182895 C419.597849,27.4325732 421.203511,29.8212476 422.660397,32.3489182 L455.911362,89.9396518 L501.677128,169.208635 C519.536073,200.142483 508.941993,239.695122 478.007115,257.553551" id="Shape" fill="#FFD772"></path>
                    <path d="M455.911877,89.9397032 L43.8192129,332.235714 L8.67429655,271.365701 C7.86091174,269.95978 7.10930299,268.539446 6.41844069,267.098004 L417.868634,25.1829465 C419.598363,27.4326247 421.203511,29.8212991 422.660397,32.3489696 L455.911877,89.9397032 Z" id="Shadow" fill="#D0ABB1" style="mix-blend-mode: multiply;"></path>
                    <path d="M97.2975141,342.714324 C93.7320057,342.714324 90.2658538,340.860527 88.3616067,337.547786 C85.5276299,332.618056 87.2269864,326.324105 92.1572309,323.490128 L178.611285,273.795405 C183.542044,270.961943 189.834966,272.661299 192.668428,277.591029 C195.502405,282.520759 193.803048,288.81471 188.873318,291.648686 L102.41875,341.34341 C100.801761,342.27314 99.0375398,342.714324 97.2975141,342.714324" id="Shadow" fill="#D0ABB1" style="mix-blend-mode: multiply;"></path>
                    <path d="M192.283769,384.278957 L159.845674,403.006885 C145.798827,411.117052 127.837437,406.304182 119.72727,392.257335 C111.617102,378.210488 116.429972,360.248069 130.476819,352.138416 L162.914914,333.409974 C176.961761,325.300836 194.923666,330.113191 203.033318,344.160038 C211.143486,358.20637 206.330616,376.168789 192.283769,384.278957" id="Shadow" fill="#D0ABB1" style="mix-blend-mode: multiply;"></path>
                </g>
                <g id="Character" transform="translate(113.858976, 0.025765)">
                    <path d="M394.21495,188.703398 C391.3367,202.520644 377.797446,211.390657 363.975567,208.507774 C332.675181,201.980104 278.775567,197.676371 172.557292,235.447285 L169.056134,236.852691 L163.054074,268.935059 C162.122285,273.738148 157.473122,276.883579 152.670033,275.956938 C150.811603,275.596577 149.205426,274.68538 147.985863,273.424119 C146.039403,271.421545 145.076726,268.528366 145.643006,265.573411 L147.579171,251.766462 L120.124859,274.088212 C116.670548,276.899023 111.676468,276.554106 108.634512,273.413823 C108.464628,273.233643 108.299377,273.048315 108.139789,272.852691 C105.16939,269.202755 105.725374,263.838534 109.375825,260.868135 L136.829621,238.546384 L104.38226,257.738148 C100.655104,260.178302 95.723315,259.323733 93.0206123,255.884866 C92.8656574,255.689241 92.722028,255.487954 92.5830319,255.277401 C90.0033665,251.344325 91.1050396,246.062472 95.0432636,243.483321 C95.0432636,243.483321 86.3534309,245.501339 83.646095,242.062472 C83.4968028,241.871996 83.3475107,241.666075 83.2131477,241.455007 C82.1732507,239.869422 81.731037,238.062472 81.8339971,236.301854 C81.9827745,233.702111 83.3212558,231.200181 85.6687462,229.660927 C85.6687462,229.660927 107.728463,214.896449 115.269776,210.27354 C125.133868,204.224634 144.891397,192.059898 155.429879,187.282549 C178.739531,176.708546 216.22782,166.474312 256.160895,159.313437 C284.896545,154.160284 311.964756,152.276114 337.045838,153.671223 C350.049699,154.386796 362.518682,155.982678 374.410059,158.464016 C388.232453,161.341751 397.097832,174.881005 394.21495,188.703398" id="Shape" fill="#FFFFFF"></path>
                    <path d="M352.809699,166.829422 C352.809699,166.829422 194.215104,177.578456 115.182929,220.590039 C101.663238,227.946539 90.7031349,232.991584 81.833122,236.301751 C81.9824141,233.702009 83.3219251,231.200078 85.6694154,229.660824 C85.6694154,229.660824 107.728617,214.896346 115.270445,210.273437 C125.133508,204.224531 144.892067,192.059795 155.429518,187.282446 C178.7402,176.708444 216.226944,166.474209 256.160535,159.313334 C284.897215,154.160181 311.964396,152.276011 337.045992,153.67112 L352.809699,166.829422 Z" id="Shadow" fill="#D0ABB1" style="mix-blend-mode: multiply;"></path>
                    <path d="M86.6573176,231.16744 C86.8930962,231.010426 108.787047,216.359203 116.21253,211.808366 L117.10159,211.262678 C127.217935,205.060876 146.047794,193.51596 156.17289,188.923424 C178.995542,178.571301 215.556159,168.425097 256.480226,161.086101 C299.886661,153.301288 339.440329,153.01197 374.043675,160.226384 C386.868901,162.900258 395.126301,175.510297 392.452942,188.335007 C391.158219,194.547105 387.520638,199.884042 382.212015,203.361005 C376.902877,206.838482 370.557446,208.040027 364.345349,206.744788 C332.829776,200.173875 278.59863,195.82484 171.955645,233.751738 L171.890265,233.776449 L167.466069,235.545303 L161.281256,268.602189 C160.545606,272.415316 156.833894,274.925483 153.009956,274.187774 C151.579325,273.911841 150.28975,273.214801 149.280741,272.172845 C147.675078,270.515702 146.978038,268.175934 147.414074,265.914415 L147.429004,265.82381 L149.270445,252.687646 L154.767485,247.783141 C155.509827,247.120593 155.574692,245.981339 154.912144,245.238997 C154.25114,244.494595 153.110857,244.43179 152.368515,245.093823 L146.605323,250.236166 L118.988849,272.691249 C116.157446,274.993952 111.882543,274.592922 109.536597,271.716217 C107.199917,268.842601 107.636983,264.602703 110.511629,262.266024 L137.51549,240.308752 L138.708283,239.41094 C139.50365,238.812742 139.662723,237.682755 139.064525,236.887903 C138.468901,236.09511 137.336854,235.932948 136.541487,236.531661 L135.918064,237.001159 L135.912401,236.992922 L103.391938,256.229988 C100.502877,258.122395 96.5718607,257.47735 94.4364682,254.772073 C94.3160049,254.618662 94.19966,254.457015 94.0900074,254.29022 C93.1077681,252.789576 92.7674849,250.995496 93.1340229,249.238482 C93.4985017,247.489705 94.5193511,245.988032 96.0091838,245.004248 L127.988077,226.413257 C128.848823,225.912356 129.1402,224.809653 128.640329,223.949422 C128.137369,223.085586 127.03724,222.797298 126.177009,223.297169 L94.3849881,241.780052 C91.8068672,242.329859 86.5219251,242.80605 85.0634952,240.949164 C84.9414875,240.794724 84.8272018,240.634106 84.7175493,240.467826 C83.7353099,238.967697 83.3955416,237.173617 83.7615647,235.416603 C84.1275879,233.659589 85.1556445,232.150709 86.6573176,231.16744 M80.2336368,234.681468 C79.6709598,237.380567 80.1929675,240.137324 81.7039071,242.44363 C81.8727616,242.700516 82.0503678,242.94762 82.2326072,243.178765 C84.057575,245.505149 87.5782957,245.958688 90.5389135,245.86448 C90.1147179,246.687131 89.8001748,247.572588 89.606095,248.503347 C89.043418,251.201931 89.5654257,253.958688 91.0758504,256.265509 C91.2405866,256.516217 91.417678,256.762806 91.6024914,256.998585 C94.8828002,261.156629 100.895155,262.147105 105.330162,259.267826 L116.906996,252.420979 L108.237755,259.469628 C103.822311,263.060361 103.151011,269.574132 106.74123,273.990606 C106.931706,274.224325 107.133508,274.451352 107.342002,274.667054 C111.030548,278.475033 117.145349,278.835393 121.263238,275.487131 L145.159248,256.055985 L143.866584,265.279666 C143.226687,268.679924 144.280998,272.190863 146.691809,274.679924 C148.218193,276.255728 150.166713,277.30901 152.326816,277.725998 C158.102363,278.840027 163.706996,275.048521 164.821024,269.275033 L170.643933,238.155857 L173.195799,237.135522 C278.958476,199.52677 332.522955,203.790863 363.609184,210.272716 C370.763881,211.764093 378.072504,210.38031 384.186275,206.375676 C390.301076,202.371043 394.488978,196.225355 395.98087,189.070142 C399.059892,174.300001 389.548952,159.778508 374.778811,156.698456 C339.72244,149.389833 299.706481,149.672459 255.844448,157.539126 C214.638785,164.928572 177.767228,175.172073 154.684602,185.641056 C144.35513,190.32677 125.401204,201.947877 115.217935,208.190863 L114.32939,208.735522 C106.843161,213.324454 84.888463,228.015316 84.6676136,228.163064 C82.3767513,229.663707 80.7968286,231.981854 80.2336368,234.681468" id="Border" fill="#000000"></path>
                    <path d="M303.285271,608.332691 C295.440226,613.93372 284.819377,614.515445 275.233791,614.515445 C274.543959,614.515445 273.859274,614.494853 273.164293,614.448521 L205.344473,609.938868 C192.438939,609.084299 180.397755,606.092794 181.256957,593.187259 C181.323881,592.209139 181.458244,591.236166 181.658502,590.278637 C184.067768,578.577221 195.960175,568.677607 207.887588,569.475548 L243.774332,566.365638 C245.669312,566.494338 247.115902,564.692536 246.580509,562.865509 L204.361204,432.054698 C196.742672,409.511584 214.266481,392.476835 226.682955,388.846976 C239.099943,385.218148 255.208051,397.90798 258.83791,410.324969 L270.168154,452.657015 L270.173817,452.667311 L296.752968,551.97233 C296.752968,551.97233 321.350136,595.426642 303.285271,608.332691" id="Shape" fill="#FFFFFF"></path>
                    <path d="M303.285271,608.332691 C295.440226,613.93372 284.819377,614.515445 275.233791,614.515445 C274.543959,614.515445 273.859274,614.494853 273.164293,614.448521 L205.344473,609.938868 C192.438939,609.084299 180.397755,606.092794 181.256957,593.187259 C181.323881,592.209139 181.458244,591.236166 181.658502,590.278637 C182.235078,590.330117 182.837395,590.386745 183.460303,590.438225 C186.183598,590.675033 189.33984,590.942729 192.804448,591.210426 C193.514872,591.267054 194.235078,591.323682 194.966095,591.38031 C195.671372,591.43179 196.387459,591.488418 197.118476,591.539898 C224.556829,593.578508 273.92105,598.463965 280.299943,592.348135 C289.915902,583.128057 268.335464,518.906693 268.335464,518.906693 C268.335464,518.906693 223.038682,432.322395 223.038682,417.094595 C223.038682,403.53475 237.648206,394.422266 240.860561,392.584943 C241.256957,392.358431 241.478321,392.240027 241.478321,392.240027 L241.885014,393.099743 L265.895825,443.668598 L270.168154,452.657015 L270.173817,452.667311 L296.752968,551.97233 C296.752968,551.97233 321.350136,595.426642 303.285271,608.332691" id="Shadow" fill="#D0ABB1" style="mix-blend-mode: multiply;"></path>
                    <path d="M275.233946,612.71354 C274.585297,612.71354 273.9315,612.692948 273.282852,612.651764 L205.463032,608.142111 C197.85428,607.637607 192.623907,606.479306 189.004859,604.502472 C188.510651,604.234776 188.052478,603.946487 187.620046,603.647903 C187.110394,603.292691 186.641925,602.916886 186.219789,602.52049 C185.761616,602.093205 185.354924,601.634518 184.999711,601.15112 C183.470754,599.082137 182.842697,596.508135 183.053765,593.305561 C183.115542,592.347517 183.254538,591.390503 183.460458,590.437607 C184.490059,585.701957 187.233946,581.109936 191.254538,577.506333 C195.753894,573.480593 201.26226,571.230915 206.549261,571.230915 C206.955953,571.230915 207.362646,571.246359 207.769338,571.272099 L207.908334,571.282909 L208.129699,571.261288 L210.538965,571.055882 L212.948231,570.844814 L243.810522,568.172485 C245.226224,568.214698 246.600741,567.59179 247.496494,566.478791 C248.423135,565.32049 248.726867,563.781751 248.299583,562.315084 L238.919917,533.264377 L238.214641,531.066178 L237.504216,528.873128 L230.806661,508.126667 L229.869724,505.212897 L228.927639,502.309422 L206.065349,431.478019 C203.264834,423.184583 203.846558,414.834518 207.753894,407.333875 C212.459171,398.304274 220.907047,392.414956 227.192762,390.577118 C231.089802,389.439409 236.057626,390.278534 240.860715,392.58484 C241.205632,392.744428 241.5454,392.91946 241.885168,393.09964 C248.603315,396.631172 254.822105,402.999254 257.097524,410.793849 L265.895464,443.668495 L295.074358,552.656912 L295.187614,552.857169 C295.244242,552.965277 301.282852,563.694235 305.071784,575.848675 C311.182466,595.447131 306.904988,603.529499 302.235233,606.865406 C294.683109,612.260516 284.335619,612.71354 275.233946,612.71354 M298.436005,551.287543 L274.446301,461.671584 L260.567279,409.820361 C258.677961,403.359615 253.643212,396.734132 247.100098,392.095779 C240.04733,387.107362 232.423135,385.290117 226.178605,387.117658 C219.676674,389.017272 210.106533,395.019846 204.556983,405.671069 C200.186327,414.056655 199.527382,423.38484 202.647073,432.61058 L223.985554,498.721262 L224.922491,501.624737 L225.627768,503.801828 L225.864576,504.538508 L234.961101,532.718688 L235.671526,534.916886 L236.376803,537.104788 L244.855567,563.369911 C244.973971,563.781751 244.798939,564.080335 244.685683,564.219332 C244.572427,564.363476 244.315027,564.600284 243.89289,564.568881 L243.753894,564.5591 L215.820818,566.978662 L213.421848,567.185097 L211.028025,567.395651 L207.86715,567.668495 C201.298296,567.277247 194.379377,569.876989 188.850419,574.824222 C184.145143,579.040438 180.963675,584.487028 179.851706,590.114312 C179.656082,591.091918 179.527382,592.080335 179.460458,593.063604 C179.161874,597.506333 180.253251,601.182523 182.708849,604.049447 C183.100098,604.508135 183.527382,604.9452 183.985554,605.351893 C184.423135,605.752922 184.886455,606.129241 185.385812,606.479306 C185.972684,606.901442 186.600741,607.297324 187.27513,607.662832 C191.372942,609.902729 197.076932,611.194879 205.226224,611.740567 L273.051191,616.25022 C273.771912,616.296552 274.508077,616.317144 275.233946,616.317144 C285.607176,616.317144 296.309879,615.529499 304.330986,609.794621 C323.033173,596.440696 300.495207,554.973514 298.436005,551.287543 M248.299583,562.315084 L238.919917,533.264377 L238.214641,531.066178 L237.504216,528.873128 C237.08208,529.511481 236.654795,530.154981 236.232659,530.798482 L236.937935,532.991532 C236.515799,533.629885 236.093663,534.273386 235.671526,534.916886 L236.376803,537.104788 L244.855567,563.369911 C244.973971,563.781751 244.798939,564.080335 244.685683,564.219332 C244.572427,564.363476 244.315027,564.600284 243.89289,564.568881 L243.753894,564.5591 L215.820818,566.978662 L213.421848,567.185097 C212.953379,567.822935 212.469467,568.472099 211.985554,569.120232 L209.581436,569.326153 C209.10782,569.964505 208.618759,570.613154 208.129699,571.261288 L210.538965,571.055882 L212.948231,570.844814 L243.810522,568.172485 C245.226224,568.214698 246.600741,567.59179 247.496494,566.478791 C248.423135,565.32049 248.726867,563.781751 248.299583,562.315084" id="Border" fill="#000000"></path>
                    <path d="M247.100149,517.7278 C240.778399,527.148649 234.302208,536.976191 227.445065,547.38031 C207.826018,577.146075 160.659995,633.944016 141.437343,659.014801 C132.073122,671.807594 128.366558,693.527028 109.91096,698.654441 C102.312504,700.765123 88.3099302,695.055985 79.8774978,692.157658 C69.040947,688.440799 14.2970602,673.423553 11.4656574,672.379023 C9.60207952,671.68919 6.41546433,670.963321 4.21726613,668.821751 C3.75909367,668.379023 3.34210526,667.868855 2.99718891,667.287646 C2.14262006,665.887388 1.65870757,664.064994 1.83888775,661.640284 C1.91610783,660.55354 2.14262006,659.601674 2.47209239,658.767697 C4.53644245,653.527028 10.6728646,652.796011 10.6728646,652.796011 C6.09114001,648.976191 2.00877192,645.913128 3.2854772,641.068855 C4.86591478,635.066281 16.1503421,636.157658 16.1503421,636.157658 C17.2880512,636.028958 17.6381156,635.86937 16.8968028,634.999357 C13.7977037,631.35457 7.3832893,622.144788 13.7050396,618.824325 C23.6406896,613.609396 78.6007925,637.022009 88.3459663,634.458817 C92.5827745,633.3417 188.56733,489.542472 195.028077,479.915702 L227.383289,503.410683 L247.100149,517.7278 Z" id="Shape" fill="#FFFFFF"></path>
                    <path d="M247.100149,517.7278 C240.778399,527.148649 234.302208,536.976191 227.445065,547.38031 C207.826018,577.146075 160.659995,633.944016 141.437343,659.014801 C132.073122,671.807594 128.366558,693.527028 109.91096,698.654441 C102.312504,700.765123 88.3099302,695.055985 79.8774978,692.157658 C69.040947,688.440799 14.2970602,673.423553 11.4656574,672.379023 C9.60207952,671.68919 6.41546433,670.963321 4.21726613,668.821751 L2.99718891,667.287646 C2.14262006,665.887388 1.65870757,664.064994 1.83888775,661.640284 C1.91610783,660.55354 2.14262006,659.601674 2.47209239,658.767697 C27.120741,662.839769 101.066172,686.210683 110.767588,668.548907 C122.625503,646.961777 213.957292,506.422781 213.957292,506.422781 L227.383289,503.410683 L247.100149,517.7278 Z" id="Shadow" fill="#D0ABB1" style="mix-blend-mode: multiply;"></path>
                    <path d="M225.941796,546.386745 C221.95724,552.430503 216.829827,559.601674 211.028025,567.395754 C210.549261,568.034106 210.070497,568.677607 209.581436,569.326256 C209.10782,569.964608 208.618759,570.613257 208.129699,571.261906 C203.32661,577.650065 198.137421,584.384171 192.804087,591.210426 C190.230085,594.509782 187.620046,597.835393 184.999711,601.151223 C184.618759,601.635136 184.237807,602.119048 183.856854,602.602961 C183.475902,603.086873 183.09495,603.570786 182.708849,604.04955 C180.340767,607.050837 177.967536,610.041828 175.614898,612.996783 C171.594306,618.052124 167.63549,623.014801 163.836262,627.76641 C154.204345,639.833334 145.88002,650.258045 139.985554,657.949164 C137.035747,661.974904 134.713997,666.695625 132.253251,671.68919 C126.955953,682.448521 121.478476,693.57336 109.426996,696.919563 C103.372942,698.602961 92.1966226,694.623553 84.0370345,691.71493 C82.7654772,691.261906 81.565992,690.834621 80.4591709,690.453669 C73.6689521,688.121622 49.6895441,681.36744 32.1811786,676.435651 C21.9366484,673.54762 13.0872275,671.055985 12.0885145,670.690477 C11.7281542,670.556629 11.3163138,670.422266 10.8787333,670.273489 C6.67281311,668.888675 3.22879766,667.292794 3.63549007,661.768984 C3.71271015,660.734235 3.95466639,659.848778 4.30987874,659.092021 C6.08079252,655.25161 10.6625171,654.618405 10.8838813,654.587517 L14.1374206,654.201416 C20.6239071,654.046976 28.8349753,654.669885 28.9327874,654.680181 C28.9791194,654.685329 29.0254515,654.685329 29.0717835,654.685329 C30.0035724,654.685329 30.7963652,653.964608 30.8684373,653.022523 C30.9456574,652.028958 30.2043446,651.164093 29.2107796,651.086873 C28.7320152,651.050837 17.8954643,650.227157 11.0125814,650.736809 C6.60588904,647.076577 4.1605866,644.821751 5.02545146,641.527028 C5.81824425,638.515445 10.9662494,637.877092 14.1940486,637.877092 C14.9044733,637.877092 15.522234,637.90798 15.9752584,637.954312 L16.1657346,637.969756 L16.2326587,637.964608 C24.0679225,638.124196 29.1232636,639.812227 29.1747436,639.828186 C29.3652198,639.89511 29.560844,639.925998 29.7564682,639.925998 C30.5029289,639.925998 31.2030576,639.45753 31.4604579,638.705921 C31.7847822,637.763836 31.2802777,636.739383 30.3381928,636.420207 C30.1374206,636.348135 25.7564682,634.875805 18.7242932,634.458817 C18.559557,634.170528 18.3742288,633.954312 18.2712687,633.83076 C15.1979096,630.222009 12.3407668,625.310812 12.8916033,622.479409 C13.0666355,621.57336 13.591732,620.919563 14.544113,620.420207 C19.3523498,617.897684 40.1863266,624.214287 55.3986818,628.832047 C73.0820795,634.196268 84.1605866,637.424068 88.8040872,636.198842 C90.0653485,635.86937 91.9701104,635.364866 137.293148,568.816603 C160.814383,534.278122 185.864576,496.842343 194.096237,484.543759 C194.631629,483.745818 195.09495,483.050837 195.48105,482.474261 L225.040895,503.936294 L225.864576,504.538611 L228.335619,506.329602 L230.806661,508.12677 L244.634203,518.16538 C242.286713,521.671172 239.913482,525.243888 237.504216,528.872716 C237.08208,529.511584 236.654795,530.155084 236.232659,530.798585 C235.805374,531.436938 235.383238,532.080438 234.961101,532.718791 C232.04733,537.120335 229.08208,541.62484 226.039608,546.237453 L225.941796,546.386745 Z M228.927639,502.309525 L226.456597,500.512871 L223.985554,498.721365 L194.569853,477.362292 L193.529956,478.911841 C193.097524,479.555342 192.273843,480.790863 191.100098,482.54067 C104.912195,611.333978 89.9263524,630.736809 87.6354901,632.770271 C83.3986818,633.557916 69.0975235,629.223296 56.4437269,625.382884 C33.8182443,618.515445 18.559557,614.242601 12.8658633,617.228444 C10.9508054,618.237453 9.73587617,619.812742 9.34977578,621.794209 C8.53124297,626.031532 11.7744862,631.267054 14.0241645,634.278122 C10.2352327,634.299229 2.99713743,635.081725 1.54025197,640.610683 C0.253250688,645.511584 3.21335365,648.806307 6.93021336,652.013514 C3.80022623,653.39318 0.428282863,656.281211 0.0421824769,661.506436 C-0.606466172,670.283785 6.38967282,672.590091 9.74617218,673.696912 C10.1477166,673.83076 10.5132249,673.949164 10.8426973,674.072716 C11.9237784,674.469113 18.9250654,676.445947 31.2030576,679.905406 C48.6702391,684.826899 72.593019,691.565638 79.2905737,693.861648 C80.3819508,694.237453 81.57114,694.664737 82.8272533,695.107465 C89.8903163,697.62484 99.1000975,700.909267 106.132273,700.909267 C107.671526,700.909267 109.10782,700.749679 110.389673,700.394467 C124.000998,696.610683 130.101385,684.219435 135.486198,673.279924 C137.874872,668.430503 140.129699,663.853926 142.868437,660.111326 C148.721719,652.476835 157.030599,642.067568 166.652221,630.016088 C170.827253,624.785715 175.203058,619.308238 179.640638,613.722652 C181.5454,611.323682 183.465606,608.909267 185.385812,606.478894 C185.756468,606.01094 186.132273,605.537324 186.502929,605.063193 C186.878733,604.595239 187.24939,604.121622 187.620046,603.647491 C190.811809,599.606822 193.998424,595.550194 197.118116,591.539898 C202.667665,584.420207 208.031886,577.424068 212.948231,570.844917 C213.432144,570.196268 213.910908,569.552768 214.384525,568.914415 C214.873585,568.265767 215.35235,567.617118 215.820818,566.978765 C220.886455,560.121622 225.370368,553.799872 228.948231,548.368727 L229.051191,548.219435 C231.542826,544.440799 233.977832,540.739383 236.376803,537.104891 C236.804087,536.466024 237.226224,535.828186 237.64836,535.189833 C238.070497,534.546333 238.497781,533.902832 238.919917,533.26448 C242.204345,528.301803 245.4167,523.467311 248.593019,518.731661 L249.560844,517.289705 L228.927639,502.309525 Z M236.232659,530.798585 C235.805374,531.436938 235.383238,532.080438 234.961101,532.718791 C232.04733,537.120335 229.08208,541.62484 226.039608,546.237453 L225.941796,546.386745 C221.95724,552.430503 216.829827,559.601674 211.028025,567.395754 C210.549261,568.034106 210.070497,568.677607 209.581436,569.326256 C218.309021,557.389399 223.934074,549.509345 226.456597,545.686093 C229.257112,541.438989 232.979119,538.983913 235.671526,534.916989 C236.093663,534.273489 236.515799,533.629988 236.937935,532.99112 L236.232659,530.798585 Z" id="Border" fill="#000000"></path>
                    <path d="M453.288309,439.256912 C427.563212,454.911481 387.13078,473.547259 319.831423,509.228598 C282.471835,529.032974 246.791011,543.776346 234.605683,548.075445 C232.037343,548.981494 229.226533,547.627568 228.335413,545.053566 L206.503238,503.153437 L189.010316,469.594106 C188.119711,467.040696 189.772221,464.857427 192.021385,463.344428 C200.541848,457.604402 217.380973,446.299383 228.788952,439.374801 C231.332067,437.8304 242.337987,430.823965 242.337987,430.823965 L219.275439,389.228083 C218.003367,386.829628 218.925374,383.853566 221.324345,382.587157 L350.637086,292.944943 C351.296031,292.594879 352.021385,292.404917 352.762697,292.378662 L471.77428,288.28085 C473.488566,288.224737 475.099892,289.053051 476.047125,290.479048 C476.814177,291.647646 477.76141,293.202343 478.843006,295.081365 C482.090883,300.723579 486.615979,309.316114 491.5941,319.334132 C522.883161,382.263347 475.830908,425.53233 453.288309,439.256912" id="Shape" fill="#EB7D7D"></path>
                    <path d="M453.288309,439.256912 C427.563212,454.911481 387.13078,473.547259 319.831423,509.228598 C282.471835,529.032974 246.791011,543.776346 234.605683,548.075445 C232.037343,548.981494 229.226533,547.627568 228.335413,545.053566 L206.503238,503.153437 C231.913276,469.35215 298.240175,452.492433 345.133354,434.705561 C399.784576,413.975059 437.47827,343.617272 437.47827,343.617272 L448.783804,293.362446 L478.843006,295.081365 C482.090883,300.723579 486.615979,309.316114 491.5941,319.334132 C522.883161,382.263347 475.830908,425.53233 453.288309,439.256912" id="Shadow" fill="#D0ABB1" style="mix-blend-mode: multiply;"></path>
                    <path d="M242.338244,430.824068 L338.863856,379.918019 L336.610574,364.595175 C336.610574,364.595175 321.963469,364.370014 293.120741,375.861906 C264.277498,387.354312 236.335155,417.774389 236.335155,417.774389 L242.338244,430.824068 Z" id="Shadow" fill="#D0ABB1" style="mix-blend-mode: multiply;"></path>
                    <path d="M493.209493,318.531455 C486.501127,305.038019 480.646816,294.180876 477.548231,289.488984 C476.251964,287.524505 474.050677,286.399666 471.714512,286.481519 L352.701385,290.577787 C351.69289,290.612794 350.688515,290.879975 349.797395,291.351018 L349.700612,291.401468 L220.380149,381.04883 C217.182208,382.808418 215.968823,386.829525 217.697009,390.102111 L239.93845,430.215368 C236.874872,432.162343 229.803572,436.650374 227.851964,437.835445 C217.062774,444.386281 201.660973,454.677658 191.012839,461.849859 C187.612067,464.140722 186.26226,467.180104 187.309879,470.188598 L187.353122,470.312665 L226.679763,545.778817 C227.287742,547.417942 228.484654,548.733257 230.064061,549.493102 C230.986069,549.935831 231.975001,550.159769 232.967536,550.159769 C233.71966,550.159769 234.475387,550.032099 235.205889,549.774184 C249.050934,544.891815 284.497524,529.998122 320.67513,510.818199 C349.509107,495.531713 373.811809,483.170323 393.340252,473.238276 C420.11863,459.617684 439.467408,449.776758 454.22365,440.795033 C460.391989,437.040593 481.506018,422.900567 494.226224,398.582935 C500.225709,387.112665 503.440123,375.053463 503.780921,362.740464 C504.180921,348.318842 500.62365,333.444711 493.209493,318.531455 M491.032401,396.912407 C478.742569,420.406873 458.317858,434.083579 452.350291,437.717041 C437.710908,446.627208 418.414641,456.44188 391.706275,470.026436 C372.167022,479.96466 347.848875,492.333772 318.986069,507.634673 C282.981436,526.722961 247.754666,541.527079 234.007433,546.375471 C233.222877,546.652433 232.37706,546.606616 231.626481,546.245226 C230.875387,545.883836 230.309621,545.250631 230.035747,544.461957 L229.992504,544.336861 L190.678219,468.895934 C190.169596,467.197092 191.665091,465.755651 193.026738,464.838791 C203.643984,457.687182 218.998939,447.426178 229.722749,440.916011 C232.186584,439.419486 242.278733,432.99735 243.241925,432.384737 L355.691861,373.007131 C356.57217,372.542781 356.908849,371.452433 356.444499,370.572639 C355.980664,369.692845 354.889287,369.357195 354.009493,369.820516 L339.803058,377.322189 C338.383238,371.004557 338.36419,357.902884 338.36419,357.763888 C338.36419,356.768778 337.557498,355.962086 336.562388,355.962086 C335.566764,355.962086 334.760587,356.768778 334.760587,357.763888 C334.760587,358.374956 334.781693,372.636989 336.52069,379.055522 L243.057112,428.407388 L220.86715,388.387311 C220.065091,386.869164 220.647845,384.981906 222.166507,384.179846 L222.262774,384.129396 L351.564705,294.494389 C351.956468,294.302884 352.390445,294.194261 352.826481,294.179332 L471.838064,290.081208 C472.941282,290.045998 473.940509,290.565947 474.540767,291.474055 C477.562646,296.051661 483.335104,306.766204 489.982208,320.135574 C503.30782,346.938148 503.661487,372.769293 491.032401,396.912407" id="Border" fill="#000000"></path>
                    <path d="M408.682646,357.963682 C377.463598,356.265355 349.58818,329.536912 342.103495,299.947208 L326.913276,249.443733 C316.721771,206.38067 293.235027,163.343347 355.020355,137.90242 C372.836056,130.565998 392.25948,134.822369 392.25948,134.822369 C439.886764,139.050426 467.638116,156.590194 477.828592,199.653257 L492.54365,273.449396 C502.735155,316.512459 462.884962,360.912459 408.682646,357.963682" id="Shape" fill="#1D65CE"></path>
                    <path d="M479.594409,330.268289 C471.635078,339.786951 461.184628,347.524402 449.381282,352.641519 C447.728772,353.357092 446.059789,354.021185 444.371243,354.633797 C444.511269,353.949113 444.644087,353.25928 444.772787,352.564299 C444.901487,351.859023 445.020406,351.153746 445.138296,350.438173 C458.116417,270.103553 385.555284,146.793386 385.555284,146.793386 L388.953997,136.100979 L389.509982,134.355805 L390.071114,132.605483 C391.352453,132.801108 392.207022,132.970992 392.525683,133.037916 C417.53984,135.27215 436.386687,141.218096 450.142157,151.215522 C464.829415,161.897633 474.461333,177.604196 479.583598,199.236114 L479.594409,199.303038 L494.306893,273.063656 C498.940098,292.693 493.575876,313.54242 479.594409,330.268289" id="Shadow" fill="#D0ABB1" style="mix-blend-mode: multiply;"></path>
                    <path d="M445.138965,350.438276 C433.885426,354.819229 421.463289,356.852691 408.77809,356.162858 C394.420303,355.385509 379.825709,348.960799 367.697009,338.072768 C355.944113,327.529653 347.475645,313.830812 343.851964,299.503913 L328.654538,248.976243 C327.2028,242.839821 325.462774,236.64677 323.78504,230.654492 C318.621076,212.26067 313.74643,194.886153 316.572684,179.292845 C319.733045,161.882292 332.165992,149.259383 355.707305,139.570837 C368.793534,134.180876 382.97114,135.277401 388.953122,136.101082 C390.770883,136.353334 391.830857,136.574698 391.872041,136.584994 L392.099068,136.615882 C416.49495,138.783193 434.79096,144.512922 448.021848,154.134544 C461.977575,164.276114 471.15132,179.292845 476.067665,200.039306 L490.775516,273.799924 L490.791475,273.866848 C495.171912,292.384222 490.086198,312.101082 476.830085,327.956938 C468.464576,337.959512 457.504473,345.619743 445.138965,350.438276 M494.307562,273.063759 L479.594563,199.303141 L479.583753,199.236217 C474.461487,177.604299 464.830085,161.897736 450.142826,151.215625 C436.387356,141.218199 417.540509,135.272253 392.526352,133.038019 C392.207176,132.971095 391.352607,132.801211 390.070239,132.605586 C384.103701,131.699537 368.819789,130.268392 354.332787,136.23493 C341.324293,141.594003 331.645529,147.828238 324.736906,155.303141 C318.476932,162.077916 314.64733,169.712407 313.030857,178.649344 C310.05531,195.056037 315.038064,212.821803 320.314769,231.627465 C321.987871,237.599151 323.722749,243.776758 325.159042,249.856552 L340.366249,300.425406 C344.170625,315.426693 353.020561,329.748444 365.288257,340.754879 C378.02957,352.188598 393.406661,358.937633 408.582466,359.761314 C410.353894,359.859126 412.114512,359.905458 413.869982,359.905458 C424.474358,359.905458 434.698811,358.139692 444.371912,354.6339 C446.059943,354.021288 447.727897,353.357195 449.380406,352.641622 C461.185297,347.524505 471.635747,339.787054 479.594563,330.268392 C493.576545,313.542523 498.940767,292.693102 494.307562,273.063759" id="Border" fill="#000000"></path>
                    <path d="M367.533817,113.849962 L366.815155,140.117658 C366.801771,140.577375 366.897524,141.034003 367.097781,141.447903 C368.735361,144.811095 377.236262,159.362961 397.528669,148.532588 C398.575258,147.974029 399.195078,146.85022 399.137935,145.665149 L398.106275,124.623193 L367.533817,113.849962 Z" id="Shape" fill="#FFFFFF"></path>
                    <polygon id="Shadow" fill="#D0ABB1" style="mix-blend-mode: multiply;" points="383.77011 127.860207 383.517858 152.693669 399.011809 147.224943 398.344113 130.555702"></polygon>
                    <path d="M369.267253,116.371198 L368.616031,140.167337 C368.611912,140.341854 368.646919,140.512768 368.718991,140.660516 C369.525683,142.317658 372.644345,147.885741 378.883212,149.909936 C383.930831,151.548032 389.92002,150.550863 396.679351,146.943141 C397.103547,146.716629 397.361462,146.249705 397.337266,145.752922 L396.366352,125.920232 L369.267253,116.371198 Z M383.865966,154.281108 C381.742929,154.281108 379.708952,153.967079 377.770728,153.337993 C370.386944,150.941597 366.713843,144.775831 365.478321,142.23632 C365.153997,141.569139 364.992865,140.820104 365.013457,140.068495 L365.800587,111.328727 L399.846404,123.326153 L400.937781,145.576861 C401.028386,147.459486 400.023495,149.24327 398.376648,150.122549 C393.187974,152.891661 388.330316,154.281108 383.865966,154.281108 L383.865966,154.281108 Z" id="Border" fill="#000000"></path>
                    <path d="M429.398321,67.4254062 C435.824576,96.8992801 423.296906,124.659898 401.416854,129.430554 C379.537832,134.201211 356.590085,114.175471 350.164345,84.7010819 C343.737575,55.227208 356.265246,27.4665902 378.145297,22.6959339 C400.025349,17.9257923 422.973096,37.9515323 429.398321,67.4254062" id="Shape" fill="#FFFFFF"></path>
                    <path d="M432.876262,82.7523045 C432.876262,104.173154 423.147047,122.618456 407.712298,129.290271 C407.877034,128.862987 408.047948,128.425406 408.232247,127.97753 C408.387717,127.601725 408.537009,127.225921 408.686301,126.850117 C409.031217,125.980104 409.35966,125.110091 409.678836,124.250374 C428.423753,73.5528193 402.970986,36.5386623 402.970986,36.5386623 L409.33495,34.4331282 L411.286043,33.7896276 L413.170213,33.1667189 C421.582054,41.4653032 428.155027,53.254235 431.161977,67.0405928 C432.325941,72.3687781 432.876262,77.6454834 432.876262,82.7523045" id="Shadow" fill="#D0ABB1" style="mix-blend-mode: multiply;"></path>
                    <path d="M409.679094,124.250271 C407.012427,125.835857 404.124911,126.994158 401.036108,127.668546 C391.023238,129.851301 380.417832,126.613205 371.182826,118.551429 C361.787717,110.355805 354.950136,98.196217 351.924139,84.3171951 C345.720793,55.8590227 357.652839,29.0070278 378.528515,24.4561913 C380.572787,24.0134628 382.620664,23.7972466 384.670085,23.7972466 C393.386172,23.7972466 402.018862,27.7045825 409.334177,34.4330252 C409.947305,34.9941578 410.548592,35.5758824 411.141642,36.178199 C418.822466,43.9722788 424.839969,54.9735658 427.640998,67.8075426 C432.927485,92.0597949 425.041256,115.138302 409.679094,124.250271 M431.161204,67.0404899 C428.155799,53.2541321 421.581282,41.4652003 413.169441,33.166616 C403.033534,23.158894 390.225297,18.216809 377.761462,20.9349557 C354.946018,25.9079287 341.777421,54.6852775 348.402903,85.0842479 C351.594152,99.7148785 358.842543,112.564299 368.809081,121.264428 C376.840484,128.276011 385.880381,131.941391 394.843058,131.941391 C397.169441,131.941391 399.496854,131.694287 401.802646,131.189782 C403.852067,130.741906 405.828901,130.103553 407.713071,129.290168 C423.146275,122.618353 432.87652,104.173051 432.87652,82.7522016 C432.87652,77.6453805 432.325168,72.3686752 431.161204,67.0404899" id="Border" fill="#000000"></path>
                    <path d="M394.688515,67.7848914 C394.688515,69.1280059 393.599711,70.216809 392.256082,70.216809 C390.913997,70.216809 389.825194,69.1280059 389.825194,67.7848914 C389.825194,66.4417769 390.913997,65.3529738 392.256082,65.3529738 C393.599711,65.3529738 394.688515,66.4417769 394.688515,67.7848914" id="Border" fill="#000000"></path>
                    <path d="M404.067562,64.9514808 C404.067562,66.2945954 402.979274,67.3833985 401.635645,67.3833985 C400.293045,67.3833985 399.204756,66.2945954 399.204756,64.9514808 C399.204756,63.6083663 400.293045,62.520078 401.635645,62.520078 C402.979274,62.520078 404.067562,63.6083663 404.067562,64.9514808" id="Border" fill="#000000"></path>
                    <path d="M356.01114,97.4952646 C349.535979,99.9766031 341.793379,96.9042736 339.792865,90.2643766 C337.630188,83.0818798 339.541127,75.7887009 351.957086,72.4893444" id="Shape" fill="#FFFFFF"></path>
                    <path d="M351.354769,100.156474 C349.120535,100.156474 346.894538,99.6540291 344.86365,98.6568605 C341.515902,97.0146469 339.102002,94.2182505 338.067253,90.7835014 C336.721565,86.3140034 336.975361,82.3711462 338.822466,79.0635529 C340.976391,75.2076971 345.238939,72.4102711 351.49428,70.7479802 C352.456442,70.4921243 353.4428,71.0650973 353.698656,72.0262299 C353.953997,72.988392 353.381539,73.9752646 352.418862,74.2306057 C347.143701,75.6324075 343.627614,77.8496533 341.969441,80.8200523 C340.61706,83.2432183 340.465194,86.2455349 341.518991,89.744634 C342.260303,92.2094989 344.011655,94.2254577 346.45078,95.4218541 C349.219892,96.7814422 352.469312,96.9230124 355.36558,95.8125877 C356.295825,95.4548013 357.336751,95.9212106 357.693508,96.8504255 C358.049235,97.7796404 357.5854,98.8215967 356.656185,99.1778386 C354.948592,99.8316353 353.148849,100.156474 351.354769,100.156474" id="Border" fill="#000000"></path>
                    <path d="M354.07863,92.3530252 C352.474512,92.3530252 348.952762,92.1012878 346.796262,90.0565002 C345.638991,88.9610047 345.040793,87.48919 345.063959,85.8006443 C345.141179,80.3416996 350.284036,78.9537974 353.005271,78.9568811 C353.857781,78.9630639 354.54401,79.659589 354.538862,80.5126134 C354.53217,81.3615195 353.841307,82.0456893 352.99446,82.0456893 L352.986738,82.0456893 C352.490471,82.0462041 348.204756,82.1584307 348.152762,85.8438875 C348.141951,86.6809532 348.384422,87.3069506 348.919814,87.8145439 C350.385451,89.2029609 353.642594,89.3167318 354.663444,89.2477485 C355.51235,89.1849429 356.251089,89.8330767 356.308231,90.6845568 C356.365889,91.535522 355.722388,92.2722016 354.871938,92.3298592 C354.7628,92.3370664 354.48069,92.3530252 354.07863,92.3530252" id="Border" fill="#000000"></path>
                    <path d="M386.822723,81.3114808 C386.053611,81.3114808 385.386944,80.7364487 385.291706,79.9529223 C385.188746,79.1060754 385.792092,78.3364487 386.639454,78.2334886 C386.776391,78.217015 400.50921,76.5042736 407.084756,71.9513779 C407.787459,71.465921 408.749107,71.6404384 409.234049,72.3421115 C409.72002,73.0432698 409.545503,74.0054319 408.843315,74.490374 C401.637137,79.4798206 387.60522,81.2280832 387.010625,81.3001552 C386.947305,81.3078772 386.884499,81.3114808 386.822723,81.3114808" id="Border" fill="#000000"></path>
                    <path d="M424.700767,36.3634242 C422.106687,40.6928965 417.890471,43.4110433 412.937575,45.0172209 C398.909261,49.5835014 378.971037,45.3003612 373.236159,43.8589197 C372.422774,43.6529995 371.624834,44.188392 371.46576,45.0120729 C370.229724,51.3595632 363.197549,58.9940548 354.827408,64.8576327 C351.182105,67.4058953 350.497421,70.3608502 350.405786,71.8383277 C350.364602,72.4200523 349.999094,72.9348528 349.443109,73.130477 L344.315696,74.9683148 C343.728309,75.174235 343.079145,74.9889068 342.693045,74.5049944 C340.288926,71.5088554 332.010934,60.5230124 329.838476,48.7958567 C328.108746,39.4367833 335.444654,30.6697305 340.320329,26.0107859 C341.385451,24.9966289 340.850059,23.0661269 339.383392,22.9528708 C337.220715,22.7829866 333.648515,20.8370407 334.610677,18.118894 C335.687125,15.097015 343.286095,15.2823431 347.434358,14.6285465 C347.434358,14.6285465 339.506944,5.98504584 342.765632,3.143347 C342.879403,3.0455349 342.991629,2.95287081 343.110548,2.87050273 C348.042337,-0.722804868 358.518013,5.38787724 362.657009,11.5140034 C362.657009,11.5140034 365.998579,8.17809603 368.423804,6.76754262 C371.259325,5.11503297 377.46782,2.02108188 386.559197,3.20512306 C397.04105,4.57449243 404.500509,13.0789969 406.261642,15.0352389 C406.440793,15.2360111 406.735258,15.2617511 406.945812,15.102163 C408.124705,14.1961141 412.016082,11.097015 417.391114,11.2823431 C424.66576,11.5294474 433.75096,21.2385851 424.700767,36.3634242" id="Shape" fill="#1D65CE"></path>
                    <path d="M424.700767,36.3634242 C422.106687,40.6928965 417.890471,43.4110433 412.937575,45.0172209 C414.127279,39.3441192 415.856494,29.7688296 414.780561,26.5461784 C413.220715,21.8563457 401.962028,29.3621372 401.962028,29.3621372 C401.962028,29.3621372 402.584937,20.9142608 388.20244,15.9103998 C373.817884,10.9116868 362.246198,25.2952131 357.870394,18.10345 C355.063701,13.5011334 347.902826,6.97346283 343.110548,2.87050273 C348.042337,-0.722804868 358.518013,5.38787724 362.657009,11.5140034 C362.657009,11.5140034 365.998579,8.17809603 368.423804,6.76754262 C371.259325,5.11503297 377.46782,2.02108188 386.559197,3.20512306 C397.04105,4.57449243 404.500509,13.0789969 406.261642,15.0352389 C406.440793,15.2360111 406.735258,15.2617511 406.945812,15.102163 C408.124705,14.1961141 412.016082,11.097015 417.391114,11.2823431 C424.66576,11.5294474 433.75096,21.2385851 424.700767,36.3634242" id="Shadow" fill="#D0ABB1" style="mix-blend-mode: multiply;"></path>
                    <path d="M423.155387,35.4364229 C413.543547,51.5018026 378.140715,43.2289583 373.756674,42.132948 C366.163367,39.8549557 362.532993,36.8855864 362.485632,36.8464615 C361.727845,36.2070793 360.594255,36.3018026 359.951784,37.0585594 C359.308283,37.8173753 359.400432,38.9540548 360.159763,39.5980703 C360.315233,39.730374 363.369544,42.2770922 369.713946,44.5931797 C369.709312,44.6173753 369.701076,44.6410561 369.695928,44.6662814 L369.695928,44.6657666 C368.641101,50.0804384 362.547923,57.2516095 353.792195,63.3808245 C349.75513,66.2065645 348.809956,69.5435014 348.627202,71.4462041 C348.623598,71.4884178 348.595799,71.5223946 348.555645,71.536809 L344.017678,73.1584307 C343.97289,73.1749043 343.926043,73.1630639 343.89567,73.1259982 C341.27585,69.8204641 333.644448,59.4415709 331.61253,48.4670536 C330.017163,39.8549557 337.164654,31.5182762 341.566713,27.31493 C342.601462,26.326513 342.95513,24.8042479 342.467614,23.4364229 C342.001719,22.132948 340.873791,21.258302 339.52244,21.1543122 C338.508283,21.0765774 336.987562,20.3877743 336.4254,19.5229094 C336.211243,19.1934371 336.225657,18.9648657 336.311629,18.7234242 C336.748695,17.4915066 342.01253,17.0039905 344.259634,16.7954963 C345.511114,16.6796662 346.692067,16.5705285 347.718579,16.4083663 C349.137369,16.1839133 349.736082,14.471172 348.765683,13.4117125 L348.765168,13.4111977 C346.63132,11.0791514 343.673276,6.9082376 343.784473,4.93655163 C343.801462,4.63230453 343.893611,4.55199565 343.949724,4.5041192 C344.637498,3.903347 345.581642,3.6011591 346.761565,3.6011591 C347.0967,3.6011591 347.449853,3.62586952 347.822054,3.67426077 C352.275593,4.25547055 358.261179,8.22458252 361.165168,12.5221372 C361.798373,13.4601038 363.129647,13.5877743 363.931191,12.7882891 C363.963624,12.7563715 367.135825,9.60012949 369.32733,8.32445382 C374.495413,5.31698921 380.213817,4.19729809 386.324499,4.99420929 C394.294126,6.03359153 400.782672,11.6248399 404.82437,16.1319184 L404.85114,16.1633213 C405.694383,17.1069506 407.12244,17.2397691 408.125271,16.4675684 L408.130934,16.4629352 C409.267099,15.5877743 412.737884,12.9241964 417.331449,13.0822402 C419.865812,13.1682119 423.294898,14.8531539 425.240844,18.4232955 C427.72836,22.9890613 426.987047,29.0312749 423.155387,35.4364229 M428.404293,16.6997434 C426.096442,12.4619056 421.796829,9.62792872 417.453971,9.48069578 C412.551011,9.31287081 408.803778,11.5326906 406.878424,12.9030896 C406.833637,12.9344924 406.77495,12.9257408 406.736854,12.8855864 C398.963367,4.57052847 391.634666,2.05263915 386.790908,1.42097892 C379.87096,0.519048414 373.386018,1.79317969 367.514718,5.2099107 C365.99863,6.09279359 364.210728,7.61094031 362.957189,8.74967904 C362.912401,8.79137789 362.844448,8.78571508 362.804293,8.73835343 C359.083315,4.36615266 353.087433,0.727027822 348.288463,0.101030396 C345.573405,-0.253667159 343.253714,0.329601824 341.581642,1.78751688 C340.73531,2.52471122 340.253457,3.54453104 340.187047,4.73629423 C340.03827,7.38803168 342.053199,10.700773 343.80558,13.0523817 C343.85809,13.121365 343.813817,13.2176327 343.72733,13.2258695 C339.183186,13.6480059 334.106738,14.1648657 332.91549,17.5157022 C332.43827,18.8577872 332.611758,20.2678258 333.404036,21.4863586 C334.579325,23.2958824 336.94123,24.4325619 338.832607,24.7018026 C338.924756,24.7151874 338.960278,24.8207215 338.893868,24.8845568 C333.954872,29.6464615 326.189107,38.9700137 328.069158,49.1234242 C330.309055,61.2243251 338.753328,72.4747756 341.287691,75.6351359 C341.916777,76.4196919 342.858347,76.8531539 343.826687,76.8531539 C344.192195,76.8531539 344.561307,76.7913779 344.918579,76.6631926 L350.049596,74.8294731 C351.273276,74.3924075 352.118579,73.2624204 352.201977,71.9507086 C352.277137,70.7553419 352.853199,68.4366803 355.857575,66.3332054 C365.256803,59.7540548 371.667099,52.1308888 373.131191,45.8281861 C373.145606,45.7669249 373.205838,45.7319184 373.265554,45.7494216 C373.782929,45.8987138 374.315747,46.0449171 374.86504,46.1870021 C375.016391,46.2256121 375.167742,46.2446597 375.317034,46.2446597 C375.362337,46.2446597 375.406095,46.2364229 375.451912,46.2333341 C386.230805,48.6235529 416.472247,53.6253547 426.248309,37.286616 C432.337369,27.1074654 430.212787,20.0186623 428.404293,16.6997434" id="Border" fill="#000000"></path>
                    <path d="M611.805632,443.560335 C611.053508,443.972176 610.229827,444.27076 609.344885,444.440644 C609.097266,444.492639 608.850677,444.52816 608.603058,444.554415 C604.252993,445.001777 599.655825,437.351841 599.655825,437.351841 C600.541282,441.97475 597.514255,446.43807 592.891861,447.328675 C592.644242,447.375007 592.397652,447.411043 592.155181,447.436783 C587.805117,447.88466 583.7593,444.940516 582.920175,440.564711 L574.132015,403.900104 L577.195593,439.153643 C577.602285,443.843476 574.132015,447.972176 569.447845,448.378868 C569.195078,448.39946 568.942826,448.415419 568.696237,448.415419 C564.32558,448.415419 560.603058,445.069216 560.216957,440.631635 L557.154409,405.377581 L548.582466,416.37372 C546.858399,418.839615 544.109364,420.157504 541.313482,420.157504 C539.558013,420.157504 537.781951,419.637555 536.237549,418.551326 C532.227768,415.745664 531.249647,410.216706 534.059943,406.20641 L552.927382,379.575779 L551.496751,376.085432 C504.732273,273.506281 464.139737,237.789422 437.674358,219.843476 C425.988386,211.920696 422.940767,196.028804 430.863547,184.342832 C432.150548,182.448366 433.643469,180.775265 435.301127,179.349267 C443.83652,171.956732 456.577832,170.896243 466.363675,177.532021 C495.81078,197.495985 523.285683,226.273334 548.021848,263.060979 C570.66226,296.728933 589.390702,330.777839 598.013611,354.875651 C601.910651,365.76883 606.920175,388.4252 609.437034,399.719924 C611.362903,408.353128 616.104216,434.468958 616.104216,434.468958 C616.819274,438.206925 614.976288,441.840902 611.805632,443.560335" id="Shape" fill="#FFFFFF"></path>
                    <path d="M611.805632,443.560335 C609.684139,435.199975 607.496237,426.28363 605.241925,416.775265 C575.115284,289.578353 468.763161,203.70448 435.301127,179.349267 C443.83652,171.956732 456.577832,170.896243 466.363675,177.532021 C495.81078,197.495985 523.285683,226.273334 548.021848,263.060979 C570.66226,296.728933 589.390702,330.777839 598.013611,354.875651 C601.910651,365.76883 606.920175,388.4252 609.437034,399.719924 C611.362903,408.353128 616.104216,434.468958 616.104216,434.468958 C616.819274,438.206925 614.976288,441.840902 611.805632,443.560335" id="Shadow" fill="#D0ABB1" style="mix-blend-mode: multiply;"></path>
                    <path d="M613.297781,439.845638 C612.290316,441.330837 610.764962,442.335213 609.00383,442.672922 C608.808206,442.709473 608.613096,442.739332 608.417987,442.759409 C606.068952,443.003424 602.734074,438.876268 601.336391,436.641519 L592.493663,400.945767 C592.25428,399.980516 591.281307,399.391069 590.311938,399.630966 C589.346172,399.870348 588.756211,400.846925 588.995593,401.813205 L597.889287,437.717967 C598.219789,439.471893 597.850677,441.250528 596.84939,442.72955 C595.841925,444.21475 594.316571,445.219126 592.554924,445.55735 C592.35827,445.594415 592.161101,445.623759 591.967536,445.643836 C588.53845,445.991326 585.339995,443.617066 584.690316,440.225046 L575.882594,403.481674 L575.873328,403.483218 L575.776031,402.708958 C575.652993,401.720541 574.749004,401.020927 573.76522,401.14448 C572.777832,401.267517 572.077704,402.168418 572.201256,403.15529 L572.385554,404.636371 L575.401256,439.310245 C575.722491,443.00085 572.981179,446.264685 569.291603,446.585406 C565.592247,446.901494 562.329956,444.110245 562.014898,440.474209 L558.931243,405.01475 L558.614641,397.297375 C558.573971,396.303296 557.735361,395.528006 556.741282,395.570734 C555.746687,395.611404 554.973457,396.450528 555.014126,397.445123 L555.315284,404.805741 L547.160844,415.267517 L547.10679,415.340619 C545.784782,417.227362 543.619016,418.354776 541.312195,418.354776 C539.862002,418.354776 538.464319,417.913077 537.269982,417.077041 C534.079763,414.844351 533.300355,410.431481 535.528412,407.250528 L554.969853,379.809087 L553.162388,375.400335 L553.135619,375.3365 C506.184782,272.347054 465.329699,236.418096 438.684139,218.351687 C433.431629,214.790812 429.88105,209.396217 428.685168,203.164042 C427.488257,196.931352 428.792247,190.605998 432.353637,185.352974 C439.706018,174.51076 454.509107,171.669061 465.351835,179.021442 C494.607948,198.85825 521.91863,227.471378 546.52558,264.065972 C569.72558,298.568418 587.873328,331.889396 596.316571,355.485277 C600.06123,365.953746 604.868952,387.511532 607.452736,399.093 L607.679248,400.110245 C609.576288,408.610631 614.284139,434.530837 614.335619,434.809344 C614.673843,436.572021 614.304731,438.359924 613.297781,439.845638 M617.877446,434.148341 C617.830599,433.886822 613.108849,407.895574 611.196365,399.325689 L610.969853,398.307929 C608.369596,386.650271 603.529441,364.950915 599.709107,354.270863 C591.170625,330.406256 572.87513,296.79493 549.516056,262.055162 C524.651191,225.076011 497.013611,196.135985 467.373971,176.038688 C454.885941,167.571764 437.838321,170.843321 429.371397,183.330837 C425.268952,189.380258 423.768823,196.664685 425.14643,203.842549 C426.522491,211.020927 430.613611,217.233025 436.663032,221.334441 C462.945143,239.154776 503.2741,274.664171 549.84141,376.800078 L550.884396,379.342678 L532.581693,405.175368 C529.209235,409.992871 530.38504,416.656449 535.204087,420.029936 C537.006919,421.291713 539.118116,421.958379 541.312195,421.958379 C544.777318,421.958379 548.033431,420.272407 550.030857,417.447697 L555.756983,410.102523 L558.42365,440.785664 C558.883881,446.07318 563.396108,450.21475 568.698038,450.21475 C568.997652,450.21475 569.301385,450.201365 569.602028,450.17511 C575.272556,449.681416 579.483624,444.667774 578.99096,438.998276 L578.023135,427.86623 L581.158785,440.946281 C582.17706,446.135471 587.071784,449.765329 592.339737,449.228392 C592.637807,449.196989 592.937935,449.152716 593.232401,449.096603 C595.940252,448.576655 598.284139,447.033797 599.831629,444.751687 C600.364448,443.965072 600.781951,443.122858 601.077961,442.246153 C603.070239,444.438688 605.844499,446.651815 608.785554,446.343965 C609.078991,446.313592 609.380149,446.269833 609.682337,446.212176 C612.389158,445.692742 614.73253,444.149885 616.28002,441.868289 C617.828025,439.585664 618.393276,436.837658 617.877446,434.148341" id="Border" fill="#000000"></path>
                </g>
            </g>
        </g>
    </g>
</svg>