<?xml version="1.0" encoding="UTF-8"?>
<svg width="801px" height="827px" viewBox="0 0 801 827" version="1.1" xmlns="http://www.w3.org/2000/svg" xmlns:xlink="http://www.w3.org/1999/xlink">
    <title>searching</title>
    <g id="Change-everything!" stroke="none" stroke-width="1" fill="none" fill-rule="evenodd">
        <g id="searching" transform="translate(-100.000000, -87.000000)">
            <g transform="translate(100.000000, 87.000000)">
                <g id="Element" transform="translate(31.578947, 14.958449)">
                    <path d="M750.148255,320.48349 L750.113906,320.48349 C742.991468,320.470194 739.299501,315.992632 735.72831,311.662438 C732.085097,307.244709 728.643546,303.071856 721.387036,303.071856 C717.014183,303.071856 714.938837,305.871302 711.913906,310.438061 C708.795346,315.146648 705.261274,320.48349 697.219169,320.48349 C684.245208,320.48349 678.778726,307.994848 677.700055,301.39097 C677.527756,300.333906 678.245208,299.33723 679.301717,299.164931 C680.358227,298.992078 681.353241,299.708421 681.527756,300.763269 C681.53385,300.804266 682.239114,304.916731 684.611413,308.923934 C687.629141,314.020886 691.871801,316.605374 697.219169,316.605374 C703.178726,316.605374 705.727756,312.754958 708.680665,308.296233 C711.506704,304.029751 714.709474,299.19374 721.387036,299.19374 C730.471247,299.19374 734.854072,304.507313 738.719446,309.194848 C741.994238,313.166039 744.823601,316.595402 750.121108,316.605374 L750.147147,316.605374 C755.020831,316.605374 758.820831,314.053573 761.445762,309.019778 C763.537729,305.006482 764.073463,300.881828 764.078449,300.840277 C764.211413,299.778781 765.184266,299.024211 766.240776,299.155512 C767.302271,299.286814 768.056842,300.251911 767.927202,301.313961 C767.115014,307.94831 762.352687,320.482382 750.148255,320.48349" id="Shape" fill="#1D65CE"></path>
                    <path d="M619.21856,318.714017 C619.21856,327.160554 612.372022,334.007091 603.925485,334.007091 C595.478393,334.007091 588.631302,327.160554 588.631302,318.714017 C588.631302,310.267479 595.478393,303.420388 603.925485,303.420388 C612.372022,303.420388 619.21856,310.267479 619.21856,318.714017" id="Shape" fill="#FFD772"></path>
                    <path d="M667.129086,357.727036 C661.652078,357.727036 657.196122,362.182992 657.196122,367.66 C657.196122,373.137008 661.652078,377.592964 667.129086,377.592964 C672.606648,377.592964 677.062604,373.137008 677.062604,367.66 C677.062604,362.182992 672.606648,357.727036 667.129086,357.727036 M667.129086,381.47108 C659.513573,381.47108 653.318006,375.275512 653.318006,367.66 C653.318006,360.044488 659.513573,353.84892 667.129086,353.84892 C674.744598,353.84892 680.94072,360.044488 680.94072,367.66 C680.94072,375.275512 674.744598,381.47108 667.129086,381.47108" id="Shape" fill="#EB7D7D"></path>
                    <path d="M456.573518,696.706759 C455.469917,696.706759 454.51313,695.88349 454.375734,694.759391 C454.369086,694.708421 453.663823,689.249141 450.89374,683.927812 C447.386814,677.191524 442.295956,673.776011 435.76133,673.776011 L435.725873,673.776011 C428.614515,673.789861 424.856066,678.347756 420.503712,683.625873 C415.473241,689.723934 409.772964,696.635291 398.002327,696.635291 C389.412853,696.635291 385.259945,690.364931 381.596233,684.831967 C377.830582,679.146648 374.273241,673.776011 366.272133,673.776011 C359.12144,673.776011 353.45385,677.229197 349.427812,684.038615 C346.285983,689.352742 345.355789,694.79651 345.346371,694.850249 C345.146925,696.056898 344.004543,696.872964 342.800665,696.675734 C341.593463,696.477396 340.775734,695.340554 340.972964,694.132798 C341.014515,693.882936 342.016177,687.923934 345.539723,681.905651 C350.352465,673.687922 357.520886,669.343876 366.272133,669.343876 C376.654404,669.343876 381.242216,676.27241 385.29097,682.384875 C388.780166,687.653019 391.793463,692.203158 398.002327,692.203158 C407.683767,692.203158 412.249418,686.66687 417.084321,680.805374 C421.724211,675.179335 426.522548,669.361607 435.717008,669.343876 C451.543047,669.33723 457.72144,685.604266 458.776288,694.221994 C458.923657,695.436399 458.060499,696.541662 456.844432,696.690693 C456.753573,696.701219 456.662715,696.706759 456.573518,696.706759" id="Shape" fill="#EB7D7D"></path>
                    <path d="M395.996343,622.632964 C393.065042,622.632964 390.680554,625.018006 390.680554,627.949307 C390.680554,630.880609 393.065042,633.265097 395.996343,633.265097 C398.927645,633.265097 401.313241,630.880609 401.313241,627.949307 C401.313241,625.018006 398.927645,622.632964 395.996343,622.632964 M395.996343,637.143213 C390.927091,637.143213 386.802438,633.019114 386.802438,627.949307 C386.802438,622.878947 390.927091,618.754848 395.996343,618.754848 C401.06615,618.754848 405.191357,622.878947 405.191357,627.949307 C405.191357,633.019114 401.06615,637.143213 395.996343,637.143213" id="Shape" fill="#1D65CE"></path>
                    <path d="M428.563213,580.260997 C422.874017,580.260997 418.24687,584.888698 418.24687,590.576233 C418.24687,596.264875 422.874017,600.892022 428.563213,600.892022 C434.251302,600.892022 438.877895,596.264875 438.877895,590.576233 C438.877895,584.888698 434.251302,580.260997 428.563213,580.260997 M428.563213,605.324155 C420.430249,605.324155 413.814737,598.708643 413.814737,590.576233 C413.814737,582.444377 420.430249,575.828864 428.563213,575.828864 C436.695069,575.828864 443.310028,582.444377 443.310028,590.576233 C443.310028,598.708643 436.695069,605.324155 428.563213,605.324155" id="Shape" fill="#EB7D7D"></path>
                    <path d="M51.5059834,391.499834 C43.0827147,392.123657 35.7486427,385.800665 35.1248199,377.377396 C34.5015512,368.954127 40.8239889,361.620055 49.2472576,360.996787 C57.6705263,360.372964 65.0045983,366.695402 65.6284211,375.119224 C66.2522438,383.542493 59.9292521,390.876565 51.5059834,391.499834" id="Shape" fill="#FFD772"></path>
                    <path d="M14.2610526,406.165042 C14.0122992,406.165042 13.7629917,406.17446 13.5120222,406.192742 C8.0499723,406.597175 3.93529086,411.370582 4.33916898,416.832078 C4.74415512,422.293573 9.51036011,426.408255 14.9785042,426.005485 C20.440554,425.599945 24.5557895,420.827091 24.1513573,415.365042 C23.9552355,412.719058 22.740831,410.307978 20.7314127,408.575568 C18.9120222,407.007701 16.638338,406.165042 14.2610526,406.165042 M14.2355679,429.910194 C7.07933518,429.910194 1.00897507,424.367812 0.472132964,417.118504 C-0.0901939058,409.52349 5.63113573,402.887479 13.2255956,402.325152 C16.9026039,402.05036 20.4693629,403.228753 23.2638227,405.638172 C26.0571745,408.046482 27.7463712,411.399391 28.0189474,415.078615 C28.5807202,422.673629 22.8599446,429.30964 15.2649307,429.871967 C14.9197784,429.897452 14.5762881,429.910194 14.2355679,429.910194" id="Shape" fill="#EB7D7D"></path>
                    <path d="M550.371136,78.1834349 C541.948421,78.8067036 534.614903,72.4842659 533.99108,64.0609972 C533.367258,55.6377285 539.690249,48.3036565 548.113518,47.6798338 C556.536787,47.0560111 563.870305,53.3790028 564.493573,61.8022715 C565.117396,70.2255402 558.794404,77.5596122 550.371136,78.1834349" id="Shape" fill="#EB7D7D"></path>
                    <path d="M503.769917,26.9449861 L503.728366,26.9449861 C494.80205,26.9283657 490.120609,21.2535734 485.594848,15.7654848 C480.806482,9.95883657 476.28349,4.47407202 466.653019,4.47407202 C460.421994,4.47407202 457.426981,8.9965097 453.958837,14.2325208 C450.01313,20.1915235 445.54,26.9449861 435.462992,26.9449861 C415.01036,26.9449861 410.869086,3.01922438 410.829751,2.77711911 C410.658006,1.72060942 411.374903,0.723933518 412.431967,0.551634349 C413.490139,0.376565097 414.48349,1.09512465 414.656343,2.15052632 L414.656898,2.15052632 C414.798172,3.00481994 418.320609,23.0668698 435.462992,23.0668698 C443.456898,23.0668698 446.987645,17.7355679 450.725042,12.0912465 C454.468532,6.43972299 458.337784,0.595955679 466.653019,0.595955679 C478.111745,0.595955679 483.676288,7.34443213 488.587645,13.2978947 C492.904543,18.5327978 496.632521,23.0535734 503.735568,23.0668698 L503.771025,23.0668698 C510.323934,23.0668698 515.417008,19.6330748 518.909529,12.8596676 C521.626427,7.58930748 522.300111,2.28238227 522.306759,2.22975069 C522.436399,1.16603878 523.40759,0.409806094 524.466316,0.540554017 C525.529474,0.670747922 526.286814,1.63750693 526.155512,2.70066482 C525.130028,11.0912465 519.130028,26.9449861 503.769917,26.9449861" id="Shape" fill="#1D65CE"></path>
                    <path d="M600.472853,274.818227 C594.523269,275.25867 589.342105,270.792188 588.901662,264.842604 C588.460665,258.892465 592.928255,253.711856 598.877285,253.270859 C604.827424,252.830416 610.008033,257.296898 610.44903,263.247036 C610.890028,269.197175 606.422438,274.377784 600.472853,274.818227" id="Shape" fill="#EB7D7D"></path>
                </g>
                <g id="Character" transform="translate(159.245282, 0.213812)">
                    <polygon id="Shape" fill="#FFFFFF" points="96.280535 774.775385 74.1104519 755.046853 81.9891222 727.088404 94.9231942 732.788127 110.18469 739.513889 99.3913383 766.885634"></polygon>
                    <path d="M99.3912275,766.885523 C95.7003688,766.158653 92.7142192,764.738155 91.8000917,762.158099 C89.4261305,755.464471 93.2604796,739.155883 94.9236375,732.788016 L110.184579,739.513778 L99.3912275,766.885523 Z" id="Shadow" fill="#D0ABB1" style="mix-blend-mode: multiply;"></path>
                    <path d="M83.250064,729.762587 L76.3065737,754.404692 L95.4954934,771.481147 L107.696601,740.536548 L83.250064,729.762587 Z M71.914884,755.688903 L80.7281804,724.413556 L112.672225,738.491119 L97.0661305,778.070066 L71.914884,755.688903 Z" id="Border" fill="#000000"></path>
                    <path d="M111.780313,802.446964 C108.59915,806.844194 103.873388,809.24641 102.0612,809.295163 C98.9171555,809.380482 70.0983189,808.984914 65.8290668,809.164415 C61.5581527,809.348903 3.38419147,813.186022 5.22629673,799.076881 C7.068402,784.967739 25.1891776,781.977712 33.7166014,779.828127 C43.9204796,777.262476 53.9858535,774.301257 58.7465183,768.674665 C60.9919477,766.021479 65.6218646,756.336714 68.7742192,754.233667 C71.9254657,752.135052 75.1913937,750.943363 81.2429172,754.771617 C87.2955488,758.594886 88.7232496,764.714554 88.7232496,764.714554 C88.7232496,764.714554 94.9720031,756.184914 103.310507,757.526742 C104.050119,757.645302 104.72048,757.828127 105.324358,758.059152 C111.425743,760.432005 110.932668,768.276881 110.758153,773.348903 C110.565355,778.91954 111.902197,777.277435 114.513277,789.661368 C115.617986,794.907351 114.113831,799.212615 111.780313,802.446964" id="Shape" fill="#1D65CE"></path>
                    <path d="M111.780313,802.446964 C108.662862,803.617047 99.3819754,806.690177 96.4927787,803.05195 C92.9985959,798.658044 96.8611998,788.221479 96.9925017,779.352781 C97.1171555,770.489623 93.5465183,760.973833 93.5465183,760.973833 L105.324358,758.059152 C111.425743,760.432005 110.932668,768.276881 110.758153,773.348903 C110.565355,778.91954 111.902197,777.277435 114.513277,789.661368 C115.617986,794.907351 114.113831,799.212615 111.780313,802.446964" id="Shadow" fill="#D0ABB1" style="mix-blend-mode: multiply;"></path>
                    <path d="M110.209122,801.310288 C107.204136,805.464304 102.949288,807.33134 102.008568,807.356825 C100.726574,807.392282 94.6966568,807.341867 88.3127233,807.288127 C78.9215876,807.208903 68.2778203,807.12026 65.7448563,807.227185 C65.5215876,807.236604 65.1531665,807.254886 64.6551056,807.282587 C33.9093992,808.90918 12.7260197,806.825523 7.9886236,801.708626 C7.30053496,800.965689 7.03405297,800.208903 7.14873441,799.328016 C8.65621363,787.780648 23.0949948,784.353501 31.7215876,782.305302 C32.6074602,782.094221 33.436269,781.898099 34.1897316,781.708626 C44.5177095,779.11195 55.035715,776.063196 60.2268508,769.927462 C61.1664629,768.816659 62.3454103,766.833279 63.7110613,764.536327 C65.6213106,761.32303 68.2368231,756.92303 69.8484574,755.846576 C71.4063521,754.810011 72.8961028,754.013889 74.9720031,754.25267 C76.3792053,754.413889 78.0567676,755.051008 80.2074602,756.411119 C85.468956,759.734111 86.8235267,765.108626 86.835161,765.154609 L87.5127233,768.05821 L89.5055211,776.987296 C89.7071832,777.890343 90.5077372,778.504194 91.3958258,778.504194 C91.535992,778.504194 91.6783743,778.489235 91.8207566,778.457102 C92.8656319,778.223861 93.5238037,777.187296 93.2905627,776.141867 L90.8429172,765.178986 C92.4213106,763.350731 97.1974879,758.529124 103.004136,759.441036 C103.583637,759.534111 104.131006,759.678155 104.621311,759.865966 C108.883914,761.524138 109.048457,766.914166 108.838485,772.766797 L108.820203,773.281479 C108.706075,776.58508 109.116601,777.764027 109.862862,779.904194 C110.478374,781.669291 111.409122,784.336327 112.615216,790.06098 C113.471172,794.125246 112.661754,797.909734 110.209122,801.310288 M116.41023,789.261534 C115.152059,783.293113 114.173111,780.485357 113.524912,778.627185 C112.837931,776.657102 112.606906,775.994498 112.696103,773.414997 L112.713831,772.905856 C112.899981,767.722476 113.211338,759.046022 106.017432,756.24713 C105.267848,755.961257 104.4612,755.746853 103.618541,755.612227 C97.2933327,754.599484 92.1575987,758.371784 89.3869616,761.071507 C88.2213106,758.715828 86.0661859,755.523584 82.2794823,753.133556 C77.5553826,750.144637 73.267848,748.913058 67.6983189,752.619983 C65.5210336,754.072615 63.2905627,757.653778 60.3775433,762.554609 C59.1537206,764.613889 57.9974879,766.557379 57.2661859,767.422199 C52.8185405,772.678709 42.53433,775.611673 33.2429172,777.947407 C32.5044131,778.134111 31.6933327,778.326354 30.8262967,778.532448 C21.2257427,780.811119 5.15704466,784.625523 3.30385906,798.826077 C3.03903912,800.850454 3.67560421,802.757933 5.14319424,804.343529 C8.27615823,807.727462 15.4783743,809.687573 24.5210336,810.725246 C36.4722801,812.096437 51.6373771,811.854332 64.8606458,811.155717 C65.3409782,811.130232 65.6966568,811.109734 65.9099532,811.101424 C68.3431942,810.999484 79.3974879,811.092005 88.2800363,811.166243 C94.9780973,811.222199 100.763139,811.270399 102.113277,811.233279 C104.551504,811.16846 109.814108,808.473169 113.351504,803.583972 L113.352613,803.581756 C116.428513,799.319152 117.485577,794.367351 116.41023,789.261534" id="Border" fill="#000000"></path>
                    <path d="M110.574607,821.508626 C107.495383,821.908072 104.174053,822.224415 100.678208,822.464304 C65.4815322,824.872061 12.7590945,819.788404 10.3164352,819.546853 L10.1568785,819.52857 C5.13748787,818.952947 1.48762637,814.456548 1.98347125,809.406133 C2.48485629,804.305302 7.02225241,800.57677 12.1230834,801.078155 C12.7241915,801.136327 69.3851333,806.600038 102.653277,803.697545 L102.669898,803.693667 C104.590673,803.529124 106.436657,803.333556 108.191227,803.105856 C113.274884,802.445468 117.926962,806.029955 118.587349,811.113058 C119.242751,816.19616 115.657709,820.853778 110.574607,821.508626" id="Shape" fill="#FFFFFF"></path>
                    <path d="M110.574607,821.508626 C107.495383,821.908072 104.174053,822.224415 100.678208,822.464304 C100.718651,822.306964 100.770175,822.145745 100.828901,821.980094 C105.136934,809.798376 98.6028618,804.537435 98.6028618,804.537435 L102.653277,803.697545 L102.669898,803.693667 C104.590673,803.529124 106.436657,803.333556 108.191227,803.105856 C113.274884,802.445468 117.926962,806.029955 118.587349,811.113058 C119.242751,816.19616 115.657709,820.853778 110.574607,821.508626" id="Shadow" fill="#D0ABB1" style="mix-blend-mode: multiply;"></path>
                    <path d="M102.937654,805.616881 L102.821311,805.629069 C69.6988729,808.51882 14.2794823,803.234609 11.936546,803.008016 C7.90718316,802.611894 4.30939923,805.567573 3.91327734,809.596382 C3.52435768,813.557047 6.42408067,817.148183 10.3780973,817.602476 L10.5376541,817.620205 C12.7238037,817.836271 65.2102303,822.947074 100.545964,820.5299 C104.074496,820.287795 107.364247,819.969789 110.324912,819.585856 L110.327128,819.585302 C112.270064,819.33544 113.999704,818.341534 115.19638,816.788072 C116.39361,815.234055 116.914939,813.307185 116.664524,811.360925 C116.411892,809.417435 115.417432,807.687795 113.865078,806.491673 C112.312169,805.296105 110.386962,804.776991 108.441255,805.028515 C106.716601,805.252892 104.865632,805.450676 102.937654,805.616881 L102.937654,805.616881 Z M9.93599203,821.455108 C3.89222471,820.761479 -0.541016285,815.271728 0.0534435487,809.216881 C0.346518341,806.234055 1.78308344,803.544304 4.09776488,801.642919 C6.41300034,799.742088 9.33045186,798.855662 12.3127233,799.148183 C14.635715,799.372559 69.5930557,804.613002 102.377543,801.774775 L102.378651,801.774221 L102.504967,801.762033 C104.413554,801.598598 106.242917,801.404138 107.941532,801.183086 C110.913277,800.796382 113.857322,801.590842 116.231283,803.419651 C118.60469,805.247906 120.123804,807.891119 120.510507,810.863418 C120.893333,813.837379 120.097211,816.781424 118.268402,819.154831 C116.439593,821.5299 113.795272,823.04846 110.824081,823.431285 C107.786408,823.825745 104.417432,824.150953 100.811338,824.398598 C65.1553826,826.839041 12.3559366,821.696659 10.1260197,821.476714 L9.93599203,821.455108 Z" id="Border" fill="#000000"></path>
                    <path d="M59.9800363,782.366576 C58.5761582,782.205911 57.2210336,781.561036 56.1855765,780.442476 C53.334053,777.363252 51.367294,776.154942 49.1185405,775.202587 C46.002197,773.884027 44.5451333,770.28846 45.8642469,767.172116 C47.1828064,764.056327 50.7783743,762.597601 53.8947178,763.917822 C58.1479034,765.717822 61.5224186,768.1699 65.1767122,772.117268 C67.4758812,774.598709 67.3274048,778.476825 64.8443023,780.775994 C63.4797593,782.039152 61.6936098,782.562698 59.9800363,782.366576" id="Shape" fill="#FFFFFF"></path>
                    <path d="M51.5063521,765.369512 C50.9744962,765.369512 50.4420862,765.473113 49.933499,765.678653 C48.8969339,766.098598 48.0858535,766.898044 47.6498424,767.927961 C47.2138314,768.958432 47.2049671,770.096382 47.6254657,771.133501 C48.0454103,772.170066 48.8437483,772.981147 49.8742192,773.416604 C52.2919477,774.44098 54.5318369,775.803307 57.6082912,779.125191 C58.2886236,779.859263 59.2088452,780.326299 60.200535,780.439872 L60.201089,780.439872 C61.4166014,780.583363 62.6298978,780.183917 63.5268508,779.352892 C64.3473494,778.592781 64.8232496,777.558986 64.8664629,776.440426 C64.9091222,775.322975 64.5141084,774.255385 63.7539976,773.434886 C60.2980419,769.701922 57.1235267,767.389457 53.1390391,765.704138 C52.6138314,765.48087 52.0603688,765.369512 51.5063521,765.369512 M60.6836375,784.346243 C60.3761582,784.346243 60.067571,784.328515 59.7589837,784.293058 C57.8465183,784.074221 56.0720031,783.174498 54.7628618,781.760094 C52.136269,778.923529 50.4271278,777.862587 48.3623078,776.988349 C46.3789283,776.149014 44.8404242,774.587241 44.0310059,772.590011 C43.2215876,770.593335 43.2387621,768.401091 44.0780973,766.416604 C44.9179865,764.43267 46.4803134,762.893612 48.4769893,762.084194 C50.4736652,761.275329 52.6664629,761.29195 54.6509505,762.132393 C59.1728341,764.045966 62.7467953,766.63821 66.5999809,770.799983 C68.0636929,772.380038 68.8243577,774.436548 68.7412552,776.589457 C68.6587067,778.742919 67.7423632,780.734609 66.1617538,782.198875 C64.6614768,783.587795 62.7046901,784.345689 60.6836375,784.346243" id="Border" fill="#000000"></path>
                    <path d="M39.0390945,790.427961 C37.7576541,790.194166 36.5515599,789.51882 35.6679034,788.427407 C33.2335544,785.422421 31.4994823,784.190842 29.48951,783.178653 C26.7044685,781.775883 25.5842469,778.38087 26.987017,775.596382 C28.389787,772.81134 31.7848009,771.690011 34.5692884,773.093889 C38.3703965,775.00857 41.323305,777.468404 44.4429726,781.321036 C46.4052995,783.744304 46.0318923,787.299983 43.6086236,789.26231 C42.2767676,790.340426 40.6025294,790.713833 39.0390945,790.427961" id="Shape" fill="#FFFFFF"></path>
                    <path d="M32.0327233,774.426964 C31.6421416,774.426964 31.2498978,774.489568 30.8676264,774.615883 C29.9274602,774.925579 29.1645793,775.584304 28.7191499,776.469069 C28.2731665,777.352725 28.1989283,778.357712 28.5091776,779.297878 C28.8194269,780.238044 29.4775987,781.001479 30.3618092,781.446908 C32.5385405,782.543307 34.5302303,783.942753 37.1745516,787.206465 C37.7318923,787.895662 38.5174879,788.36159 39.3867399,788.519484 L39.387294,788.519484 C40.4526679,788.716714 41.5468508,788.436382 42.388402,787.755496 C43.1579311,787.132227 43.6382635,786.246354 43.7418646,785.261867 C43.8454657,784.276825 43.5590391,783.31062 42.9357704,782.541091 C40.0005904,778.916714 37.2377095,776.608681 33.6969893,774.825856 C33.1717815,774.560482 32.6039145,774.426964 32.0327233,774.426964 M40.0576541,792.459651 C39.6033604,792.459651 39.1457427,792.418653 38.6914491,792.335551 C36.9097316,792.010343 35.3008674,791.055773 34.1607012,789.647462 C31.9352164,786.900094 30.4426956,785.829734 28.6172109,784.91062 C26.8077926,783.998709 25.4615322,782.43749 24.8266291,780.51339 C24.1917261,778.589291 24.3440807,776.533335 25.255438,774.723363 C26.1667953,772.914498 27.7285682,771.568238 29.6521139,770.932781 C31.5767676,770.297878 33.6321693,770.449678 35.4421416,771.362698 C39.5041915,773.408127 42.6465737,776.021978 45.9496208,780.100094 C47.2249671,781.675163 47.8105627,783.651894 47.5989283,785.666853 C47.387294,787.682365 46.4033604,789.494 44.8288452,790.768792 C43.4670724,791.871839 41.7817538,792.459651 40.0576541,792.459651" id="Border" fill="#000000"></path>
                    <polygon id="Shape" fill="#FFFFFF" points="544.773499 702.985302 517.344136 714.314942 495.632779 695.018543 506.407848 685.871728 519.122529 675.079484 539.034441 696.74098"></polygon>
                    <path d="M539.034219,696.741257 C536.767737,699.744581 534.186574,701.810509 531.466906,701.506354 C524.408734,700.719651 511.411504,690.149014 506.407626,685.872005 L519.123416,675.079207 L539.034219,696.741257 Z" id="Shadow" fill="#D0ABB1" style="mix-blend-mode: multiply;"></path>
                    <path d="M498.588845,695.052171 L517.726241,712.059374 L541.467516,702.253279 L518.957266,677.764083 L498.588845,695.052171 Z M516.962806,716.570731 L492.675272,694.985135 L519.288568,672.395108 L548.080258,703.717545 L516.962806,716.570731 Z" id="Border" fill="#000000"></path>
                    <path d="M572.292557,717.665689 C573.435493,722.971507 572.062086,728.091728 570.887017,729.472338 C568.847682,731.866797 549.285909,753.032448 546.564579,756.327185 C543.845466,759.626354 507.80336,805.450177 498.543527,794.646853 C489.283139,783.843529 499.175106,768.369845 503.279261,760.590343 C508.193388,751.28785 512.72192,741.82303 511.720812,734.521645 C511.248236,731.077878 507.141865,721.159318 507.686463,717.40918 C508.233277,713.662919 509.530784,710.437435 516.422751,708.497268 C523.313056,706.55267 528.817765,709.582587 528.817765,709.582587 C528.817765,709.582587 526.653222,699.233002 533.226629,693.929401 C533.808901,693.459041 534.393942,693.08231 534.969565,692.788127 C540.813887,689.837989 546.316934,695.449623 549.971781,698.970399 C553.985078,702.838543 553.657654,700.746576 564.612779,707.08508 C569.252668,709.770953 571.44879,713.768183 572.292557,717.665689" id="Shape" fill="#1D65CE"></path>
                    <path d="M572.292557,717.665689 C571.079261,720.767074 567.157931,729.722753 562.520812,729.438543 C556.917488,729.09893 551.739095,719.247961 545.232169,713.221922 C538.72469,707.202532 529.261532,703.495052 529.261532,703.495052 L534.969565,692.788127 C540.813887,689.837989 546.316934,695.449623 549.971781,698.970399 C553.985078,702.838543 553.657654,700.746576 564.612779,707.08508 C569.252668,709.770953 571.44879,713.768183 572.292557,717.665689" id="Shadow" fill="#D0ABB1" style="mix-blend-mode: multiply;"></path>
                    <path d="M569.409953,728.215274 C568.578928,729.192005 564.509676,733.642421 560.201643,738.353778 C553.864247,745.284526 546.682529,753.13882 545.067571,755.094498 C544.925743,755.266243 544.69361,755.553778 544.379482,755.94159 C525.03156,779.891174 509.319095,794.250177 502.346241,794.352636 C501.334053,794.367074 500.593333,794.059595 500.014939,793.385357 C492.436546,784.543252 499.542363,771.514997 503.787239,763.730509 C504.22325,762.931617 504.630452,762.183695 504.993887,761.496714 C509.967294,752.080094 514.733499,742.220814 513.641532,734.257933 C513.443194,732.816936 512.756768,730.613612 511.962862,728.062919 C510.850396,724.493944 509.327405,719.606964 509.605521,717.689512 C509.874773,715.837435 510.279759,714.196991 511.844856,712.812504 C512.905798,711.874554 514.501366,711.052393 516.950673,710.36375 C522.939039,708.672892 527.842086,711.259041 527.883637,711.281756 L531.209399,713.111673 L538.465909,717.205856 C538.76674,717.375939 539.09361,717.456271 539.416601,717.456271 C540.09361,717.456271 540.751227,717.100592 541.10746,716.469568 C541.633222,715.536604 541.30469,714.353224 540.371726,713.827462 L530.579482,708.303917 C530.274773,705.895606 529.894164,699.13882 534.44541,695.437435 C534.90192,695.069014 535.37505,694.757656 535.84264,694.519429 C539.925189,692.457933 544.044302,695.939928 548.255383,700.009734 L548.625466,700.36652 C551.005521,702.660149 552.156768,703.142698 554.24818,704.019152 C555.971726,704.74159 558.576712,705.833556 563.641532,708.76375 C567.235438,710.844637 569.509122,713.977047 570.397211,718.074 C571.476435,723.086742 570.021588,727.498376 569.409953,728.215274 M574.188347,717.257933 L574.187793,717.255163 C573.074219,712.118321 570.09915,708.020814 565.583914,705.406964 C560.304136,702.351562 557.5612,701.202532 555.746795,700.441867 C553.822142,699.635773 553.174496,699.364858 551.317432,697.573723 L550.951227,697.220814 C547.219926,693.615828 540.976712,687.582587 534.084745,691.061257 C533.371172,691.427462 532.672003,691.884526 532.008845,692.420814 C527.027128,696.447407 526.397765,702.788127 526.553998,706.653501 C524.022142,705.944914 520.207737,705.414166 515.898042,706.630786 C510.516878,708.144914 506.734607,710.510011 505.76674,717.130509 C505.391671,719.721091 506.563416,723.773723 508.259261,729.216936 C508.97228,731.503363 509.64541,733.662919 509.798873,734.784249 C510.734607,741.606964 506.038208,751.215274 501.562862,759.686188 C501.208291,760.359872 500.809399,761.091728 500.382252,761.874 C495.657599,770.537158 487.750119,785.036327 497.070895,795.908903 C498.398873,797.458487 500.24264,798.261811 502.403859,798.230606 C507.014939,798.162642 513.287516,794.117767 520.105798,788.087296 C529.116324,780.117213 539.075327,768.678432 547.397765,758.378155 C547.69915,758.004194 547.923527,757.726631 548.058707,757.562088 C549.609953,755.683972 557.070341,747.524969 563.063693,740.970399 C567.58336,736.027462 571.487516,731.75821 572.362862,730.729401 C573.945687,728.872892 575.459815,723.157656 574.188347,717.257933" id="Border" fill="#000000"></path>
                    <path d="M585.661421,731.307241 C583.898541,733.864027 581.913499,736.544914 579.75505,739.305579 C558.013222,767.08785 518.981089,802.892836 517.167793,804.548238 L517.047017,804.655163 C513.262529,808.002532 507.480258,807.710565 504.055327,803.964304 C500.598263,800.180925 500.859759,794.314443 504.643139,790.856271 C505.086906,790.447961 547.034275,751.968183 567.119593,725.288958 L567.129011,725.272892 C568.290784,723.735496 569.378873,722.232448 570.383859,720.774831 C573.291338,716.553778 579.067516,715.49062 583.289122,718.398099 C587.505743,721.310011 588.572225,727.090066 585.661421,731.307241" id="Shape" fill="#FFFFFF"></path>
                    <path d="M585.661421,731.307241 C583.898541,733.864027 581.913499,736.544914 579.75505,739.305579 C579.6653,739.170399 579.578873,739.024138 579.494662,738.869014 C573.318485,727.521091 565.035937,728.862365 565.035937,728.862365 L567.119593,725.288958 L567.129011,725.272892 C568.290784,723.735496 569.378873,722.232448 570.383859,720.774831 C573.291338,716.553778 579.067516,715.49062 583.289122,718.398099 C587.505743,721.310011 588.572225,727.090066 585.661421,731.307241" id="Shadow" fill="#D0ABB1" style="mix-blend-mode: multiply;"></path>
                    <path d="M568.737986,726.360592 L568.669842,726.455329 C548.671504,753.017656 507.688125,790.694665 505.953499,792.285246 C502.964025,795.017102 502.755715,799.668626 505.487017,802.656991 C508.17289,805.594388 512.782308,805.839263 515.763471,803.202144 L515.883693,803.095773 C517.504745,801.614332 556.399482,766.002698 578.227737,738.110177 C580.406685,735.325135 582.370119,732.665856 584.064302,730.20713 L584.06541,730.204914 C585.178984,728.593279 585.596712,726.643141 585.241034,724.714055 C584.885909,722.785523 583.801144,721.109069 582.186186,719.993833 C580.57289,718.882476 578.622197,718.465302 576.694219,718.820426 C574.767349,719.174997 573.093665,720.259761 571.980646,721.87472 C570.993388,723.306853 569.903637,724.815994 568.737986,726.360592 L568.737986,726.360592 Z M518.333,806.106853 C513.77566,810.137878 506.729122,809.763363 502.624413,805.273058 C500.60336,803.06087 499.563471,800.194388 499.696989,797.20159 C499.830507,794.208792 501.122474,791.446465 503.333554,789.424858 C505.054884,787.847573 545.696435,750.485246 565.506962,724.208238 L565.506962,724.20713 L565.581754,724.105191 C566.736878,722.576659 567.813887,721.0858 568.78674,719.675274 C570.485355,717.20713 573.044912,715.548958 575.99228,715.006576 C578.937986,714.46364 581.919704,715.101867 584.387848,716.801036 C586.855992,718.505191 588.512502,721.065856 589.055438,724.01267 C589.597266,726.960592 588.959593,729.941756 587.258208,732.40713 C585.519704,734.930122 583.509178,737.653113 581.282585,740.499651 C559.256546,768.645357 520.130784,804.468626 518.475383,805.980537 L518.333,806.106853 Z" id="Border" fill="#000000"></path>
                    <path d="M522.726463,742.758709 C521.668291,743.694997 520.282142,744.271728 518.758596,744.293889 C514.563028,744.355939 512.349178,745.009678 510.136989,746.045689 C507.072723,747.481147 503.424524,746.160925 501.989067,743.096105 C500.554164,740.032393 501.873277,736.383086 504.939759,734.948737 C509.121477,732.989734 513.201255,732.119928 518.580203,732.041257 C521.962474,731.991396 524.746408,734.694443 524.795161,738.078376 C524.822308,739.937656 524.017876,741.615773 522.726463,742.758709" id="Shape" fill="#FFFFFF"></path>
                    <path d="M518.671948,733.979928 C518.650341,733.979928 518.629842,733.979928 518.60879,733.980482 C513.522363,734.05472 509.680812,734.86857 505.761144,736.705135 C504.747848,737.17882 503.979981,738.019263 503.599926,739.07134 C503.218762,740.123418 503.270286,741.260814 503.746186,742.274111 C504.21987,743.286853 505.060867,744.05472 506.112391,744.435329 C507.164468,744.815385 508.301311,744.763861 509.314053,744.289623 C511.690784,743.176604 514.202142,742.421479 518.729565,742.354997 C519.730673,742.340592 520.693,741.968293 521.442031,741.306243 C522.358374,740.495163 522.874718,739.328404 522.856989,738.106243 C522.839815,736.988238 522.389953,735.942809 521.587183,735.163307 C520.799926,734.398764 519.766685,733.979928 518.671948,733.979928 M507.542862,748.567739 C506.6171,748.567739 505.688568,748.40652 504.792169,748.081867 C502.766131,747.348349 501.147294,745.870232 500.233721,743.918432 C499.319039,741.967739 499.220424,739.777712 499.953388,737.751673 C500.686352,735.724526 502.165022,734.106243 504.117377,733.19267 C508.565577,731.109014 512.882474,730.184914 518.551172,730.102365 C520.719593,730.079651 522.743416,730.880205 524.289122,732.381036 C525.834829,733.882421 526.702973,735.895717 526.735106,738.050288 C526.768347,740.404304 525.776103,742.64918 524.012114,744.210953 L524.012114,744.211507 C522.568901,745.487407 520.714053,746.204858 518.786629,746.233113 C514.920701,746.290177 512.988845,746.850842 510.959482,747.801534 C509.871948,748.31123 508.710175,748.567739 507.542862,748.567739" id="Border" fill="#000000"></path>
                    <path d="M514.719205,763.720482 C513.689842,764.516604 512.379593,764.962587 510.977377,764.890011 C507.114773,764.690565 505.039981,765.157601 502.943582,765.974221 C500.038873,767.107185 496.765189,765.671174 495.632225,762.765357 C494.499815,759.860648 495.935826,756.58641 498.841643,755.454554 C502.806186,753.907739 506.610064,753.357601 511.560757,753.613556 C514.674884,753.774221 517.068236,756.429069 516.907571,759.543196 C516.818928,761.254554 515.977377,762.748737 514.719205,763.720482" id="Shape" fill="#FFFFFF"></path>
                    <path d="M509.340258,755.493002 C505.678208,755.493002 502.657709,756.047019 499.545244,757.26087 C498.622252,757.62098 497.895937,758.317933 497.497599,759.224304 C497.099261,760.13123 497.078208,761.137878 497.438873,762.060315 C498.181255,763.966133 500.334164,764.910731 502.239981,764.167795 C504.510895,763.28303 506.880978,762.735108 511.078208,762.953944 C511.960203,762.995496 512.834441,762.726797 513.533056,762.186631 L513.533056,762.186077 C514.391227,761.523473 514.915327,760.523473 514.971283,759.442587 C515.076546,757.40159 513.502031,755.655329 511.459926,755.550066 C510.728624,755.511839 510.022806,755.493002 509.340258,755.493002 M500.889842,768.303529 C499.854939,768.303529 498.821144,768.08857 497.843859,767.659761 C495.987903,766.845911 494.560757,765.357822 493.825022,763.46918 C493.089842,761.582199 493.131948,759.521257 493.946906,757.665856 C494.761311,755.8099 496.248845,754.383307 498.136934,753.647573 C502.373499,751.995496 506.419482,751.40436 511.659926,751.676936 C515.837765,751.892448 519.06048,755.465856 518.843859,759.643141 C518.729178,761.854221 517.658818,763.899651 515.905909,765.254221 C514.47433,766.361147 512.698153,766.923473 510.8771,766.82652 C507.349122,766.644803 505.553554,767.038709 503.648291,767.781091 C502.754108,768.129568 501.822252,768.303529 500.889842,768.303529" id="Border" fill="#000000"></path>
                    <path d="M329.018651,249.232171 C328.16602,248.966243 327.234718,249.071507 326.459649,249.536881 L307.280147,261.032725 L223.101754,311.481479 C222.547737,311.813889 222.110064,312.301424 221.844136,312.888681 C221.606463,313.409457 221.290119,314.118598 220.896768,314.988404 C213.888457,312.633833 207.400923,308.417767 201.695106,301.969014 L120.941089,210.811119 C102.238042,189.697545 104.18818,157.420537 125.301754,138.716936 L168.963804,100.035496 L174.293444,95.3152739 C195.407017,76.6116728 227.683471,78.5673515 246.387626,99.6809249 L318.481255,209.093667 C328.936657,220.894221 332.082363,235.50918 329.018651,249.232171" id="Shape" fill="#1D65CE"></path>
                    <path d="M329.018651,249.232171 C328.16602,248.966243 327.234718,249.071507 326.459649,249.536881 L307.280147,261.032725 C300.908956,242.694775 214.625854,126.068737 196.531117,112.739097 C186.497876,105.348515 176.171006,101.758487 168.963804,100.035496 L174.293444,95.3152739 C195.407017,76.6116728 227.683471,78.5673515 246.387626,99.6809249 L318.481255,209.093667 C328.936657,220.894221 332.082363,235.50918 329.018651,249.232171" id="Shadow" fill="#D0ABB1" style="mix-blend-mode: multiply;"></path>
                    <path d="M325.46192,247.873667 L222.104025,309.81882 C221.207072,310.35677 220.507349,311.141811 220.081311,312.082532 C220.014829,312.226022 219.943914,312.383917 219.865798,312.555662 C217.426463,311.614942 215.085743,310.431562 212.84807,309.017712 L328.151117,241.387795 C328.04807,243.309678 327.820923,245.244858 327.458596,247.188349 C326.759981,247.273667 326.077986,247.504138 325.46192,247.873667 M203.146685,300.683086 L122.392668,209.525191 C113.690175,199.701368 109.333942,187.076437 110.125632,173.977268 C110.917876,160.877545 116.763859,148.870343 126.587128,140.168404 L175.578818,96.7661881 C184.914552,88.49749 196.541144,84.4348861 208.128402,84.4348861 C221.67023,84.4348861 235.157211,89.9883487 244.844745,100.864249 L316.862474,210.160648 L317.029233,210.379484 C323.874662,218.105246 327.660258,227.24375 328.157211,236.888626 L209.369399,306.562864 C207.175493,304.845966 205.096269,302.886964 203.146685,300.683086 M320.025355,207.912448 L248.006518,98.6138335 L247.839205,98.3949969 C228.455826,76.5146645 194.887405,74.4808695 173.007072,93.863695 L124.016491,137.265357 C102.136712,156.64652 100.106795,190.21605 119.490175,212.096936 L200.242529,303.253723 C205.958873,309.713556 212.700147,314.280315 220.279649,316.826576 L220.761089,316.945689 L222.226463,313.928515 C222.413167,313.513556 327.456934,251.199429 327.456934,251.199429 C327.752225,251.023252 328.110119,250.980038 328.441975,251.083086 L330.453056,251.710232 L330.911227,249.654831 C334.239759,234.749014 330.272446,219.542919 320.025355,207.912448" id="Border" fill="#000000"></path>
                    <path d="M523.63433,683.037989 L508.08807,689.929955 L442.204967,719.154332 C440.824912,719.769845 439.202197,719.320537 438.331837,718.07954 C428.747349,704.362088 377.750673,628.711119 341.495272,540.489512 C321.157322,491.010842 311.279205,440.61195 305.622696,390.522753 C305.268679,387.370399 304.686962,379.043529 303.30746,381.896714 C284.853167,420.141036 242.564524,497.985357 231.562308,523.664027 C221.860923,546.301147 184.991671,683.337158 167.617709,751.619706 C167.185022,753.315551 165.468125,754.334388 163.772834,753.902255 L78.0775433,732.179263 C76.3816984,731.747684 75.3517815,730.029678 75.7833604,728.334942 C85.3733881,690.750454 129.290286,521.791451 144.481421,486.346022 C158.997211,452.478986 215.971726,325.924969 221.844856,312.888404 C222.110784,312.301147 222.548457,311.813612 223.102474,311.481202 L307.279205,261.032448 L326.459815,249.536604 C327.351227,248.999207 328.453721,248.93882 329.401089,249.375939 C340.176712,254.323307 405.916878,285.592005 418.226574,357.569845 C428.254829,416.168737 415.844302,472.168737 429.124081,504.478432 C460.022142,579.670122 513.711892,661.569845 524.985577,678.389789 C526.076989,680.019152 525.434884,682.240759 523.63433,683.037989" id="Shape" fill="#EB7D7D"></path>
                    <path d="M523.63433,683.037989 L508.08807,689.929955 C493.223804,673.143806 447.124081,618.927185 420.603305,563.226354 C388.664801,496.152116 393.451504,424.278986 379.079759,360.401424 C369.500812,317.813612 331.529067,280.911119 307.279205,261.032448 L326.459815,249.536604 C327.351227,248.999207 328.453721,248.93882 329.401089,249.375939 C340.176712,254.323307 405.916878,285.592005 418.226574,357.569845 C428.254829,416.168737 415.844302,472.168737 429.124081,504.478432 C460.022142,579.670122 513.711892,661.569845 524.985577,678.389789 C526.076989,680.019152 525.434884,682.240759 523.63433,683.037989" id="Shadow" fill="#D0ABB1" style="mix-blend-mode: multiply;"></path>
                    <path d="M304.703582,379.536991 C304.553444,379.48159 304.398319,379.437268 304.227128,379.404027 C303.711338,379.315385 302.414939,379.293224 301.561754,381.054997 C293.490286,397.780759 280.659261,422.461645 268.254275,446.334221 C252.393333,476.849457 235.993887,508.401257 229.77782,522.899872 C219.999427,545.725357 183.451504,681.531451 165.739039,751.14364 C165.573388,751.791839 164.908014,752.190731 164.248734,752.024526 L130.847072,743.559152 C142.320757,704.50098 174.991671,595.071617 196.703582,540.589623 C223.406629,473.564692 303.149011,363.481036 303.149011,363.481036 L304.703582,379.536991 Z" id="Shadow" fill="#D0ABB1" style="mix-blend-mode: multiply;"></path>
                    <path d="M523.534773,680.48436 C523.473831,680.689346 523.307626,681.060537 522.847793,681.265523 L441.417322,717.381867 C440.881034,717.620094 440.254995,717.442809 439.922031,716.97134 C434.004579,708.500426 381.02951,631.592393 343.290452,539.752504 C325.971338,497.621756 314.740867,451.374111 308.040036,394.522033 C308.039482,394.518155 308.04059,394.513723 308.040036,394.509291 L305.079372,363.297656 C304.979095,362.232282 304.038928,361.450565 302.966906,361.550842 C301.89987,361.651673 301.117599,362.597933 301.219538,363.664415 L302.738651,379.679374 C302.328125,379.921479 301.908734,380.339761 301.562474,381.054997 C293.490452,397.780759 280.658319,422.462199 268.254995,446.334221 C252.392945,476.849457 235.994053,508.401257 229.778541,522.899872 C220.000147,545.725357 183.451117,681.531451 165.739759,751.14364 C165.573,751.791839 164.908734,752.190731 164.248901,752.024526 L130.847793,743.559152 L78.5541638,730.301534 C78.2378203,730.218432 77.9669062,730.018986 77.794053,729.735883 C77.6251429,729.458875 77.5846347,729.127019 77.662197,728.816216 C91.9829726,672.700426 132.21566,519.891562 146.265521,487.110399 C161.274385,452.091008 219.445577,320.005689 221.982419,314.37134 C222.082142,314.149734 222.253887,313.961368 222.470507,313.828404 L327.462751,251.199041 C327.651117,251.082698 327.866075,251.027296 328.082696,251.027296 C328.254995,251.027296 328.426186,251.060537 328.592945,251.138099 C346.277155,259.259983 404.864413,290.949734 416.315937,357.897102 C420.985189,385.176881 420.758042,412.185191 420.55361,436.018986 C420.320369,463.736437 420.122031,487.674942 427.329787,505.215662 C458.631726,581.381867 512.831172,663.736437 523.373554,679.470509 C523.650563,679.880482 523.590175,680.279374 523.534773,680.48436 M526.595715,677.310399 C516.08602,661.629512 462.074939,579.566354 430.917045,503.741978 C424.007349,486.927573 424.204579,463.350288 424.433942,436.051119 C424.63505,412.056105 424.863305,384.860537 420.137543,357.243363 C408.368568,288.426742 348.330895,255.933667 330.214552,247.615662 C328.681588,246.907629 326.903748,247.004581 325.462197,247.873833 L222.104302,309.818986 C221.207349,310.356936 218.901532,311.777435 218.470507,312.727573 C215.931449,318.363584 157.722031,450.531451 142.69987,485.581867 C125.652225,525.358044 74.4206458,725.835052 73.9043023,727.855551 C73.5680142,729.179097 73.7674602,730.553058 74.4682912,731.725357 C75.1657981,732.893778 76.2777095,733.722033 77.6007012,734.059429 L163.29433,755.781867 C163.714829,755.888238 164.137543,755.940315 164.553056,755.940315 C166.828956,755.940315 168.908734,754.403473 169.496546,752.098764 C186.693776,684.509845 223.777986,546.750288 233.344745,524.428404 C239.499316,510.063307 255.866075,478.575219 271.693776,448.123695 C283.22397,425.939207 295.119815,403.052781 303.241144,386.465523 C303.368568,387.524249 303.471615,388.558044 303.539205,389.236714 C303.596823,389.804027 303.647793,390.317601 303.695438,390.740315 C310.376878,449.899872 321.817322,497.717047 339.702086,541.227296 C377.602363,633.451119 430.800701,710.687684 436.744191,719.192947 C438.141975,721.188515 440.769676,721.918155 442.990175,720.927019 L508.873277,691.702642 L524.420646,684.811784 L524.420646,684.81123 C525.803471,684.197933 526.837266,683.014 527.257765,681.562476 C527.677155,680.113723 527.435604,678.563584 526.595715,677.310399" id="Border" fill="#000000"></path>
                    <path d="M158.631227,80.711285 C154.71433,87.0603155 150.404081,94.6392629 145.284967,102.013224 C135.423471,116.229291 122.564745,129.691894 103.794662,132.140648 C75.2960474,135.858099 68.1658535,108.284692 61.9719477,92.1794291 C55.7780419,76.0686257 40.5979865,68.0132241 40.9082358,42.2957726 C40.9082358,42.2957726 43.3625294,17.7085149 65.6118369,7.25976147 C71.6173771,4.43427671 79.0689006,2.64480302 88.3043577,2.64480302 C131.678319,2.64480302 163.279427,-3.24439365 176.908236,19.0658557 C190.542585,41.3705648 170.093831,62.1240274 158.631227,80.711285" id="Shape" fill="#EB7D7D"></path>
                    <path d="M158.631227,80.711285 C154.71433,87.0603155 150.404081,94.6392629 145.284967,102.013224 L141.030119,103.714055 L137.866685,83.143418 C137.866685,83.143418 171.091061,53.0880163 157.905466,26.7168252 C148.70879,8.32901355 96.4096208,6.61156202 65.6118369,7.25976147 C71.6173771,4.43427671 79.0689006,2.64480302 88.3043577,2.64480302 C131.678319,2.64480302 163.279427,-3.24439365 176.908236,19.0658557 C190.542585,41.3705648 170.093831,62.1240274 158.631227,80.711285" id="Shadow" fill="#D0ABB1" style="mix-blend-mode: multiply;"></path>
                    <path d="M42.8460751,42.4165482 C42.676546,58.5949415 48.9247455,67.5666867 54.9674048,76.243695 C58.2106181,80.9007587 61.5646347,85.7162712 63.7823632,91.4835842 C64.3480142,92.9544983 64.9131111,94.4979886 65.5114491,96.1323376 C68.5114491,104.321811 71.9108951,113.60436 77.7374879,120.576105 C84.3341638,128.468626 92.7773771,131.623196 103.544136,130.217656 C123.073222,127.670288 135.810064,112.270288 143.691504,100.907961 C147.385687,95.5871853 150.731948,90.0292906 153.684302,85.1256894 C154.818374,83.243141 155.914219,81.4226424 156.981255,79.6930025 C159.021144,76.3849692 161.283194,73.0952185 163.677654,69.6132241 C174.571283,53.7705648 185.835549,37.3877393 175.253831,20.076936 C164.698153,2.79826563 142.135272,3.38718529 110.904247,4.20158972 C103.700369,4.38940136 96.2510613,4.58386119 88.3042469,4.58386119 C80.043305,4.58386119 72.6859643,6.0741659 66.4377649,9.01433211 C46.076546,18.576659 43.0239145,40.9467421 42.8460751,42.4165482 M98.7374879,134.420426 C75.4045239,134.420426 67.3352718,112.386631 61.8698978,97.4658557 C61.2771001,95.8470191 60.7169893,94.3179332 60.1624186,92.875828 C58.1136652,87.5467421 55.0394269,83.1328917 51.7851333,78.4597615 C45.3807012,69.2641936 38.7585405,59.7556063 38.9696208,42.2725039 L38.9790391,42.1035288 C39.0831942,41.0547753 41.8067399,16.2968806 64.7873494,5.50463682 C71.5557704,2.32014928 79.4682358,0.70574485 88.3042469,0.70574485 C96.2006458,0.70574485 103.624468,0.511839032 110.803416,0.324581415 C143.33361,-0.524172048 166.839427,-1.13746845 178.562973,18.0547753 C190.456601,37.511839 177.927516,55.7339997 166.873222,71.810454 C164.507017,75.2520052 162.27156,78.5029748 160.282086,81.7290135 L160.281532,81.7295676 C159.221698,83.4475731 158.133056,85.2558834 157.007294,87.1256894 C154.023914,92.0802601 150.643305,97.6952185 146.877654,103.119041 C129.543028,128.108515 114.130286,132.74785 104.045521,134.06364 C102.193444,134.305191 100.425022,134.420426 98.7374879,134.420426" id="Border" fill="#000000"></path>
                    <path d="M139.183582,87.2707864 C139.183582,87.2707864 159.476103,103.015939 160.768624,107.19544 C165.294939,121.830897 145.825133,124.131728 145.825133,124.131728 L118.262806,104.20652 L139.183582,87.2707864 Z" id="Shadow" fill="#D0ABB1" style="mix-blend-mode: multiply;"></path>
                    <path d="M121.452059,104.119595 L146.315216,122.093002 C148.549565,121.700205 155.392225,120.165579 158.245964,115.766133 C159.678651,113.557822 159.897488,110.941202 158.916324,107.768349 C158.326297,105.860315 149.603305,97.9018667 139.206075,89.7472961 L121.452059,104.119595 Z M145.30192,126.145634 L115.073111,104.293556 L139.157876,84.7966036 L140.37228,85.7389858 C145.245964,89.5201493 161.254275,102.202698 162.621588,106.622642 C163.946795,110.907407 163.566186,114.698543 161.491394,117.889124 C157.072557,124.68303 146.500812,126.00436 146.052613,126.056991 L145.30192,126.145634 Z" id="Border" fill="#000000"></path>
                    <path d="M79.083305,88.138875 C79.083305,95.070177 73.4644685,100.689014 66.5331665,100.689014 C59.6013106,100.689014 53.982474,95.070177 53.982474,88.138875 C53.982474,81.2075731 59.6013106,75.5881825 66.5331665,75.5881825 C73.4644685,75.5881825 79.083305,81.2075731 79.083305,88.138875" id="Shape" fill="#FFFFFF"></path>
                    <path d="M66.5330003,77.5273515 C60.6820308,77.5273515 55.92192,82.2874623 55.92192,88.1389858 C55.92192,93.9899554 60.6820308,98.7500662 66.5330003,98.7500662 C72.3839699,98.7500662 77.1440807,93.9899554 77.1440807,88.1389858 C77.1440807,82.2874623 72.3839699,77.5273515 66.5330003,77.5273515 M66.5330003,102.628183 C58.5435267,102.628183 52.0438037,96.1284595 52.0438037,88.1389858 C52.0438037,80.1489581 58.5435267,73.6492352 66.5330003,73.6492352 C74.522474,73.6492352 81.022197,80.1489581 81.022197,88.1389858 C81.022197,96.1284595 74.522474,102.628183 66.5330003,102.628183" id="Border" fill="#000000"></path>
                    <path d="M66.6650225,94.2151631 C64.614053,94.2151631 62.1060197,93.7148861 60.4589283,91.6556063 C57.8251333,88.3630856 60.3104519,83.7060219 62.1946624,81.4727809 L64.7353826,83.6168252 L63.4650225,82.544803 L64.7375987,83.6140551 C63.881089,84.6367698 61.7348286,87.9287365 63.0550502,89.5791521 C64.7985405,91.7592075 69.1741638,90.5841382 69.2179311,90.5719498 L70.1309505,93.7680717 C70.0051887,93.8040828 68.5226402,94.2151631 66.6650225,94.2151631" id="Border" fill="#000000"></path>
                    <path d="M133.938818,104.622753 C132.531615,106.096437 130.963748,107.431617 129.246297,108.617213 C111.634108,120.733556 84.5703965,111.969014 68.7920031,89.0327255 C53.0136098,66.0964374 53.8169339,39.3485149 67.3737206,29.8249692 C67.3737206,29.8249692 73.9720585,43.3041936 93.3515599,44.2958834 C98.4041915,44.5562712 102.69782,44.0465759 106.310009,43.1269083 C114.797543,40.982864 119.490064,36.583972 121.235216,34.617213 C121.706131,34.085357 122.520535,34.0410357 123.052391,34.5119498 C127.052391,38.0687365 129.478984,40.6615343 132.570396,45.1546091 C146.808624,65.8526701 146.985909,91.0050246 133.938818,104.622753" id="Shape" fill="#FFFFFF"></path>
                    <path d="M133.938818,104.622753 C128.382031,103.969014 124.653499,100.340205 124.110563,92.218321 C122.038541,61.082587 110.70336,47.3429748 106.310009,43.1269083 C114.797543,40.982864 119.490064,36.583972 121.235216,34.617213 C121.706131,34.085357 122.520535,34.0410357 123.052391,34.5119498 C127.052391,38.0687365 129.478984,40.6615343 132.570396,45.1546091 C146.808624,65.8526701 146.985909,91.0050246 133.938818,104.622753" id="Shadow" fill="#D0ABB1" style="mix-blend-mode: multiply;"></path>
                    <path d="M132.538596,103.281257 L132.53638,103.283473 C131.22336,104.657989 129.745798,105.915606 128.14746,107.019761 C120.13638,112.530565 109.759649,113.633058 98.9291776,110.125025 C87.9153272,106.557158 77.7795931,98.6762712 70.3895654,87.9333349 C63.1380419,77.3926147 59.1003688,65.4779332 59.0211444,54.3848584 C58.9541084,45.0275177 61.7845793,37.271285 66.8521693,32.7156063 C66.9208674,32.8319498 67.0017538,32.9355509 67.0887344,33.0319498 C70.0493992,37.1931687 77.8156042,45.4424762 93.2516153,46.2319498 C98.0621416,46.4801493 102.616712,46.0679609 106.785133,45.0070191 C115.208956,42.8790412 120.162419,38.5804263 122.241643,36.3876285 C126.08818,39.8474623 128.26048,42.3111742 130.972945,46.2530025 C137.598984,55.8862435 141.354662,67.0114512 141.548014,77.5793183 C141.73638,87.8928917 138.536934,97.0208695 132.538596,103.281257 M134.167959,44.0552185 C130.808956,39.1737781 128.123083,36.4258557 124.338042,33.0602047 C123.694829,32.4906756 122.867128,32.203695 122.011172,32.2524485 C121.146906,32.3012019 120.35577,32.6851354 119.784579,33.3300108 C118.27433,35.0325039 113.89095,39.2120052 105.831671,41.2480163 C102.038319,42.2136673 97.874884,42.5881825 93.4505073,42.3593737 C79.2660197,41.6336119 72.4510613,33.9881825 70.1003688,30.5815343 C66.5557704,24.43749 66.1651887,20.1831964 66.1579865,20.0978778 C66.0798701,19.0336119 65.1590945,18.2253016 64.0909505,18.304526 C63.0222524,18.3782102 62.2156042,19.303972 62.2892884,20.372116 C62.3014768,20.5449692 62.5729449,23.9881825 65.0056319,29.1937227 C58.641089,34.4153293 55.0649117,43.4973238 55.143028,54.4125593 C55.2283466,66.2729471 59.508125,78.9582656 67.1945516,90.1316728 C75.0660197,101.574332 85.9120031,109.984858 97.7341638,113.814221 C102.290396,115.290122 106.784579,116.021978 111.103139,116.021978 C118.160757,116.021978 124.746352,114.066299 130.348014,110.213113 C132.166297,108.957712 133.846075,107.527241 135.341366,105.962144 C142.051061,98.9571576 145.632225,88.8518944 145.425022,77.5084041 C145.218374,66.1881825 141.22059,54.3078501 134.167959,44.0552185" id="Border" fill="#000000"></path>
                    <path d="M120.324801,35.5632518 C128.827848,27.0352739 139.50264,28.6629748 144.184081,34.035828 C148.865521,39.4081271 146.805133,51.43749 135.239482,57.3433072" id="Shadow" fill="#FFFFFF"></path>
                    <path d="M120.324801,35.5632518 C128.827848,27.0352739 139.50264,28.6629748 144.184081,34.035828 C148.865521,39.4081271 146.805133,51.43749 135.239482,57.3433072" id="Shadow" fill="#D0ABB1" style="mix-blend-mode: multiply;"></path>
                    <path d="M135.241089,59.2831964 C134.535826,59.2831964 133.855493,58.8970468 133.512557,58.2255786 C133.025577,57.271562 133.40397,56.103695 134.357432,55.6167144 C139.728624,52.8743321 143.366851,48.4133903 144.340258,43.3784872 C144.95577,40.1945537 144.350784,37.1784872 142.721975,35.3097892 C140.762419,33.0604817 137.54469,31.6494014 134.113665,31.5341659 C129.721421,31.3790412 125.315881,33.303695 121.698153,36.9325039 C120.94192,37.6903986 119.714219,37.6926147 118.95577,36.936382 C118.197322,36.1801493 118.19566,34.9524485 118.951892,34.1939997 C123.338042,29.7951077 128.765743,27.472116 134.243859,27.6582656 C138.796768,27.8106202 142.953,29.671008 145.646075,32.7618667 C148.088734,35.5651908 149.000646,39.703141 148.148014,44.1142213 C146.946352,50.3297338 142.562973,55.7812573 136.121421,59.070454 C135.838873,59.2144983 135.538042,59.2831964 135.241089,59.2831964" id="Border" fill="#000000"></path>
                    <path d="M134.761975,50.2219775 C134.263914,50.2219775 133.77084,49.9987088 133.443416,49.5732241 C132.883859,48.8458003 133.019593,47.8020329 133.747571,47.2424762 C134.488845,46.6657448 136.474441,44.7200385 136.71156,42.7067421 C136.822363,41.7654678 136.542031,40.8901216 135.85505,40.0308418 C133.05782,36.5355509 127.825133,40.3205925 127.772502,40.3593737 C127.033444,40.9023099 125.993,40.7444152 125.448956,40.005357 C124.904912,39.2662989 125.06336,38.2258557 125.802973,37.6818113 C128.508236,35.6906756 134.634552,33.1843044 138.450618,37.9543875 C139.709344,39.5277947 140.233998,41.2646368 140.010729,43.1156063 C139.549233,46.9333349 135.92818,49.7588196 135.774164,49.8773792 C135.472225,50.1095122 135.115992,50.2219775 134.761975,50.2219775" id="Border" fill="#000000"></path>
                    <path d="M80.6907289,74.7066313 C80.9705073,76.2102324 79.9782635,77.6556617 78.4746624,77.9354401 C76.9716153,78.2152185 75.5256319,77.2229748 75.2458535,75.7199277 C74.9660751,74.2163266 75.9583189,72.7703432 77.46192,72.4905648 C78.9655211,72.2113404 80.4109505,73.2030302 80.6907289,74.7066313" id="Border" fill="#000000"></path>
                    <path d="M90.2426402,62.4395953 C90.5224186,63.9431964 89.5301749,65.3886257 88.0271278,65.6684041 C86.5235267,65.9481825 85.0780973,64.9559388 84.7983189,63.4528917 C84.5185405,61.9492906 85.5102303,60.5033072 87.0138314,60.2235288 C88.5174325,59.9443044 89.9628618,60.9359942 90.2426402,62.4395953" id="Border" fill="#000000"></path>
                    <path d="M90.0979311,74.8954955 C89.8131665,74.8954955 89.5245239,74.8223653 89.260812,74.6677947 C88.4685682,74.2046368 88.2015322,73.1869083 88.6646901,72.3941105 C91.9555488,66.7664097 98.4685682,58.709346 98.7439145,58.3686257 C99.3211998,57.6561604 100.367183,57.545357 101.081865,58.1237504 C101.794884,58.7015897 101.905133,59.7481271 101.327294,60.4617005 C101.260812,60.542587 94.6968231,68.6633626 91.5344962,74.0722268 C91.2253549,74.6007587 90.6691222,74.8954955 90.0979311,74.8954955" id="Border" fill="#000000"></path>
                    <path d="M127.048734,93.196936 C111.785577,88.0778224 95.2592607,96.2994291 90.134607,111.562587 C85.0154934,126.825745 93.2371001,143.352061 108.500258,148.476714 C117.214939,151.401922 126.345133,149.972005 133.525189,145.368681 C134.095826,145.00857 134.649842,144.620759 135.198319,144.216327 C135.730175,143.817435 135.913,143.72436 136.417155,143.292227 L170.358984,169.416327 C171.394995,168.513279 172.526297,167.406354 173.429344,166.370343 C174.714662,164.896659 175.861477,163.295551 176.847626,161.58918 L143.104136,135.274498 C143.431006,134.709401 143.735715,134.127684 144.023804,133.534886 C144.311892,132.935994 144.57782,132.32713 144.827128,131.706631 C145.037654,131.185856 145.23156,130.654 145.414385,130.111063 C150.533499,114.842365 142.311892,98.3160496 127.048734,93.196936" id="Shape" fill="#FFD772"></path>
                    <path d="M135.751227,126.997379 C132.289178,137.315939 121.117432,142.874388 110.798873,139.412338 C100.480867,135.950288 94.9224186,124.778543 98.3844685,114.459983 C101.846518,104.141978 113.017709,98.5835288 123.336269,102.045579 C133.654829,105.507074 139.213277,116.67882 135.751227,126.997379" id="Shadow" fill="#D0ABB1" style="mix-blend-mode: multiply;"></path>
                    <path d="M117.081865,102.682587 C109.538374,102.682587 102.489067,107.452116 99.9599809,114.988404 C96.795438,124.422199 101.894607,134.671507 111.327848,137.836604 C120.759981,141.000592 131.010396,135.901978 134.175493,126.468737 C135.709011,121.899207 135.370507,117.006133 133.223693,112.690343 C131.076324,108.375108 127.377155,105.154055 122.807626,103.621091 C120.911227,102.98508 118.98048,102.682587 117.081865,102.682587 M117.05084,142.099207 C114.802086,142.099207 112.517322,141.741313 110.270784,140.98785 C99.0995931,137.239928 93.060812,125.102532 96.8087344,113.93134 C100.556657,102.760703 112.694053,96.7213681 123.865244,100.469845 C129.276324,102.285357 133.656934,106.099207 136.19987,111.210011 C138.742252,116.32026 139.142806,122.11472 137.32674,127.5258 C134.332834,136.450454 125.983804,142.099207 117.05084,142.099207" id="Border" fill="#000000"></path>
                    <path d="M171.70336,170.304027 L170.201421,168.563861 L137.316657,143.430343 C137.27566,143.38713 137.236878,143.342255 137.187571,143.304027 L136.754884,142.969955 L135.907239,142.307351 C135.485078,141.978266 134.89782,141.988238 134.474552,142.31677 C134.185909,142.540038 133.893388,142.758321 133.597543,142.969955 C133.043527,143.363307 132.467349,143.739484 131.885078,144.094055 C125.270119,148.099595 117.010286,149.285745 109.121089,146.637545 C102.229122,144.321756 96.6501749,139.468016 93.4091776,132.958321 C90.1731665,126.448626 89.6634712,119.069124 91.9737206,112.177712 C94.290064,105.285745 99.1432496,99.7067975 105.652945,96.4707864 C109.47566,94.5705094 113.602529,93.6070745 117.752668,93.6070745 C120.661255,93.6070745 123.592003,94.0829748 126.434108,95.0364374 C137.796989,98.8475177 144.993665,109.474111 144.993665,120.853612 C144.993665,123.717878 144.533277,126.626465 143.575383,129.490731 C143.464579,129.817047 143.348236,130.144471 143.226352,130.46026 C142.993665,131.091839 142.732723,131.706797 142.450729,132.310122 C142.307793,132.621479 142.159316,132.926742 142.004745,133.227573 C141.75156,133.721202 141.88397,134.324526 142.322197,134.665246 L143.103914,135.274111 L143.579261,135.644194 C143.61915,135.675219 143.662917,135.696271 143.704468,135.721202 L155.473998,144.905689 L157.860147,141.848626 L146.423028,132.922864 C146.725521,132.20652 147.000867,131.474665 147.254053,130.726188 C152.705022,114.47134 143.918873,96.8087365 127.664025,91.357213 C119.791449,88.7145537 111.359316,89.2968252 103.924413,92.9971022 C96.48951,96.6984872 90.9382635,103.069678 88.2956042,110.947795 C85.6579311,118.820371 86.2402026,127.252504 89.9404796,134.686853 C93.6357704,142.121756 100.013056,147.673002 107.885632,150.310676 C111.131615,151.401534 114.47289,151.945025 117.801975,151.945025 C122.544912,151.945025 127.259593,150.847518 131.625244,148.670786 C132.842419,148.064692 134.009732,147.38713 135.123305,146.638653 L169.314995,173.359983 L171.70336,170.304027 Z" id="Border" fill="#000000"></path>
                    <path d="M155.847903,149.357158 C153.699981,144.200925 159.634607,138.210897 170.913831,134.604803 C179.538208,131.848016 186.500535,130.839152 196.577543,130.134443 C207.956491,129.338875 228.723804,132.408681 228.723804,132.408681 C228.973665,132.421978 255.325466,135.698986 283.283914,135.174886 C286.456768,135.115052 302.420203,134.036382 304.925466,133.261867 C303.317155,132.686797 293.393056,130.881811 291.327128,130.583196 C265.117155,126.794277 235.214108,126.83195 234.975327,126.817545 C222.195272,126.04303 212.459538,115.055773 213.231283,102.275163 C214.004136,89.4951077 224.991394,79.7604817 237.768125,80.5289027 C239.07228,80.6075731 270.080036,82.5133903 302.015216,87.7410911 C321.509399,90.9316728 337.440147,94.7471853 349.365909,99.0807033 C357.844579,102.16159 364.55095,105.56159 369.867848,109.475163 C381.336546,117.917822 384.657322,127.687906 385.424635,134.397601 C386.453444,143.398709 383.483914,152.11062 377.062862,158.928903 C369.096103,167.390399 356.294995,172.593169 335.557045,175.800371 C322.845687,177.766576 306.783083,179.009235 287.815216,179.494554 C281.237377,179.662975 274.776989,179.730011 268.659538,179.730011 C245.454552,179.730011 231.25566,179.713944 226.233499,178.714498 C218.168125,177.109512 205.745964,171.315606 181.045133,179.23195 C180.311615,179.467407 179.560923,179.556604 178.827959,179.557158 C175.485577,179.557158 172.521034,177.341645 171.397488,174.012559 C169.850119,169.426964 174.203028,166.130565 174.203028,166.130565 C173.337654,166.440814 172.453444,166.588737 171.584191,166.588737 C168.402474,166.588737 165.419095,164.615883 164.28336,161.449124 C162.836823,157.416437 165.824635,153.548293 168.965355,151.529457 C168.965355,151.529457 158.637377,156.051894 155.847903,149.357158" id="Shape" fill="#FFFFFF"></path>
                    <path d="M321.822917,132.522919 L309.174718,132.722365 L303.37915,132.811008 L303.124856,132.799928 L288.514884,132.151728 C266.353665,129.176659 242.321532,128.805468 235.279981,128.761147 C235.018485,128.755606 234.875549,128.755606 234.85782,128.755606 C228.542031,128.373335 222.902696,125.675274 218.725964,121.53677 C218.725964,121.53677 212.284967,111.00436 213.120978,111.081922 C213.691615,111.137324 215.504912,110.731784 216.23843,110.725689 C249.996878,110.458099 322.448402,116.306853 321.822917,132.522919" id="Shadow" fill="#D0ABB1" style="mix-blend-mode: multiply;"></path>
                    <path d="M385.135549,150.068626 C383.605909,153.741756 381.373222,157.182199 378.475715,160.256991 C370.193167,169.054775 357.046906,174.439817 335.85577,177.719595 C323.062973,179.697435 306.914496,180.943972 287.867405,181.431507 C281.744967,181.592171 275.285687,181.669734 268.659095,181.669734 C244.010895,181.669734 230.908402,181.619872 225.85577,180.617102 C224.559372,180.356714 223.168236,180.002144 221.689011,179.619872 C213.85023,177.603252 202.005355,174.55062 181.63915,181.076936 C180.774884,181.353944 179.827516,181.497989 178.83084,181.497989 C174.935549,181.497989 171.429178,179.082476 169.861311,175.409346 C170.404247,175.115717 170.980424,174.822088 171.589288,174.52846 C172.149399,174.256991 172.728347,173.966133 173.356601,173.719595 C205.372668,161.15339 233.153831,172.130122 265.505632,171.232615 C330.628624,169.424858 373.557709,156.194942 381.656878,150.495773 C382.507848,149.896327 381.634718,151.425966 382.547737,151.071396 C383.439704,150.722365 384.304524,150.384415 385.135549,150.068626" id="Shadow" fill="#D0ABB1" style="mix-blend-mode: multiply;"></path>
                    <path d="M379.733887,152.190509 C378.603139,154.096327 377.240812,155.907961 375.65023,157.597712 C367.999261,165.725135 355.545521,170.750066 335.262419,173.8858 C322.631948,175.835939 306.653554,177.071396 287.767128,177.55339 C281.678485,177.714055 275.251338,177.791617 268.659095,177.791617 C246.29843,177.791617 233.051338,178.044803 228.138319,177.064194 C226.947183,176.832061 224.082363,176.229291 222.658541,175.86364 C218.154939,174.705745 212.393167,173.22098 204.619759,173.22098 C198.121144,173.22098 190.215327,174.256991 180.453554,177.387185 C179.96602,177.54231 179.434164,177.619872 178.824745,177.619872 C176.448014,177.619872 174.287349,176.063086 173.356601,173.719595 C173.312834,173.614332 173.273499,173.503529 173.235826,173.392725 C173.101754,172.993833 173.029732,172.611562 173.013665,172.240371 C172.901754,169.969457 174.707848,168.248681 175.234164,167.792171 C175.352723,167.751174 175.470175,167.702975 175.581532,167.637601 C191.677377,158.255329 209.869621,161.087462 210.050784,161.115717 C211.105632,161.28857 212.103416,160.574443 212.278485,159.518487 C212.453,158.461978 211.737765,157.464194 210.680701,157.289678 C209.884025,157.157822 190.992613,154.187185 173.669067,164.264748 L173.550507,164.306853 C172.913388,164.534 172.248568,164.650343 171.584302,164.650343 C169.135549,164.650343 166.935549,163.099097 166.110618,160.794388 C164.937211,157.527906 167.97433,154.487462 169.980978,153.183861 C170.057986,153.151174 170.132779,153.114055 170.207017,153.070842 C183.928901,144.974443 203.887349,145.342864 204.087349,145.350066 C205.151061,145.377767 206.04746,144.52846 206.072945,143.458099 C206.097322,142.387739 205.251892,141.499097 204.180424,141.473058 C203.322806,141.453667 182.927239,141.063086 168.23638,149.730676 C168.220867,149.73954 168.208125,149.752836 168.192613,149.762255 L168.18818,149.752836 C166.741643,150.378875 162.393167,151.769457 159.684025,150.678044 C158.708402,150.284692 158.060203,149.630953 157.639704,148.611562 C157.207017,147.581091 157.262419,146.517379 157.794275,145.365025 C159.334995,142.035385 164.459649,138.705745 171.506186,136.450897 C180.276269,133.647573 187.389842,132.722365 196.713942,132.068626 C207.749953,131.298543 228.232502,134.295773 228.437488,134.329014 L228.83084,134.373335 C235.428624,135.132338 258.84192,137.575551 283.318928,137.115717 C286.138873,137.059761 299.975992,136.172781 304.492336,135.343418 C309.201477,134.981645 316.634164,134.258099 323.852446,132.921811 C324.904524,132.726797 325.600369,131.715163 325.405355,130.661978 C325.209787,129.609346 324.205355,128.913501 323.144967,129.108515 C316.679039,130.306299 310.020867,131.001036 305.409233,131.380537 C303.175438,130.675274 293.477931,128.93677 291.607017,128.666964 C268.531117,125.326243 242.675161,124.927351 235.3012,124.88303 L235.046352,124.87749 C224.282363,124.20159 215.849676,115.564471 215.17433,105.060315 C215.118928,104.179429 215.112834,103.293002 215.168236,102.389955 C215.378762,98.9218113 216.409787,95.7029748 218.060757,92.8996507 C221.993721,86.2459111 229.423083,81.9689027 237.650784,82.4619775 C238.952723,82.54508 269.83361,84.4398169 301.700092,89.6531133 C321.074053,92.8276285 336.891781,96.611562 348.702862,100.905191 C357.007571,103.919041 363.550507,107.237601 368.719482,111.038155 C379.623083,119.065856 382.774884,128.290232 383.5012,134.617102 C384.204247,140.816548 382.881255,146.87749 379.733887,152.190509 M387.351615,134.179429 C386.542197,127.082476 383.046352,116.766687 371.019759,107.913501 C365.550507,103.89134 358.686795,100.401036 350.026962,97.2597615 C337.98818,92.8830302 321.939427,89.0381548 302.326131,85.8248584 C270.265189,80.578321 239.190396,78.6725039 237.882917,78.5949415 C227.556047,77.9689027 218.293444,83.7140551 213.916712,92.4176562 C212.432502,95.3705648 211.50674,98.6558834 211.296214,102.157268 C211.245798,103.010454 211.234718,103.858099 211.274053,104.700205 C211.296214,105.270842 211.334995,105.835939 211.395383,106.395496 C212.032502,112.245911 214.697322,117.54785 218.720036,121.525689 C218.720036,121.53123 218.720036,121.53123 218.725022,121.53677 C222.902308,125.675274 228.542751,128.373335 234.858541,128.755606 C234.874607,128.755606 235.019205,128.755606 235.279593,128.761147 C242.321144,128.805468 266.354385,129.176659 288.515604,132.151728 C289.362696,132.262532 290.209787,132.378875 291.053,132.500759 C291.352169,132.54508 291.783748,132.617102 292.30951,132.705745 C288.448014,132.993833 284.792059,133.20436 283.246352,133.237601 C259.002585,133.691894 235.811449,131.270842 229.273499,130.517379 C229.157155,130.506299 229.063527,130.495219 228.991504,130.489678 C227.927239,130.329014 207.838596,127.403806 196.443028,128.20159 C186.824745,128.87195 179.468513,129.835939 170.321144,132.755606 C162.143859,135.376105 156.29289,139.376105 154.276269,143.736216 C153.291227,145.86918 153.212557,148.074166 154.054662,150.101867 C154.874607,152.063086 156.32059,153.509069 158.243028,154.279152 C159.805355,154.905191 161.522806,155.043695 163.140535,154.932892 C161.977654,157.099097 161.556047,159.586631 162.459095,162.101867 C163.650784,165.431507 166.564358,167.813778 169.97156,168.389955 C169.262973,169.86364 168.841366,171.702975 169.329455,173.808238 C169.390396,174.079706 169.467959,174.356714 169.562142,174.633723 C169.65023,174.899651 169.749953,175.160038 169.861311,175.409346 C171.429178,179.082476 174.935549,181.497989 178.83084,181.497989 C179.827516,181.497989 180.774884,181.353944 181.63915,181.076936 C202.005355,174.55062 213.85023,177.603252 221.689011,179.619872 C223.168236,180.002144 225.965466,180.525135 227.262419,180.785523 C232.31505,181.788293 244.011449,181.669734 268.659095,181.669734 C275.285687,181.669734 281.744967,181.592171 287.867405,181.431507 C306.914496,180.943972 323.062973,179.697435 335.85577,177.719595 C357.046906,174.439817 370.193167,169.054775 378.475715,160.256991 C381.373222,157.182199 383.605909,153.741756 385.135549,150.068626 C387.207017,145.093556 387.983748,139.686354 387.351615,134.179429" id="Border" fill="#000000"></path>
                    <path d="M166.032834,461.664526 C165.722585,461.774775 165.406795,461.863418 165.074385,461.9299 C164.813998,461.985302 164.54807,462.024083 164.287682,462.046243 C160.531449,462.400814 157.052225,459.725468 156.309842,455.752615 L152.542529,438.295551 C152.409565,438.622421 139.262751,471.309401 136.154718,483.698321 C135.273831,487.209678 132.248901,489.537102 128.941421,489.537102 C128.309842,489.537102 127.672723,489.453446 127.035604,489.276714 C122.088236,487.891673 122.592391,478.58364 122.592391,478.58364 C122.259981,482.666742 118.996823,485.752615 115.163028,485.752615 C114.946962,485.752615 114.736435,485.742088 114.520369,485.719928 C110.409565,485.354277 107.362474,481.564803 107.711504,477.254554 C108.747516,464.490011 114.653333,446.450676 117.783527,437.60303 C118.852779,434.567573 117.523139,436.522698 117.523139,436.522698 L98.9525017,466.888903 C97.661643,468.92713 95.5342192,470.035163 93.362474,470.035163 C92.093776,470.035163 90.8029172,469.653446 89.6671832,468.860648 C86.5813106,466.716604 85.7392053,462.357047 87.7835267,459.121036 C87.7835267,459.121036 100.536989,434.13544 103.90541,425.835717 C106.597931,419.204138 112.813998,400.833501 112.813998,400.833501 C103.650563,323.271174 109.722585,226.533778 111.999593,196.522698 C114.110396,201.614111 117.079926,206.45677 120.941421,210.810786 L138.8971,231.082255 L156.160258,250.567573 C154.398485,292.760925 153.700424,350.351507 159.295992,397.735994 C159.295992,397.735994 163.179649,411.276714 165.534219,419.176991 C168.764136,430.007462 170.963582,452.739318 170.963582,452.739318 C171.689344,456.639595 169.528679,460.429623 166.032834,461.664526" id="Shape" fill="#FFFFFF"></path>
                    <path d="M166.032834,461.664526 C161.478818,443.387518 152.592391,407.930454 144.930341,379.830177 C137.124247,351.215773 138.22674,262.821867 138.8971,231.082255 L156.160258,250.567573 C154.398485,292.760925 153.700424,350.351507 159.295992,397.735994 C159.295992,397.735994 163.179649,411.276714 165.534219,419.176991 C168.764136,430.007462 170.963582,452.739318 170.963582,452.739318 C171.689344,456.639595 169.528679,460.429623 166.032834,461.664526" id="Shadow" fill="#D0ABB1" style="mix-blend-mode: multiply;"></path>
                    <path d="M165.386795,459.836382 L165.380147,459.838598 C165.152446,459.920038 164.928624,459.982642 164.669344,460.033612 C164.494275,460.071285 164.310341,460.098432 164.105355,460.11616 C161.297045,460.38652 158.768513,458.352171 158.205632,455.344415 L154.6771,437.88846 L157.345798,429.51893 C157.765743,428.051894 157.452169,426.989291 156.480424,426.720592 C155.28818,426.389845 154.317543,427.765468 153.956324,428.929457 L150.480978,438.225856 C148.590119,442.949955 137.177931,471.650232 134.273776,483.225856 C133.628347,485.799817 131.435549,487.597601 128.941366,487.597601 C128.472668,487.597601 128.00674,487.533889 127.558541,487.409789 C124.976269,486.686243 124.402308,481.259651 124.52807,478.717268 C124.918651,475.105634 129.597876,452.336105 132.031117,440.738875 C132.251061,439.69123 131.579593,438.662975 130.531394,438.44303 C129.480978,438.221978 128.455493,438.894 128.235549,439.942753 C127.945244,441.327241 121.116989,473.897878 120.662142,478.388737 C120.661034,478.402033 120.66325,478.413667 120.662142,478.426964 L120.659926,478.426964 C120.413942,481.447462 117.999538,483.813667 115.162973,483.813667 C115.013942,483.813667 114.867682,483.806465 114.692613,483.788183 C111.646075,483.517268 109.381809,480.656327 109.644413,477.411451 C110.651615,465.004249 116.321421,447.549955 119.61228,438.248016 C120.034441,437.050232 120.740258,435.0458 119.024468,434.178764 C118.39843,433.861867 117.162419,433.604803 115.919759,435.433058 L97.3142192,465.85134 C96.4239145,467.257989 94.9469062,468.09677 93.3629726,468.09677 C92.4455211,468.09677 91.5513383,467.811451 90.773499,467.269069 C88.5341638,465.712836 87.9286236,462.522809 89.4228064,460.157158 L89.5103411,460.003141 C90.0327787,458.979872 102.340812,434.847462 105.702031,426.565468 C108.385687,419.956604 114.396214,402.207019 114.651061,401.454665 L114.791227,401.04026 L114.739704,400.605357 C112.463804,381.339429 105.775161,311.121147 113.414496,203.721147 C115.156324,206.698432 117.187349,209.500094 119.489842,212.09677 L154.190673,251.267961 C152.512557,291.95605 151.7253,350.158266 157.370175,397.963806 L157.432225,398.270731 C157.471006,398.406465 161.345798,411.911174 163.676546,419.730565 C166.81505,430.256327 169.011726,452.700094 169.033887,452.925579 L169.057155,453.094 C169.599538,456.006465 168.021144,458.90508 165.386795,459.836382 M172.885964,452.471839 C172.716435,450.741091 170.574053,429.292338 167.39289,418.623086 C165.2012,411.269623 161.636657,398.862421 161.203416,397.352725 C155.572391,349.522255 156.405632,291.184304 158.097599,250.648016 L158.130286,249.866299 L122.392336,209.524471 C118.774053,205.444138 115.880424,200.819761 113.791227,195.780426 L110.680424,188.277933 L110.06602,196.376548 C108.895383,211.809235 106.833333,243.301202 106.177931,280.812559 C105.370175,327.076825 106.937488,367.382642 110.837211,400.624748 C109.900369,403.384304 104.525854,419.152725 102.108679,425.106742 C98.9003688,433.012559 86.8643577,456.655773 86.0942746,458.166022 C83.5707289,462.253556 84.6660197,467.747185 88.5579865,470.451894 C89.9867953,471.44857 91.6482912,471.974886 93.3629726,471.974886 C96.2837483,471.974886 98.9856873,470.461313 100.60674,467.900648 L111.780701,449.629734 C109.09095,458.475163 106.451061,468.819207 105.779039,477.097878 C105.345244,482.457989 109.189011,487.192061 114.322529,487.64857 C116.966297,487.923363 119.515327,486.939983 121.385133,485.213113 C122.137488,487.807019 123.62059,490.334443 126.515327,491.144969 C127.304801,491.36436 128.120867,491.475717 128.941366,491.475717 C133.217266,491.475717 136.956878,488.471285 138.035549,484.169346 C140.294275,475.16713 148.048291,454.988737 151.993444,444.942199 L154.40397,456.109512 C155.327516,461.049678 159.657709,464.427518 164.452723,463.978764 C164.8012,463.948847 165.146906,463.897324 165.452723,463.83195 C165.871006,463.748847 166.272114,463.63749 166.679316,463.492892 C171.069344,461.941091 173.7253,457.214221 172.885964,452.471839" id="Border" fill="#000000"></path>
                </g>
                <g id="Element" transform="translate(586.979252, 48.858864)">
                    <path d="M62.9558172,188.467729 L10.4754848,135.98795 C-3.49182825,122.020083 -3.49182825,99.3752078 10.4754848,85.4073407 L85.4067867,10.4754848 C99.3746537,-3.49182825 122.020083,-3.49182825 135.987396,10.4754848 L188.468283,62.9558172 C202.435596,76.9231302 202.435596,99.5685596 188.468283,113.536427 L113.536427,188.467729 C99.5685596,202.435042 76.9231302,202.435042 62.9558172,188.467729" id="Shape" fill="#FFD772"></path>
                    <path d="M74.5382548,58.8389197 L65.2313296,130.04169 C64.944903,132.240028 66.808615,134.119252 69.009723,133.85 L140.374266,125.116482 C141.841856,124.936981 143.024127,123.827839 143.297258,122.375208 L147.896704,97.9209141 C148.103352,96.8228532 147.755983,95.6932133 146.967618,94.9009695 L105.020249,52.7109418 C104.24241,51.9292244 103.133823,51.5740997 102.047396,51.7574792 L77.3382548,55.9319945 C75.8667867,56.1807479 74.7321607,57.3602493 74.5382548,58.8389197" id="Shape" fill="#EB7D7D"></path>
                    <path d="M145.991219,97.5627424 L141.626676,120.768283 L122.530277,101.556094 L145.987341,97.0630194 C146.013934,97.2270083 146.023906,97.3948753 145.991219,97.5627424 L145.991219,97.5627424 Z M76.2732133,60.5217452 L95.430554,79.7943213 L67.6155956,126.761634 L76.2732133,60.5217452 Z M102.371274,53.6696676 C102.519751,53.6441828 102.668781,53.650277 102.81338,53.6707756 L97.6372022,76.5123269 L78.8759834,57.6386427 L102.371274,53.6696676 Z M126.105346,76.6691136 L143.022798,93.68241 L123.64662,97.3937673 L126.105346,76.6691136 Z M101.873767,75.3610803 L106.131385,56.5788089 L122.273213,72.8142659 L101.873767,75.3610803 Z M119.597313,98.6059557 L100.542465,79.4353186 L122.193435,76.7328255 L119.597313,98.6059557 Z M72.128615,126.753878 L98.2560388,82.6358726 L116.315873,100.804848 L72.128615,126.753878 Z M119.137479,103.644737 L138.738033,123.363296 L71.5613019,131.584349 L119.137479,103.644737 Z M148.343019,93.5339335 L106.394543,51.3439058 C105.175152,50.117313 103.427784,49.5583102 101.725291,49.8458449 L77.0144875,54.0203601 C74.6898338,54.4131579 72.9208587,56.248615 72.6155956,58.5871191 L63.3092244,129.789889 C63.0937119,131.436981 63.6405263,133.058033 64.8111634,134.236981 C65.8239058,135.258033 67.1707202,135.81482 68.5840166,135.81482 C68.8039612,135.81482 69.0233518,135.801524 69.2449584,135.774931 L140.609501,127.040859 C142.926399,126.757756 144.772382,125.026454 145.202853,122.73338 L149.802299,98.2796399 C150.128061,96.5533241 149.581247,94.7793629 148.343019,93.5339335 L148.343019,93.5339335 Z" id="Border" fill="#000000"></path>
                </g>
                <g id="Element" transform="translate(0.326557, 444.089056)">
                    <path d="M141.290673,219.277149 L69.1615873,236.760252 C49.9643574,241.412883 30.6302853,229.622856 25.9770997,210.425072 L1.01477286,107.438368 C-3.63841273,88.2405842 8.15216899,68.9070662 27.3488449,64.2538806 L99.4784848,46.7713321 C118.675715,42.1181465 138.009787,53.9087282 142.662972,73.1054041 L167.625299,176.093216 C172.277931,195.289892 160.487903,214.624518 141.290673,219.277149" id="Shape" fill="#FFD772"></path>
                    <path d="M147.247737,191.224629 L75.22059,173.326568 C56.0505069,168.563133 44.3718366,149.160917 49.1352715,129.991388 L74.6898421,27.1492822 C79.453277,7.97919914 98.8554931,-3.69947122 118.025022,1.06396368 L190.052723,18.9609166 C209.222806,23.7254595 220.901476,43.1276756 216.138042,62.2972047 L190.582917,165.13931 C185.819482,184.309393 166.41782,195.988063 147.247737,191.224629" id="Shape" fill="#1D65CE"></path>
                    <path d="M100.529066,117.704351 C89.4925014,107.270556 93.3595374,75.0832989 107.346241,66.9769277 C123.189454,57.7946562 135.127958,69.9431327 138.104136,73.0628002 C138.433776,73.4079526 138.921864,73.5514429 139.383914,73.4306673 C143.397765,72.3819138 161.070895,68.8816368 169.192224,85.2411936 C176.380036,99.721526 158.932945,128.886623 144.556767,130.956983 C134.531283,132.399642 126.226019,126.056152 123.982252,124.142025 C123.596103,123.812385 123.09915,123.655044 122.594994,123.709338 C119.492501,124.041194 107.954551,124.724296 100.529066,117.704351" id="Shape" fill="#FFD772"></path>
                    <path d="M122.783637,121.759919 C123.675604,121.759919 124.55372,122.080695 125.241255,122.666845 C127.384745,124.495653 135.093886,130.359365 144.280036,129.038036 C150.728235,128.10895 158.652335,120.645238 163.997488,110.465183 C169.003028,100.932219 170.295548,91.8252933 167.455659,86.1039637 C165.599704,82.3654595 158.124357,70.5383127 139.874496,75.3067338 C138.73433,75.6036867 137.518263,75.2568723 136.701643,74.4025786 C130.479482,67.881249 120.505521,61.5914983 108.318817,68.6552102 C102.353166,72.1128279 97.6756039,81.4014706 96.4030277,92.3194761 C95.1847452,102.773216 97.2756039,111.961027 101.861199,116.295653 C108.633499,122.697315 119.284468,122.113936 122.388623,121.780972 C122.519925,121.767122 122.652335,121.759919 122.783637,121.759919 M141.590839,133.107288 C132.333776,133.107288 124.994717,127.548839 122.75372,125.642468 C119.170895,126.019199 107.138762,126.621415 99.1969335,119.113382 C93.7404238,113.954379 91.1936094,103.515598 92.5509502,91.8707227 C94.2617535,77.1953764 100.813,68.5222462 106.374219,65.2995315 C117.49444,58.8552102 129.160368,61.0452379 139.255659,71.4629665 C143.785299,70.3510551 162.317709,67.0330496 170.928789,84.3787559 C174.320479,91.2114429 173.013,101.637482 167.431283,112.267953 C161.442917,123.672385 152.573111,131.761581 144.832945,132.875709 C143.731006,133.035266 142.647903,133.107288 141.590839,133.107288" id="Border" fill="#000000"></path>
                    <path d="M138.638263,75.5796424 C138.453222,75.5796424 138.264856,75.5530496 138.078706,75.4970939 C137.053222,75.1879526 136.472058,74.1065122 136.780645,73.0810274 C140.639925,60.2599748 137.825521,51.2466784 137.796158,51.1569277 C137.467626,50.1375371 138.027183,49.0450163 139.046573,48.7164845 C140.06541,48.3873986 141.159039,48.9480634 141.487571,49.9669 C141.620535,50.3790883 144.698097,60.2322739 140.494219,74.1990329 C140.241587,75.0372601 139.471504,75.5796424 138.638263,75.5796424" id="Border" fill="#000000"></path>
                    <path d="M160.473776,54.2510551 C160.473776,54.2510551 146.704247,50.080972 142.454939,59.7984235 C139.94469,65.5380357 159.273776,66.0000856 160.473776,54.2510551" id="Shape" fill="#FFD772"></path>
                    <path d="M153.950562,55.0236313 C153.654163,55.0236313 153.35444,55.0302795 153.050839,55.0446839 C148.508457,55.2613044 145.455825,57.0845731 143.977709,60.4640745 C143.824247,60.815875 143.901809,60.9011936 144.009842,61.0197532 C144.891837,61.9887282 148.574939,62.6036867 152.338928,61.3637975 C154.315105,60.7128279 157.54059,59.1189221 158.55444,55.5000856 C157.438097,55.2757088 155.777155,55.0236313 153.950562,55.0236313 M148.018706,65.3964845 C145.247515,65.3964845 142.823693,64.6552102 141.55167,63.2574263 C140.511227,62.11449 140.285188,60.6108889 140.93228,59.1322185 C144.761089,50.3759858 155.704025,51.0685066 160.955548,52.6601964 L162.266352,53.0574263 L162.127294,54.4197532 C161.642529,59.1671216 158.453609,62.849116 153.379371,64.5211382 C151.587681,65.1111659 149.736712,65.3964845 148.018706,65.3964845" id="Border" fill="#000000"></path>
                </g>
                <g id="Element" transform="translate(598.697997, 455.448533)">
                    <path d="M9.80272281,127.526259 L0.298567681,53.919611 C-2.23162622,34.3290292 11.5988447,16.3977273 31.1899804,13.8680874 L136.286933,0.29855832 C155.876407,-2.23163559 173.808263,11.5993893 176.338457,31.189417 L185.841504,104.796065 C188.371144,124.386647 174.541227,142.317949 154.950091,144.847589 L49.8531383,158.417672 C30.2636646,160.946758 12.3312547,147.116287 9.80272281,127.526259" id="Shape" fill="#1D65CE"></path>
                    <path d="M119.823665,105.132963 L71.0325289,111.375622 C66.7715871,111.92022 62.8757422,108.908032 62.3316979,104.648198 L61.8380691,100.791134 C61.2929167,96.5307467 64.303997,92.6349018 68.5649389,92.0903035 L117.356629,85.8470902 C121.615908,85.3024918 125.512307,88.3146802 126.056352,92.574514 L126.551088,96.4321317 C127.095133,100.691966 124.082944,104.58781 119.823665,105.132963" id="Shape" fill="#FFD772"></path>
                    <path d="M68.7751882,93.7388353 C65.4316979,94.1659821 63.0588447,97.2357882 63.4859915,100.580387 L63.9801743,104.43745 C64.4073211,107.782049 67.4760192,110.154348 70.8206175,109.726093 L119.612861,103.484542 C122.95746,103.056287 125.329205,99.9870348 124.902058,96.6429905 L124.408429,92.7853727 C123.980728,89.4413284 120.910922,87.0684752 117.566324,87.496176 L68.7751882,93.7388353 Z M120.033914,106.781495 L71.2427782,113.024154 C66.0810054,113.684542 61.3436092,110.021938 60.6832214,104.859057 L60.1890386,101.001993 C59.5292048,95.8391123 63.1907006,91.1017162 68.3535815,90.4418824 L117.145271,84.1992231 C122.308152,83.5388353 127.045548,87.2008852 127.704828,92.3643201 L128.199565,96.2202758 C128.858845,101.383711 125.197349,106.121107 120.033914,106.781495 L120.033914,106.781495 Z" id="Border" fill="#000000"></path>
                    <path d="M123.746158,63.7765085 L123.749482,63.8019932 C123.810978,64.2900819 123.851975,64.7759544 123.872473,65.2590569 C123.934523,66.7925749 122.830368,68.126647 121.307377,68.3211068 L61.5012824,75.9731844 C59.9782907,76.1676442 58.5738585,75.1549018 58.2480968,73.6546248 C58.1461577,73.1826026 58.0625012,72.7017162 58.0004513,72.2136276 L57.9971272,72.1886968 C56.8414486,63.1571179 70.0697034,51.1859267 88.1256591,48.8762315 C104.353914,46.7997772 122.589925,54.7449295 123.746158,63.7765085" id="Shape" fill="#FFD772"></path>
                    <path d="M88.3367394,50.5249849 C80.1915871,51.5670902 72.5810608,54.6839877 66.9062685,59.3011622 C61.8702574,63.3997772 59.155022,68.1388353 59.6458807,71.9776165 C59.7051605,72.4396664 59.7799527,72.8767855 59.8730275,73.3022702 C60.0181799,73.9693062 60.6270441,74.4086414 61.2913101,74.3238769 L121.096296,66.6723533 C121.7589,66.5875888 122.238678,66.0086414 122.212086,65.3260929 C122.193249,64.8917439 122.156684,64.4496387 122.100174,64.0130736 L122.097404,63.9870348 C121.625382,60.3033783 117.454745,56.4546248 110.93951,53.6911899 C103.966102,50.7332952 95.7284292,49.5792785 88.3367394,50.5249849 M121.518457,69.9698603 L61.7123627,77.6213838 C59.3267671,77.926647 57.1384015,76.3731844 56.6248281,74.0080874 C56.5123627,73.4878658 56.42095,72.9560098 56.3528059,72.4247079 C55.0929721,62.5842647 68.3267671,49.7338492 87.9145788,47.227478 C104.835908,45.0629351 124.101836,53.460719 125.394911,63.5654281 L125.398235,63.5909129 C125.465825,64.1222148 125.511255,64.660719 125.533415,65.1909129 C125.630368,67.6103035 123.904052,69.6645971 121.518457,69.9698603" id="Border" fill="#000000"></path>
                    <path d="M124.409482,79.2645971 L58.6244403,87.6812176 C55.6028336,88.0684752 52.8388447,85.9316331 52.4521411,82.9100265 C52.0659915,79.8884198 54.2017256,77.1255389 57.2233322,76.7382813 L123.01059,68.3216608 C126.032196,67.9355112 128.794523,70.0712453 129.181227,73.0928519 C129.568485,76.1150126 127.431642,78.8784475 124.409482,79.2645971" id="Shape" fill="#EB7D7D"></path>
                    <path d="M57.4351328,78.3870348 C55.3265455,78.6568409 53.8312547,80.5914669 54.1005067,82.6989461 C54.3714209,84.8069794 56.3054929,86.3022702 58.4135261,86.0330182 L124.199676,77.6158436 C126.306601,77.3465916 127.803,75.4119655 127.532086,73.3039323 C127.262834,71.1964531 125.329316,69.7006082 123.220728,69.9704143 L57.4351328,78.3870348 Z M124.621282,80.9133506 L58.8345788,89.3299711 C54.908817,89.8324641 51.3060469,87.0468686 50.8035538,83.1211068 C50.3021688,79.194791 53.0866563,75.5920209 57.0124181,75.0900819 L122.798568,66.6729074 C126.724329,66.1709683 130.3271,68.9565639 130.830147,72.8817716 C131.33264,76.8080874 128.545936,80.4108575 124.621282,80.9133506 L124.621282,80.9133506 Z" id="Border" fill="#000000"></path>
                    <path d="M126.393969,90.3763423 L60.6083738,98.7929628 C57.5867671,99.1796664 54.8227782,97.0433783 54.4360746,94.0212176 C54.049371,90.999611 56.1856591,88.2367301 59.2078198,87.8489184 L124.993969,79.433406 C128.01613,79.0467024 130.778457,81.1829905 131.164606,84.2045971 C131.552418,87.2256497 129.415022,89.9896387 126.393969,90.3763423" id="Shape" fill="#EB7D7D"></path>
                    <path d="M59.4185677,89.4987799 C57.3105344,89.768032 55.8152436,91.7032121 56.0844957,93.8106913 C56.3554098,95.9187245 58.2889278,97.4140154 60.397515,97.1447633 L126.183665,88.7275888 C128.29059,88.4577827 129.786989,86.5237107 129.516075,84.4156774 C129.246823,82.3081982 127.313305,80.8117993 125.204717,81.0821594 L59.4185677,89.4987799 Z M126.604717,92.0250957 L60.8185677,100.441716 C56.8928059,100.943655 53.2900358,98.1586137 52.7875428,94.2322979 C52.2856037,90.3065362 55.0706452,86.7037661 58.996407,86.201827 L124.782557,77.7846525 C128.708318,77.2821594 132.311088,80.068309 132.814136,83.9935168 C133.316629,87.9198326 130.529925,91.5226026 126.604717,92.0250957 L126.604717,92.0250957 Z" id="Border" fill="#000000"></path>
                    <path d="M63.5217256,87.2729628 C63.5217256,87.2729628 73.9067671,100.423655 88.6674319,98.5355666 C103.425881,96.647478 111.286269,80.9571733 111.286269,80.9571733 L63.5217256,87.2729628 Z" id="Shape" fill="#FFD772"></path>
                    <path d="M66.9443295,88.4967855 C70.5664901,91.9843201 78.5227228,98.1571733 88.4556868,96.8873672 C98.3914209,95.615899 105.112751,87.4779489 108.076739,83.0580043 L66.9443295,88.4967855 Z M88.8784015,100.18432 C73.3642741,102.169362 62.6645511,88.8707467 62.2174596,88.3028796 L60.4047173,86.0086968 L114.176462,78.8984475 L112.772584,81.7012176 C112.434634,82.3743478 104.338235,98.2059267 88.8784015,100.18432 L88.8784015,100.18432 Z" id="Border" fill="#000000"></path>
                </g>
                <g id="Element" transform="translate(40.145163, 164.788569)">
                    <path d="M139.259657,174.060738 L66.8474686,190.332206 C47.5748924,194.662954 28.4408204,182.550489 24.1106265,163.277913 L0.877939529,59.8867769 C-3.45280839,40.6142007 8.65965698,21.4801287 27.9322332,17.1493808 L100.344422,0.877912614 C119.616444,-3.45283531 138.750516,8.66018408 143.081264,27.9322062 L166.313951,131.323896 C170.644699,150.595918 158.532233,169.72999 139.259657,174.060738" id="Shape" fill="#1D65CE"></path>
                    <line x1="97.020765" y1="64.6500456" x2="93.7925102" y2="92.6456134" id="Shape" fill="#FFFFFF"></line>
                    <polygon id="Border" fill="#000000" points="98.9476348 64.8721508 95.71938 92.8677187 91.8661944 92.4233974 95.0944492 64.4278295"></polygon>
                    <line x1="54.0246985" y1="75.69686" x2="70.7787152" y2="96.2392423" id="Shape" fill="#FFFFFF"></line>
                    <polygon id="Border" fill="#000000" points="72.2815406 95.0133143 69.2771085 97.4642838 52.5219839 76.9224556 55.527524 74.470932"></polygon>
                    <line x1="73.2921778" y1="62.5643946" x2="79.8982719" y2="94.8192423" id="Shape" fill="#FFFFFF"></line>
                    <polygon id="Border" fill="#000000" points="75.1920116 62.1753641 81.7981057 94.4302118 77.9986598 95.2086051 71.3925656 62.9532035"></polygon>
                    <path d="M47.5106265,93.0886051 L112.235834,79.8320954 C113.381541,79.5971924 114.375446,80.6476079 114.078494,81.7789098 L94.8978841,154.876417 C94.5638121,156.148439 92.9117345,156.478079 92.1156127,155.431541 L46.5715683,95.5905442 C45.8674132,94.6653364 46.3715683,93.3218461 47.5106265,93.0886051" id="Shape" fill="#EB7D7D"></path>
                    <path d="M47.8441999,94.7168046 L47.5106819,93.0885497 L47.8441999,94.7168046 Z M93.3333966,154.287996 L112.436444,81.4879957 L47.9749478,94.6902118 L93.3333966,154.287996 Z M115.728964,80.7251148 C115.827025,81.2048932 115.815391,81.7079403 115.685751,82.2015691 L96.5056958,155.298522 C96.1882442,156.506832 95.2303495,157.408771 94.0054188,157.653647 C92.779934,157.897968 91.5494631,157.43204 90.7926764,156.438134 L45.2491861,96.597137 C44.5705157,95.7040622 44.3998786,94.5450594 44.7937844,93.4957519 C45.1882442,92.4464445 46.0785489,91.6852256 47.1771639,91.4602949 L111.902372,78.2037852 C113.007081,77.9777464 114.130072,78.331763 114.905142,79.1505996 C115.330627,79.5993531 115.609851,80.1445054 115.728964,80.7251148 L115.728964,80.7251148 Z" id="Border" fill="#000000"></path>
                    <path d="M64.532621,48.1280511 C64.532621,48.1280511 66.298826,41.9851148 68.9099063,41.2720954 C71.5209866,40.5596301 76.6694631,45.2864999 76.6694631,45.2864999 L72.3470254,52.8427326 L64.532621,48.1280511 Z" id="Shape" fill="#FFD772"></path>
                    <path d="M71.748632,50.5407381 L74.54697,45.6493254 C72.4250863,43.9224556 70.1225933,42.6642838 69.347524,42.8759182 C68.5281334,43.0991869 67.3153911,45.2393531 66.5248093,47.3889375 L71.748632,50.5407381 Z M78.7713467,44.9601287 L72.9447539,55.1446162 L62.5835351,48.8930927 L62.9353357,47.6687159 C64.813452,41.1351979 67.648355,39.8936467 68.4721778,39.6687159 C71.7170531,38.7833974 76.4273024,42.8077741 77.7935074,44.0620677 L78.7713467,44.9601287 Z" id="Border" fill="#000000"></path>
                    <path d="M83.5782719,57.4586328 C84.1317345,63.365558 81.0220393,68.9472755 75.2104049,70.1373032 C69.3982165,71.3278849 64.080211,67.496306 62.5317345,61.7694362 C61.3976625,57.5755303 58.7217622,47.5489375 60.1273024,45.2946439 C61.6314575,42.8835636 68.8153911,49.5173586 70.8996016,49.0907658 C73.1727318,48.6248378 77.4923994,39.1068323 79.9317345,41.2386882 C81.6397678,42.730655 83.3267484,54.7744223 83.5782719,57.4586328" id="Shape" fill="#FFD772"></path>
                    <path d="M81.9235351,57.6136467 C81.5368315,53.4950871 80.0155019,44.6823447 78.9601002,42.7045054 C78.1285212,43.2402395 76.6243661,45.2557519 75.7761667,46.390932 C73.920211,48.8773586 72.7074686,50.4169708 71.2337844,50.7189098 C69.8055296,51.0114306 68.2354465,50.1310982 65.5839229,48.5493808 C64.4276902,47.8601841 62.3761667,46.6369154 61.4432027,46.4496578 C61.2121778,47.4402395 61.2609312,50.6995193 64.1357235,61.3355303 C65.5046985,66.3986882 70.1229811,69.4828988 74.8769977,68.5089375 C79.5368315,67.5543669 82.4348924,63.0740345 81.9235351,57.6136467 M83.7362775,47.5410705 C84.6902941,52.1986882 85.2249201,57.2175248 85.2332304,57.3033974 C85.8974963,64.3975802 81.8227041,70.4795747 75.5440337,71.7654472 C69.0448647,73.0967492 62.7606542,68.9853918 60.9274132,62.2031204 C58.0310143,51.4961952 57.4121778,46.5078295 58.7174409,44.4147547 C60.4587152,41.623065 64.085862,43.7864999 67.286416,45.6945331 C68.3506819,46.3288821 69.921873,47.2662783 70.5772747,47.4263891 C71.155114,47.024173 72.3235351,45.4601841 73.1124548,44.4025664 C74.9944492,41.8817907 76.7711805,39.5011813 78.8348924,39.2823447 C79.6426487,39.1964722 80.3999894,39.4402395 81.0254742,39.9870539 C82.1240891,40.9466107 83.0415406,44.1477187 83.7362775,47.5410705" id="Border" fill="#000000"></path>
                    <path d="M37.5805434,63.6291037 C37.5805434,63.6291037 36.8581057,57.2784112 38.9966099,55.6191315 C41.1356681,53.9604057 47.7024271,56.3537575 47.7024271,56.3537575 L46.6054742,64.9897686 L37.5805434,63.6291037 Z" id="Shape" fill="#FFD772"></path>
                    <path d="M45.1706819,63.0927049 L45.8809312,57.5026772 C43.2587706,56.7204057 40.6504603,56.4406273 40.0155573,56.9331481 C39.3440891,57.4533697 39.0438121,59.8949209 39.1374409,62.1830096 L45.1706819,63.0927049 Z M49.5186043,55.2467215 L48.03938,66.8866107 L36.073175,65.0827326 L35.9291307,63.8173586 C35.1607096,57.062788 37.3030919,54.829547 37.9778841,54.3060013 C40.6355019,52.2445054 46.5285766,54.1569708 48.272067,54.7924278 L49.5186043,55.2467215 Z" id="Border" fill="#000000"></path>
                    <path d="M58.7481334,64.9494916 C61.5226487,70.1932589 60.7891307,76.5406273 55.8766653,79.8669431 C50.9647539,83.1938129 44.5841445,81.6924278 40.9597678,76.996029 C38.3054742,73.5572478 31.9913467,65.3206827 32.4262498,62.6996301 C32.8916237,59.896306 42.0689091,63.2713752 43.8306819,62.0785774 C45.7520116,60.7771924 46.0949478,50.330655 49.1647539,51.36445 C51.3143384,52.0885497 57.4871916,62.5666661 58.7481334,64.9494916" id="Shape" fill="#FFD772"></path>
                    <path d="M34.0987706,63.3434528 C34.3192692,64.4221231 35.714837,67.4808489 42.2755019,75.9805719 C45.479934,80.1329265 50.9270254,81.2121508 54.9453079,78.4908212 C58.8838121,75.8237852 59.8422609,70.5750317 57.27938,65.7268323 C55.3447539,62.0703226 50.5619284,54.5129819 48.8284104,53.0913752 C48.2660836,53.9046716 47.648355,56.3423447 47.3004326,57.7157519 C46.5386598,60.7240622 46.0090199,62.6110428 44.7624825,63.4548101 C43.5558343,64.2714306 41.7691307,64.0597963 38.713729,63.6154749 C37.381319,63.4215691 35.0173301,63.0780788 34.0838121,63.2625664 C34.0876902,63.2880511 34.0926764,63.3151979 34.0987706,63.3434528 M61.713729,68.3096578 C62.7547262,73.3899902 60.9757789,78.4215691 56.8090199,81.2431758 C51.3159451,84.9628434 43.9369977,83.5739237 39.6439229,78.0115968 C32.8666376,69.2309874 30.381319,64.8625664 30.7863052,62.4282173 C31.3253634,59.1816799 35.5048647,59.7894362 39.1923994,60.3262783 C40.4178841,60.5046716 42.2284104,60.7678295 42.8948924,60.6653364 C43.2749478,60.0714306 43.7541722,58.1794639 44.0782719,56.9002395 C44.8505711,53.850932 45.580211,50.9705996 47.4012636,49.9778018 C48.114837,49.5894362 48.9076348,49.5240622 49.6948924,49.7894362 C50.6527872,50.1118738 52.112621,51.1761398 55.679934,56.6243392 C57.612344,59.5750317 59.5297955,62.8725387 60.2173301,64.1722616 C60.9331196,65.5251702 61.4295185,66.9196301 61.713729,68.3096578" id="Border" fill="#000000"></path>
                    <path d="M93.8064714,46.6001287 C93.8064714,46.6001287 97.0751694,41.1070539 99.7820947,41.0814829 C102.488466,41.0555303 106.267413,46.9353087 106.267413,46.9353087 L100.166582,53.145281 L93.8064714,46.6001287 Z" id="Shape" fill="#FFD772"></path>
                    <path d="M100.173064,50.7668877 L104.122095,46.7469431 C102.508244,44.5375248 100.601319,42.7353087 99.7985489,42.7435904 C98.9437013,42.7513752 97.2273578,44.5125941 95.9198786,46.3907104 L100.173064,50.7668877 Z M108.383036,47.1535913 L100.159768,55.5236744 L91.7265268,46.845004 L92.3780503,45.7502672 C95.8550586,39.9081619 98.9121224,39.4272755 99.766416,39.4193625 C103.129297,39.3868323 106.662815,44.476583 107.665585,46.0366938 L108.383036,47.1535913 Z" id="Border" fill="#000000"></path>
                    <path d="M109.856721,60.4632866 C108.89107,66.3164722 104.466139,70.9253364 98.5420393,70.6001287 C92.6184935,70.2743669 88.4478564,65.2178572 88.4051971,59.2854472 C88.3741722,54.9414029 88.333175,44.5635636 90.266139,42.7402949 C92.333175,40.7907104 97.5957789,49.0317076 99.7204326,49.1486051 C102.03733,49.276029 108.633452,41.1674417 110.451181,43.8488821 C111.723757,45.7258905 110.295502,57.8028988 109.856721,60.4632866" id="Shape" fill="#FFD772"></path>
                    <path d="M108.217109,60.1927603 C108.889685,56.1113198 109.673618,47.2088267 109.138438,45.0199071 C108.198272,45.3268323 106.230959,46.8935913 105.122926,47.7761398 C102.695779,49.7102118 101.13179,50.8902672 99.6287429,50.8082727 C98.1744492,50.7284943 96.8791584,49.4780788 94.7168315,47.2753087 C93.7733412,46.3140899 92.099657,44.6093808 91.2448093,44.1916522 C90.7694631,45.0913752 89.9877456,48.2559182 90.067524,59.2730927 C90.1063052,64.5157519 93.7871916,68.6747547 98.633175,68.9406827 C103.383313,69.2016245 107.324588,65.6043946 108.217109,60.1927603 M112.336222,44.31686 C113.286361,48.9567492 111.51794,60.6032866 111.496887,60.7340345 C110.33733,67.7639514 104.850904,72.6110428 98.4509035,72.2592423 C91.8270808,71.8958074 86.7943938,66.3257242 86.7434243,59.2974694 C86.6630919,48.2049486 87.3312359,43.2237852 89.1262498,41.5312644 C91.5190476,39.2730927 94.4780503,42.2874971 97.0885766,44.9456688 C97.9561667,45.8298794 99.2381611,47.1351425 99.8309589,47.4570262 C100.492455,47.2149209 102.019325,45.9983004 103.052012,45.1766938 C105.512399,43.216583 107.835945,41.3656134 109.886915,41.6780788 C110.689685,41.8005165 111.360599,42.2287713 111.826527,42.916306 C112.047579,43.2415137 112.214338,43.7218461 112.336222,44.31686" id="Border" fill="#000000"></path>
                </g>
            </g>
        </g>
    </g>
</svg>