<?xml version="1.0" encoding="UTF-8"?>
<svg width="1000px" height="1000px" viewBox="0 0 1000 1000" version="1.1" xmlns="http://www.w3.org/2000/svg" xmlns:xlink="http://www.w3.org/1999/xlink">
    <!-- Generator: Sketch 63.1 (92452) - https://sketch.com -->
    <title>Messages</title>
    <desc>Created with Sketch.</desc>
    <defs>
        <path d="M154.814161,42.0116313 L52.7507421,42.0116313 L52.7507421,36.2840222 C52.7507421,30.4414361 47.9704443,25.6611383 42.1291079,25.6611383 C36.285272,25.6611383 31.5049742,30.4414361 31.5049742,36.2840222 L31.5049742,42.0116313 L0.157468632,42.0116313 L0.11872635,0.353679547 L104.511681,0.144971122 C152.314659,8.89447822 154.814161,42.0116313 154.814161,42.0116313 Z" id="path-1"></path>
        <path d="M154.751652,42.9714342 L52.6907468,42.9714342 L52.6907468,37.243826 C52.6907468,30.8501005 46.9643883,25.7261219 40.3869494,26.7509176 C35.16674,27.5645054 31.4437321,32.2835647 31.4437321,37.5650119 L31.4449819,42.9714342 L0.0962308177,42.9714342 L0.0674826808,12.1463288 C0.062487544,6.16127184 4.9052722,1.30349017 10.8890794,1.29224241 L104.450429,1.10353003 C113.713583,2.79944197 121.279575,5.41142131 127.450844,8.518302 C153.130726,21.4469748 154.751652,42.9714342 154.751652,42.9714342 Z" id="path-3"></path>
    </defs>
    <g id="Illustrations" stroke="none" stroke-width="1" fill="none" fill-rule="evenodd">
        <g id="Messages">
            <rect id="BG" fill="#FFFFFF" x="0" y="0" width="1000" height="1000"></rect>
            <g id="Flower" transform="translate(91.231827, 778.594904)">
                <path d="M13.2654485,89.1580991 C13.7316056,89.6904929 14.867629,89.5980114 15.8374357,89.7054899 C39.9288816,92.3524621 64.174047,93.7884258 88.2729915,92.1000125 C94.7554488,91.6463529 101.230408,90.9177482 107.604137,89.6305049 C107.604137,89.6305049 108.627683,89.5942621 108.912626,89.1018603 C109.198819,88.6082087 108.776403,87.9233453 108.109036,87.9920816 C93.6319229,91.0452228 78.9298546,91.375157 64.2715276,91.2101899 C47.5023714,91.0202278 30.7307158,89.9479416 14.1402741,88.0020796 C14.1402741,88.0020796 12.6593194,88.0708159 13.2654485,89.1580991 Z" id="Shape" fill="#4C4ED7" transform="translate(61.061658, 90.407504) scale(-1, 1) rotate(116.437805) translate(-61.061658, -90.407504) "></path>
                <path d="M28.9532325,97.936741 C32.8399583,104.465441 39.4298956,110.195549 47.8744634,113.628615 C56.3177815,117.060432 65.0372946,117.554083 72.3758327,115.590724 C68.489107,109.063275 61.8991697,103.331916 53.4546019,99.9000999 C45.0112838,96.4670338 36.2930204,95.9746319 28.9532325,97.936741" id="Shape" fill="#4C4ED7"></path>
                <path d="M72.1006376,103.403152 C76.7697075,98.9727846 80.2765089,92.4578324 81.5375077,84.83935 C82.7985066,77.2221174 81.5799993,69.924821 78.5880953,64.2259562 C73.9190253,68.6563237 70.4134736,75.1712759 69.1524748,82.7897583 C67.8902263,90.4082407 69.1087336,97.7042873 72.1006376,103.403152" id="Shape" fill="#4C4ED7"></path>
                <path d="M39.6446028,54.4341567 C28.4830762,61.9389118 13.3510905,58.9732525 5.84758516,47.8117259 C-1.65592014,36.6501993 1.30848935,21.5182136 12.470016,14.0147083 C23.6315426,6.50995322 38.7635283,9.47561246 46.2670336,20.6371391 C53.7717887,31.7999155 50.8061294,46.9306514 39.6446028,54.4341567" id="Shape" fill="#FF7401"></path>
                <path d="M34.5268723,23.7340222 C37.0276241,23.8390013 39.638354,24.5463604 41.1405548,26.5872038 C45.8521163,32.987179 39.1834447,44.3136727 30.5001744,47.4830414 C23.9514789,49.8738151 15.6943737,49.2864322 11.7476599,43.3751097 C9.64682835,40.2269868 9.44561843,36.0028282 10.8603366,32.4222915 C13.1348835,26.6671879 17.1353366,21.6956782 21.1070455,16.7916551 C25.3886926,11.5052082 29.9452849,6.44621591 34.6868404,1.57593607 L34.9580364,1.29974109 L36.29527,2.61197969 C28.925488,10.1267328 21.8144046,17.9539236 16.0855458,26.7234267 C12.4662667,32.2610736 9.15942544,39.6808456 15.2982026,44.4623931 C22.575503,50.1312639 35.2842214,45.9158536 39.3909033,36.8851525 C41.1068115,33.1134038 41.5029826,27.6632395 37.4325434,26.174786 C31.7424269,24.0939505 23.6002988,27.931936 23.6502889,34.3444086 C23.6527884,34.6530971 23.6852819,34.9642851 23.770265,35.2617259 C23.8227545,35.4429398 23.8939903,35.6191547 23.9902212,35.7828721 C25.0062688,37.510028 27.4107898,37.1251047 28.8829965,36.9063983 C29.2904154,36.8464102 29.6965844,36.7676759 30.095255,36.6651963 L30.5651614,38.4798348 C27.0133689,39.3971521 22.1693339,39.3596596 21.7956583,34.809316 C21.3182534,29.0117209 28.0531618,23.7277734 34.1831907,23.7277734 C34.3556564,23.7302729 34.3544066,23.7302729 34.5268723,23.7340222 Z" id="Shape" fill="#FFDE03"></path>
            </g>
            <g id="Character" transform="translate(124.973113, 202.459670)">
                <path d="M541.440387,390.795904 L522.289202,375.187763 C520.958217,373.815536 518.449967,374.091731 516.686568,375.80264 C514.923169,377.513549 514.573239,380.013051 515.904224,381.384028 L530.93623,400.991373 C531.107445,401.270067 531.303656,401.535014 531.53611,401.774966 C533.760667,404.06701 537.952332,403.605852 540.897995,400.746421 C543.844908,397.886991 544.429792,393.710323 542.205235,391.41828 C541.972781,391.179577 541.712833,390.975868 541.440387,390.795904" id="Shape" fill="#FCC7E9"></path>
                <path d="M571.716856,138.809849 C541.796566,125.467507 533.322004,109.861866 534.076854,87.7525197 C534.334303,80.2190204 532.658387,77.6370347 535.841502,71.3395392 C524.916179,63.0286947 522.671626,61.1965597 507.885821,61.1965597 C495.946949,61.1965597 489.073319,63.9747562 479.455235,69.5873882 C480.120102,72.0319013 479.791418,73.9802631 479.791418,76.6359841 C479.791418,92.7527737 464.604443,107.008684 442.071431,106.796226 C419.994579,106.796226 402.096894,124.692661 402.096894,146.770763 C402.096894,168.847616 419.994579,186.7453 442.071431,186.7453 C451.841985,186.7453 460.788953,183.235999 467.73257,177.415909 C469.63969,178.91436 471.628044,180.314081 473.697632,181.595076 C470.650738,189.725957 468.974822,198.526704 468.974822,207.721122 C468.974822,248.854178 502.31943,282.198786 543.452486,282.198786 C584.585543,282.198786 617.9314,248.854178 617.9314,207.721122 C617.9314,176.594822 601.637146,152.152191 571.716856,138.809849" id="Shape" fill="#FF7401"></path>
                <path d="M502.104473,281.257724 C502.104473,281.257724 502.52064,322.499508 495.439551,340.828357 C489.192045,356.997636 430.108814,458.742369 416.264072,482.506385 C414.345704,485.800729 412.992224,489.383765 412.252371,493.12302 L375.46345,679.094724 L252.154263,650.35045 C252.154263,650.35045 292.146297,465.803462 293.812215,457.472622 C295.479383,449.140531 370.047029,322.082091 370.047029,322.082091 L423.370157,242.931608 L502.104473,281.257724 Z" id="Shape" fill="#187DFF"></path>
                <polygon id="Shape" fill="#FCC7E9" transform="translate(306.642159, 662.261828) scale(-1, 1) rotate(-90.000000) translate(-306.642159, -662.261828) " points="300.119708 697.938471 319.178412 697.938471 302.61921 629.084686 294.105906 626.585184"></polygon>
                <polygon id="Shape" fill="#FCC7E9" transform="translate(494.897205, 111.287045) scale(-1, 1) rotate(-105.534404) translate(-494.897205, -111.287045) " points="467.306446 88.6559234 531.128745 88.6559234 532.074806 122.557927 457.719604 133.918166"></polygon>
                <path d="M508.925614,264.489814 L521.553099,237.807629 L567.923862,285.423144 L540.429339,362.074125 L596.09575,379.935567 L630.036489,313.30384 C642.900176,288.05012 639.050943,257.508704 620.317175,236.240441 C594.476072,206.903785 569.957207,176.576076 551.535876,162.523875 C536.65759,151.542313 510.411568,139.523457 510.411568,139.523457 L514.546994,125.40127 L475.680986,113.338673 L469.116044,127.097182 C469.116044,127.097182 447.745301,121.740749 427.393105,121.740749 C404.313953,121.740749 382.720754,132.353635 368.346118,150.533764 L313.41581,216.759322 L209.613987,272.836901 C209.613987,272.836901 220.076903,328.330847 222.576405,331.247765 C225.075907,334.163435 328.389077,317.500504 337.553501,310.834332 C346.717926,304.16941 508.925614,264.489814 508.925614,264.489814" id="Shape" fill="#E8F5FF"></path>
                <path d="M494.915086,691.649717 C495.14629,691.128571 494.832602,690.592428 494.257717,690.549936 C478.655835,690.43121 463.093944,690.414963 447.543302,690.549936 C447.543302,690.549936 446.980914,690.649916 446.840942,691.053586 C446.683473,691.512244 447.040902,692.018393 447.557049,692.048387 C463.108941,691.914664 478.683329,691.93091 494.24647,692.048387 C494.24647,692.048387 494.728873,691.950906 494.915086,691.649717 Z" id="Shape" fill="#187DFF" transform="translate(470.897531, 691.251544) scale(-1, 1) rotate(-126.278973) translate(-470.897531, -691.251544) "></path>
                <path d="M500.352322,699.160247 C500.589774,698.662846 500.25984,698.087961 499.702451,698.051718 C490.363062,697.945489 480.981181,698.001728 471.635542,698.051718 C471.635542,698.051718 471.251869,698.097959 471.065656,698.319165 C470.701978,698.751579 471.009417,699.520176 471.644291,699.551419 C480.966184,699.501429 490.296825,699.443941 499.686204,699.551419 C499.686204,699.551419 500.001142,699.730134 500.352322,699.160247 Z" id="Shape" fill="#187DFF" transform="translate(485.670243, 698.784658) scale(-1, 1) rotate(-126.495169) translate(-485.670243, -698.784658) "></path>
                <path d="M492.522632,289.896003 L502.104473,281.147745 L391.708964,227.40845 L378.795286,223.24303 C378.795286,223.24303 197.165217,329.471869 176.751783,353.633306 C156.339599,377.794743 72.1901117,535.263376 72.1901117,535.263376 L176.751783,589.002671 C176.751783,589.002671 253.404014,442.781798 256.319683,439.032545 C259.235352,435.283292 344.218424,374.879074 344.218424,374.879074 L492.522632,289.896003 Z" id="Shape" fill="#187DFF"></path>
                <polygon id="Shape" fill="#4C4ED7" transform="translate(443.988770, 243.604834) scale(-1, 1) rotate(-112.136345) translate(-443.988770, -243.604834) " points="431.009477 175.585244 449.112125 175.585244 456.968062 310.4959 438.18305 311.624425"></polygon>
                <path d="M535.730275,72.4480684 C535.730275,88.3873932 522.810348,101.308569 506.871023,101.308569 C490.932948,101.308569 478.011772,88.3873932 478.011772,72.4480684 C478.011772,56.5099932 490.932948,43.5888171 506.871023,43.5888171 C522.810348,43.5888171 535.730275,56.5099932 535.730275,72.4480684" id="Shape" fill="#FCC7E9"></path>
                <path d="M535.789013,71.700711 C536.782565,71.8531869 536.483874,72.6280325 536.470127,73.2116662 C536.085204,86.8814432 525.20987,99.5151766 511.562589,101.688494 C504.305284,102.844513 496.611817,101.183594 490.510532,97.1306516 C488.6659,95.9058956 490.141856,95.1447972 490.909203,95.5897085 C491.12416,95.7359294 491.12291,95.7359294 491.339117,95.8809005 C499.290034,101.109859 509.837932,101.964689 518.438719,98.0754634 C528.204274,93.6600929 534.942931,83.3996368 534.980424,72.4455689 C534.980424,72.4455689 535.041662,71.6982177 535.789013,71.700711 Z" id="Shape" fill="#0E0E0E"></path>
                <path d="M493.254986,58.3246317 C493.254986,63.5960817 488.982087,67.8702303 483.709387,67.8702303 C478.437937,67.8702303 474.163789,63.5960817 474.163789,58.3246317 C474.163789,53.0519321 478.437937,48.7777835 483.709387,48.7777835 C488.982087,48.7777835 493.254986,53.0519321 493.254986,58.3246317" id="Shape" fill="#FCC7E9"></path>
                <path d="M571.54564,27.7544713 C571.54564,42.3440651 559.717996,54.171709 545.128403,54.171709 C530.537559,54.171709 518.711165,42.3440651 518.711165,27.7544713 C518.711165,13.1636278 530.537559,1.33598387 545.128403,1.33598387 C559.717996,1.33598387 571.54564,13.1636278 571.54564,27.7544713" id="Shape" fill="#FF7401"></path>
                <polygon id="Shape" fill="#0E0E0E" points="335.522656 381.185318 352.081857 333.38234 368.641059 322.915675"></polygon>
                <path d="M322.765197,704.923329 C322.765197,699.079493 327.545495,694.300445 333.388081,694.300445 C339.230667,694.300445 344.010965,699.079493 344.010965,704.923329 L344.010965,710.650938 L375.358471,710.650938 L375.046033,668.784278 L271.004258,668.784278 C223.20128,677.532536 220.701778,710.650938 220.701778,710.650938 L322.765197,710.650938 L322.765197,704.923329 Z" id="Shape" fill="#93D374"></path>
                <path d="M322.726455,704.923329 C322.726455,699.079493 327.506753,694.300445 333.349339,694.300445 C339.191925,694.300445 343.972223,699.079493 343.972223,704.923329 L343.972223,710.650938 L375.319728,710.650938 L375.35972,668.992987 L270.965516,668.784278 C223.162538,677.532536 220.663036,710.650938 220.663036,710.650938 L322.726455,710.650938 L322.726455,704.923329 Z" id="Shape" fill="#93D374"></path>
                <g id="Pattern" transform="translate(295.477197, 693.639307) scale(-1, 1) translate(-295.477197, -693.639307) translate(215.477197, 668.639307)">
                    <mask id="mask-2" fill="white">
                        <use xlink:href="#path-1"></use>
                    </mask>
                    <g id="Shape"></g>
                    <g id="Shape-3" opacity="0.200000003" mask="url(#mask-2)" fill="#000000" fill-rule="nonzero">
                        <g transform="translate(-10.816595, 25.764868)" id="Shape" opacity="0.6">
                            <rect style="mix-blend-mode: soft-light;" x="1.45661261e-12" y="1.11244347e-12" width="172.153207" height="37.1800937"></rect>
                        </g>
                    </g>
                </g>
                <polygon id="Shape" fill="#0E0E0E" points="270.861786 654.698334 375.219748 687.316837 375.4622 679.094724"></polygon>
                <path d="M465.429279,302.91091 L465.766711,303.673258 L465.661732,303.945704 C430.33377,359.634611 394.843339,415.221038 359.680344,471.013674 C354.090207,480.005633 350.182236,490.082376 348.256369,500.524046 L324.231155,632.987659 C323.851231,633.951217 323.846232,633.78375 323.087633,633.48381 L322.756449,632.720212 C330.794848,588.396542 338.702023,544.047876 346.875394,499.74795 C348.897492,489.145062 352.92419,478.920849 358.684292,469.78142 L464.394485,303.143364 C465.041856,302.464749 465.115591,302.789684 465.429279,302.91091 Z" id="Shape" fill="#0E0E0E"></path>
                <polygon id="Shape" fill="#4C4ED7" transform="translate(317.765402, 646.289240) scale(-1, 1) rotate(-102.116254) translate(-317.765402, -646.289240) " points="300.022057 709.586648 337.729556 709.586648 335.027594 583.740432 297.801249 582.991831"></polygon>
                <path d="M370.783132,321.659675 C324.232405,353.570819 277.557952,385.301998 231.132201,417.395605 C230.842258,417.600564 230.842258,417.599314 230.553566,417.806773 C224.730976,422.032181 219.910686,427.587325 216.548856,433.947308 L145.756707,569.151625 L144.426972,568.456764 C168.08226,523.279513 191.563833,478.01228 215.392836,432.926261 C219.03461,426.161359 224.259819,420.325021 230.576061,415.958391 L369.935801,320.422422 C370.218245,320.83484 370.500688,321.247258 370.783132,321.659675 Z" id="Shape" fill="#0E0E0E"></path>
                <polygon id="Shape" fill="#FCC7E9" transform="translate(123.732001, 569.976824) scale(-1, 1) rotate(-118.014315) translate(-123.732001, -569.976824) " points="109.732919 617.742294 133.268224 617.742294 137.731083 524.209704 114.020814 522.211353"></polygon>
                <polygon id="Shape" fill="#4C4ED7" transform="translate(132.897723, 546.968131) scale(-1, 1) rotate(-119.024147) translate(-132.897723, -546.968131) " points="113.556582 605.763273 151.945172 605.763273 152.238863 488.996575 117.323331 488.172989"></polygon>
                <path d="M105.505975,613.535284 C108.381652,607.823922 115.798925,605.82432 121.214096,609.698548 C125.509491,612.771686 126.713001,618.659263 124.337224,623.377073 L121.906458,628.206111 L149.904631,642.303303 L163.611901,614.566328 C166.292617,609.142409 164.095554,602.573717 158.69288,599.854259 L75.5256973,557.9801 C28.8949861,544.297826 11.7696475,572.753408 11.7696475,572.753408 L102.928989,618.651765 L105.505975,613.535284 Z" id="Shape" fill="#93D374"></path>
                <g id="Pattern" transform="translate(86.583753, 590.300738) scale(-1, 1) rotate(-26.724634) translate(-86.583753, -590.300738) translate(6.583753, 565.300738)">
                    <mask id="mask-4" fill="white">
                        <use xlink:href="#path-3"></use>
                    </mask>
                    <g id="Shape"></g>
                    <g id="Shape-2" opacity="0.200000003" mask="url(#mask-4)" fill="#000000" fill-rule="nonzero">
                        <g transform="translate(-10.879081, 26.724673)" id="Shape" opacity="0.6">
                            <rect style="mix-blend-mode: soft-light;" x="1.49213975e-12" y="1.11688436e-12" width="172.154433" height="37.1800887"></rect>
                        </g>
                    </g>
                </g>
                <path d="M520.34334,373.565586 C521.2969,373.609327 522.226715,373.958008 522.896581,374.626624 L541.994027,390.189774 C542.561414,390.575947 542.575161,390.627187 542.742628,390.788405 C542.943838,390.982116 543.128801,391.194574 543.295018,391.41828 C543.48248,391.66823 543.646198,391.934427 543.78617,392.213121 C545.882002,396.374792 542.493927,402.077406 537.721128,403.595854 C535.170386,404.405692 531.973523,403.878298 530.425081,401.417538 L515.436817,381.867682 C514.899424,381.294046 514.891926,381.152824 514.741955,380.789147 C513.410971,377.548542 516.496606,373.480603 520.34334,373.565586 Z M520.14213,375.06277 C517.233959,375.141522 514.673219,378.862031 516.556594,380.867881 C516.556594,380.867881 531.63609,400.532714 531.63609,400.532714 C534.235572,404.26822 540.990477,401.778716 542.585159,396.905936 C543.205036,395.016313 543.002576,392.689276 541.096706,391.394534 L521.920526,375.765148 C521.434372,375.326485 520.818245,375.060288 520.14213,375.06277 Z" id="Shape" fill="#0E0E0E"></path>
                <path d="M166.961233,279.253123 L147.15018,279.997974 C145.617985,279.897994 144.284501,281.221481 144.172023,282.956135 C144.058296,284.69079 145.209316,286.176744 146.741511,286.276724 L166.287618,289.586065 C166.541317,289.651052 166.801265,289.699792 167.068712,289.717288 C169.630702,289.884755 171.859008,287.670196 172.04772,284.772023 C172.236433,281.875101 170.314315,279.390595 167.752326,279.224379 C167.483629,279.205632 167.221182,279.220629 166.961233,279.253123" id="Shape" fill="#FCC7E9"></path>
                <path d="M564.11712,709.056256 L564.624519,709.563655 C564.786987,710.378493 564.420809,710.584702 564.420809,710.584702 C564.11837,710.787161 564.11462,710.788411 563.758441,710.859647 L21.3664858,710.859647 C20.5516481,710.697179 20.5004083,710.281012 20.5004083,710.281012 C20.3379407,709.466174 20.7041177,709.259966 20.7041177,709.259966 C21.0065575,709.057506 21.0103067,709.056256 21.3664858,708.98502 L563.758441,708.98502 C563.878418,709.008766 563.997144,709.032511 564.11712,709.056256 Z" id="Shape" fill="#0E0E0E"></path>
                <path d="M144.594439,282.165043 C145.634232,282.413743 145.095589,283.112354 145.304297,283.867204 C145.533002,284.692039 146.226614,285.406897 147.127684,285.479383 L166.735028,288.798721 C169.064564,289.377356 171.390351,287.325265 171.59406,284.663295 C171.59406,284.663295 171.666546,284.290869 171.887752,284.123403 C172.510128,283.652247 173.284974,284.277122 172.940042,285.809317 C172.30017,288.647501 169.591959,290.992034 166.502575,290.287175 C166.502575,290.287175 146.942721,286.969086 146.942721,286.969086 C144.93812,286.809118 143.188469,284.524573 143.747108,282.686189 C143.849587,282.347506 144.178272,282.117552 144.594439,282.165043 Z" id="Shape" fill="#0E0E0E"></path>
                <path d="M503.87412,48.5853218 C503.87412,48.5853218 506.759796,69.7860986 535.841502,71.3395392 C535.841502,71.3395392 543.166293,52.35957 527.960572,41.1480533 C510.686513,28.4130901 487.113709,37.7074887 483.117005,54.9115616 C483.117005,54.9115616 490.776729,56.1325684 503.87412,48.5853218" id="Shape" fill="#FF7401"></path>
                <polygon id="Shape" fill="#E8F5FF" transform="translate(384.838208, 207.622628) scale(-1, 1) rotate(-156.692367) translate(-384.838208, -207.622628) " points="342.904671 237.184874 429.737405 237.184874 425.956906 179.37262 339.939011 178.060381"></polygon>
                <path d="M434.71676,217.699483 L354.877298,253.549734 L333.677817,196.658293 L414.814392,161.702548 L434.71676,217.699483 L434.71676,217.699483 Z M335.580799,197.471401 L355.724145,251.526074 L432.840548,216.897976 L413.937491,163.713302 L335.580799,197.471401 L335.580799,197.471401 Z" id="Shape" fill="#FFDE03"></path>
                <path d="M415.669191,161.769026 C416.455284,162.031473 416.551515,162.352659 416.240327,163.058769 L390.780399,208.8334 C390.57169,209.139589 390.411722,209.334551 389.829338,209.268314 L334.635333,197.851838 C333.753008,197.583141 333.765506,195.98471 334.992761,196.122182 L389.551893,207.406185 L414.695635,162.19894 C414.695635,162.19894 415.064311,161.684043 415.669191,161.769026 Z" id="Shape" fill="#FFDE03"></path>
                <polygon id="Shape" fill="#E8F5FF" transform="translate(319.378726, 314.816092) scale(-1, 1) rotate(-169.130716) translate(-319.378726, -314.816092) " points="288.110578 334.380321 352.391527 334.380321 350.211961 295.251863 286.365926 295.508062"></polygon>
                <path d="M349.038714,288.85746 C349.684835,289.059919 349.756071,289.431095 349.348652,289.915999 L321.083032,317.630478 C320.878073,317.795445 320.648119,317.840436 320.39317,317.756703 L284.875245,302.043583 C284.277864,301.70615 284.604049,300.643862 285.380144,300.898811 L320.510646,316.440715 C320.510646,316.440715 348.568807,288.946192 348.568807,288.946192 C348.887494,288.779975 348.926236,288.844962 349.038714,288.85746 Z" id="Shape" fill="#FFDE03"></path>
                <polygon id="Shape" fill="#E8F5FF" transform="translate(253.153509, 321.861899) scale(-1, 1) rotate(-179.210645) translate(-253.153509, -321.861899) " points="228.569658 336.300271 277.737359 336.300271 276.101435 307.423526 230.388046 308.945723"></polygon>
                <path d="M278.207823,306.793887 C278.787708,306.952605 278.627739,307.443757 278.401534,307.641218 L256.597128,323.125633 C256.43841,323.216865 256.273442,323.228113 256.102226,323.155627 L228.264022,308.176111 C227.832858,307.886169 228.164042,307.121321 228.708933,307.348776 L256.290939,322.18957 C256.290939,322.18957 277.936627,306.82888 277.936627,306.82888 C278.037857,306.795136 277.97162,306.77764 278.207823,306.793887 Z" id="Shape" fill="#FFDE03"></path>
                <polygon id="Shape" fill="#E8F5FF" transform="translate(237.144386, 281.020400) scale(-1, 1) rotate(-153.338989) translate(-237.144386, -281.020400) " points="211.029586 298.895591 268.40941 298.895591 258.821319 263.14521 205.879361 265.032334"></polygon>
                <path d="M265.392649,287.701765 L215.925472,310.370024 L204.872624,276.382989 L257.601352,249.908144 L265.392649,287.701765 L265.392649,287.701765 Z M206.697053,277.145076 L216.831356,308.305583 L263.682061,286.834971 L256.527493,252.125447 L206.697053,277.145076 L206.697053,277.145076 Z" id="Shape" fill="#FFDE03"></path>
                <path d="M257.886871,250.386373 C258.381772,250.573836 258.434262,250.782544 258.218055,251.224956 L238.538225,283.416044 C238.31452,283.718483 238.173298,283.699737 237.945843,283.674742 L205.793498,277.25977 C205.198616,277.083555 205.308595,276.078755 206.013454,276.15249 L237.779626,282.489978 C237.779626,282.489978 257.315735,250.55134 257.315735,250.55134 C257.469454,250.410118 257.660666,250.345131 257.886871,250.386373 Z" id="Shape" fill="#FFDE03"></path>
                <polygon id="Shape" fill="#E8F5FF" transform="translate(200.086362, 254.431552) scale(-1, 1) rotate(-126.020376) translate(-200.086362, -254.431552) " points="166.812986 278.259308 236.000462 278.259308 228.207013 230.603795 164.172261 233.117045"></polygon>
                <path d="M202.757853,210.195629 C203.27525,210.329352 203.310243,210.421834 203.355234,210.89549 L203.706414,253.020848 C203.67267,253.497003 203.615182,253.535746 203.22151,253.704462 L161.572307,267.879139 C160.80496,268.067851 160.282564,266.889336 161.109899,266.524408 L202.27045,252.515949 C202.27045,252.515949 201.933017,210.783012 201.933017,210.783012 C202.076738,210.225623 202.181717,210.149388 202.757853,210.195629 Z" id="Shape" fill="#FFDE03"></path>
                <polygon id="Shape" fill="#4C4ED7" transform="translate(191.958129, 300.732594) scale(-1, 1) translate(-191.958129, -300.732594) " points="145.509257 341.453233 193.624672 341.453233 238.407001 260.011956 190.291586 260.011956"></polygon>
                <polygon id="Shape" fill="#187DFF" transform="translate(172.403758, 256.572976) scale(-1, 1) rotate(-136.907033) translate(-172.403758, -256.572976) " points="185.549887 239.563242 194.393124 239.563242 158.334064 273.582709 150.414393 272.435438"></polygon>
                <polygon id="Shape" fill="#0E0E0E" transform="translate(219.244071, 297.712261) scale(-1, 1) rotate(-147.175738) translate(-219.244071, -297.712261) " points="211.636837 250.567285 219.320306 250.567285 226.851304 344.857237 218.150539 343.280051"></polygon>
                <polygon id="Shape" fill="#0E0E0E" points="84.4964103 541.76583 164.502973 593.719231 168.278471 584.721024"></polygon>
                <path d="M163.655642,300.520136 L185.784984,289.10491 C187.577127,288.388803 188.41571,286.271725 187.65836,284.375852 C186.899762,282.47998 184.832673,281.52517 183.04053,282.241278 L159.141541,289.227386 C158.820355,289.293623 158.500419,289.381105 158.186731,289.50608 C155.191078,290.704592 153.788857,294.242637 155.056105,297.409506 C156.322103,300.576375 159.776415,302.172307 162.770818,300.975046 C163.085755,300.850071 163.378197,300.693852 163.655642,300.520136" id="Shape" fill="#FCC7E9"></path>
                <path d="M168.096007,312.339032 L191.012692,302.602222 C192.853576,302.019838 193.847128,299.971496 193.23225,298.025633 C192.618622,296.078521 190.627769,294.972492 188.786886,295.553626 L164.434237,300.742592 C164.109301,300.783834 163.784366,300.847571 163.46193,300.950051 C160.385043,301.921107 158.724124,305.344175 159.75142,308.597277 C160.778715,311.84913 164.104302,313.698761 167.18119,312.728954 C167.502376,312.625225 167.806065,312.491502 168.096007,312.339032" id="Shape" fill="#FCC7E9"></path>
                <path d="M173.174996,322.613235 L191.368871,314.739804 C192.83233,314.277396 193.595928,312.558988 193.072282,310.901818 C192.549886,309.245898 190.937707,308.276091 189.474249,308.738499 L170.056867,312.741452 C169.798168,312.770196 169.53822,312.818937 169.282021,312.90142 C166.833759,313.673766 165.559013,316.544444 166.433838,319.312643 C167.307414,322.082091 170.000628,323.700519 172.44764,322.928173 C172.705089,322.846939 172.945041,322.738211 173.174996,322.613235" id="Shape" fill="#FCC7E9"></path>
                <path d="M445.191242,303.656136 C445.417447,304.027312 445.462438,304.033561 445.85736,304.061055 L484.619652,304.061055 C485.436989,304.004816 485.73693,302.637588 484.619652,302.561353 L445.85736,302.561353 C445.30247,302.598846 444.952539,303.107495 445.191242,303.656136 Z" id="Shape" fill="#0E0E0E" transform="translate(465.232260, 303.311204) scale(-1, 1) rotate(110.772233) translate(-465.232260, -303.311204) "></path>
                <path d="M187.717099,283.628501 C189.681707,283.898447 188.888116,288.627505 186.099921,289.786025 L164.023069,301.175006 C162.568358,302.05858 163.255721,301.984845 162.485875,301.668658 C161.80976,301.391213 161.95723,300.673856 163.288215,299.865267 L185.467547,288.423796 C186.876016,287.838913 187.520888,286.105508 186.95725,284.645799 C186.95725,284.645799 186.842273,283.607255 187.717099,283.628501 Z" id="Shape" fill="#0E0E0E"></path>
                <path d="M193.318483,297.227042 C195.270594,297.565725 194.189559,302.289784 191.27764,303.250842 L168.415944,312.963908 C167.176191,313.60628 167.693587,313.588783 166.987478,313.400071 C166.251375,313.20261 166.083908,312.484003 167.776071,311.606678 L190.747745,301.846122 C192.199956,301.367468 192.966053,299.680304 192.516143,298.189351 C192.516143,298.189351 192.438658,297.178302 193.318483,297.227042 Z" id="Shape" fill="#0E0E0E"></path>
                <path d="M193.262244,310.263196 C193.779641,310.353178 193.828381,310.504398 193.970853,311.064286 C194.38702,312.865177 193.539689,314.893523 191.787538,315.530896 C191.787538,315.530896 173.60241,323.396829 173.60241,323.396829 C170.802968,324.870286 166.987478,323.065645 165.870201,319.790048 C165.566511,318.900225 166.746276,317.875429 167.371152,319.5276 C168.244728,321.68842 170.659247,323.250609 172.955039,322.042099 L191.205154,314.143673 C192.33118,313.769997 192.827331,312.436513 192.459904,311.225504 C192.459904,311.225504 192.382419,310.214455 193.262244,310.263196 Z" id="Shape" fill="#0E0E0E"></path>
                <path d="M499.893016,69.6000283 C499.509343,68.3627753 497.847174,70.3323821 496.586176,70.3411304 C495.592624,70.3461294 494.936505,69.0888804 494.227897,69.0551371 C493.580526,69.0238933 493.188104,69.8274829 493.816729,70.5098467 C495.377667,72.1520189 498.435807,72.2682457 499.795535,70.2186548 C499.916761,70.0361913 499.948005,69.8162352 499.893016,69.6000283 Z" id="Shape" fill="#0E0E0E" transform="translate(496.709098, 70.401847) scale(-1, 1) rotate(-78.168388) translate(-496.709098, -70.401847) "></path>
                <path d="M540.429339,362.074125 C540.429339,362.074125 531.929782,383.423622 526.523359,396.18733 L493.78613,396.914685 C490.01813,396.775962 486.890004,398.653088 486.798772,401.10635 C486.70754,403.56211 489.688196,405.666691 493.456196,405.805414 L522.905329,408.649847 C522.934074,408.888549 522.970316,409.123503 523.015307,409.358456 L496.074424,418.534128 C492.422651,419.471441 490.106863,422.744539 490.902954,425.845172 C491.697796,428.947054 495.304577,430.701704 498.95635,429.764391 L528.238017,424.617916 L510.549041,433.897318 C507.083481,435.430762 505.18261,438.728855 506.303636,441.262101 C507.425913,443.795346 511.143922,444.605185 514.609482,443.07174 L560.419107,426.333824 C561.030235,426.150111 561.642613,425.933904 562.248742,425.665208 C563.693454,425.025335 567.418962,423.051978 567.600176,422.895759 C586.50891,406.621501 596.09575,379.935567 596.09575,379.935567 L540.429339,362.074125 Z" id="Shape" fill="#FCC7E9"></path>
                <path d="M633.159617,305.786204 C634.466856,306.17401 632.94466,308.58478 632.08733,310.484402 C619.027432,339.329906 605.48013,367.9717 589.447074,395.175031 C584.573045,403.444634 579.614033,411.74548 573.230305,418.835318 C569.78724,422.658307 565.42061,425.320276 560.347871,426.889964 L514.575739,443.612882 C514.244555,443.755354 514.244555,443.755354 513.898374,443.881579 C510.847731,444.938868 506.997248,444.406474 505.516293,441.824489 C504.647716,440.30979 504.815183,438.376425 505.666263,436.816736 C506.118673,435.986901 507.615875,436.175614 506.816034,437.867777 C506.341129,438.940063 506.257396,440.217309 506.897268,441.209611 C508.239501,443.292946 511.645072,443.244206 514.020849,442.21816 L559.867966,425.467747 C560.569077,425.25154 560.606569,425.230294 560.877765,425.130314 C564.450803,423.788081 567.738899,422.24089 570.394619,419.635159 C574.983705,415.132306 578.592986,409.68714 582.107286,404.248224 C592.998867,387.392831 602.148294,369.402665 611.101511,351.318767 C618.423802,336.531713 625.476147,321.608436 632.217304,306.536438 C632.217304,306.536438 632.39227,305.766591 633.159617,305.786204 Z" id="Shape" fill="#0E0E0E"></path>
                <path d="M528.000564,423.716846 C528.746666,423.843071 528.905384,424.991592 528.056803,425.20155 L498.801381,430.343026 C495.849469,431.084128 490.959193,429.778138 489.886907,425.960149 C489.886907,425.960149 489.801924,425.617717 489.908152,425.381514 C490.183098,424.772885 491.02668,424.701649 491.429099,425.867667 C492.37766,428.488395 495.639511,429.590676 498.488943,428.875818 L527.899335,423.713096 C527.933078,423.714346 527.966821,423.715596 528.000564,423.716846 Z" id="Shape" fill="#0E0E0E"></path>
                <path d="M486.55757,400.205279 C487.289924,400.326505 487.078716,400.726425 487.303671,401.612499 C487.948543,404.145744 491.062922,404.805613 493.196247,404.901844 L522.665377,407.747527 C523.478965,407.8825 523.587693,409.269724 522.520406,409.23973 L493.090019,406.399045 C491.850266,406.342807 491.794027,406.285318 491.292877,406.181589 C488.409701,405.586707 485.317817,403.41589 485.746481,400.828905 C485.80522,400.470226 486.115158,400.192782 486.55757,400.205279 Z" id="Shape" fill="#0E0E0E"></path>
                <path d="M429.201495,246.784591 C429.265232,246.795838 429.315222,246.794589 429.500186,246.872073 L449.302491,256.433918 C452.716811,258.324792 454.152775,260.669325 454.972612,263.268807 C456.843489,269.197626 452.990506,276.351201 446.781743,278.087105 C440.749195,279.774269 433.974294,275.418887 432.513335,268.981419 C431.019883,261.965317 429.620162,254.930468 428.1742,247.904367 C428.085467,247.305737 428.507883,246.742099 429.201495,246.784591 Z M434.311727,268.42528 C435.460248,273.824204 441.240347,277.782166 446.425564,276.238723 C449.994853,275.176435 452.92302,272.008316 453.521651,268.315302 C454.197766,264.134884 451.831987,259.649528 447.835283,257.82989 L447.65032,257.717413 L430.393758,249.384073 C431.699747,255.731558 433.005737,262.079044 434.311727,268.42528 Z" id="Shape" fill="#E8F5FF"></path>
                <path d="M54.8548149,535.812016 C59.2651864,535.892 63.5255877,538.607709 65.2040034,542.711892 C66.4799992,545.83377 66.1975555,549.451799 64.714101,552.516189 L55.2884785,571.666124 C54.974791,572.211016 54.2424369,572.182271 53.9449962,571.668624 L44.171943,551.970048 C44.0507171,551.680105 44.2044365,552.085025 43.8332604,551.058979 C41.501225,544.209094 46.7051883,535.998229 54.5211314,535.813266 C54.688598,535.812016 54.688598,535.812016 54.8548149,535.812016 Z M54.5461264,537.312967 C49.0334745,537.442941 44.18694,542.624409 44.7280822,548.199549 C44.854307,549.508038 45.2417299,550.776535 45.8503586,551.937554 L45.9140959,552.10877 L54.613613,569.642777 C57.5542772,563.666468 60.5336837,557.710154 63.4356056,551.716348 C65.7726401,546.717344 63.6905549,540.122408 58.6390611,538.060318 C57.4330513,537.567917 56.1383093,537.335463 54.8385682,537.311718 C54.6923473,537.311718 54.6923473,537.311718 54.5461264,537.312967 Z" id="Shape" fill="#0E0E0E"></path>
                <path d="M247.212747,658.200137 C252.896615,658.375102 257.813136,663.289123 258.176813,669.394157 C258.506747,676.55898 258.74295,683.727552 259.025394,690.893624 C259.011647,691.492255 258.365526,691.857182 257.844379,691.537246 L239.864211,678.877268 C234.179094,674.314427 234.175344,666.488486 238.395754,661.988132 C240.645305,659.58986 243.878411,658.151396 247.212747,658.200137 Z M246.876564,659.698588 C242.183749,659.783571 237.737135,663.387853 236.976036,668.096915 C236.364908,671.873663 238.132056,675.90536 241.32517,678.047433 C241.32517,678.047433 241.468891,678.173658 241.468891,678.173658 L257.466955,689.436414 C257.204507,682.78274 256.984551,676.125316 256.679611,669.472891 C256.38592,664.55762 252.624169,659.956037 247.330224,659.704837 C247.179004,659.699838 247.027784,659.697338 246.876564,659.698588 Z" id="Shape" fill="#0E0E0E"></path>
                <path d="M405.892388,237.032783 C407.24087,237.067776 408.573104,237.316477 409.831604,237.782634 C409.831604,237.782634 409.989072,237.820126 410.257769,237.925105 L430.192548,247.208256 C430.841169,247.558186 430.88366,248.496749 430.23129,248.889171 C423.876306,252.214759 417.542568,255.582838 411.165088,258.865934 C405.363744,261.750359 397.482813,259.317094 395.012056,253.408271 C393.499857,249.792741 393.88603,245.403616 396.051849,242.144265 C398.10394,239.05738 401.734467,237.145261 405.457475,237.034033 C405.674932,237.031533 405.674932,237.031533 405.892388,237.032783 Z M405.494967,238.908659 C398.981265,239.102371 394.022253,246.750847 396.864187,252.965859 C399.050001,257.746157 405.53371,259.655777 410.456479,257.121281 L427.681798,248.106827 C427.681798,248.106827 410.207779,239.988444 410.207779,239.988444 C408.713076,239.35857 407.147138,238.889913 405.494967,238.908659 Z" id="Shape" fill="#E8F5FF"></path>
                <polygon id="Shape" fill="#0E0E0E" points="515.339336 232.07752 508.925614 264.491063 521.501859 238.011338"></polygon>
                <path d="M522.143876,373.84209 C522.065141,374.310747 522.378829,374.731913 522.87498,374.759407 L548.544851,374.759407 C549.058499,374.730663 549.128485,374.526953 549.219717,374.334492 C549.440922,373.875834 549.095991,373.29095 548.544851,373.259707 L522.87498,373.259707 C522.27135,373.29345 522.215111,373.595889 522.143876,373.84209 Z" id="Shape" fill="#0E0E0E" transform="translate(535.709659, 374.009557) scale(-1, 1) rotate(68.421341) translate(-535.709659, -374.009557) "></path>
                <path d="M507.047238,221.653347 C507.245949,221.729582 507.245949,221.730831 507.414665,221.860805 C523.274006,238.188803 539.140845,254.584287 554.993937,270.972272 L562.042533,278.26082 L568.462504,284.901998 C568.462504,284.901998 568.771193,284.996979 568.629971,285.676843 L541.396646,361.59672 L596.324454,379.221959 C596.324454,379.221959 596.606898,379.224459 596.785612,379.640626 C597.001819,380.149274 596.758118,380.800395 595.867045,380.649175 L540.200634,362.787733 C539.794465,362.595271 539.625749,362.280334 539.723229,361.820425 L567.060284,285.609357 C546.838062,264.689774 526.610841,243.77644 506.339879,222.905597 C506.339879,222.905597 505.68376,221.53587 507.047238,221.653347 Z" id="Shape" fill="#0E0E0E"></path>
                <path d="M591.883831,351.998537 C591.883831,351.998537 545.640526,351.989789 545.640526,351.989789 C544.828187,352.051027 544.731956,353.422004 545.640526,353.489491 L591.771353,353.489491 C592.551198,353.430753 592.79365,352.205996 591.883831,351.998537 Z" id="Shape" fill="#0E0E0E" transform="translate(568.731400, 352.739640) scale(-1, 1) rotate(-18.544910) translate(-568.731400, -352.739640) "></path>
                <path d="M526.529271,402.213033 C527.129836,402.289413 526.911831,402.198971 527.49266,403.282933 C531.255509,410.14619 537.097654,415.495823 543.702479,419.841257 L546.683571,421.728035 C546.835175,421.832394 546.927415,421.912843 547.080426,422.059372 C547.703889,422.657046 547.099887,424.434748 546.133273,423.410823 L545.462878,422.751688 C545.237427,422.560093 545.131876,422.52358 544.944991,422.408715 C537.076146,417.657696 530.155569,411.596802 525.809337,403.309277 L525.787328,402.917107 C525.811052,402.597194 525.955468,402.199924 526.529271,402.213033 Z" id="Path" fill="#0E0E0E"></path>
                <path d="M497.494141,83.8895392 C497.64911,80.6601825 508.64692,82.0249107 510.230354,84.2907093 C511.812539,86.5590075 507.477153,91.5355161 502.065731,89.3097095 C496.655558,87.0839029 497.494141,83.8895392 497.494141,83.8895392" id="Shape" fill="#0E0E0E"></path>
                <path d="M504.862673,66.9541627 C504.676461,67.9727098 505.350076,68.9512649 506.368623,69.1374778 C507.387171,69.3236907 508.364476,68.6488252 508.551939,67.6315278 C508.738151,66.6129807 508.064536,65.6356754 507.045989,65.4482127 C506.027441,65.2619998 505.048886,65.9368654 504.862673,66.9541627" id="Shape" fill="#0E0E0E"></path>
                <path d="M507.108476,61.4952502 C510.754,61.651469 513.787146,65.2232575 513.189765,68.8675316 C513.031046,69.8298399 511.580085,69.7723514 511.746302,68.3526342 C512.036244,65.3819759 509.175564,62.5375425 506.107425,63.0599385 C504.750196,63.2923922 504.101575,61.5802332 506.791039,61.4940004 C506.951007,61.4927507 506.949758,61.4927507 507.108476,61.4952502 Z" id="Shape" fill="#0E0E0E"></path>
                <path d="M488.872109,56.0438361 C492.520132,56.200055 495.549529,59.7705937 494.952148,63.4161175 C494.793429,64.3796756 493.342468,64.3196875 493.508685,62.9012201 C493.799877,59.9268126 490.937947,57.0861285 487.871058,57.6085244 C486.502581,57.8422278 485.865208,56.1288191 488.554672,56.0425863 C488.71339,56.0413366 488.71339,56.0413366 488.872109,56.0438361 Z" id="Shape" fill="#0E0E0E"></path>
                <path d="M485.676495,61.5777337 C485.489033,62.5962808 486.163898,63.5735862 487.182445,63.7610488 C488.200992,63.9472617 489.178298,63.2723961 489.364511,62.2550988 C489.551973,61.2365517 488.878358,60.2579966 487.85981,60.0717837 C486.841263,59.8855708 485.862708,60.5604364 485.676495,61.5777337" id="Shape" fill="#0E0E0E"></path>
                <path d="M544.650998,79.3829369 C544.650998,84.6543869 540.378099,88.9285354 535.105399,88.9285354 C529.833949,88.9285354 525.559801,84.6543869 525.559801,79.3829369 C525.559801,74.1102373 529.833949,69.8360887 535.105399,69.8360887 C540.378099,69.8360887 544.650998,74.1102373 544.650998,79.3829369" id="Shape" fill="#FCC7E9"></path>
                <path d="M535.237873,69.0886896 C541.970282,69.2162121 547.529174,77.113389 544.43854,83.7345701 C542.185239,88.5636081 535.90399,91.0281172 530.83375,88.7535703 C530.83375,88.7535703 530.420082,88.5123684 530.392588,88.122446 C530.352596,87.5375625 530.773762,87.1238949 531.874793,87.5675566 C536.630095,89.4059404 542.590158,86.365296 543.699937,81.2638123 C544.799718,76.2123185 540.691786,70.6221821 535.1004,70.587189 C535.1004,70.587189 534.624245,70.5334497 534.441781,70.1872687 C534.179334,69.688618 534.383043,69.0824888 535.237873,69.0886896 Z" id="Shape" fill="#0E0E0E"></path>
                <path d="M526.405882,66.9304175 L524.783705,75.6786748 C524.913679,77.7195183 526.240915,78.8430445 527.62064,77.334595 C530.142638,74.5763944 535.20038,69.9373185 536.50887,69.1674719 C537.401192,64.3609293 526.405882,66.9304175 526.405882,66.9304175" id="Shape" fill="#FF7401"></path>
                <path d="M539.348593,118.168442 C539.348593,117.557313 539.176128,117.406093 538.599993,117.362352 L494.186344,117.363602 C493.375256,117.42359 493.179045,118.787068 494.186344,118.863303 L538.599993,118.862053 C539.154882,118.820812 539.262361,118.737078 539.348593,118.168442 Z" id="Shape" fill="#0E0E0E" transform="translate(516.425534, 118.112828) scale(-1, 1) rotate(-105.688489) translate(-516.425534, -118.112828) "></path>
                <path d="M547.503184,211.862869 C547.584418,211.906611 547.645656,211.962849 547.919351,211.990344 L648.263084,211.990344 C649.090419,211.90786 649.279132,210.590623 648.263084,210.490643 L547.919351,210.490643 C546.865811,210.594372 547.099515,211.532935 547.503184,211.862869 Z" id="Shape" fill="#0E0E0E" transform="translate(598.059396, 211.240494) scale(-1, 1) rotate(131.838650) translate(-598.059396, -211.240494) "></path>
                <path d="M521.819296,239.064878 C522.355439,239.4598 522.25046,239.778486 522.25046,239.778486 L522.181723,240.06218 L502.87057,281.390197 C502.910562,281.820111 502.945555,282.248776 502.980548,282.67869 C504.602725,304.110671 502.938057,326.372487 494.131061,345.843608 C486.40635,362.921456 477.004473,379.184467 467.808805,395.568703 C450.970909,425.566477 433.618115,455.251814 416.051615,484.792179 L415.32051,486.019435 L376.212051,679.172209 L376.108321,709.444929 L375.887115,709.974823 C375.332226,710.34225 375.068528,710.134791 375.068528,710.134791 L374.60862,709.43993 L374.712349,679.093475 L374.727346,678.947254 L413.875798,485.597019 L413.96703,485.362066 C438.189705,444.693917 462.673577,403.683336 484.859158,361.185552 C488.792125,353.650803 492.850066,346.1373 495.638261,338.091402 C501.86952,320.103735 503.148015,300.392662 501.36712,281.42769 C501.36712,281.42769 501.279637,281.407694 501.424608,280.941536 L520.821994,239.427306 L521.535602,238.996142 C521.629334,239.018638 521.724315,239.042383 521.819296,239.064878 Z" id="Shape" fill="#0E0E0E"></path>
                <path d="M335.75261,380.47171 C336.329995,380.764152 336.577446,381.17532 335.965068,381.791447 L256.900817,439.534945 L177.414151,589.463829 C177.414151,589.463829 177.304173,589.971228 176.623059,589.851252 C176.198143,589.777516 175.828217,589.522567 176.089415,588.761469 L255.657315,438.680115 C255.752296,438.540143 255.753546,438.540143 255.877271,438.425166 L335.080244,380.579189 C335.320196,380.456713 335.176475,380.381728 335.75261,380.47171 Z" id="Shape" fill="#0E0E0E"></path>
                <path d="M489.75179,122.396952 C489.835524,122.4107 489.835524,122.4107 489.919257,122.415699 L515.112984,122.415699 C515.939069,122.369458 516.192769,120.977235 515.112984,120.915997 L489.919257,120.915997 C489.138163,120.959739 488.823225,122.129506 489.75179,122.396952 Z" id="Shape" fill="#0E0E0E" transform="translate(502.506362, 121.665848) scale(-1, 1) rotate(162.756031) translate(-502.506362, -121.665848) "></path>
                <path d="M6.12715967,596.413039 L6.28337853,596.429286 L108.346784,596.429286 C109.179118,596.341803 109.346585,595.034564 108.346784,594.929585 L6.28337853,594.929585 C5.50478373,595.010818 5.23983654,596.124347 6.12715967,596.413039 Z" id="Shape" fill="#0E0E0E" transform="translate(57.302994, 595.679435) scale(-1, 1) rotate(153.275238) translate(-57.302994, -595.679435) "></path>
                <path d="M119.928953,635.944582 C119.981443,635.960829 120.020185,635.983324 120.1939,635.993322 L151.542665,635.993322 C152.086307,635.960829 152.160042,635.728375 152.243776,635.509668 C152.416242,635.054759 152.080058,634.526114 151.542665,634.49362 L120.1939,634.49362 C119.460296,634.538611 119.164105,635.6009 119.928953,635.944582 Z" id="Shape" fill="#0E0E0E" transform="translate(135.884776, 635.243471) scale(-1, 1) rotate(153.275571) translate(-135.884776, -635.243471) "></path>
                <polygon id="Shape" fill="#E8F5FF" transform="translate(240.976075, 219.999027) scale(-1, 1) rotate(-132.316570) translate(-240.976075, -219.999027) " points="211.548204 238.550321 269.401646 238.550321 270.403946 201.447733 216.309752 202.437536"></polygon>
                <path d="M275.58895,210.672106 L237.458412,251.045317 L206.316993,229.397119 L246.332307,185.446404 L275.58895,210.672106 L275.58895,210.672106 Z M208.576913,229.142574 L237.254677,249.076728 L273.42136,210.782545 L246.458526,187.535404 L208.576913,229.142574 L208.576913,229.142574 Z" id="Shape" fill="#FFDE03"></path>
                <path d="M247.208998,184.696958 C247.638912,184.810686 247.687653,184.909416 247.682975,185.319334 L244.470793,219.811214 C244.428302,220.038668 244.390809,220.189888 244.044628,220.316113 L208.226763,229.956693 C207.586891,230.07292 207.230712,229.090615 207.926823,228.839415 L243.356016,219.303815 C243.356016,219.303815 246.549129,185.118124 246.549129,185.118124 C246.6966,184.703207 246.762837,184.654467 247.208998,184.696958 Z" id="Shape" fill="#FFDE03"></path>
                <path d="M302.814014,194.396213 C302.140398,195.198553 302.662794,195.608471 303.295168,195.719699 L592.378727,195.719699 C593.769699,195.474748 593.369779,194.394963 592.378727,194.219998 L303.295168,194.219998 C303.295168,194.219998 303.061465,194.252491 302.814014,194.396213 Z" id="Shape" fill="#E8F5FF" transform="translate(447.888516, 194.969848) scale(-1, 1) rotate(28.759699) translate(-447.888516, -194.969848) "></path>
                <path d="M251.747973,318.556812 C250.721927,319.147944 251.050612,319.842806 252.004172,320.011522 L542.398863,320.010272 C543.789836,319.765321 543.391166,318.685536 542.398863,318.510571 L252.004172,318.511821 C251.917939,318.526818 251.832956,318.541815 251.747973,318.556812 Z" id="Shape" fill="#E8F5FF" transform="translate(397.208281, 319.261046) scale(-1, 1) rotate(6.613891) translate(-397.208281, -319.261046) "></path>
            </g>
            <g transform="translate(256.198965, 151.219877)" id="Shape">
                <polygon fill="#E8F5FF" transform="translate(126.995280, 189.534420) scale(-1, 1) rotate(-124.949212) translate(-126.995280, -189.534420) " points="94.641731 212.67668 165.577588 212.67668 159.150119 167.596919 88.4129728 166.392159"></polygon>
                <path d="M130.963912,143.443926 C131.470061,143.588897 131.502555,143.681379 131.533798,144.148786 L130.67272,191.36563 C130.626479,191.844285 130.562742,191.883027 130.157823,192.032997 L89.7771164,203.341994 C89.0135185,203.485716 88.5636081,202.297202 89.3971921,201.982265 L129.271749,190.81574 C129.271749,190.81574 130.136577,144.001315 130.136577,144.001315 C130.292796,143.456424 130.397775,143.383938 130.963912,143.443926 Z" fill="#FFDE03"></path>
                <polygon fill="#E8F5FF" transform="translate(184.915286, 171.864941) scale(-1, 1) rotate(-137.675683) translate(-184.915286, -171.864941) " points="134.772801 204.412816 237.222338 204.412816 232.869457 139.577015 132.608233 139.317067"></polygon>
                <path d="M202.980816,111.049129 C203.8169,111.231593 203.944374,111.490291 203.840645,112.273885 L190.789495,172.020733 C190.589535,172.661856 190.344583,172.713096 189.947163,172.808077 L126.25485,182.409914 C125.153819,182.483649 124.518946,180.738997 125.95241,180.400314 L188.952361,170.902206 L201.853541,111.838972 C201.853541,111.838972 202.182225,111.009137 202.980816,111.049129 Z" fill="#FFDE03"></path>
                <polygon fill="#E8F5FF" transform="translate(311.447746, 57.897752) scale(-1, 1) rotate(-137.675722) translate(-311.447746, -57.897752) " points="266.569176 87.0294548 358.264679 87.0294548 354.370454 29.0010022 264.630812 28.7660489"></polygon>
                <path d="M327.617239,3.46430991 C328.36459,3.6280273 328.479567,3.85923124 328.385836,4.56034158 L316.703163,58.0359393 C316.595684,58.3821203 316.509451,58.6070755 315.950813,58.7420486 L258.944668,67.3365866 C257.993608,67.4003239 257.483709,65.818139 258.672223,65.5369451 L315.05974,57.0361384 L326.60869,4.17291876 C326.60869,4.17291876 326.769907,3.42306813 327.617239,3.46430991 Z" fill="#FFDE03"></path>
                <polygon fill="#E8F5FF" transform="translate(515.731929, 93.914679) scale(-1, 1) rotate(-149.955450) translate(-515.731929, -93.914679) " points="478.120063 118.329805 554.968471 118.329805 551.704123 69.6957642 476.495387 69.4995534"></polygon>
                <path d="M538.533974,52.1833551 C539.227586,52.3570705 539.332565,52.6270167 539.112609,53.2543917 L520.013913,94.964833 C519.863943,95.2285305 519.752715,95.3972469 519.271561,95.4084946 L471.056166,92.284117 C470.227581,92.1528932 470.135099,90.7906645 471.153646,90.7619202 L518.845396,93.8525546 L537.725385,52.6195182 C537.725385,52.6195182 538.009079,52.1521113 538.533974,52.1833551 Z" fill="#FFDE03"></path>
                <polygon fill="#E8F5FF" transform="translate(623.847257, 142.519515) scale(-1, 1) rotate(-160.959284) translate(-623.847257, -142.519515) " points="592.121076 163.112914 656.941915 163.112914 654.188714 122.091084 590.752599 121.926117"></polygon>
                <path d="M649.328154,111.609018 C649.963027,111.772735 650.056759,112.091421 649.74807,112.618816 L627.221308,144.0788 C627.055091,144.272511 626.936364,144.394987 626.535194,144.32625 L587.116796,133.978312 C586.454428,133.73586 586.64689,132.602336 587.444231,132.733559 L626.433964,142.969021 C626.433964,142.969021 648.780763,111.780233 648.780763,111.780233 C648.933233,111.657758 649.118196,111.59527 649.328154,111.609018 Z" fill="#FFDE03"></path>
                <polygon fill="#E8F5FF" transform="translate(50.226023, 170.156575) scale(-1, 1) rotate(-127.486882) translate(-50.226023, -170.156575) " points="6.64656238 196.010184 96.799888 196.010184 92.6519627 144.350455 3.65215773 144.302965"></polygon>
                <path d="M59.1807112,115.986895 C59.7780922,116.201853 59.809336,116.31433 59.8118355,116.880467 L55.2964849,170.695997 C55.2077526,171.222143 55.0290382,171.293378 54.734097,171.427102 L3.60428203,189.640974 C2.675717,189.882176 1.98710417,188.516198 3.03189605,188.036293 L53.6455638,170.007385 L58.1146736,116.737996 C58.1146736,116.737996 58.2608944,115.828177 59.1807112,115.986895 Z" fill="#FFDE03"></path>
                <path d="M252.021891,210.370622 C251.890667,210.873022 252.211854,211.320433 252.7305,211.355426 C264.120735,211.397918 275.465979,211.362925 286.82622,211.355426 C286.82622,211.355426 287.272381,211.301687 287.458594,211.006745 C287.751036,210.545587 287.524831,209.899466 286.82497,209.855724 C275.468479,209.863223 264.115736,209.898216 252.736749,209.855724 C252.736749,209.855724 252.233099,209.840727 252.021891,210.370622 Z" fill="#0E0E0E" transform="translate(269.787904, 210.615886) scale(-1, 1) rotate(67.920120) translate(-269.787904, -210.615886) "></path>
                <polygon fill="#E8F5FF" transform="translate(499.702945, 326.905877) scale(-1, 1) rotate(-179.644438) translate(-499.702945, -326.905877) " points="452.717917 357.447926 550.994616 357.447926 546.416776 296.446311 448.411274 296.363828"></polygon>
                <path d="M547.305651,357.82048 L447.801625,358.520469 L451.826037,295.910489 L551.608014,295.291262 L547.305651,357.82048 L547.305651,357.82048 Z M453.232538,297.401491 L449.40071,357.009565 L545.905405,356.330689 L550.001423,296.800962 L453.232538,297.401491 L453.232538,297.401491 Z" fill="#FFDE03"></path>
                <path d="M552.168758,295.471142 C552.954851,295.713594 553.346024,296.542179 552.50994,297.223293 L500.339083,331.791407 C499.99915,331.97762 499.761698,332.085099 499.235552,331.766412 L452.186175,297.437001 C451.396332,296.733391 452.237414,295.236189 453.325948,295.877311 L499.831684,329.810552 L551.442653,295.613614 C551.442653,295.613614 551.645112,295.418653 552.168758,295.471142 Z" fill="#FFDE03"></path>
                <path d="M462.266489,112.009056 C461.75659,112.802649 462.045283,113.136332 462.833876,113.24881 L657.825134,113.24881 C658.213807,113.193821 658.302539,113.093841 658.392521,112.990111 C658.768696,112.556447 658.490002,111.845339 657.825134,111.749108 L462.833876,111.749108 C462.591425,111.784101 462.671409,111.657876 462.266489,112.009056 Z" fill="#E8F5FF" transform="translate(560.286597, 112.498959) scale(-1, 1) rotate(28.759672) translate(-560.286597, -112.498959) "></path>
                <path d="M429.534221,72.977703 C428.925592,73.7188055 429.585461,74.2112076 430.064116,74.2574484 L533.178606,74.2574484 C534.01344,74.1762146 534.134666,72.8527278 533.178606,72.7577467 L430.064116,72.7577467 C429.957887,72.7689945 429.816665,72.7464989 429.534221,72.977703 Z" fill="#E8F5FF" transform="translate(481.570167, 73.507598) scale(-1, 1) rotate(36.937667) translate(-481.570167, -73.507598) "></path>
                <path d="M119.987547,74.3527729 C119.658862,75.1476148 119.912562,75.3813183 120.637417,75.4775491 L322.647227,75.4762994 C323.189619,75.4050636 323.199617,75.2700904 323.297098,75.101374 C323.559546,74.6464645 323.240859,74.0553321 322.647227,73.9765977 L120.637417,73.9778475 C120.496196,73.995344 120.336227,73.8978634 119.987547,74.3527729 Z" fill="#E8F5FF" transform="translate(221.617844, 74.727073) scale(-1, 1) rotate(43.798544) translate(-221.617844, -74.727073) "></path>
                <polygon fill="#E8F5FF" transform="translate(214.958190, 39.736463) scale(-1, 1) rotate(-137.675803) translate(-214.958190, -39.736463) " points="182.986425 60.4898349 248.31093 60.4898349 245.536482 19.1493087 181.605449 18.9830918"></polygon>
                <path d="M226.477386,0.957309304 C227.00978,1.07353615 227.092263,1.23850329 227.026026,1.73840371 L218.703934,39.8358147 C218.62645,40.0820157 218.565212,40.2419838 218.166541,40.3382146 L177.554631,46.4594953 C176.827276,46.5082356 176.55483,45.3684626 177.362169,45.1772507 L217.532917,39.1234566 C217.532917,39.1234566 225.791272,1.35847939 225.791272,1.35847939 C225.909999,1.12102669 225.996232,0.933564034 226.477386,0.957309304 Z" fill="#FFDE03"></path>
            </g>
        </g>
    </g>
</svg>