<?xml version="1.0" encoding="UTF-8"?>
<svg width="635px" height="684px" viewBox="0 0 635 684" version="1.1" xmlns="http://www.w3.org/2000/svg" xmlns:xlink="http://www.w3.org/1999/xlink">
    <title>Instagram post</title>
    <defs>
        <polygon id="path-1" points="1.17792949 0.995652214 264.854872 0.995652214 264.854872 486.999543 1.17792949 486.999543"></polygon>
        <polygon id="path-3" points="0 0.913962791 184.117025 0.913962791 184.117025 70.6968 0 70.6968"></polygon>
    </defs>
    <g id="Page-1" stroke="none" stroke-width="1" fill="none" fill-rule="evenodd">
        <g id="Instagram-post" transform="translate(-183.000000, -158.000000)">
            <g transform="translate(183.000000, 158.000000)">
                <g id="Сharacter" transform="translate(55.000000, 0.000000)">
                    <polygon id="Shape" fill="#FFFFFF" points="2 546 423 546 423 2 2 2"></polygon>
                    <g id="Group">
                        <path d="M3.54623656,544.038714 L421.36922,544.038714 L421.36922,3.0870332 L3.54623656,3.0870332 L3.54623656,544.038714 Z M422.88871,547.079502 L2.02446237,547.079502 C1.1858871,547.079502 0.504973118,546.398183 0.504973118,545.559108 L0.504973118,1.566639 C0.504973118,0.725278008 1.1858871,0.0462448133 2.02446237,0.0462448133 L422.88871,0.0462448133 C423.727285,0.0462448133 424.408199,0.725278008 424.408199,1.566639 L424.408199,545.559108 C424.408199,546.398183 423.727285,547.079502 422.88871,547.079502 L422.88871,547.079502 Z" id="Shape" fill="#000000"></path>
                        <polygon id="Shape" fill="#FFBE00" points="52.1401882 408.657328 375.370968 408.657328 375.370968 57.8989585 52.1401882 57.8989585"></polygon>
                        <path d="M53.6596774,407.134647 L373.851478,407.134647 L373.851478,59.4193527 L53.6596774,59.4193527 L53.6596774,407.134647 Z M375.370968,410.175436 L52.1401882,410.175436 C51.299328,410.175436 50.6206989,409.494116 50.6206989,408.655041 L50.6206989,57.8989585 C50.6206989,57.0598838 51.299328,56.3785643 52.1401882,56.3785643 L375.370968,56.3785643 C376.209543,56.3785643 376.890457,57.0598838 376.890457,57.8989585 L376.890457,408.655041 C376.890457,409.494116 376.209543,410.175436 375.370968,410.175436 L375.370968,410.175436 Z" id="Shape" fill="#000000"></path>
                        <path d="M329.964516,298.499853 C319.935887,293.780915 331.728495,277.024571 337.589382,270.378276 C339.216263,268.53094 340.726613,262.950065 342.390054,264.765393 C347.483199,270.307401 336.40578,301.536069 329.964516,298.499853" id="Shape" fill="#FFFFFF"></path>
                        <path d="M197.983051,103.334281 C190.049718,108.290995 184.131707,57.7430324 196.257917,83.1919162 C197.548911,85.8989037 199.598508,88.4481361 199.854422,91.4363394 C200.197164,95.4373768 201.387621,101.208016 197.983051,103.334281" id="Shape" fill="#FFFFFF"></path>
                        <path d="M345.247379,111.002555 C337.314046,115.956983 331.396035,65.4113062 343.522245,90.8579037 C344.815524,93.5648913 346.862836,96.11641 347.11875,99.102327 C347.461492,103.103364 348.651949,108.87629 345.247379,111.002555" id="Shape" fill="#FFFFFF"></path>
                        <path d="M315.377876,386.245803 C307.444543,391.20023 301.526532,340.65684 313.652742,366.103438 C314.946022,368.808139 316.993333,371.359658 317.249247,374.347861 C317.594274,378.346612 318.782446,384.119537 315.377876,386.245803" id="Shape" fill="#FFFFFF"></path>
                        <path d="M74.1341667,439.76848 C74.1341667,439.76848 78.6332258,427.907119 90.229328,433.776069 C95.7154839,436.553932 94.5090323,443.09277 91.8562097,448.783388 C89.2011022,454.474007 74.1250269,470.00489 74.1250269,470.00489 C74.1250269,470.00489 54.1568817,454.490011 52.0067473,445.59399 C49.8566129,436.697969 54.7875269,432.440866 61.9919624,432.061339 C69.1963978,431.681812 74.1341667,439.76848 74.1341667,439.76848" id="Shape" fill="#FF0E11"></path>
                        <path d="M114.493401,452.557624 C114.493401,442.541313 122.81746,434.42035 133.088293,434.42035 C143.359126,434.42035 151.68547,442.541313 151.68547,452.557624 C151.68547,462.578508 143.359126,470.697184 133.088293,470.697184 C122.81746,470.697184 114.493401,462.578508 114.493401,452.557624" id="Shape" fill="#FFFFFF"></path>
                        <path d="M133.087608,435.941659 C123.671344,435.941659 116.012204,443.39502 116.012204,452.558539 C116.012204,461.719771 123.671344,469.175418 133.087608,469.175418 C142.503871,469.175418 150.165296,461.719771 150.165296,452.558539 C150.165296,443.39502 142.503871,435.941659 133.087608,435.941659 M133.087608,472.216207 C121.996478,472.216207 112.973226,463.39792 112.973226,452.558539 C112.973226,441.716871 121.996478,432.900871 133.087608,432.900871 C144.178737,432.900871 153.204274,441.716871 153.204274,452.558539 C153.204274,463.39792 144.178737,472.216207 133.087608,472.216207" id="Shape" fill="#000000"></path>
                        <polyline id="Shape" fill="#FFFFFF" points="149.371048 458.659549 154.372796 469.919611 141.24578 467.413819"></polyline>
                        <path d="M154.372796,471.439777 C154.276828,471.439777 154.183145,471.430632 154.087177,471.412341 L140.960161,468.908835 C140.137581,468.748793 139.596048,467.955445 139.75371,467.127802 C139.909086,466.304731 140.708817,465.772022 141.529113,465.920632 L151.804516,467.879997 L147.981801,459.27891 C147.641344,458.51071 147.986371,457.609905 148.754113,457.271532 C149.521855,456.930872 150.419839,457.276105 150.760296,458.042017 L155.762043,469.299793 C155.990538,469.818785 155.915134,470.42237 155.563253,470.863627 C155.273065,471.231723 154.83207,471.439777 154.372796,471.439777" id="Shape" fill="#000000"></path>
                        <polygon id="Shape" fill="#FFFFFF" points="174.809126 435.673704 212.412487 434.743177 192.624852 469.136094 189.186008 450.059148"></polygon>
                        <path d="M178.38918,437.104932 L190.259476,448.982297 C190.478831,449.204069 190.625067,449.485285 190.679906,449.789363 L193.382997,464.77382 L209.745497,436.329874 L178.38918,437.104932 Z M192.624395,470.656488 C192.537567,470.656488 192.450739,470.649629 192.363911,470.633625 C191.735551,470.523882 191.242003,470.032326 191.13004,469.405878 L187.773454,450.797625 L173.734745,436.750554 C173.305175,436.318442 173.172648,435.673704 173.396573,435.108986 C173.625067,434.544268 174.164315,434.169314 174.77211,434.15331 L212.37547,433.222783 C212.942137,433.193061 213.43797,433.492567 213.719019,433.965832 C213.997782,434.436812 214.002352,435.024393 213.728159,435.502231 L193.940524,469.895148 C193.666331,470.3707 193.161358,470.656488 192.624395,470.656488 L192.624395,470.656488 Z" id="Shape" fill="#000000"></path>
                        <line x1="188.559933" y1="449.121533" x2="211.064368" y2="435.673475" id="Shape" fill="#FFFFFF"></line>
                        <path d="M188.561075,450.641927 C188.044677,450.641927 187.539704,450.379002 187.256371,449.901164 C186.824516,449.178691 187.059866,448.245878 187.781909,447.816052 L210.286344,434.367994 C211.003817,433.940454 211.93836,434.171371 212.36793,434.893844 C212.799785,435.616317 212.564435,436.549131 211.842392,436.978956 L189.337957,450.427015 C189.095753,450.573338 188.826129,450.641927 188.561075,450.641927" id="Shape" fill="#000000"></path>
                        <path d="M233.635296,453.805719 C233.635296,451.722893 235.34672,450.033312 237.458011,450.033312 C239.571586,450.033312 241.283011,451.722893 241.283011,453.805719 C241.283011,455.893117 239.571586,457.582698 237.458011,457.582698 C235.34672,457.582698 233.635296,455.893117 233.635296,453.805719" id="Shape" fill="#FFFFFF"></path>
                        <path d="M237.457554,451.552792 C236.187124,451.552792 235.154328,452.56334 235.154328,453.804805 C235.154328,455.048556 236.187124,456.063676 237.457554,456.063676 C238.727984,456.063676 239.763065,455.048556 239.763065,453.804805 C239.763065,452.56334 238.727984,451.552792 237.457554,451.552792 M237.457554,459.104464 C234.512258,459.104464 232.115349,456.726705 232.115349,453.804805 C232.115349,450.887477 234.512258,448.512004 237.457554,448.512004 C240.405134,448.512004 242.802043,450.887477 242.802043,453.804805 C242.802043,456.726705 240.405134,459.104464 237.457554,459.104464" id="Shape" fill="#000000"></path>
                        <path d="M251.089086,454.026805 C251.089086,451.941693 252.800511,450.252112 254.911801,450.252112 C257.025376,450.252112 258.736801,451.941693 258.736801,454.026805 C258.736801,456.114203 257.025376,457.801498 254.911801,457.801498 C252.800511,457.801498 251.089086,456.114203 251.089086,454.026805" id="Shape" fill="#FFFFFF"></path>
                        <path d="M254.912715,451.771592 C253.642285,451.771592 252.609489,452.782139 252.609489,454.02589 C252.609489,455.269641 253.642285,456.282476 254.912715,456.282476 C256.183145,456.282476 257.215941,455.269641 257.215941,454.02589 C257.215941,452.782139 256.183145,451.771592 254.912715,451.771592 M254.912715,459.323264 C251.965134,459.323264 249.570511,456.947791 249.570511,454.02589 C249.570511,451.106276 251.965134,448.730803 254.912715,448.730803 C257.860296,448.730803 260.254919,451.106276 260.254919,454.02589 C260.254919,456.947791 257.860296,459.323264 254.912715,459.323264" id="Shape" fill="#000000"></path>
                        <path d="M268.543105,454.245605 C268.543105,452.160493 270.25453,450.470912 272.37039,450.470912 C274.48168,450.470912 276.193105,452.160493 276.193105,454.245605 C276.193105,456.333003 274.48168,458.022584 272.37039,458.022584 C270.25453,458.022584 268.543105,456.333003 268.543105,454.245605" id="Shape" fill="#000000"></path>
                        <path d="M272.369933,451.990391 C271.097218,451.990391 270.062137,453.000939 270.062137,454.24469 C270.062137,455.488441 271.097218,456.503561 272.369933,456.503561 C273.640363,456.503561 274.673159,455.488441 274.673159,454.24469 C274.673159,453.000939 273.640363,451.990391 272.369933,451.990391 M272.369933,459.54435 C269.422352,459.54435 267.023159,457.16659 267.023159,454.24469 C267.023159,451.325076 269.422352,448.949603 272.369933,448.949603 C275.315228,448.949603 277.712137,451.325076 277.712137,454.24469 C277.712137,457.16659 275.315228,459.54435 272.369933,459.54435" id="Shape" fill="#000000"></path>
                        <path d="M285.999409,454.466462 C285.999409,452.38135 287.710833,450.691769 289.824409,450.691769 C291.935699,450.691769 293.647124,452.38135 293.647124,454.466462 C293.647124,456.551574 291.935699,458.241155 289.824409,458.241155 C287.710833,458.241155 285.999409,456.551574 285.999409,454.466462" id="Shape" fill="#FFFFFF"></path>
                        <path d="M289.823952,452.211477 C288.551237,452.211477 287.518441,453.222025 287.518441,454.465776 C287.518441,455.709527 288.551237,456.722361 289.823952,456.722361 C291.094382,456.722361 292.127177,455.709527 292.127177,454.465776 C292.127177,453.222025 291.094382,452.211477 289.823952,452.211477 M289.823952,459.763149 C286.876371,459.763149 284.479462,457.387676 284.479462,454.465776 C284.479462,451.546162 286.876371,449.170689 289.823952,449.170689 C292.769247,449.170689 295.166156,451.546162 295.166156,454.465776 C295.166156,457.387676 292.769247,459.763149 289.823952,459.763149" id="Shape" fill="#000000"></path>
                        <path d="M303.453199,454.687548 C303.453199,452.600149 305.166909,450.910568 307.278199,450.910568 C309.391774,450.910568 311.105484,452.600149 311.105484,454.687548 C311.105484,456.77266 309.391774,458.459954 307.278199,458.459954 C305.166909,458.459954 303.453199,456.77266 303.453199,454.687548" id="Shape" fill="#FFFFFF"></path>
                        <path d="M307.27797,452.430277 C306.005255,452.430277 304.97246,453.443111 304.97246,454.686862 C304.97246,455.928327 306.005255,456.941161 307.27797,456.941161 C308.550685,456.941161 309.585766,455.928327 309.585766,454.686862 C309.585766,453.443111 308.550685,452.430277 307.27797,452.430277 M307.27797,459.981949 C304.33039,459.981949 301.933481,457.606476 301.933481,454.686862 C301.933481,451.767248 304.33039,449.389488 307.27797,449.389488 C310.225551,449.389488 312.624745,451.767248 312.624745,454.686862 C312.624745,457.606476 310.225551,459.981949 307.27797,459.981949" id="Shape" fill="#000000"></path>
                        <path d="M63.7381183,490.768445 L229.986237,490.768445 C233.968898,490.768445 237.195242,493.998997 237.195242,497.98403 C237.195242,501.966777 233.968898,505.199615 229.986237,505.199615 L63.7381183,505.199615 C59.7577419,505.199615 56.5291129,501.966777 56.5291129,497.98403 C56.5291129,493.998997 59.7577419,490.768445 63.7381183,490.768445" id="Shape" fill="#000000"></path>
                        <path d="M128.82664,315.97204 C126.379462,314.995787 123.724355,316.404152 121.224624,317.080899 C109.763333,320.178845 116.851237,334.1116 129.452715,322.053617 C132.722473,318.928235 133.26172,317.739356 128.82664,315.97204" id="Shape" fill="#FFFFFF"></path>
                        <path d="M84.3908333,288.549616 C79.0988978,294.251666 75.9388172,285.481392 74.2159677,277.845127 C71.4329032,265.503641 94.4491667,277.710234 84.3908333,288.549616" id="Shape" fill="#FFFFFF"></path>
                        <path d="M119.035417,270.293912 C115.283535,272.838571 113.999395,262.195812 113.983401,257.662065 C113.933132,242.387248 123.932056,250.057808 123.059207,260.972638 C122.561089,267.195966 123.813239,267.056501 119.035417,270.293912" id="Shape" fill="#FFFFFF"></path>
                        <path d="M75.503078,364.483361 C61.0393683,369.039971 79.8033468,337.683269 80.7835887,347.393215 C81.1743145,351.268506 80.4591263,356.77622 78.6128898,360.029634 C77.6989113,361.639195 77.0179973,364.007809 75.503078,364.483361" id="Shape" fill="#FFFFFF"></path>
                        <path d="M324.127164,150.740401 C322.123266,149.597247 323.112648,145.952874 323.985497,143.819749 C334.886976,117.204849 338.510901,158.932239 324.127164,150.740401" id="Shape" fill="#FFFFFF"></path>
                        <polyline id="Shape" fill="#FFFFFF" points="302.433427 189.718278 305.045121 185.650938 305.997944 184.933037 313.136116 180.134079 316.234503 179.884871 317.669449 180.598199 317.678589 182.982817 317.687728 185.369722 316.026573 188.716876 313.410309 190.397311 307.218105 193.282631 304.359637 194.247452"></polyline>
                        <path d="M357.479839,172.942729 C344.446505,179.047168 354.150672,141.490002 356.947446,156.595633 C357.440995,159.26604 357.603226,161.993604 357.690054,164.707451 C357.779167,167.453305 359.96586,171.778998 357.479839,172.942729" id="Shape" fill="#FFFFFF"></path>
                        <path d="M260.740013,84.3371274 C256.20668,85.7706419 259.645524,74.1904967 262.120121,70.1300154 C266.050228,63.694061 275.423078,79.6913515 260.740013,84.3371274" id="Shape" fill="#FFFFFF"></path>
                        <path d="M75.2464785,158.932239 C70.7131452,160.36804 74.1519892,148.787895 76.628871,144.727413 C80.5589785,138.289173 89.929543,154.286463 75.2464785,158.932239" id="Shape" fill="#FFFFFF"></path>
                        <path d="M116.49707,189.511596 C108.390081,192.863322 110.585914,178.169227 115.128387,172.451173 C118.907688,167.688795 123.450161,186.635422 116.49707,189.511596" id="Shape" fill="#FFFFFF"></path>
                        <path d="M86.4838441,94.511651 C82.4143548,94.7402817 81.470672,91.3062485 83.1204032,86.8845307 C92.4041398,61.9912195 97.8811559,93.8691988 86.4838441,94.511651" id="Shape" fill="#FDFDFD"></path>
                        <polyline id="Shape" fill="#FFFFFF" points="85.6939382 215.03387 82.5818414 211.702721 81.622164 210.036003 78.7248522 200.259754 80.1483737 197.390439 81.0989113 196.672538 84.681707 197.852273 86.3565726 199.278928 88.760336 205.237044 89.9622177 207.621663"></polyline>
                        <polyline id="Shape" fill="#FFFFFF" points="109.283038 137.384252 110.468925 134.995061 111.890161 132.125746 119.748091 128.280178 123.570806 130.175526 123.824435 134.471497 120.02457 139.734576 114.789758 143.095447"></polyline>
                        <path d="M282.884341,122.239754 C277.078293,120.195796 278.716599,114.594344 285.226411,109.102634 C293.303696,102.291725 294.720363,126.40312 282.884341,122.239754" id="Shape" fill="#FFFFFF"></path>
                        <path d="M141.642675,92.8213842 C139.206922,92.142351 137.321841,90.1075378 135.544153,88.3059278 C125.990793,78.6325627 151.867809,70.5024548 146.52789,91.3718656 C146.10746,93.0180066 143.278696,93.2786456 141.642675,92.8213842" id="Shape" fill="#FFFFFF"></path>
                        <path d="M107.679691,391.925904 C106.185336,391.100547 105.029153,388.624477 103.939234,386.434195 C98.0760618,374.666572 113.951868,364.778294 110.67754,390.163161 C110.417056,392.16368 108.682782,392.481477 107.679691,391.925904" id="Shape" fill="#FFFFFF"></path>
                    </g>
                    <g id="Group" transform="translate(118.000000, 66.000000)">
                        <path d="M158.988652,134.758414 C180.472328,139.23656 176.631632,223.731858 185.443983,227.051626 C219.226566,239.77093 275.308487,246.903977 306.76746,253.264772 C338.224149,259.620997 344.795142,298.875599 338.336103,301.690434 C334.607361,303.312619 328.20544,283.729871 303.726434,276.861858 C279.249712,269.989275 172.190043,279.233447 139.268818,261.615599 C106.345308,244.002321 145.197791,177.620666 145.197791,177.620666 C145.197791,177.620666 137.502692,130.277983 158.988652,134.758414" id="Shape" fill="#FFFFFF"></path>
                        <path d="M156.246474,135.976652 C154.105646,135.976652 152.321242,136.680361 150.833858,138.103772 C141.838725,146.703639 146.648162,177.070493 146.696142,177.376652 C146.755546,177.723937 146.687003,178.082646 146.508791,178.38652 C146.259752,178.811487 121.762467,221.11854 128.829255,246.161884 C130.627368,252.529533 134.381242,257.279566 139.985778,260.277182 C160.011772,270.99503 208.976639,271.621056 248.320348,272.128275 C273.153493,272.445858 294.600613,272.722315 304.137235,275.397778 C320.706374,280.049566 329.112036,290.228209 334.131672,296.310262 C335.536805,298.007844 337.277798,300.121255 337.924387,300.26748 C338.363063,300.020725 339.482599,297.681123 338.902268,292.218242 C337.55654,279.521785 327.807434,259.066255 306.465414,254.752613 C298.020911,253.045891 287.650348,251.256917 276.669752,249.362844 C246.846672,244.219831 209.732897,237.820195 184.908891,228.473209 C180.807732,226.928705 179.434586,216.309103 177.170381,196.095758 C174.460646,171.900063 170.747897,138.761785 158.677467,136.246255 C157.818394,136.068043 157.009586,135.976652 156.246474,135.976652 M337.85356,303.31993 C335.98005,303.31993 334.232202,301.204235 331.789785,298.24546 C326.994056,292.437579 318.96995,282.718175 303.314719,278.326851 C294.161937,275.756487 272.902169,275.482315 248.281507,275.167017 C208.606507,274.655228 159.232666,274.022348 138.550944,262.95493 C132.190149,259.552911 127.935911,254.179136 125.904752,246.984401 C118.817401,221.865659 140.742036,182.341454 143.61399,177.324103 C142.955977,172.937348 139.195248,145.031189 148.734156,135.908109 C151.491871,133.269202 155.042401,132.382712 159.298924,133.271487 C173.523891,136.234831 177.220646,169.240593 180.190844,195.759897 C181.632533,208.639136 183.428361,224.66907 185.980447,225.630957 C210.534851,234.875129 247.493262,241.247348 277.188394,246.369798 C288.187268,248.266156 298.580679,250.059699 307.068593,251.77556 C330.012235,256.411354 340.485613,278.310858 341.927301,291.898374 C342.562467,297.902745 341.474917,301.978772 338.943394,303.082315 C338.573262,303.244533 338.212268,303.31993 337.85356,303.31993" id="Shape" fill="#000000"></path>
                        <path d="M114.563848,21.9479834 C73.801298,-10.1301623 61.509245,44.7773874 46.4092119,60.533149 C32.3373245,75.2173543 19.8693444,86.7097384 14.3539139,95.4581159 C34.5718278,93.5823212 75.1287483,118.285235 108.87706,117.567818 C142.623086,116.852685 182.464874,107.807288 182.464874,107.807288 C182.464874,107.807288 176.935735,74.6438775 130.296762,58.7510298" id="Shape" fill="#000000"></path>
                        <path d="M122.585212,118.296659 C117.586139,108.458447 116.69051,102.598017 114.940377,94.9097715 C111.12253,78.1532815 106.493589,60.3435132 106.493589,60.3435132 C106.493589,60.3435132 92.6159073,55.8882152 85.6770662,53.662851 C82.9993179,82.9055993 86.5155762,81.8226192 73.3347483,117.270798 C69.7568013,126.887387 22.800245,138.034772 22.800245,138.034772 C22.800245,138.034772 28.3979272,178.454606 28.2037219,181.385964 C23.8009735,247.178149 128.678689,253.168811 128.678689,253.168811 L158.508623,136.944937 C158.508623,136.944937 127.584285,128.132586 122.585212,118.296659" id="Shape" fill="#FFFFFF"></path>
                        <path d="M24.4941722,139.188579 C25.5748675,147.027619 29.9045033,178.701361 29.7194371,181.486493 C28.7849669,195.462421 32.9066887,207.754474 41.9703642,218.019937 C66.2026159,245.462288 118.772848,250.845202 127.52351,251.560334 L156.672583,137.986791 C150.403179,136.085864 125.889901,128.153149 121.231258,118.984374 C116.757682,110.181162 115.512483,104.5355 114.070795,97.9964934 L113.458477,95.2456325 C110.147848,80.7122219 106.176921,65.2032152 105.231026,61.5338775 L87.0214238,55.6894404 C86.5096358,61.6092748 86.2583113,66.1673874 86.034404,70.2297053 C85.2438742,84.5529172 84.9171523,90.4818907 74.7590728,117.800864 C71.2405298,127.255235 33.2516887,137.047752 24.4941722,139.188579 M128.679603,254.688182 C128.649901,254.688182 128.622483,254.685897 128.592781,254.685897 C128.439702,254.676758 113.042649,253.755997 94.5428808,249.072222 C77.3865563,244.731162 53.9471192,236.167851 39.6993046,220.037387 C30.0735762,209.139043 25.6959603,196.099871 26.6875497,181.283149 C26.822351,179.263414 23.4500331,153.811096 21.2954967,138.242685 C21.1881126,137.468149 21.6884768,136.737023 22.4493046,136.556526 C40.2979139,132.318281 69.5109603,123.190632 71.9099669,116.740732 C81.9081126,89.8535795 82.2279801,84.0616921 83.0002318,70.0629172 C83.2492715,65.5505 83.530298,60.4371887 84.1654636,53.5234801 C84.2065894,53.0642417 84.4556291,52.6506987 84.8394702,52.3948046 C85.225596,52.1449245 85.7053974,52.0772219 86.1417881,52.2165927 L106.958311,58.8949702 C107.454106,59.054904 107.833377,59.4570232 107.963609,59.9596722 C108.011589,60.1378841 112.642815,77.9842086 116.421821,94.5716258 L117.038709,97.3430497 C118.434702,103.678712 119.643344,109.150732 123.938709,117.608944 C127.790828,125.18752 150.501424,133.081394 158.925364,135.482685 C159.718179,135.711162 160.184272,136.52454 159.980927,137.324209 L130.150993,253.545798 C129.977351,254.222089 129.369603,254.688182 128.679603,254.688182" id="Shape" fill="#000000"></path>
                        <path d="M163.783467,132.231689 L161.941944,189.679901 L174.496745,225.438808 L157.1485,266.987318 C157.1485,266.987318 180.416579,341.804338 177.757109,341.619272 C175.611712,341.468477 0.19863245,341.968841 0.19863245,341.968841 L26.610553,260.292947 L38.6604205,130.705464 C38.6604205,130.705464 60.9117781,123.293675 62.6527715,127.783245 C64.3960497,132.275099 88.0639636,188.35702 91.4728377,187.356291 C91.7492947,187.27404 133.549129,188.377583 133.549129,188.377583 C133.549129,188.377583 136.080652,132.156291 140.791844,128.482384 C144.801613,125.349967 163.783467,132.231689 163.783467,132.231689" id="Shape" fill="#00B2B2"></path>
                        <path d="M125.708947,74.3717616 C131.54653,77.620702 135.752788,68.7078212 130.778848,65.5731192 C129.487954,64.7597417 127.932026,64.8145762 126.76451,65.3103709" id="Shape" fill="#FFFFFF"></path>
                        <path d="M128.177639,76.5895861 C127.170056,76.5895861 126.087076,76.3222682 124.969825,75.6985265 C124.236414,75.2918377 123.973666,74.3665066 124.380354,73.633096 C124.789328,72.8996854 125.719228,72.6392219 126.44807,73.0436258 C129.027573,74.4784603 130.460123,72.5044205 130.839394,71.8646854 C131.771579,70.2904801 131.783003,68.0011424 129.968897,66.8587583 C129.086977,66.3035596 128.040553,66.4155132 127.359692,66.7079636 C126.58744,67.0415397 125.694096,66.6759768 125.367374,65.9060099 C125.036083,65.1337583 125.397076,64.2404139 126.169328,63.9136921 C127.97201,63.1460099 129.998599,63.2853808 131.588798,64.288394 C135.027374,66.4543543 135.11648,70.6080629 133.453169,73.4137583 C132.40446,75.1798841 130.48754,76.5895861 128.177639,76.5895861" id="Shape" fill="#000000"></path>
                        <path d="M127.069983,27.748096 C130.001341,57.7905132 129.663195,84.0242219 128.294619,93.0307781 C126.350281,105.843758 115.049818,110.31048 106.79952,110.354151 C98.1014073,110.397301 87.0476987,105.012103 85.9989901,91.6370695 C84.7834934,76.1143543 84.2557119,42.0370364 85.6379967,35.9824007 C87.0225662,29.9254801 92.0581954,22.9729305 99.7395861,18.2000497 C109.979917,11.8346854 126.183493,18.6684272 127.069983,27.748096" id="Shape" fill="#FFFFFF"></path>
                        <path d="M109.043848,17.2324503 C105.931993,17.2324503 102.964079,17.9864238 100.542225,19.4920861 C93.6582185,23.7691722 88.5152053,30.2167881 87.1192119,36.319404 C85.8283179,41.9742053 86.2532848,75.4117881 87.5144768,91.519404 C88.4466623,103.432185 98.0883841,108.835662 106.688252,108.835662 L106.791066,108.835662 C113.320934,108.801391 124.884146,105.385662 126.794212,92.8034437 C128.082821,84.3200993 128.551199,58.5730464 125.558152,27.8954636 C125.245139,24.6899338 122.517126,21.523245 118.260603,19.4212583 C115.306397,17.9612914 112.105437,17.2324503 109.043848,17.2324503 L109.043848,17.2324503 Z M106.688252,111.874404 C96.728947,111.874404 85.5701391,105.595861 84.4825894,91.7570199 C83.3105033,76.7712252 82.6867616,42.0884437 84.1558675,35.6453974 C85.7255033,28.7773841 91.3894437,21.6009272 98.9383179,16.910298 C104.611397,13.3826159 112.724609,13.2980795 119.608616,16.6955298 C124.811033,19.265894 128.167358,23.3419205 128.580901,27.6007285 C131.601364,58.5387748 131.110139,84.6216887 129.796397,93.2603974 C127.856629,106.04596 116.850901,111.81957 106.80706,111.874404 L106.688252,111.874404 Z" id="Shape" fill="#000000"></path>
                        <path d="M117.60396,78.0331026 C116.457007,78.0331026 115.392305,77.7954868 114.839391,77.6698245 C114.019159,77.487043 113.505086,76.6736656 113.687868,75.8557185 C113.870649,75.0354868 114.684026,74.5259834 115.504258,74.7041954 C117.875848,75.2365464 118.705219,74.8778377 118.824026,74.6927715 C119.392934,73.810851 117.720483,70.0615464 115.387735,66.979394 C114.880517,66.309957 115.013033,65.3572086 115.68247,64.8499901 C116.351907,64.3450563 117.304656,64.4752881 117.809589,65.1447252 C119.175881,66.9496921 123.46896,73.0888642 121.380682,76.3355199 C120.514755,77.6789636 118.999954,78.0331026 117.60396,78.0331026" id="Shape" fill="#000000"></path>
                        <path d="M110.005529,64.3523675 C110.000937,63.3744868 109.297228,62.5862417 108.433586,62.5885215 C107.569944,62.593096 106.870805,63.3881954 106.875352,64.3637914 C106.879944,65.3416722 107.583652,66.1299172 108.447295,66.1253674 C109.310937,66.1230629 110.010076,65.3279636 110.005529,64.3523675" id="Shape" fill="#000000"></path>
                        <path d="M125.746897,63.632894 C125.744589,62.6550132 125.040881,61.8667682 124.174954,61.871318 C123.311311,61.8736225 122.614457,62.6687219 122.616736,63.6443179 C122.621311,64.6221987 123.32502,65.4104437 124.188662,65.4081639 C125.054589,65.4035894 125.751444,64.6084901 125.746897,63.632894" id="Shape" fill="#000000"></path>
                        <path d="M88.8412417,77.0725861 C83.1453146,80.5659967 78.5643543,71.8381821 83.4012086,68.4955662 C84.6578311,67.6273543 86.2137583,67.6182152 87.4018377,68.063745" id="Shape" fill="#FFFFFF"></path>
                        <path d="M86.2286093,79.3975662 C84.0215232,79.3975662 82.1434437,78.1043874 81.0604636,76.4433609 C79.2806291,73.7084934 79.1938079,69.5570695 82.5387086,67.2471689 C84.0809272,66.1756126 86.0983775,65.9517053 87.9353311,66.6417053 C88.7212914,66.9341556 89.1188411,67.8092219 88.824106,68.5951821 C88.5293709,69.3834272 87.6543046,69.7786921 86.8683444,69.4862417 C86.1692053,69.2257781 85.1204967,69.1549503 84.2659934,69.7444205 C82.5021523,70.9644868 82.6095364,73.2515397 83.6079801,74.7823344 C84.0100993,75.4037914 85.5271854,77.3184272 88.0472848,75.7784934 C88.7601325,75.3375331 89.6968874,75.5614404 90.1355629,76.2788576 C90.5742384,76.9939901 90.3503311,77.9284603 89.6351987,78.3671358 C88.458543,79.0891225 87.3047351,79.3975662 86.2286093,79.3975662" id="Shape" fill="#000000"></path>
                        <path d="M122.306242,77.3558974 C122.31995,77.0908642 122.331374,76.8258311 122.345083,76.560798" id="Shape" fill="#7394E3"></path>
                        <path d="M78.2241523,59.6167285 C80.7191192,70.4899404 91.080543,58.4766291 102.241636,55.0060662 C195.985675,25.8638477 58.7647815,-25.2007219 78.2241523,59.6167285" id="Shape" fill="#000000"></path>
                        <path d="M63.8047517,28.0158709 C63.8047517,28.0158709 53.1668709,9.93421523 68.4771026,1.98779139 C80.9176656,-4.46667881 87.0385596,9.39500993 87.0385596,9.39500993 C87.0385596,9.39500993 80.4081623,10.9486523 74.5431623,15.4633543 C68.6781623,19.9780563 63.8047517,28.0158709 63.8047517,28.0158709" id="Shape" fill="#000000"></path>
                        <path d="M18.3248411,136.186394 C65.1306026,103.402255 95.0519272,222.934474 103.133152,218.097619 C134.11004,199.565864 156.658417,175.916228 181.210536,155.24593 C192.31451,145.901228 191.798152,143.650732 202.285238,140.454341 C214.98855,136.581659 251.851,140.85646 244.297556,144.694871 C236.659576,148.572123 218.404278,157.42103 197.795669,172.308579 C177.18706,187.196129 133.340073,266.137156 99.0639801,280.947023 C64.7878874,295.763745 -10.191351,156.164407 18.3248411,136.186394" id="Shape" fill="#FFFFFF"></path>
                        <path d="M19.1960232,137.43045 C5.49198344,147.031046 18.4534735,188.64353 37.6066854,222.921907 C55.5832417,255.096013 82.2921821,286.543563 98.4614868,279.554457 C118.98556,270.684987 143.818705,237.306808 163.773871,210.488199 C177.132911,192.532205 188.673275,177.025483 196.905295,171.075947 C216.111056,157.202834 233.443308,148.465881 241.775858,144.266477 L243.096454,143.599325 C237.859765,141.300848 213.010626,138.773894 202.729169,141.908596 C195.628109,144.072272 193.969368,145.635053 189.541487,149.809325 C187.715957,151.52747 185.447182,153.666013 182.189103,156.407735 C175.485593,162.051113 168.782083,168.050914 162.300195,173.85651 C144.716619,189.593993 126.534434,205.868397 103.912944,219.401079 C103.286917,219.773497 102.544368,219.855748 101.829235,219.636411 C98.8658907,218.722503 95.8591358,212.446245 89.3452616,198.337801 C78.3532417,174.535086 61.7429768,138.563695 40.3301291,132.785517 C33.2861887,130.88002 26.3747649,132.401675 19.1960232,137.43045 M93.7297318,283.543662 C76.0136391,283.543662 52.1857914,255.246808 34.9540695,224.404722 C15.2799305,189.194159 1.41138742,146.181113 17.452745,134.942338 L17.452745,134.942338 C25.3032086,129.445185 33.2679106,127.733894 41.1229437,129.851874 C63.9043675,136.000185 80.8756258,172.748397 92.1052616,197.065185 C96.112745,205.74045 100.638871,215.544391 102.57407,216.661642 C124.843705,203.302603 142.854533,187.181278 160.271321,171.592305 C166.773772,165.773 173.493275,159.754921 180.231056,154.084126 C183.425162,151.397238 185.657381,149.290682 187.457778,147.597669 C191.990758,143.325152 194.060758,141.37396 201.840394,139.000086 C212.309202,135.81055 244.624964,137.761742 246.669831,142.831642 C246.854897,143.290881 247.279864,144.883364 244.983672,146.048596 L243.144434,146.978497 C234.882712,151.143629 217.694401,159.80747 198.687414,173.538927 C190.830096,179.214291 179.422248,194.547371 166.211719,212.302305 C144.990791,240.823066 120.936752,273.152536 99.6655596,282.341874 C97.7851954,283.157536 95.797447,283.543662 93.7297318,283.543662" id="Shape" fill="#000000"></path>
                        <path d="M141.567295,265.699851 C140.936699,265.699851 140.347228,265.302301 140.130175,264.67399 C139.858288,263.878891 140.28097,263.015248 141.073785,262.743361 C160.398354,256.119818 163.629017,247.832964 170.069778,231.325513 C170.634116,229.879255 171.221301,228.373593 171.842758,226.806242 C172.151202,226.024851 173.039977,225.645579 173.814513,225.954023 C174.595904,226.264752 174.97746,227.146672 174.666732,227.928063 C174.04756,229.48856 173.462659,230.989652 172.900606,232.429056 C166.334182,249.263228 162.717394,258.534818 142.060805,265.617599 C141.898586,265.672434 141.729513,265.699851 141.567295,265.699851" id="Shape" fill="#000000"></path>
                        <path d="M49.8662947,295.122868 C49.5966921,295.122868 49.3248046,295.05204 49.0780497,294.901245 C47.7985795,294.124424 46.5442417,293.393298 45.3150364,292.678166 C40.647255,289.957007 36.2422219,287.388927 32.1958974,283.344887 C31.6018576,282.750848 31.6018576,281.786675 32.1958974,281.192636 C32.7876523,280.60545 33.7495397,280.60545 34.3435795,281.192636 C38.1111623,284.962503 42.3539768,287.434623 46.8458311,290.050682 C48.088745,290.777238 49.3590762,291.517503 50.6568245,292.305748 C51.3742417,292.739854 51.6027185,293.674325 51.1663278,294.391742 C50.8807318,294.862404 50.3803675,295.122868 49.8662947,295.122868" id="Shape" fill="#000000"></path>
                        <path d="M112.859182,187.099483 C112.020672,187.099483 111.339811,186.418623 111.339811,185.580113 C111.339811,184.686768 111.234712,183.791139 111.125043,182.838391 C111.00852,181.844517 110.889712,180.816371 110.889712,179.747099 C110.889712,178.908589 111.570573,178.227728 112.409083,178.227728 C113.247593,178.227728 113.928454,178.908589 113.928454,179.747099 C113.928454,180.640444 114.033553,181.536073 114.143222,182.488821 C114.259745,183.482695 114.378553,184.513126 114.378553,185.580113 C114.378553,186.418623 113.697692,187.099483 112.859182,187.099483" id="Shape" fill="#000000"></path>
                    </g>
                    <g id="Group" transform="translate(313.000000, 197.000000)">
                        <path d="M2.69601538,7.51900563 C2.69601538,7.51900563 18.967041,36.1331136 23.2139385,57.0649681 C33.5014256,107.754123 36.3174769,141.050747 37.5703231,194.321231 C38.0609641,215.223362 35.2220923,284.185306 51.4748615,299.673278 C70.5893231,317.891193 106.581836,287.530287 109.375067,333.187109 C111.953785,375.352621 113.818221,485.478639 113.818221,485.478639 L263.338221,478.640062 C263.338221,478.640062 262.4254,320.788043 243.92481,280.341893 C235.588477,262.117118 198.073836,269.035719 192.197554,250.964132 C185.625246,230.743344 183.044246,194.666475 182.044708,173.76663 C179.860785,128.098377 176.357836,77.5807005 172.825221,54.492785 C169.292605,31.4048695 151.647785,2.52325446 151.647785,2.52325446 L2.69601538,7.51900563 Z" id="Shape" fill="#FFFFFF"></path>
                        <g>
                            <mask id="mask-2" fill="white">
                                <use xlink:href="#path-1"></use>
                            </mask>
                            <g id="Shape"></g>
                            <path d="M84.0566205,304.58489 C97.1578769,304.58489 109.316646,307.371993 110.891262,333.093824 C113.273723,372.076688 115.069697,470.283782 115.309313,483.890059 L261.807877,477.188665 C261.650415,461.140529 259.756313,318.602716 242.545082,280.975679 C238.711236,272.591505 227.677518,269.815834 217.008928,267.129331 C205.683108,264.280496 193.973903,261.335632 190.75621,251.435585 C184.444056,232.017317 181.710159,198.519491 180.528056,173.840252 C178.544954,132.378946 175.087646,79.3119512 171.324544,54.7241671 C168.193569,34.2587352 153.570185,8.75868357 150.804338,4.07159437 L5.23000513,8.95531268 C9.12318462,16.0888338 21.0856974,38.9458244 24.7004667,56.7636225 C35.4283897,109.62027 37.888441,143.22327 39.0888,194.285106 C39.1595436,197.39459 39.1595436,201.562669 39.1595436,206.460106 C39.1572615,234.200815 39.1504154,285.831961 52.5209538,298.571698 C59.5291333,305.247942 69.2095949,304.959857 78.5637231,304.69235 C80.3962103,304.637477 82.2332615,304.58489 84.0566205,304.58489 M113.819133,486.999543 C113.433467,486.999543 113.061492,486.853214 112.7808,486.587993 C112.481851,486.304482 112.308415,485.918083 112.301569,485.506533 C112.283313,484.402209 110.407467,374.932383 107.860697,333.281308 C106.249569,306.921576 93.4746462,307.301115 78.6527231,307.730956 C68.6664667,308.021327 58.3493128,308.325416 50.4305949,300.773486 C36.1152872,287.1352 36.1221333,234.655806 36.1244154,206.460106 C36.1244154,201.592392 36.1266974,197.447177 36.0536718,194.355984 C34.8555949,143.477059 32.4092359,109.99981 21.7292359,57.3695146 C17.5781846,36.9200873 1.53992821,8.55519531 1.37790256,8.27168357 C1.11318462,7.8098338 1.11090256,7.24281033 1.37333846,6.77638779 C1.63121026,6.31225164 2.11500513,6.01730798 2.64444103,5.9990169 L151.59621,1.00326573 C152.127928,0.941533333 152.655082,1.26162723 152.942621,1.73033615 C153.668313,2.91925634 170.788262,31.1378197 174.325441,54.2646038 C178.104518,78.966707 181.573236,132.154881 183.560903,173.693923 C184.519364,193.745519 187.10721,230.389411 193.643005,250.493594 C196.34039,258.795458 206.739697,261.411083 217.748313,264.179895 C229.110646,267.040162 240.86321,269.996458 245.304082,279.706735 C263.729364,319.988266 264.817903,472.172336 264.856722,478.631374 C264.861262,479.447613 264.220005,480.122097 263.407595,480.158679 L113.887595,486.999543 C113.867056,486.999543 113.841954,486.999543 113.819133,486.999543" id="Shape" fill="#000000" mask="url(#mask-2)"></path>
                        </g>
                        <polyline id="Shape" fill="#FFFFFF" points="39.7480846 28.3141343 61.4070333 27.4910357 64.5129051 27.37443"></polyline>
                        <path d="M39.7480846,29.8345803 C38.9356744,29.8345803 38.2624692,29.1921061 38.2328026,28.3712939 C38.1985718,27.5321906 38.8512385,26.827984 39.6910333,26.7936883 L64.4535718,25.853984 C65.3732385,25.7762469 65.9962385,26.4781671 66.0281872,27.3172704 C66.0601359,28.1563737 65.4051872,28.8628667 64.5699564,28.8925897 L39.8051359,29.8345803 C39.7868795,29.8345803 39.766341,29.8345803 39.7480846,29.8345803" id="Shape" fill="#000000"></path>
                        <line x1="93.7975564" y1="26.2632469" x2="115.714377" y2="25.4310028" id="Shape" fill="#FFFFFF"></line>
                        <path d="M93.7975564,27.7839216 C92.9851462,27.7839216 92.311941,27.1414474 92.2822744,26.3206352 C92.2480436,25.4815319 92.9007103,24.7773254 93.7405051,24.7430296 L115.657326,23.9107854 C116.599813,23.8513394 117.202274,24.5349685 117.231941,25.3717854 C117.26389,26.2131751 116.611223,26.9173817 115.77371,26.9493911 L93.8546077,27.7839216 C93.8363513,27.7839216 93.8158128,27.7839216 93.7975564,27.7839216" id="Shape" fill="#000000"></path>
                        <line x1="137.515269" y1="24.6053892" x2="148.339038" y2="24.1938399" id="Shape" fill="#FFFFFF"></line>
                        <path d="M137.515269,26.1260638 C136.702859,26.1260638 136.029654,25.4835897 135.999987,24.6627775 C135.965756,23.8236742 136.618423,23.1194676 137.458218,23.0851718 L148.281987,22.6736225 C149.226756,22.6004582 149.826936,23.2978056 149.854321,24.1346225 C149.888551,24.9760122 149.235885,25.6802188 148.398372,25.7122282 L137.572321,26.1260638 C137.554064,26.1260638 137.533526,26.1260638 137.515269,26.1260638" id="Shape" fill="#000000"></path>
                        <line x1="41.7761436" y1="49.0399854" x2="150.367554" y2="44.9222061" id="Shape" fill="#FFFFFF"></line>
                        <path d="M41.7761436,50.5606601 C40.9637333,50.5606601 40.2905282,49.9181859 40.2608615,49.0973737 C40.2266308,48.2582704 40.8792974,47.5540638 41.7190923,47.5197681 L150.310503,43.4042751 C151.255272,43.3699793 151.853169,44.0284582 151.882836,44.8652751 C151.917067,45.7043784 151.2644,46.4108714 150.424605,46.4428808 L41.8331949,50.5606601 C41.8149385,50.5606601 41.7944,50.5606601 41.7761436,50.5606601" id="Shape" fill="#000000"></path>
                        <line x1="43.8085385" y1="69.768123" x2="71.2068462" y2="68.7278178" id="Shape" fill="#FFFFFF"></line>
                        <path d="M43.8085385,71.2887977 C42.9961282,71.2887977 42.3229231,70.6463235 42.2932564,69.8255113 C42.2590256,68.986408 42.9116923,68.2822014 43.7514872,68.2479056 L71.1475128,67.2076005 C72.0763077,67.1573 72.6924615,67.8317836 72.7221282,68.6686005 C72.756359,69.5099901 72.1014103,70.2141967 71.2638974,70.2462061 L43.8655897,71.2887977 C43.8473333,71.2887977 43.8267949,71.2887977 43.8085385,71.2887977" id="Shape" fill="#000000"></path>
                        <line x1="91.7473615" y1="67.9486178" x2="152.399721" y2="65.6485146" id="Shape" fill="#FFFFFF"></line>
                        <path d="M91.7473615,69.4690638 C90.9349513,69.4690638 90.2617462,68.8265897 90.2320795,68.0057775 C90.1978487,67.1666742 90.8505154,66.4601812 91.6903103,66.4281718 L152.342669,64.1303549 C153.280592,64.0869136 153.885336,64.7522516 153.915003,65.5913549 C153.949233,66.4304582 153.296567,67.1369512 152.459054,67.1689606 L91.8044128,69.4690638 C91.7861564,69.4690638 91.7656179,69.4690638 91.7473615,69.4690638" id="Shape" fill="#000000"></path>
                        <polyline id="Shape" fill="#FFFFFF" points="45.8388795 90.4942028 110.633162 88.036339 119.89829 87.6865221"></polyline>
                        <path d="M45.8388795,92.0146488 C45.0264692,92.0146488 44.3532641,91.3721746 44.3235974,90.5513624 C44.2893667,89.7122592 44.9420333,89.0080526 45.7818282,88.9737568 L119.841238,86.1660761 C120.756341,86.1043437 121.383905,86.7902592 121.413572,87.6293624 C121.447803,88.4684657 120.795136,89.1749587 119.957623,89.2046817 L45.8959308,92.0146488 C45.8776744,92.0146488 45.8571359,92.0146488 45.8388795,92.0146488" id="Shape" fill="#000000"></path>
                        <polyline id="Shape" fill="#FFFFFF" points="138.268574 86.9898606 140.055421 86.921269 154.430062 86.3771094"></polyline>
                        <path d="M138.268574,88.5103066 C137.458446,88.5103066 136.785241,87.8678324 136.753292,87.0493066 C136.719062,86.2102033 137.371728,85.5037103 138.211523,85.4694146 L154.37301,84.8566634 C155.306369,84.8017901 155.915677,85.4808465 155.945344,86.3199498 C155.979574,87.1590531 155.326908,87.865546 154.487113,87.895269 L138.325626,88.5103066 C138.307369,88.5103066 138.286831,88.5103066 138.268574,88.5103066" id="Shape" fill="#000000"></path>
                        <polyline id="Shape" fill="#FFFFFF" points="47.8669385 111.223484 119.781221 108.495826 130.748759 108.079704 156.460631 107.103418"></polyline>
                        <path d="M47.8669385,112.74393 C47.0545282,112.74393 46.3813231,112.101455 46.3516564,111.280643 C46.3174256,110.44154 46.9700923,109.737333 47.8098872,109.703038 L156.403579,105.582972 C157.332374,105.518953 157.946246,106.207155 157.975913,107.043972 C158.010144,107.885362 157.357477,108.589568 156.517682,108.621577 L47.9239897,112.74393 C47.9057333,112.74393 47.8851949,112.74393 47.8669385,112.74393" id="Shape" fill="#000000"></path>
                        <line x1="49.8993333" y1="131.949335" x2="80.3190769" y2="130.796997" id="Shape" fill="#FFFFFF"></line>
                        <path d="M49.8993333,133.470009 C49.0869231,133.470009 48.4137179,132.827535 48.3840513,132.006723 C48.3498205,131.16762 49.0024872,130.463413 49.8422821,130.431404 L80.2620256,129.279066 C81.168,129.151028 81.8046923,129.900962 81.834359,130.740066 C81.8685897,131.579169 81.2159231,132.283376 80.3761282,132.315385 L49.9563846,133.467723 C49.9381282,133.470009 49.9175897,133.470009 49.8993333,133.470009" id="Shape" fill="#000000"></path>
                        <line x1="100.920067" y1="130.015739" x2="116.883015" y2="129.407561" id="Shape" fill="#FFFFFF"></line>
                        <path d="M100.920067,131.536414 C100.107656,131.536414 99.4344513,130.893939 99.4047846,130.073127 C99.3705538,129.234024 100.023221,128.529817 100.863015,128.497808 L116.825964,127.88963 C117.743349,127.798174 118.368631,128.513813 118.398297,129.35063 C118.432528,130.189733 117.779862,130.896226 116.942349,130.925949 L100.977118,131.534127 C100.958862,131.536414 100.938323,131.536414 100.920067,131.536414" id="Shape" fill="#000000"></path>
                        <line x1="135.364892" y1="128.709527" x2="158.4912" y2="127.831555" id="Shape" fill="#FFFFFF"></line>
                        <path d="M135.364892,130.230202 C134.552482,130.230202 133.879277,129.587728 133.84961,128.766915 C133.815379,127.927812 134.468046,127.223606 135.307841,127.191596 L158.431867,126.313624 C158.452405,126.311338 158.472944,126.311338 158.4912,126.311338 C159.30361,126.311338 159.976815,126.953812 160.006482,127.774624 C160.040713,128.613728 159.385764,129.320221 158.548251,129.349944 L135.421944,130.227915 C135.403687,130.230202 135.383149,130.230202 135.364892,130.230202" id="Shape" fill="#000000"></path>
                        <line x1="51.9294462" y1="152.676558" x2="72.6755744" y2="151.890041" id="Shape" fill="#FFFFFF"></line>
                        <path d="M51.9294462,154.197004 C51.1170359,154.197004 50.4438308,153.55453 50.4141641,152.733717 C50.3799333,151.894614 51.0326,151.190408 51.8723949,151.158398 L72.616241,150.371882 C73.5313436,150.284999 74.1611897,150.996065 74.1908564,151.832882 C74.2250872,152.671985 73.5701385,153.378478 72.7326256,153.408201 L51.9864974,154.194717 C51.968241,154.197004 51.9477026,154.197004 51.9294462,154.197004" id="Shape" fill="#000000"></path>
                        <line x1="93.1357615" y1="151.113585" x2="160.520172" y2="148.557407" id="Shape" fill="#FFFFFF"></line>
                        <path d="M93.1357615,152.634031 C92.3233513,152.634031 91.6501462,151.991557 91.6204795,151.170745 C91.5862487,150.331641 92.2389154,149.627435 93.0787103,149.595425 L160.463121,147.039247 C161.385069,146.954651 162.005787,147.661144 162.035454,148.497961 C162.069685,149.33935 161.417018,150.043557 160.579505,150.075566 L93.1928128,152.631745 C93.1745564,152.634031 93.1540179,152.634031 93.1357615,152.634031" id="Shape" fill="#000000"></path>
                        <polyline id="Shape" fill="#FFFFFF" points="53.9597872 173.403552 124.744454 170.719336 135.533992 170.307787"></polyline>
                        <path d="M53.9597872,174.923998 C53.1473769,174.923998 52.4741718,174.281524 52.4445051,173.460712 C52.4102744,172.621608 53.062941,171.917402 53.9027359,171.885392 L135.476941,168.789627 C135.495197,168.787341 135.515736,168.787341 135.533992,168.787341 C136.348685,168.787341 137.019608,169.432101 137.049274,170.250627 C137.083505,171.089731 136.430838,171.796223 135.591044,171.828233 L54.0168385,174.921712 C53.9985821,174.923998 53.9780436,174.923998 53.9597872,174.923998" id="Shape" fill="#000000"></path>
                        <line x1="155.800662" y1="169.540705" x2="162.550969" y2="169.286916" id="Shape" fill="#FFFFFF"></line>
                        <path d="M155.800662,171.061379 C154.988251,171.061379 154.315046,170.418905 154.285379,169.598093 C154.251149,168.75899 154.906097,168.054783 155.74361,168.022774 L162.493918,167.768985 C163.411303,167.67067 164.034303,168.390882 164.066251,169.227699 C164.100482,170.066802 163.445533,170.773295 162.608021,170.805304 L155.857713,171.059093 C155.839456,171.061379 155.818918,171.061379 155.800662,171.061379" id="Shape" fill="#000000"></path>
                        <line x1="122.472444" y1="191.609807" x2="164.580854" y2="190.01391" id="Shape" fill="#FFFFFF"></line>
                        <path d="M122.472444,193.130253 C121.660033,193.130253 120.986828,192.487779 120.957162,191.666967 C120.922931,190.827863 121.575597,190.123657 122.415392,190.091647 L164.523803,188.495751 C165.436623,188.388291 166.068751,189.117647 166.096136,189.954464 C166.130367,190.795854 165.4777,191.500061 164.640187,191.53207 L122.529495,193.127967 C122.511238,193.130253 122.4907,193.130253 122.472444,193.130253" id="Shape" fill="#000000"></path>
                        <line x1="58.020241" y1="214.857769" x2="93.0383179" y2="213.531666" id="Shape" fill="#FFFFFF"></line>
                        <path d="M58.020241,216.378215 C57.2078308,216.378215 56.5346256,215.735741 56.504959,214.914929 C56.4707282,214.075826 57.1233949,213.371619 57.9631897,213.33961 L92.9789846,212.013507 C93.8986513,211.915192 94.5216513,212.635403 94.5536,213.47222 C94.5855487,214.31361 93.9328821,215.017816 93.0953692,215.049826 L58.0772923,216.375929 C58.0590359,216.378215 58.0384974,216.378215 58.020241,216.378215" id="Shape" fill="#000000"></path>
                        <line x1="114.18449" y1="212.729831" x2="166.612336" y2="210.740676" id="Shape" fill="#FFFFFF"></line>
                        <path d="M114.18449,214.250277 C113.372079,214.250277 112.698874,213.607803 112.669208,212.786991 C112.634977,211.947887 113.287644,211.243681 114.127438,211.211671 L166.553003,209.222516 C167.463541,209.103624 168.097951,209.844413 168.127618,210.68123 C168.159567,211.52262 167.5069,212.226826 166.669387,212.258836 L114.241541,214.247991 C114.223285,214.250277 114.202746,214.250277 114.18449,214.250277" id="Shape" fill="#000000"></path>
                        <line x1="60.0503538" y1="235.58705" x2="119.949636" y2="233.314384" id="Shape" fill="#FFFFFF"></line>
                        <path d="M60.0503538,237.107496 C59.2379436,237.107496 58.5647385,236.465022 58.5350718,235.64421 C58.500841,234.805107 59.1535077,234.1009 59.9933026,234.068891 L119.892585,231.796224 C120.809969,231.695623 121.432969,232.418121 121.464918,233.254938 C121.499149,234.096327 120.846482,234.800534 120.006687,234.832543 L60.1074051,237.10521 C60.0891487,237.107496 60.0686103,237.107496 60.0503538,237.107496" id="Shape" fill="#000000"></path>
                        <line x1="146.474146" y1="232.307002" x2="168.641992" y2="231.467899" id="Shape" fill="#FFFFFF"></line>
                        <path d="M146.474146,233.827448 C145.661736,233.827448 144.988531,233.184974 144.958864,232.364162 C144.924633,231.525059 145.5773,230.820852 146.417095,230.788843 L168.582659,229.949739 C168.603197,229.947453 168.623736,229.947453 168.641992,229.947453 C169.454403,229.947453 170.127608,230.589927 170.157274,231.408453 C170.191505,232.249843 169.536556,232.954049 168.699044,232.986059 L146.531197,233.825162 C146.512941,233.827448 146.492403,233.827448 146.474146,233.827448" id="Shape" fill="#000000"></path>
                        <line x1="62.0806949" y1="256.314045" x2="81.7725154" y2="255.566397" id="Shape" fill="#FFFFFF"></line>
                        <path d="M62.0806949,257.834491 C61.2682846,257.834491 60.5950795,257.192016 60.5654128,256.371204 C60.5311821,255.532101 61.1838487,254.827894 62.0236436,254.795885 L81.7154641,254.048237 C82.6237205,253.9202 83.2581308,254.670134 83.2877974,255.506951 C83.3220282,256.34834 82.6670795,257.052547 81.8295667,257.084556 L62.1377462,257.832204 C62.1194897,257.834491 62.0989513,257.834491 62.0806949,257.834491" id="Shape" fill="#000000"></path>
                        <line x1="100.859821" y1="254.842527" x2="123.068744" y2="254.001138" id="Shape" fill="#FFFFFF"></line>
                        <path d="M100.859821,256.363202 C100.04741,256.363202 99.3742051,255.720728 99.3445385,254.899915 C99.3103077,254.060812 99.9629744,253.356606 100.802769,253.324596 L123.011692,252.483207 C123.924513,252.359742 124.556641,253.105103 124.584026,253.94192 C124.618256,254.78331 123.96559,255.487516 123.128077,255.519526 L100.916872,256.360915 C100.898615,256.363202 100.878077,256.363202 100.859821,256.363202" id="Shape" fill="#000000"></path>
                        <line x1="145.832433" y1="253.136655" x2="170.674844" y2="252.194665" id="Shape" fill="#FFFFFF"></line>
                        <path d="M145.832433,254.65733 C145.020023,254.65733 144.346818,254.014856 144.317151,253.194044 C144.282921,252.35494 144.935587,251.650734 145.775382,251.618724 L170.61551,250.676734 C170.636049,250.674447 170.656587,250.674447 170.674844,250.674447 C171.487254,250.674447 172.160459,251.316922 172.190126,252.135447 C172.222074,252.976837 171.569408,253.681044 170.731895,253.713053 L145.889485,254.655044 C145.871228,254.65733 145.85069,254.65733 145.832433,254.65733" id="Shape" fill="#000000"></path>
                        <line x1="64.1108077" y1="277.041039" x2="104.738167" y2="275.500015" id="Shape" fill="#FFFFFF"></line>
                        <path d="M64.1108077,278.561714 C63.2983974,278.561714 62.6251923,277.919239 62.5955256,277.098427 C62.5612949,276.259324 63.2139615,275.555117 64.0537564,275.523108 L104.678833,273.982085 C105.58709,273.856333 106.223782,274.606268 106.253449,275.443085 C106.285397,276.282188 105.632731,276.988681 104.795218,277.018404 L64.167859,278.559427 C64.1496026,278.561714 64.1290641,278.561714 64.1108077,278.561714" id="Shape" fill="#000000"></path>
                        <line x1="126.599762" y1="274.672115" x2="172.701762" y2="272.923031" id="Shape" fill="#FFFFFF"></line>
                        <path d="M126.599762,276.192562 C125.787351,276.192562 125.114146,275.550087 125.084479,274.729275 C125.050249,273.890172 125.702915,273.185965 126.54271,273.153956 L172.64471,271.404871 C172.665249,271.402585 172.683505,271.402585 172.701762,271.402585 C173.516454,271.402585 174.189659,272.047346 174.217044,272.865871 C174.251274,273.704975 173.598608,274.411468 172.761095,274.441191 L126.656813,276.190275 C126.638556,276.192562 126.618018,276.192562 126.599762,276.192562" id="Shape" fill="#000000"></path>
                        <line x1="119.566479" y1="296.316865" x2="180.659274" y2="294.000757" id="Shape" fill="#FFFFFF"></line>
                        <path d="M119.566479,297.837311 C118.754069,297.837311 118.080864,297.194837 118.051197,296.374024 C118.016967,295.534921 118.669633,294.830715 119.509428,294.798705 L180.599941,292.482597 C180.620479,292.480311 180.641018,292.480311 180.659274,292.480311 C181.471685,292.480311 182.14489,293.122785 182.174556,293.943597 C182.206505,294.7827 181.553838,295.489193 180.716326,295.518916 L119.623531,297.835024 C119.605274,297.837311 119.584736,297.837311 119.566479,297.837311" id="Shape" fill="#000000"></path>
                        <line x1="219.938854" y1="292.509805" x2="228.158803" y2="292.198857" id="Shape" fill="#FFFFFF"></line>
                        <path d="M219.938854,294.03048 C219.126444,294.03048 218.453238,293.388006 218.423572,292.567193 C218.389341,291.72809 219.04429,291.023884 219.881803,290.991874 L228.099469,290.680926 C228.120008,290.678639 228.140546,290.678639 228.158803,290.678639 C228.971213,290.678639 229.644418,291.321114 229.674085,292.141926 C229.706033,292.981029 229.051085,293.687522 228.215854,293.717245 L219.995905,294.028193 C219.977649,294.03048 219.95711,294.03048 219.938854,294.03048" id="Shape" fill="#000000"></path>
                        <polyline id="Shape" fill="#FFFFFF" points="121.598874 317.046146 157.746567 315.672028 185.646926 314.615718"></polyline>
                        <path d="M121.598874,318.566592 C120.786464,318.566592 120.113259,317.924117 120.083592,317.103305 C120.049362,316.264202 120.702028,315.559995 121.541823,315.527986 L185.589874,313.095272 C185.610413,313.092986 185.630951,313.092986 185.646926,313.092986 C186.461618,313.092986 187.134823,313.737746 187.162208,314.556272 C187.196438,315.395376 186.543772,316.101869 185.706259,316.133878 L121.655926,318.564305 C121.637669,318.566592 121.617131,318.566592 121.598874,318.566592" id="Shape" fill="#000000"></path>
                        <line x1="205.230349" y1="313.871043" x2="230.191426" y2="312.926766" id="Shape" fill="#FFFFFF"></line>
                        <path d="M205.230349,315.391717 C204.417938,315.391717 203.744733,314.749243 203.715067,313.928431 C203.680836,313.089328 204.333503,312.385121 205.173297,312.353112 L230.132092,311.408835 C230.152631,311.406548 230.173169,311.406548 230.191426,311.406548 C231.003836,311.406548 231.677041,312.049023 231.706708,312.867548 C231.738656,313.708938 231.08599,314.413145 230.248477,314.445154 L205.2874,315.389431 C205.269144,315.391717 205.248605,315.391717 205.230349,315.391717" id="Shape" fill="#000000"></path>
                        <line x1="123.629215" y1="337.770854" x2="150.630446" y2="336.748839" id="Shape" fill="#FFFFFF"></line>
                        <path d="M123.629215,339.291528 C122.816805,339.291528 122.1436,338.649054 122.113933,337.828242 C122.079703,336.989138 122.732369,336.284932 123.572164,336.252923 L150.573395,335.230908 C150.591651,335.228622 150.61219,335.228622 150.630446,335.228622 C151.442856,335.228622 152.116062,335.871096 152.145728,336.689622 C152.179959,337.528725 151.527292,338.235218 150.687497,338.267228 L123.686267,339.289242 C123.66801,339.291528 123.647472,339.291528 123.629215,339.291528" id="Shape" fill="#000000"></path>
                        <line x1="170.736687" y1="335.987016" x2="232.219713" y2="333.652617" id="Shape" fill="#FFFFFF"></line>
                        <path d="M170.736687,337.507462 C169.924277,337.507462 169.251072,336.864988 169.221405,336.044176 C169.187174,335.205072 169.839841,334.500866 170.679636,334.468856 L232.162662,332.134457 C233.080046,332.049861 233.705328,332.75864 233.734995,333.595457 C233.769226,334.434561 233.116559,335.141054 232.279046,335.173063 L170.793738,337.505176 C170.775482,337.507462 170.754944,337.507462 170.736687,337.507462" id="Shape" fill="#000000"></path>
                        <line x1="125.659328" y1="358.500363" x2="151.759149" y2="357.510358" id="Shape" fill="#FFFFFF"></line>
                        <path d="M125.659328,360.020809 C124.846918,360.020809 124.173713,359.378335 124.144046,358.557523 C124.109815,357.718419 124.762482,357.014213 125.602277,356.982203 L151.699815,355.992199 C151.720354,355.989912 151.740892,355.989912 151.759149,355.989912 C152.571559,355.989912 153.244764,356.634673 153.274431,357.453199 C153.306379,358.292302 152.653713,358.998795 151.8162,359.028518 L125.716379,360.018523 C125.698123,360.020809 125.677585,360.020809 125.659328,360.020809" id="Shape" fill="#000000"></path>
                        <line x1="170.330938" y1="356.805466" x2="190.463195" y2="356.041813" id="Shape" fill="#FFFFFF"></line>
                        <path d="M170.330938,358.32614 C169.518528,358.32614 168.845323,357.683666 168.815656,356.862854 C168.781426,356.023751 169.434092,355.319544 170.273887,355.287535 L190.406144,354.523882 C190.426682,354.521596 190.444938,354.521596 190.463195,354.521596 C191.277887,354.521596 191.951092,355.16407 191.978477,355.984882 C192.012708,356.823985 191.360041,357.528192 190.522528,357.560201 L170.38799,358.323854 C170.369733,358.32614 170.349195,358.32614 170.330938,358.32614" id="Shape" fill="#000000"></path>
                        <line x1="202.696359" y1="355.577448" x2="234.250282" y2="354.381669" id="Shape" fill="#FFFFFF"></line>
                        <path d="M202.696359,357.098123 C201.883949,357.098123 201.210744,356.455649 201.181077,355.634837 C201.146846,354.795733 201.799513,354.091527 202.639308,354.059517 L234.193231,352.861452 C235.106051,352.765423 235.738179,353.485635 235.765564,354.322452 C235.799795,355.161555 235.147128,355.868048 234.309615,355.900057 L202.75341,357.095837 C202.735154,357.098123 202.714615,357.098123 202.696359,357.098123" id="Shape" fill="#000000"></path>
                        <line x1="156.464738" y1="378.13538" x2="180.66361" y2="377.218539" id="Shape" fill="#FFFFFF"></line>
                        <path d="M156.464738,379.656054 C155.652328,379.656054 154.979123,379.01358 154.949456,378.192768 C154.915226,377.353665 155.567892,376.649458 156.407687,376.617449 L180.604277,375.700608 C180.624815,375.698322 180.645354,375.698322 180.66361,375.698322 C181.476021,375.698322 182.149226,376.340796 182.178892,377.159322 C182.210841,377.998425 181.558174,378.704918 180.720662,378.736928 L156.52179,379.653768 C156.503533,379.656054 156.482995,379.656054 156.464738,379.656054" id="Shape" fill="#000000"></path>
                        <line x1="204.833728" y1="376.302385" x2="236.280395" y2="375.108892" id="Shape" fill="#FFFFFF"></line>
                        <path d="M204.833728,377.822831 C204.021318,377.822831 203.348113,377.180357 203.318446,376.359545 C203.284215,375.520441 203.936882,374.816235 204.776677,374.784225 L236.223344,373.588446 C237.1316,373.485559 237.768292,374.212629 237.795677,375.049446 C237.829908,375.888549 237.177241,376.595042 236.339728,376.627052 L204.890779,377.820545 C204.872523,377.822831 204.851985,377.822831 204.833728,377.822831" id="Shape" fill="#000000"></path>
                        <line x1="129.719782" y1="399.954352" x2="167.259526" y2="398.529934" id="Shape" fill="#FFFFFF"></line>
                        <path d="M129.719782,401.474798 C128.907372,401.474798 128.234167,400.832323 128.2045,400.011511 C128.170269,399.172408 128.822936,398.468201 129.662731,398.436192 L167.202474,397.011774 C167.223013,397.009488 167.241269,397.009488 167.259526,397.009488 C168.074218,397.009488 168.747423,397.651962 168.774808,398.472774 C168.809038,399.311877 168.156372,400.016084 167.318859,400.048093 L129.776833,401.472511 C129.758577,401.474798 129.738038,401.474798 129.719782,401.474798" id="Shape" fill="#000000"></path>
                        <line x1="196.547828" y1="397.417836" x2="238.311649" y2="395.835658" id="Shape" fill="#FFFFFF"></line>
                        <path d="M196.547828,398.938511 C195.735418,398.938511 195.062213,398.296037 195.032546,397.475224 C194.998315,396.636121 195.650982,395.931915 196.490777,395.899905 L238.252315,394.317727 C238.272854,394.31544 238.293392,394.31544 238.311649,394.31544 C239.124059,394.31544 239.797264,394.957915 239.826931,395.77644 C239.861162,396.615544 239.206213,397.322037 238.3687,397.354046 L196.604879,398.936224 C196.586623,398.938511 196.566085,398.938511 196.547828,398.938511" id="Shape" fill="#000000"></path>
                        <line x1="131.750123" y1="420.681346" x2="168.707944" y2="419.279792" id="Shape" fill="#FFFFFF"></line>
                        <path d="M131.750123,422.202021 C130.937713,422.202021 130.264508,421.559546 130.234841,420.738734 C130.20061,419.899631 130.853277,419.195424 131.693072,419.163415 L168.650892,417.761861 C169.593379,417.677265 170.195841,418.383758 170.223226,419.220575 C170.257456,420.059678 169.60479,420.766171 168.767277,420.79818 L131.807174,422.199734 C131.788918,422.202021 131.768379,422.202021 131.750123,422.202021" id="Shape" fill="#000000"></path>
                        <line x1="188.161746" y1="418.542433" x2="240.340849" y2="416.562423" id="Shape" fill="#FFFFFF"></line>
                        <path d="M188.161746,420.062879 C187.349336,420.062879 186.676131,419.420405 186.646464,418.599592 C186.612233,417.760489 187.2649,417.056283 188.104695,417.024273 L240.283797,415.044264 C240.304336,415.041977 240.322592,415.041977 240.340849,415.041977 C241.155541,415.041977 241.828746,415.684452 241.856131,416.502977 C241.890362,417.344367 241.237695,418.048574 240.400182,418.080583 L188.218797,420.060592 C188.200541,420.062879 188.180003,420.062879 188.161746,420.062879" id="Shape" fill="#000000"></path>
                        <line x1="133.780236" y1="441.408569" x2="242.371646" y2="437.29079" id="Shape" fill="#FFFFFF"></line>
                        <path d="M133.780236,442.929015 C132.967826,442.929015 132.294621,442.286541 132.264954,441.465729 C132.230723,440.626625 132.88339,439.922419 133.723185,439.890409 L242.314595,435.77263 C242.332851,435.770344 242.35339,435.770344 242.371646,435.770344 C243.184056,435.770344 243.857262,436.412818 243.886928,437.23363 C243.921159,438.072733 243.268492,438.779226 242.428697,438.808949 L133.837287,442.926729 C133.819031,442.929015 133.798492,442.929015 133.780236,442.929015" id="Shape" fill="#000000"></path>
                        <line x1="135.810577" y1="462.135563" x2="159.594115" y2="461.232441" id="Shape" fill="#FFFFFF"></line>
                        <path d="M135.810577,463.656009 C134.998167,463.656009 134.324962,463.013535 134.295295,462.192723 C134.261064,461.35362 134.913731,460.649413 135.753526,460.617404 L159.534782,459.714282 C160.449885,459.629685 161.079731,460.338465 161.109397,461.175282 C161.143628,462.014385 160.488679,462.720878 159.651167,462.750601 L135.867628,463.653723 C135.849372,463.656009 135.828833,463.656009 135.810577,463.656009" id="Shape" fill="#000000"></path>
                        <polyline id="Shape" fill="#FFFFFF" points="179.550654 460.476562 201.750449 459.637459 211.387551 459.271638"></polyline>
                        <path d="M179.550654,461.997237 C178.738244,461.997237 178.065038,461.354763 178.035372,460.533951 C178.001141,459.694847 178.653808,458.990641 179.493603,458.958631 L211.3305,457.753707 C212.247885,457.653106 212.873167,458.375603 212.902833,459.21242 C212.937064,460.051523 212.284397,460.758016 211.446885,460.790026 L179.607705,461.994951 C179.589449,461.997237 179.56891,461.997237 179.550654,461.997237" id="Shape" fill="#000000"></path>
                        <polyline id="Shape" fill="#FFFFFF" points="229.142823 458.596468 230.995849 458.527877 244.4029 458.018013"></polyline>
                        <path d="M229.142823,460.117143 C228.330413,460.117143 227.657208,459.474669 227.627541,458.65157 C227.59331,457.814753 228.248259,457.110546 229.088054,457.078537 L244.343567,456.500082 C244.364105,456.497795 244.384644,456.497795 244.4029,456.497795 C245.21531,456.497795 245.888515,457.140269 245.918182,457.961082 C245.950131,458.800185 245.297464,459.504392 244.459951,459.536401 L229.197592,460.114856 C229.181618,460.117143 229.161079,460.117143 229.142823,460.117143" id="Shape" fill="#000000"></path>
                        <path d="M83.5662077,187.405374 C83.5662077,187.405374 85.6132077,181.9935 90.8961564,184.670857 C93.3950026,185.937515 92.8450282,188.921247 91.6378231,191.516294 C90.4283359,194.111341 83.5616436,201.192275 83.5616436,201.192275 C83.5616436,201.192275 74.4676692,194.1182 73.4886692,190.059867 C72.5073872,186.00382 74.7552077,184.062679 78.0367974,183.8912 C81.3183872,183.717435 83.5662077,187.405374 83.5662077,187.405374" id="Shape" fill="#FF0E11"></path>
                        <path d="M203.313654,282.044792 C203.313654,282.044792 205.362936,276.637492 210.643603,279.314849 C213.142449,280.57922 212.592474,283.560666 211.385269,286.157999 C210.175782,288.753046 203.30909,295.831694 203.30909,295.831694 C203.30909,295.831694 194.215115,288.759905 193.236115,284.701572 C192.257115,280.647811 194.502654,278.704384 197.784244,278.530619 C201.063551,278.35914 203.313654,282.044792 203.313654,282.044792" id="Shape" fill="#FF0E11"></path>
                        <path d="M78.0662359,20.3463113 C78.0662359,20.3463113 80.1132359,14.9367244 85.3984667,17.6140812 C87.8950308,18.8807385 87.3450564,21.8621845 86.1378513,24.4572315 C84.9283641,27.0522784 78.0639538,34.1332127 78.0639538,34.1332127 C78.0639538,34.1332127 68.9699795,27.0591376 67.9909795,23.0030906 C67.0096974,18.9470437 69.2552359,17.0059028 72.5368256,16.8321376 C75.8184154,16.6583723 78.0662359,20.3463113 78.0662359,20.3463113" id="Shape" fill="#FF0E11"></path>
                    </g>
                </g>
                <g id="Element" transform="translate(0.000000, 73.000000)">
                    <g id="Group">
                        <mask id="mask-4" fill="white">
                            <use xlink:href="#path-3"></use>
                        </mask>
                        <g id="Shape"></g>
                        <path d="M149.62937,0.913962791 C168.677519,0.913962791 184.117025,16.3204744 184.117025,35.3279163 L184.117025,36.2828465 C184.117025,55.2880093 168.677519,70.6968 149.62937,70.6968 L34.486284,70.6968 C15.4404198,70.6968 -0.00137037037,55.2880093 -0.00137037037,36.2828465 L-0.00137037037,35.3279163 C-0.00137037037,16.3204744 15.4404198,0.913962791 34.486284,0.913962791 L149.62937,0.913962791 Z" id="Shape" fill="#FF0E11" mask="url(#mask-4)"></path>
                    </g>
                    <path d="M81.168179,20.356707 C86.2499691,22.9206605 85.1331173,28.9601953 82.6755864,34.2180093 C80.2157716,39.4735442 66.2539815,53.8157302 66.2539815,53.8157302 C66.2539815,53.8157302 47.7608333,39.4872186 45.7692284,31.2711721 C43.7776235,23.0551256 48.3432407,19.1237302 55.0169444,18.7727535 C61.6883642,18.4217767 66.2608333,25.8902884 66.2608333,25.8902884 C66.2608333,25.8902884 70.4290432,14.9325209 81.168179,20.356707 Z" id="Shape" fill="#FFFFFF"></path>
                    <path d="M106.401722,23.1695349 C107.408944,20.3731163 143.988698,22.2419535 143.988698,22.2419535 C143.988698,22.2419535 134.067216,52.4396279 126.210426,55.0947442 C122.186105,56.4553488 120.436599,36.6844186 120.436599,36.6844186 C120.436599,36.6844186 105.373944,26.0183721 106.401722,23.1695349" id="Shape" fill="#FFFFFF"></path>
                    <path d="M120.147679,38.0880977 C119.631506,38.0880977 119.126753,37.8237256 118.843543,37.3496791 C118.411877,36.629493 118.647123,35.6996326 119.368852,35.2711674 L141.858914,21.8679581 C142.57379,21.437214 143.51021,21.6742372 143.941877,22.3921442 C144.371259,23.1123302 144.136012,24.0421907 143.416568,24.4706558 L120.924222,37.8738651 C120.682123,38.0197256 120.412617,38.0880977 120.147679,38.0880977" id="Shape" fill="#FF0E11"></path>
                    <polygon id="Shape" fill="#FF0E11" points="62.8303395 59.7937302 97.2494753 96.3203814 130.028735 58.7020558"></polygon>
                </g>
            </g>
        </g>
    </g>
</svg>