<svg xmlns="http://www.w3.org/2000/svg" width="500" height="500" style="width:100%;height:100%"><defs><clipPath id="a"><path d="M0 0h500v500H0z"/></clipPath></defs><g clip-path="url(#a)"><g display="block"><path stroke-linecap="round" stroke-linejoin="round" stroke="#08A88A" stroke-width="12.6" d="M208.958 182.645s-65.408-8.192-111.046 37.446c48.443 1.256 66.506 19.319 66.506 19.319M305.191 278.878s8.192 65.407-37.446 111.045c-1.256-48.443-19.32-66.505-19.32-66.505M300.762 228.238c-11.627 11.627-30.478 11.627-42.105 0-11.627-11.627-11.627-30.478 0-42.105 11.627-11.627 30.478-11.627 42.105 0 11.627 11.627 11.627 30.478 0 42.105z" fill="none"/><path stroke-linecap="round" stroke-linejoin="round" stroke="#121331" stroke-width="12.6" d="M233.203 317.642c5.77 5.77 14.836 6.646 21.571 2.038 15.94-10.906 35.384-27.651 60.598-52.865 47.448-47.448 69.997-108.095 64.691-159.983-51.888-5.306-112.535 17.243-159.983 64.691-25.214 25.214-41.96 44.658-52.866 60.598-4.608 6.735-3.731 15.801 2.039 21.571l63.95 63.95zM231.612 318.644l-14.824 4.635a41.692 41.692 0 01-41.92-10.311s0 0 0 0a41.692 41.692 0 01-10.311-41.92l4.635-14.824" fill="none"/><path stroke-linecap="round" stroke-linejoin="round" stroke="#121331" stroke-width="12.6" d="M300.338 120.593s1.792 19.835 24.371 42.414c22.579 22.579 41.596 23.553 41.596 23.553" fill="none"/><path stroke-linecap="round" stroke-linejoin="round" stroke="#08A88A" stroke-width="12.6" d="M159.21 369.409c-11.262 11.262-40.165 19.774-62.811 22.028 3.264-23.656 10.765-51.55 22.027-62.812s29.522-11.262 40.784 0 11.262 29.522 0 40.784z" fill="none"/></g></g></svg>